<svg xmlns="http://www.w3.org/2000/svg" width="28.644" height="25.456" viewBox="0 0 28.644 25.456">
  <path id="Icon_awesome-edit" data-name="Icon awesome-edit" d="M20.021,4.139l4.486,4.486a.486.486,0,0,1,0,.686L13.645,20.172l-4.615.512a.967.967,0,0,1-1.069-1.069L8.474,15,19.334,4.139A.486.486,0,0,1,20.021,4.139ZM28.077,3,25.65.574a1.945,1.945,0,0,0-2.745,0l-1.76,1.76a.486.486,0,0,0,0,.686L25.63,7.506a.486.486,0,0,0,.686,0l1.76-1.76a1.945,1.945,0,0,0,0-2.745ZM19.1,17.218V22.28H3.183V6.367H14.61a.611.611,0,0,0,.423-.174L17.022,4.2A.6.6,0,0,0,16.6,3.185H2.387A2.388,2.388,0,0,0,0,5.572v17.5a2.388,2.388,0,0,0,2.387,2.387h17.5a2.388,2.388,0,0,0,2.387-2.387V15.229a.6.6,0,0,0-1.019-.423L19.27,16.8A.611.611,0,0,0,19.1,17.218Z" transform="translate(0 -0.007)" fill="#a11a2e"/>
</svg>
