<svg xmlns="http://www.w3.org/2000/svg" width="24.381" height="24.381" viewBox="0 0 24.381 24.381">
  <path id="Icon_awesome-check-circle" data-name="Icon awesome-check-circle" d="M24.943,12.753A12.19,12.19,0,1,1,12.753.563,12.19,12.19,0,0,1,24.943,12.753Zm-13.6,6.455,9.045-9.045a.786.786,0,0,0,0-1.112L19.275,7.939a.786.786,0,0,0-1.112,0l-7.376,7.376L7.343,11.871a.787.787,0,0,0-1.112,0L5.118,12.983a.786.786,0,0,0,0,1.112l5.112,5.112A.787.787,0,0,0,11.343,19.208Z" transform="translate(-0.563 -0.563)" fill="#a11a2e"/>
</svg>
