<svg xmlns="http://www.w3.org/2000/svg" width="92" height="75.818" viewBox="0 0 92 75.818">
  <g id="Group_84" data-name="Group 84" transform="translate(-739.5 -620.091)">
    <g id="Icon_feather-camera" data-name="Icon feather-camera" transform="translate(739.5 617.091)">
      <path id="Path_11" data-name="Path 11" d="M90.5,69.227a8.091,8.091,0,0,1-8.091,8.091H9.591A8.091,8.091,0,0,1,1.5,69.227v-44.5a8.091,8.091,0,0,1,8.091-8.091H25.773L33.864,4.5H58.136l8.091,12.136H82.409A8.091,8.091,0,0,1,90.5,24.727Z" fill="none" stroke="#707070" stroke-linecap="round" stroke-linejoin="round" stroke-width="3"/>
    </g>
    <g id="Icon_feather-plus-circle" data-name="Icon feather-plus-circle" transform="translate(761.398 636.899)">
      <path id="Path_2205" data-name="Path 2205" d="M43.2,23.1A20.1,20.1,0,1,1,23.1,3,20.1,20.1,0,0,1,43.2,23.1Z" transform="translate(0 0)" fill="none" stroke="#828282" stroke-linecap="round" stroke-linejoin="round" stroke-width="3"/>
      <path id="Path_2206" data-name="Path 2206" d="M18,12V28.08" transform="translate(5.101 3.06)" fill="none" stroke="#828282" stroke-linecap="round" stroke-linejoin="round" stroke-width="3"/>
      <path id="Path_2207" data-name="Path 2207" d="M12,18H28.08" transform="translate(3.06 5.101)" fill="none" stroke="#828282" stroke-linecap="round" stroke-linejoin="round" stroke-width="3"/>
    </g>
  </g>
</svg>
