<svg xmlns="http://www.w3.org/2000/svg" width="55.225" height="55.225" viewBox="0 0 55.225 55.225">
  <g id="Icon_ionic-ios-close-circle-outline" data-name="Icon ionic-ios-close-circle-outline" transform="translate(-3.375 -3.375)">
    <path id="Path_2209" data-name="Path 2209" d="M33.005,30.01l-7-7,7-7a2.121,2.121,0,0,0-3-3l-7,7-7-7a2.121,2.121,0,1,0-3,3l7,7-7,7a2.051,2.051,0,0,0,0,3,2.107,2.107,0,0,0,3,0l7-7,7,7a2.131,2.131,0,0,0,3,0A2.107,2.107,0,0,0,33.005,30.01Z" transform="translate(7.978 7.974)"/>
    <path id="Path_2210" data-name="Path 2210" d="M30.987,7.092a23.9,23.9,0,0,1,16.9,40.795,23.9,23.9,0,0,1-33.8-33.8,23.737,23.737,0,0,1,16.9-7m0-3.717A27.612,27.612,0,1,0,58.6,30.987,27.608,27.608,0,0,0,30.987,3.375Z" transform="translate(0 0)"/>
  </g>
</svg>
