<svg xmlns="http://www.w3.org/2000/svg" width="246.638" height="168.6" viewBox="0 0 246.638 168.6">
  <g id="computer" transform="translate(0 -81)">
    <path id="Path_2214" data-name="Path 2214" d="M421.3,111.83V95.451C421.3,87.618,414.462,81,406.367,81H351.451A14.468,14.468,0,0,0,337,95.451V111.83Z" transform="translate(-174.662)" fill="#a11a2e"/>
    <path id="Path_2215" data-name="Path 2215" d="M337,175V283.867a14.468,14.468,0,0,0,14.451,14.451h54.915c8.095,0,14.933-6.618,14.933-14.451V175Zm44.009,92.176A7.224,7.224,0,1,1,386,258.852a7.217,7.217,0,0,1-4.986,8.324Zm0-30.83A7.224,7.224,0,1,1,386,228.022a7.219,7.219,0,0,1-4.986,8.324Z" transform="translate(-174.662 -48.719)" fill="#a11a2e"/>
    <path id="Path_2216" data-name="Path 2216" d="M131.508,81H14.451A14.469,14.469,0,0,0,0,95.451v97.788a14.469,14.469,0,0,0,14.451,14.451H131.508a14.469,14.469,0,0,0,14.451-14.451V95.451A14.469,14.469,0,0,0,131.508,81Z" fill="#a11a2e"/>
    <path id="Path_2217" data-name="Path 2217" d="M141.3,387.006H125.4V374H80.122v13.006h-15.9a7.226,7.226,0,0,0,0,14.451H141.3a7.226,7.226,0,1,0,0-14.451Z" transform="translate(-29.542 -151.858)" fill="#a11a2e"/>
  </g>
</svg>
