<svg xmlns="http://www.w3.org/2000/svg" width="246.471" height="141.755" viewBox="0 0 246.471 141.755">
  <g id="Group_22" data-name="Group 22" transform="translate(-10.703 -10.049)">
    <path id="Path_742" data-name="Path 742" d="M260.754,10.049h32.334v0A17.079,17.079,0,0,1,308.246,18.8l16.111,29.024L302.88,59.75l-10.053,1.47L271.834,23.4h-11.08V10.049Z" transform="translate(-127.432 0)" fill="#d02027" fill-rule="evenodd"/>
    <path id="Path_745" data-name="Path 745" d="M197.395,133.564l5.611,2.973L184.165,172.1a3.185,3.185,0,0,1-4.292,1.319h0a3.184,3.184,0,0,1-1.319-4.292l18.841-35.562Z" transform="translate(-85.353 -62.946)" fill="#cd8c5d" fill-rule="evenodd"/>
    <path id="Path_746" data-name="Path 746" d="M145.316,94.122,163.8,82.42V100.9l-17.478,11.361-1.01-18.137Z" transform="translate(-68.602 -36.882)" fill="#e3d0c6" fill-rule="evenodd"/>
    <path id="Path_747" data-name="Path 747" d="M35.744,216.924H58.673V245H35.744V216.924Z" transform="translate(-12.761 -105.429)" fill="#fff685" fill-rule="evenodd"/>
    <path id="Path_748" data-name="Path 748" d="M167.015,209.375l22.206-41.913v64.563H173.927a17.585,17.585,0,0,1-8.6-15.123,16.035,16.035,0,0,1,1.687-7.527Z" transform="translate(-78.801 -80.222)" fill="#e5c6c6" fill-rule="evenodd"/>
    <path id="Path_749" data-name="Path 749" d="M111.922,196.448h20.765v32.8A10.413,10.413,0,0,1,122.3,239.632h0a10.413,10.413,0,0,1-10.383-10.383v-32.8Z" transform="translate(-51.584 -94.993)" fill="#cc1a6f" fill-rule="evenodd"/>
    <path id="Path_750" data-name="Path 750" d="M115.462,217.523h12.565v23.285a6.3,6.3,0,0,1-6.283,6.283h0a6.3,6.3,0,0,1-6.283-6.283V217.523Z" transform="translate(-53.388 -105.734)" fill="#ab225d" fill-rule="evenodd"/>
    <path id="Path_751" data-name="Path 751" d="M108.131,169.971H76.42v31.074A15.9,15.9,0,0,0,92.275,216.9h0a15.9,15.9,0,0,0,15.855-15.855V169.971Z" transform="translate(-33.491 -81.5)" fill="#f26522" fill-rule="evenodd"/>
    <path id="Path_753" data-name="Path 753" d="M75.895,35.608V34.8a.894.894,0,0,0,.168.336.769.769,0,0,0,.613.277.722.722,0,0,0,.508-.186.912.912,0,0,0,.257-.571l.5.071a1.307,1.307,0,0,1-.424.814,1.246,1.246,0,0,1-.84.294,1.366,1.366,0,0,1-.788-.222Zm0-1.906v-.821l.066-.039a1.469,1.469,0,0,1,.725-.184,1.256,1.256,0,0,1,.809.25,1.147,1.147,0,0,1,.4.712l-.5.076a.838.838,0,0,0-.254-.462.661.661,0,0,0-.439-.154.8.8,0,0,0-.635.279.882.882,0,0,0-.177.343Zm2.966,2.064H78.38v-4.2H78.9v1.5a1.022,1.022,0,0,1,.834-.408,1.283,1.283,0,0,1,.532.112,1.1,1.1,0,0,1,.413.318,1.533,1.533,0,0,1,.253.494,2.011,2.011,0,0,1,.092.617,1.733,1.733,0,0,1-.386,1.206,1.21,1.21,0,0,1-.928.426.97.97,0,0,1-.844-.447v.383Zm-.005-1.545A1.584,1.584,0,0,0,79,35.01a.736.736,0,0,0,1.242.1,1.332,1.332,0,0,0,.246-.874,1.355,1.355,0,0,0-.235-.878.72.72,0,0,0-.571-.284.739.739,0,0,0-.583.293,1.285,1.285,0,0,0-.246.848Zm4.781.43.5.071a1.309,1.309,0,0,1-.424.814,1.245,1.245,0,0,1-.84.294,1.3,1.3,0,0,1-1-.408,1.651,1.651,0,0,1-.379-1.167,2.121,2.121,0,0,1,.163-.861,1.129,1.129,0,0,1,.5-.552,1.47,1.47,0,0,1,.725-.184,1.256,1.256,0,0,1,.809.25,1.144,1.144,0,0,1,.4.712l-.5.076a.838.838,0,0,0-.255-.462.661.661,0,0,0-.44-.154.8.8,0,0,0-.635.279,1.326,1.326,0,0,0-.244.883,1.364,1.364,0,0,0,.235.89.767.767,0,0,0,.613.277.721.721,0,0,0,.507-.186.92.92,0,0,0,.258-.571Z" transform="translate(-33.223 -10.966)" fill="#808285"/>
    <path id="Path_754" data-name="Path 754" d="M180.77,46.525v-.453a1.109,1.109,0,0,1-.963.517,1.236,1.236,0,0,1-.5-.1.835.835,0,0,1-.346-.259.964.964,0,0,1-.158-.383,2.643,2.643,0,0,1-.031-.48V43.481h.516v1.684a3.061,3.061,0,0,0,.031.544.532.532,0,0,0,.206.318.632.632,0,0,0,.388.116.837.837,0,0,0,.433-.118.672.672,0,0,0,.288-.323,1.63,1.63,0,0,0,.084-.593V43.481h.516v3.044Zm1.273,0v-4.2h.517v1.511a1.139,1.139,0,0,1,.907-.42,1.227,1.227,0,0,1,.585.132.788.788,0,0,1,.355.368,1.716,1.716,0,0,1,.106.681v1.927H184V44.6a.8.8,0,0,0-.166-.562.617.617,0,0,0-.471-.176.828.828,0,0,0-.429.118.669.669,0,0,0-.286.322,1.486,1.486,0,0,0-.085.561v1.661Zm4.094,0-1.148-3.044h.552l.652,1.823q.105.295.2.613c.046-.16.109-.353.192-.579l.676-1.858h.456v.2l-1.078,2.848Z" transform="translate(-85.651 -16.449)" fill="#808285"/>
    <path id="Path_755" data-name="Path 755" d="M75.895,68.072v-.389a.987.987,0,0,0,.306-.11.8.8,0,0,0,.341-.354,1.228,1.228,0,0,0,.083-.513l0-.187a3.467,3.467,0,0,1-.734.178v-.43a4.033,4.033,0,0,0,.731-.152c0-.071,0-.116,0-.134a.566.566,0,0,0-.147-.443.863.863,0,0,0-.587-.174v-.428h.075a1.837,1.837,0,0,1,.636.093.725.725,0,0,1,.52.582,3.185,3.185,0,0,1,.025.474v.685a7.482,7.482,0,0,0,.032.908,1.172,1.172,0,0,0,.127.367h-.54a1.16,1.16,0,0,1-.1-.381,1.945,1.945,0,0,1-.553.345,1.454,1.454,0,0,1-.222.065Zm1.954.224.5.07a.479.479,0,0,0,.175.338.867.867,0,0,0,.525.143A.929.929,0,0,0,79.6,68.7a.705.705,0,0,0,.264-.4,3.284,3.284,0,0,0,.037-.66,1.061,1.061,0,0,1-.842.4,1.146,1.146,0,0,1-.971-.452,1.737,1.737,0,0,1-.344-1.084,2.024,2.024,0,0,1,.157-.8,1.262,1.262,0,0,1,.457-.568,1.232,1.232,0,0,1,.7-.2,1.086,1.086,0,0,1,.887.44V65h.476v2.628a2.484,2.484,0,0,1-.145,1.006,1.054,1.054,0,0,1-.458.468,1.577,1.577,0,0,1-.771.172,1.45,1.45,0,0,1-.878-.244.822.822,0,0,1-.324-.735Zm.423-1.826a1.311,1.311,0,0,0,.237.871.758.758,0,0,0,.6.275.766.766,0,0,0,.6-.273,1.276,1.276,0,0,0,.24-.857,1.24,1.24,0,0,0-.248-.84.766.766,0,0,0-.6-.283.749.749,0,0,0-.586.279,1.237,1.237,0,0,0-.24.828Zm3.409,1.573H81.2v-4.2h.516V66.09a1.85,1.85,0,0,0-.041.408,2.49,2.49,0,0,0,.041.488v.721c-.012-.016-.024-.032-.035-.048v.382Z" transform="translate(-33.223 -27.415)" fill="#808285"/>
    <path id="Path_756" data-name="Path 756" d="M75.895,78.8V76.02a.836.836,0,0,1,.158.348,2.966,2.966,0,0,1,.025.474v.685a7.475,7.475,0,0,0,.032.908,1.2,1.2,0,0,0,.126.368Zm2.941,0v-.386a.949.949,0,0,1-.851.45,1.186,1.186,0,0,1-.667-.2,1.32,1.32,0,0,1-.473-.558,1.93,1.93,0,0,1-.167-.825,2.175,2.175,0,0,1,.151-.825,1.2,1.2,0,0,1,.456-.566,1.211,1.211,0,0,1,.677-.2,1.008,1.008,0,0,1,.489.116,1.022,1.022,0,0,1,.349.3V74.6h.516v4.2Zm-1.631-1.518a1.31,1.31,0,0,0,.247.872.744.744,0,0,0,.583.288.733.733,0,0,0,.576-.276,1.273,1.273,0,0,0,.237-.841,1.416,1.416,0,0,0-.242-.914.742.742,0,0,0-.594-.292.717.717,0,0,0-.576.28,1.379,1.379,0,0,0-.23.883ZM80.13,75.2v-.6h.516v.6Zm-.653,4.777.095-.437a1.039,1.039,0,0,0,.245.04.275.275,0,0,0,.235-.1,1.057,1.057,0,0,0,.078-.523v-3.2h.516v3.207a1.493,1.493,0,0,1-.147.782.681.681,0,0,1-.618.287,1.471,1.471,0,0,1-.4-.055ZM81.435,78.8V74.6h.28v4.2Z" transform="translate(-33.223 -32.898)" fill="#808285"/>
    <path id="Path_757" data-name="Path 757" d="M75.895,89.426V88.7a.848.848,0,0,0,.134.218.746.746,0,0,0,.583.288.731.731,0,0,0,.575-.276,1.265,1.265,0,0,0,.237-.841,1.418,1.418,0,0,0-.241-.915.741.741,0,0,0-.594-.291.72.72,0,0,0-.576.28.816.816,0,0,0-.117.2v-.73a1.216,1.216,0,0,1,.643-.176,1.007,1.007,0,0,1,.489.117,1.03,1.03,0,0,1,.349.3V85.363h.516v4.2h-.481v-.386a.948.948,0,0,1-.851.45,1.184,1.184,0,0,1-.666-.2Zm2.814.135v-4.2h.516v1.511a1.14,1.14,0,0,1,.908-.421,1.22,1.22,0,0,1,.584.133.782.782,0,0,1,.355.368,1.705,1.705,0,0,1,.106.681v1.926h-.516V87.637a.8.8,0,0,0-.166-.562.618.618,0,0,0-.472-.177.827.827,0,0,0-.428.118.673.673,0,0,0-.287.323,1.491,1.491,0,0,0-.085.56v1.661Z" transform="translate(-33.223 -38.382)" fill="#808285"/>
    <path id="Path_758" data-name="Path 758" d="M75.895,100.04V97.554a1.093,1.093,0,0,1,.218-.157,1.471,1.471,0,0,1,.725-.185,1.26,1.26,0,0,1,.81.25,1.145,1.145,0,0,1,.4.712l-.5.076a.832.832,0,0,0-.254-.461.661.661,0,0,0-.44-.154.806.806,0,0,0-.635.279,1.326,1.326,0,0,0-.243.883,1.365,1.365,0,0,0,.234.889.768.768,0,0,0,.613.279.723.723,0,0,0,.508-.186.91.91,0,0,0,.257-.57l.505.07a1.3,1.3,0,0,1-.425.814,1.242,1.242,0,0,1-.84.294,1.31,1.31,0,0,1-.94-.346Zm2.644.281v-4.2h.516v1.511a1.139,1.139,0,0,1,.907-.42,1.227,1.227,0,0,1,.585.132.786.786,0,0,1,.355.368,1.707,1.707,0,0,1,.106.681v1.927h-.516V98.4a.8.8,0,0,0-.167-.562.615.615,0,0,0-.47-.176.825.825,0,0,0-.429.118.673.673,0,0,0-.286.323,1.493,1.493,0,0,0-.084.56v1.662Zm2.606,1.177.094-.437a1.058,1.058,0,0,0,.245.04.276.276,0,0,0,.231-.1v.539a1.129,1.129,0,0,1-.167.012,1.507,1.507,0,0,1-.4-.054Z" transform="translate(-33.223 -43.865)" fill="#808285"/>
    <path id="Path_759" data-name="Path 759" d="M80.173,109.282H78.5a1.346,1.346,0,0,1,.161-.069,2.036,2.036,0,0,1,.692-.108,1.825,1.825,0,0,1,.635.092,1.216,1.216,0,0,1,.182.085Zm-2.888,0H76.81v-.113h.475v.113Zm-.756,0h-.634v-.177h.027a1.07,1.07,0,0,1,.607.177Z" transform="translate(-33.223 -50.481)" fill="#808285"/>
    <path id="Path_760" data-name="Path 760" d="M28.5,127.945H57.467v33.8H28.5v-33.8Z" transform="translate(-9.069 -60.083)" fill="#fcd3c1" fill-rule="evenodd"/>
    <path id="Path_761" data-name="Path 761" d="M81.37,145.824l1.642-1.642-4.4-4.4a1.165,1.165,0,0,0-1.643,0h0a1.165,1.165,0,0,0,0,1.643l4.4,4.4Z" transform="translate(-33.601 -65.945)" fill="#fff" fill-rule="evenodd"/>
    <path id="Path_762" data-name="Path 762" d="M82.941,144.182l1.643,1.642,4.4-4.4a1.165,1.165,0,0,0,0-1.643h0a1.165,1.165,0,0,0-1.642,0l-4.4,4.4Z" transform="translate(-36.814 -65.945)" fill="#fff" fill-rule="evenodd"/>
    <path id="Path_763" data-name="Path 763" d="M81.37,163.05l1.642-1.642-4.4-4.4a1.166,1.166,0,0,0-1.643,0h0a1.165,1.165,0,0,0,0,1.643l4.4,4.4Z" transform="translate(-33.601 -74.723)" fill="#fff" fill-rule="evenodd"/>
    <path id="Path_764" data-name="Path 764" d="M82.941,161.408l1.643,1.642,4.4-4.4a1.165,1.165,0,0,0,0-1.643h0a1.166,1.166,0,0,0-1.642,0l-4.4,4.4Z" transform="translate(-36.814 -74.723)" fill="#fff" fill-rule="evenodd"/>
    <path id="Path_765" data-name="Path 765" d="M81.37,180.275l1.642-1.642-4.4-4.4a1.165,1.165,0,0,0-1.643,0h0a1.165,1.165,0,0,0,0,1.643l4.4,4.4Z" transform="translate(-33.601 -83.502)" fill="#fff" fill-rule="evenodd"/>
    <path id="Path_766" data-name="Path 766" d="M82.941,178.633l1.643,1.642,4.4-4.4a1.165,1.165,0,0,0,0-1.643h0a1.165,1.165,0,0,0-1.642,0l-4.4,4.4Z" transform="translate(-36.814 -83.502)" fill="#fff" fill-rule="evenodd"/>
    <path id="Path_767" data-name="Path 767" d="M74.64,73.986,37.725,63.747l-1.63,5.432L10.7,62.136V42.017a31.968,31.968,0,0,1,63.937,0V73.986ZM42.671,10.049Z" transform="translate(0 0)" fill-rule="evenodd"/>
    <path id="Path_768" data-name="Path 768" d="M32.762,68.811h19V46.686H35.933L32.762,68.811Z" transform="translate(-11.242 -18.671)" fill-rule="evenodd"/>
    <path id="Path_769" data-name="Path 769" d="M86.96,46.686H69.379V99.88A17.633,17.633,0,0,0,86.96,117.462h0A17.634,17.634,0,0,0,104.542,99.88V64.267A17.633,17.633,0,0,0,86.96,46.686Z" transform="translate(-29.903 -18.671)" fill-rule="evenodd"/>
    <path id="Path_770" data-name="Path 770" d="M32.762,112.58V86.89l25.612.092v20.789L32.762,112.58Z" transform="translate(-11.242 -39.16)" fill="#5dbd6c" fill-rule="evenodd"/>
    <path id="Path_771" data-name="Path 771" d="M32.762,86.889v28.347a9,9,0,0,0,8.978,8.977h0a9,9,0,0,0,8.977-8.977V89.807L32.762,86.889Z" transform="translate(-11.242 -39.16)" fill="#5dbd6c" fill-rule="evenodd"/>
    <path id="Path_772" data-name="Path 772" d="M69.222,66.493H49.77V56.412a9.726,9.726,0,0,1,19.452,0V66.493Z" transform="translate(-19.909 -18.671)" fill="#008143" fill-rule="evenodd"/>
    <path id="Path_773" data-name="Path 773" d="M97.125,60.143A13.686,13.686,0,0,0,69.85,61.762c0,.283.009.562.025.841h6.259v-2.46L77.6,67.227l15.3-7.439,4.227.355Z" transform="translate(-30.143 -19.38)" fill="#00a651" fill-rule="evenodd"/>
    <path id="Path_774" data-name="Path 774" d="M81.217,70.579h0a3.914,3.914,0,0,0-3.9-3.9h0a3.914,3.914,0,0,0-3.9,3.9h0v3.9l4.673,9.754v-.419H90.479V76.048H99.1V68.866a6.523,6.523,0,0,0-6.5-6.5h0a6.523,6.523,0,0,0-6.5,6.5v1.713ZM78.085,86.933l-2.737,1.631,2.737,8.553V86.933Z" transform="translate(-31.958 -26.66)" fill="#00a651" fill-rule="evenodd"/>
    <path id="Path_775" data-name="Path 775" d="M74.942,90.271l4.928,10.286-3.743,2.23L79.5,113.335h.223A11.566,11.566,0,0,0,91.258,101.8V90.271Z" transform="translate(-32.738 -40.883)" fill="#00a651" fill-rule="evenodd"/>
    <path id="Path_776" data-name="Path 776" d="M78.825,70.217h0a4.783,4.783,0,0,0-6.362-2.24h0a4.782,4.782,0,0,0-2.24,6.362l2.061,4.3,4.3-2.062a4.782,4.782,0,0,0,2.24-6.361Z" transform="translate(-30.096 -29.284)" fill="#00a651" fill-rule="evenodd"/>
    <path id="Path_777" data-name="Path 777" d="M49.688,71.031V69.644a.921.921,0,0,1,.918-.919h0a.922.922,0,0,1,.919.919v4.409L38.661,75.88V69.644a.922.922,0,0,1,.919-.919h0a.922.922,0,0,1,.919.919v1.387a.921.921,0,0,0,.918.918h0a.921.921,0,0,0,.919-.918V69.644a.922.922,0,0,1,.919-.919h0a.922.922,0,0,1,.918.919v1.389a.921.921,0,0,0,.919.916h0a.921.921,0,0,0,.918-.918V69.644a.922.922,0,0,1,.919-.919h0a.921.921,0,0,1,.918.919v1.387a.921.921,0,0,0,.919.918h0a.921.921,0,0,0,.919-.918Z" transform="translate(-14.248 -29.903)" fill="#d1d3d4" fill-rule="evenodd"/>
    <path id="Path_778" data-name="Path 778" d="M42.738,76.374a11.809,11.809,0,0,1,9.976,5.157,11.81,11.81,0,0,1-9.976,5.156,11.81,11.81,0,0,1-9.976-5.156,11.81,11.81,0,0,1,9.976-5.157Z" transform="translate(-11.242 -33.801)" fill="#fff" fill-rule="evenodd"/>
    <path id="Path_779" data-name="Path 779" d="M48.391,77.64a4.535,4.535,0,1,0,4.536,4.535,4.536,4.536,0,0,0-4.536-4.535Z" transform="translate(-16.896 -34.446)" fill="#a25641" fill-rule="evenodd"/>
    <path id="Path_780" data-name="Path 780" d="M51.9,84.516A1.164,1.164,0,1,0,53.06,85.68,1.164,1.164,0,0,0,51.9,84.516Z" transform="translate(-20.4 -37.95)" fill="#ca6c38" fill-rule="evenodd"/>
    <path id="Path_781" data-name="Path 781" d="M131.888,179.148v10.94a8.851,8.851,0,0,0-8.851-8.851v-2.089Z" transform="translate(-57.248 -86.177)" fill="#fff" fill-rule="evenodd"/>
    <path id="Path_782" data-name="Path 782" d="M104.63,159.056H92.661a1.475,1.475,0,0,0-1.471,1.471h0A1.477,1.477,0,0,0,92.661,162h23V141.4h-23a1.476,1.476,0,0,0-1.471,1.471h0a1.476,1.476,0,0,0,1.471,1.472H104.63a1.476,1.476,0,0,1,1.471,1.471h0a1.475,1.475,0,0,1-1.471,1.472H92.661a1.476,1.476,0,0,0-1.471,1.473h0a1.476,1.476,0,0,0,1.471,1.471h11.973A1.477,1.477,0,0,1,106.1,151.7h0a1.475,1.475,0,0,1-1.471,1.471H92.661a1.476,1.476,0,0,0-1.471,1.472h0a1.475,1.475,0,0,0,1.471,1.471H104.63a1.476,1.476,0,0,1,1.471,1.472h0a1.476,1.476,0,0,1-1.471,1.473Z" transform="translate(-41.018 -66.938)" fill="#fff" fill-rule="evenodd"/>
    <path id="Path_783" data-name="Path 783" d="M116.84,89.932a8.625,8.625,0,1,1,0-17.25v17.25Z" transform="translate(-49.694 -31.919)" fill-rule="evenodd"/>
    <path id="Path_784" data-name="Path 784" d="M72.836,131.747l-4.987-4.553,4.987-4.553c.026-.023.049-.046.074-.071a2.716,2.716,0,1,1,2.881,4.483,2.81,2.81,0,0,1-.481.141,2.682,2.682,0,0,1,.481.14,2.716,2.716,0,1,1-2.881,4.483c-.025-.024-.048-.047-.074-.07Z" transform="translate(-29.123 -56.957)" fill="#ed1c24" fill-rule="evenodd"/>
    <path id="Path_785" data-name="Path 785" d="M89.958,80.235a3.027,3.027,0,1,1-3.028,3.027,3.027,3.027,0,0,1,3.028-3.027Z" transform="translate(-38.847 -35.769)" fill-rule="evenodd"/>
    <path id="Path_786" data-name="Path 786" d="M81.591,64.985a10.55,10.55,0,0,1,9.478,3.5l-1,1.1a9.091,9.091,0,0,0-15.294,2.236l-1.268-.764a10.55,10.55,0,0,1,8.08-6.066Z" transform="translate(-32.008 -27.94)" fill="#e6e7e8" fill-rule="evenodd"/>
    <path id="Path_787" data-name="Path 787" d="M10.7,106.887H21.52v3.762h0v1.441a4.4,4.4,0,0,0,4.385,4.385h0a4.4,4.4,0,0,0,4.384-4.385h0a4.39,4.39,0,0,0-2.05-3.707,11.832,11.832,0,0,1,6.071,10.308h0a11.839,11.839,0,0,1-11.8,11.8h0a11.839,11.839,0,0,1-11.8-11.8v-11.8Z" transform="translate(0 -49.351)" fill-rule="evenodd"/>
    <path id="Path_788" data-name="Path 788" d="M13.35,130.107H10.7v-3.869a1.327,1.327,0,0,1,1.323-1.323h0a1.327,1.327,0,0,1,1.324,1.323v3.869Z" transform="translate(0 -58.539)" fill="#f6adcd" fill-rule="evenodd"/>
    <path id="Path_789" data-name="Path 789" d="M22.16,130.107H19.513v-3.869a1.327,1.327,0,0,1,1.324-1.323h0a1.327,1.327,0,0,1,1.324,1.323v3.869Z" transform="translate(-4.49 -58.539)" fill="#f6adcd" fill-rule="evenodd"/>
    <path id="Path_790" data-name="Path 790" d="M30.971,130.107H28.324v-3.869a1.327,1.327,0,0,1,1.323-1.323h0a1.327,1.327,0,0,1,1.324,1.323v3.869Z" transform="translate(-8.98 -58.539)" fill="#f198c1" fill-rule="evenodd"/>
    <path id="Path_791" data-name="Path 791" d="M10.7,135.5v22.252a25.613,25.613,0,0,0,25.538,25.538h6.688v-24.2H34.786a12.865,12.865,0,0,1-12.795-12.794V135.5Z" transform="translate(0 -63.934)" fill="#f6adcd" fill-rule="evenodd"/>
    <path id="Path_792" data-name="Path 792" d="M50.17,171.6v-12.51H42.026a12.865,12.865,0,0,1-12.794-12.794V135.5H24.911v13.549A22.614,22.614,0,0,0,47.458,171.6Z" transform="translate(-7.241 -63.934)" fill="#f198c1" fill-rule="evenodd"/>
    <path id="Path_793" data-name="Path 793" d="M88.523,195.7a12.1,12.1,0,0,0-12.1-12.1v24.2a12.1,12.1,0,0,0,12.1-12.1Z" transform="translate(-33.491 -88.446)" fill="#e8899a" fill-rule="evenodd"/>
    <path id="Path_794" data-name="Path 794" d="M62.9,201.387a6.633,6.633,0,1,1,6.633,6.633,6.633,6.633,0,0,1-6.633-6.633Z" transform="translate(-26.598 -94.13)" fill="#871719" fill-rule="evenodd"/>
    <path id="Path_795" data-name="Path 795" d="M76.16,208.649a6.633,6.633,0,0,1-13.26,0Z" transform="translate(-26.601 -101.211)" fill="#dd1e26" fill-rule="evenodd"/>
    <path id="Path_796" data-name="Path 796" d="M234.572,197.188l-60.054,26.017-.889,1.693a15.126,15.126,0,0,0,13.326,22.276h47.617V197.188Z" transform="translate(-82.116 -95.371)" fill="#631755" fill-rule="evenodd"/>
    <path id="Path_797" data-name="Path 797" d="M251.347,139.215H220.211l-15.452,54.446h23.294a23.362,23.362,0,0,0,23.294-23.293V139.215Z" transform="translate(-98.896 -65.826)" fill="#ed1c24" fill-rule="evenodd"/>
    <path id="Path_798" data-name="Path 798" d="M254.158,203.375q.21-.008.42-.02h-.42v.02Zm9.424-2.424q.759-.38,1.487-.813h-10.91v.813Zm4.826-3.217q.457-.394.895-.812H254.158v.812Zm3.084-3.216q.315-.4.614-.813H254.158v.813Zm2.141-3.217q.222-.4.428-.813h-19.9v.813Zm1.472-3.217q.148-.4.28-.812H254.158v.812Zm.923-3.217q.085-.4.154-.812H254.158v.812Zm.44-3.216q.027-.4.04-.813h-22.35v.813h22.31Zm.053-3.217v-.813H254.158v.813Zm0-3.217V174.4H254.158v.813Zm0-3.217v-.813H254.158V172Zm0-3.217v-.813H254.158v.813Zm0-3.218v-.812H254.158v.812Zm0-3.217v-.812H254.158v.812Zm0-3.217v-.813H254.158v.813Z" transform="translate(-124.07 -75.56)" fill="#f16c71" fill-rule="evenodd"/>
    <path id="Path_799" data-name="Path 799" d="M196.834,10.049H163.46a18.773,18.773,0,0,0-18.718,18.718h0A18.773,18.773,0,0,0,163.46,47.485h33.374V10.049Z" transform="translate(-68.309 0)" fill="#871719" fill-rule="evenodd"/>
    <path id="Path_800" data-name="Path 800" d="M145.961,39.952a18.8,18.8,0,0,0,17.586,14.025h.181L177.611,22.8l-31.65,17.148Z" transform="translate(-68.931 -6.5)" fill="#993738" fill-rule="evenodd"/>
    <path id="Path_801" data-name="Path 801" d="M214.956,171.209H177.308l40.321-76.051h19.734v14.867H214.956v61.184Z" transform="translate(-84.906 -43.373)" fill="#d900d9" fill-rule="evenodd"/>
    <path id="Path_802" data-name="Path 802" d="M236.923,178.278v30.656c-.078,0-.155,0-.233,0a15.331,15.331,0,0,1,0-30.662l.233,0Z" transform="translate(-107.355 -85.733)" fill="#ba00ba" fill-rule="evenodd"/>
    <path id="Path_803" data-name="Path 803" d="M245.382,90.163H226.794v33.679h18.588V90.163Z" transform="translate(-110.125 -40.828)" fill="#a3238e" fill-rule="evenodd"/>
    <path id="Path_804" data-name="Path 804" d="M226.794,102.662v32.454h9.294V102.662Z" transform="translate(-110.125 -47.198)" fill="#752168" fill-rule="evenodd"/>
    <path id="Path_805" data-name="Path 805" d="M239.916,142.085a13.122,13.122,0,1,0,13.121,13.122,13.122,13.122,0,0,0-13.121-13.122Z" transform="translate(-110.125 -67.289)" fill="#fff" fill-rule="evenodd"/>
    <path id="Path_806" data-name="Path 806" d="M246.445,154.9a6.839,6.839,0,1,0,6.839,6.839,6.839,6.839,0,0,0-6.839-6.839Z" transform="translate(-116.654 -73.819)" fill="#58595b" fill-rule="evenodd"/>
    <path id="Path_807" data-name="Path 807" d="M177.291,86.96h24.275v39.453a12.173,12.173,0,0,1-12.137,12.137h0a12.173,12.173,0,0,1-12.138-12.137V86.96Z" transform="translate(-84.897 -39.196)" fill="#90f" fill-rule="evenodd"/>
    <path id="Path_808" data-name="Path 808" d="M214.016,10.049a36.833,36.833,0,0,0-36.725,36.725V76.557h24.275V24.788h4.139V22.6h21.758L214.016,10.049Z" transform="translate(-84.897 0)" fill="#90f" fill-rule="evenodd"/>
    <path id="Path_809" data-name="Path 809" d="M199.581,54.142V59.88h1.241a14.015,14.015,0,0,0,12.728,8.23h0a14.01,14.01,0,0,0,13.968-13.968V42.273a16.811,16.811,0,1,0-21.5-23.426h0l-14.271,25.07h7.84V54.142Z" transform="translate(-92.261 -0.005)" fill="#f0f" fill-rule="evenodd"/>
    <path id="Path_810" data-name="Path 810" d="M199.581,66.64v5.738h1.241a14.015,14.015,0,0,0,12.728,8.23h0a13.862,13.862,0,0,0,4.192-.647V50.956a16.727,16.727,0,0,0-13.573-16.373L191.741,56.415h7.84V66.64Z" transform="translate(-92.261 -12.503)" fill="#d900d9" fill-rule="evenodd"/>
    <path id="Path_811" data-name="Path 811" d="M207.729,96.267h3.758v2.5h-3.758v-2.5Z" transform="translate(-100.409 -43.939)" fill="#90f" fill-rule="evenodd"/>
    <path id="Path_812" data-name="Path 812" d="M207.759,84.722V90.9h2.763a.66.66,0,0,1,.659.659h0a.66.66,0,0,1-.659.659h-2.763V98.4a6.84,6.84,0,1,0,0-13.68Z" transform="translate(-100.424 -38.055)" fill="#ffcb05" fill-rule="evenodd"/>
    <path id="Path_813" data-name="Path 813" d="M205.806,90.9a3.5,3.5,0,0,1,.015-6.181V90.9Z" transform="translate(-98.486 -38.055)" fill="#ffcb05" fill-rule="evenodd"/>
    <path id="Path_814" data-name="Path 814" d="M205.821,106.2a3.5,3.5,0,0,1,0-6.19v6.19Z" transform="translate(-98.486 -45.848)" fill="#ffcb05" fill-rule="evenodd"/>
    <path id="Path_815" data-name="Path 815" d="M215.685,42.745h0a3,3,0,0,0-4.08,1.093l-3.477,6.022a3,3,0,0,0,1.094,4.079h0a2.994,2.994,0,0,0,4.079-1.093l3.478-6.022a3,3,0,0,0-1.094-4.079Z" transform="translate(-100.41 -16.46)" fill="#231f20" fill-rule="evenodd"/>
    <path id="Path_816" data-name="Path 816" d="M210.3,51.962l-1.479,2.561h6.9l1.479-2.561Z" transform="translate(-100.966 -21.36)" fill="#e6e7e8" fill-rule="evenodd"/>
    <path id="Path_817" data-name="Path 817" d="M205.891,51.962H193.224v2.561h12.667V51.962Z" transform="translate(-93.017 -21.36)" fill="#e6e7e8" fill-rule="evenodd"/>
    <path id="Path_818" data-name="Path 818" d="M249.194,119.107a14.624,14.624,0,0,1-3.466-9.454v-37.5h-.965v37.5a15.593,15.593,0,0,0,3.693,10.076l.311.369.738-.622-.311-.369Z" transform="translate(-119.283 -31.652)" fill="#cce7d3" fill-rule="evenodd"/>
    <path id="Path_819" data-name="Path 819" d="M251.964,165.728a1.528,1.528,0,1,0,1.529,1.528,1.529,1.529,0,0,0-1.529-1.528Z" transform="translate(-122.173 -79.338)" fill="#fff" fill-rule="evenodd"/>
    <path id="Path_820" data-name="Path 820" d="M253.653,76.34h0a.393.393,0,0,1-.391-.392v-4.2a.392.392,0,0,1,.391-.391h0a.393.393,0,0,1,.391.391v4.2a.393.393,0,0,1-.391.392Z" transform="translate(-123.613 -31.245)" fill="#fff" fill-rule="evenodd"/>
    <path id="Path_821" data-name="Path 821" d="M249.589,76.34h0a.393.393,0,0,1-.392-.392v-4.2a.392.392,0,0,1,.392-.391h0a.392.392,0,0,1,.391.391v4.2a.392.392,0,0,1-.391.392Z" transform="translate(-121.542 -31.245)" fill="#fff" fill-rule="evenodd"/>
    <path id="Path_822" data-name="Path 822" d="M245.525,76.34h0a.392.392,0,0,1-.391-.392v-4.2a.392.392,0,0,1,.391-.391h0a.392.392,0,0,1,.391.391v4.2a.392.392,0,0,1-.391.392Z" transform="translate(-119.472 -31.245)" fill="#fff" fill-rule="evenodd"/>
    <path id="Path_823" data-name="Path 823" d="M241.462,76.34h0a.393.393,0,0,1-.391-.392v-4.2a.393.393,0,0,1,.391-.391h0a.392.392,0,0,1,.391.391v4.2a.392.392,0,0,1-.391.392Z" transform="translate(-117.401 -31.245)" fill="#fff" fill-rule="evenodd"/>
    <path id="Path_824" data-name="Path 824" d="M237.4,76.34h0a.393.393,0,0,1-.392-.392v-4.2a.392.392,0,0,1,.392-.391h0a.392.392,0,0,1,.391.391v4.2a.392.392,0,0,1-.391.392Z" transform="translate(-115.329 -31.245)" fill="#fff" fill-rule="evenodd"/>
    <path id="Path_825" data-name="Path 825" d="M238.716,67.6h-6.4a8.1,8.1,0,0,1-6.823-3.761,8.1,8.1,0,0,1,6.823-3.762h6.4a8.1,8.1,0,0,1,6.823,3.762,8.1,8.1,0,0,1-6.823,3.761Z" transform="translate(-109.462 -25.496)" fill="#fff" fill-rule="evenodd"/>
    <path id="Path_826" data-name="Path 826" d="M233.839,60.556a8.009,8.009,0,0,1,2.73-.478h6.4a8.009,8.009,0,0,1,2.73.478,5.949,5.949,0,0,1-11.86,0Z" transform="translate(-113.715 -25.496)" fill="#231f20" fill-rule="evenodd"/>
    <path id="Path_827" data-name="Path 827" d="M240.055,60.078h5.764a2.882,2.882,0,1,1-5.764,0Z" transform="translate(-116.883 -25.496)" fill="#d1d3d4" fill-rule="evenodd"/>
    <path id="Path_828" data-name="Path 828" d="M253.1,234.193h.965v23.842H253.1V234.193Z" transform="translate(-123.53 -114.229)" fill="#e6e7e8" fill-rule="evenodd"/>
    <path id="Path_829" data-name="Path 829" d="M258.6,271.584a5.507,5.507,0,1,1-5.506,5.507,5.507,5.507,0,0,1,5.506-5.507Z" transform="translate(-123.53 -133.285)" fill="#fff" fill-rule="evenodd"/>
    <path id="Path_830" data-name="Path 830" d="M261.39,277.052a2.826,2.826,0,1,1-2.826,2.826,2.826,2.826,0,0,1,2.826-2.826Z" transform="translate(-126.316 -136.071)" fill="#bf3f56" fill-rule="evenodd"/>
    <path id="Path_831" data-name="Path 831" d="M192.149,48l-4.179-4.179a1.285,1.285,0,0,0-1.811,0h0a1.285,1.285,0,0,0,0,1.811l4.179,4.178a1.283,1.283,0,0,0,1.811,0h0a1.284,1.284,0,0,0,0-1.81Z" transform="translate(-89.226 -17.018)" fill="#e6e7e8" fill-rule="evenodd"/>
    <path id="Path_832" data-name="Path 832" d="M190.338,52.339l-4.179,4.18a1.283,1.283,0,0,0,0,1.81h0a1.284,1.284,0,0,0,1.811,0l4.179-4.179a1.284,1.284,0,0,0,0-1.81h0a1.285,1.285,0,0,0-1.811,0Z" transform="translate(-89.226 -21.362)" fill="#e6e7e8" fill-rule="evenodd"/>
    <path id="Path_833" data-name="Path 833" d="M189.128,239.217,177,239.506l5.782-10.9a7.205,7.205,0,0,0,6.348,10.611Z" transform="translate(-84.748 -111.382)" fill="#631755" fill-rule="evenodd"/>
    <path id="Path_834" data-name="Path 834" d="M235.317,51.544h0a.724.724,0,0,0,.2,1l2.643,1.762a.724.724,0,0,0,1-.2h0a.724.724,0,0,0-.2-1l-2.643-1.763a.724.724,0,0,0-1,.2Z" transform="translate(-114.407 -20.983)" fill="#fff" fill-rule="evenodd"/>
    <path id="Path_835" data-name="Path 835" d="M242.353,44.558h0a.724.724,0,0,0-.225,1l1.7,2.685a.725.725,0,0,0,1,.225h0a.724.724,0,0,0,.225-1l-1.7-2.685a.724.724,0,0,0-1-.225Z" transform="translate(-117.883 -17.53)" fill="#fff" fill-rule="evenodd"/>
    <path id="Path_836" data-name="Path 836" d="M251.622,41.037h0a.725.725,0,0,0-.611.819L251.47,45a.724.724,0,0,0,.818.611h0a.725.725,0,0,0,.611-.819l-.458-3.144a.724.724,0,0,0-.818-.611Z" transform="translate(-122.463 -15.789)" fill="#fff" fill-rule="evenodd"/>
    <path id="Path_837" data-name="Path 837" d="M260.628,41.593h0a.724.724,0,0,0-.891.5l-.86,3.058a.723.723,0,0,0,.5.89h0a.723.723,0,0,0,.891-.5l.86-3.057a.724.724,0,0,0-.5-.891Z" transform="translate(-126.462 -16.062)" fill="#fff" fill-rule="evenodd"/>
    <path id="Path_838" data-name="Path 838" d="M268.232,46.127h0a.725.725,0,0,0-1.017.094l-2.029,2.445a.724.724,0,0,0,.094,1.017h0a.724.724,0,0,0,1.017-.094l2.03-2.444a.725.725,0,0,0-.094-1.017Z" transform="translate(-129.606 -18.302)" fill="#fff" fill-rule="evenodd"/>
    <path id="Path_839" data-name="Path 839" d="M273.592,53.856h0a.723.723,0,0,0-.967-.327l-2.849,1.407a.725.725,0,0,0-.328.967h0a.724.724,0,0,0,.967.328l2.849-1.407a.724.724,0,0,0,.328-.967Z" transform="translate(-131.825 -22.12)" fill="#fff" fill-rule="evenodd"/>
    <path id="Path_840" data-name="Path 840" d="M233.583,221.482h-.965v24.569h.965V221.482Z" transform="translate(-113.093 -107.752)" fill="#e6e7e8" fill-rule="evenodd"/>
    <path id="Path_841" data-name="Path 841" d="M239.916,182.78A13.122,13.122,0,1,0,253.037,195.9a13.122,13.122,0,0,0-13.121-13.122Z" transform="translate(-110.125 -88.028)" fill="#f0a0ac" fill-rule="evenodd"/>
    <path id="Path_842" data-name="Path 842" d="M246.445,195.592a6.84,6.84,0,1,0,6.839,6.839,6.839,6.839,0,0,0-6.839-6.839Z" transform="translate(-116.654 -94.557)" fill-rule="evenodd"/>
    <path id="Path_843" data-name="Path 843" d="M236.176,185.924a13.12,13.12,0,0,0,17.043,0,13.119,13.119,0,0,0-17.043,0Z" transform="translate(-114.906 -88.028)" fill="#e6e7e8" fill-rule="evenodd"/>
    <path id="Path_844" data-name="Path 844" d="M253.147,182.783l.2,0,.2,0-.2,0-.2,0Z" transform="translate(-123.555 -88.028)" fill="#e6e7e8" fill-rule="evenodd"/>
    <path id="Path_845" data-name="Path 845" d="M253.147,195.6l.2,0,.2,0c-.066,0-.132,0-.2,0s-.133,0-.2,0Z" transform="translate(-123.555 -94.557)" fill="#e6e7e8" fill-rule="evenodd"/>
    <path id="Path_846" data-name="Path 846" d="M250.339,203.232a3.1,3.1,0,0,0-.987.161l3.032,5.251a3.093,3.093,0,0,0-2.046-5.412Zm-2.046.774a3.093,3.093,0,0,0,3.032,5.251l-3.032-5.251Z" transform="translate(-120.548 -98.451)" fill="#fff" fill-rule="evenodd"/>
    <path id="Path_847" data-name="Path 847" d="M199.4,219.979l-2.391,4.509,5.658.111-3.266-4.62Z" transform="translate(-94.947 -106.985)" fill="#fff200" fill-rule="evenodd"/>
    <path id="Path_848" data-name="Path 848" d="M204.278,210.782l-2.391,4.51,5.658.111-3.267-4.621Z" transform="translate(-97.432 -102.299)" fill="#fff200" fill-rule="evenodd"/>
    <path id="Path_849" data-name="Path 849" d="M209.154,201.586l-2.391,4.51,5.658.111-3.267-4.621Z" transform="translate(-99.917 -97.612)" fill="#fff200" fill-rule="evenodd"/>
    <path id="Path_850" data-name="Path 850" d="M194.527,229.174l-2.391,4.509,5.658.112-3.267-4.621Z" transform="translate(-92.463 -111.671)" fill="#fff200" fill-rule="evenodd"/>
    <path id="Path_851" data-name="Path 851" d="M141.085,144.722c7.125,0,12.953,3.684,12.953,8.188v32.884H141.085V144.722Z" transform="translate(-66.446 -68.633)" fill="#fff" fill-rule="evenodd"/>
    <path id="Path_852" data-name="Path 852" d="M147.562,228.224a6.476,6.476,0,1,1,6.476-6.476,6.476,6.476,0,0,1-6.476,6.476Z" transform="translate(-66.446 -104.587)" fill="#bcbdc0" fill-rule="evenodd"/>
    <path id="Path_853" data-name="Path 853" d="M141.085,127.872h7.526V109.225a3.774,3.774,0,0,0-3.763-3.763h0a3.774,3.774,0,0,0-3.763,3.763v18.648Z" transform="translate(-66.446 -48.625)" fill="#fff" fill-rule="evenodd"/>
    <path id="Path_854" data-name="Path 854" d="M169.3,114.666a14.026,14.026,0,1,0,0,28.052h5.619a2.6,2.6,0,0,0,2.59-2.589h0a2.6,2.6,0,0,0-2.59-2.59H170.1a1.226,1.226,0,0,1-1.223-1.223h0a1.226,1.226,0,0,1,1.223-1.222h4.819a2.6,2.6,0,0,0,2.59-2.59h0a2.6,2.6,0,0,0-2.59-2.59H170.1a1.226,1.226,0,0,1-1.223-1.222h0a1.226,1.226,0,0,1,1.223-1.223h4.819a2.6,2.6,0,0,0,2.59-2.589h0a2.6,2.6,0,0,0-2.59-2.589H170.1a1.226,1.226,0,0,1-1.223-1.223h0a1.227,1.227,0,0,1,1.223-1.223h4.819a2.6,2.6,0,0,0,2.59-2.59h0a2.6,2.6,0,0,0-2.59-2.589Z" transform="translate(-73.678 -53.315)" fill="#f6adcd" fill-rule="evenodd"/>
    <path id="Path_855" data-name="Path 855" d="M191.317,117.025h-2.3a1.436,1.436,0,0,0-1.432,1.432h0a1.436,1.436,0,0,0,1.432,1.432h2.3a1.436,1.436,0,0,0,1.432-1.432h0a1.436,1.436,0,0,0-1.432-1.432Z" transform="translate(-90.145 -54.518)" fill="#fff" fill-rule="evenodd"/>
    <path id="Path_856" data-name="Path 856" d="M191.317,132.574h-2.3a1.436,1.436,0,0,0-1.432,1.432h0a1.436,1.436,0,0,0,1.432,1.432h2.3a1.436,1.436,0,0,0,1.432-1.432h0a1.436,1.436,0,0,0-1.432-1.432Z" transform="translate(-90.145 -62.442)" fill="#fff" fill-rule="evenodd"/>
    <path id="Path_857" data-name="Path 857" d="M191.317,148.122h-2.3a1.436,1.436,0,0,0-1.432,1.432h0a1.436,1.436,0,0,0,1.432,1.432h2.3a1.436,1.436,0,0,0,1.432-1.432h0a1.437,1.437,0,0,0-1.432-1.432Z" transform="translate(-90.145 -70.365)" fill="#fff" fill-rule="evenodd"/>
    <path id="Path_858" data-name="Path 858" d="M191.317,163.67h-2.3a1.437,1.437,0,0,0-1.432,1.433h0a1.437,1.437,0,0,0,1.432,1.432h2.3a1.437,1.437,0,0,0,1.432-1.432h0a1.437,1.437,0,0,0-1.432-1.433Z" transform="translate(-90.145 -78.289)" fill="#fff" fill-rule="evenodd"/>
    <path id="Path_859" data-name="Path 859" d="M139.014,137.566H128.325v-2.672a6.258,6.258,0,0,0,6.257-6.259h4.432v8.931Z" transform="translate(-59.943 -60.434)" fill="#fff" fill-rule="evenodd"/>
    <path id="Path_860" data-name="Path 860" d="M112.037,189.516V226.3a8.7,8.7,0,0,0,17.394,0V208.219h3.295V226.3a11.992,11.992,0,0,1-23.984,0V190.166a17.409,17.409,0,0,0,3.3-.65Z" transform="translate(-49.963 -91.461)" fill="#edbda8" fill-rule="evenodd"/>
    <path id="Path_861" data-name="Path 861" d="M151.065,228.357a3.105,3.105,0,1,1,3.105-3.106,3.106,3.106,0,0,1-3.105,3.106Z" transform="translate(-69.949 -108.09)" fill="#993738" fill-rule="evenodd"/>
    <path id="Path_862" data-name="Path 862" d="M100.8,99.736,100.794,86.4H99.588L99.6,99.718a3.841,3.841,0,0,1-1.661,3.058,3.579,3.579,0,0,1-2.005.642A3.436,3.436,0,0,1,92.5,99.807a2.377,2.377,0,0,1,1.021-1.888,2.188,2.188,0,0,1,1.224-.392,2.091,2.091,0,0,1,2.086,2.2.866.866,0,0,1-.824.846.744.744,0,0,1-.739-.791l.016-.6h0a.632.632,0,0,0-.019-.167.6.6,0,0,0-1.184.136h0l-.016.6a1.949,1.949,0,0,0,1.955,2.028,2.081,2.081,0,0,0,2.018-2.02,3.3,3.3,0,0,0-3.3-3.438,3.391,3.391,0,0,0-1.9.605,3.581,3.581,0,0,0-1.542,2.849,4.642,4.642,0,0,0,4.648,4.847,4.783,4.783,0,0,0,2.679-.855,5.071,5.071,0,0,0,2.182-4.032Z" transform="translate(-41.069 -38.91)" fill="#bcbdc0" fill-rule="evenodd"/>
    <path id="Path_863" data-name="Path 863" d="M108.216,93.084l0-4.734h1.205l0,4.715a3.84,3.84,0,0,0,1.662,3.058,3.57,3.57,0,0,0,2,.642,3.435,3.435,0,0,0,3.433-3.611,2.376,2.376,0,0,0-1.022-1.887,2.184,2.184,0,0,0-1.224-.392,2.091,2.091,0,0,0-2.086,2.2.865.865,0,0,0,.824.846.743.743,0,0,0,.739-.79l-.016-.6h0a.61.61,0,0,1,.02-.167.6.6,0,0,1,1.184.136h0l.015.6A1.95,1.95,0,0,1,113,95.129a2.082,2.082,0,0,1-2.019-2.021,3.3,3.3,0,0,1,3.3-3.438,3.392,3.392,0,0,1,1.9.606,3.581,3.581,0,0,1,1.542,2.848,4.641,4.641,0,0,1-4.648,4.847,4.779,4.779,0,0,1-2.679-.855,5.07,5.07,0,0,1-2.182-4.032Z" transform="translate(-49.693 -39.904)" fill="#bcbdc0" fill-rule="evenodd"/>
    <path id="Path_864" data-name="Path 864" d="M16.1,135.133h1.674v.838a.839.839,0,0,1-.837.837h0a.839.839,0,0,1-.837-.837v-.838Z" transform="translate(-2.75 -63.746)" fill-rule="evenodd"/>
    <path id="Path_865" data-name="Path 865" d="M24.911,135.133h1.674v.838a.84.84,0,0,1-.838.837h0a.839.839,0,0,1-.837-.837v-.838Z" transform="translate(-7.241 -63.746)" fill-rule="evenodd"/>
    <path id="Path_866" data-name="Path 866" d="M122.471,144.112a3.349,3.349,0,0,1,.449,5.59,6.029,6.029,0,0,1,4.832,5.891v11.514q-.2-.013-.412-.013t-.411.013V155.593a5.2,5.2,0,0,0-5.184-5.183H101.406v-.824h19.458a2.532,2.532,0,0,0,.044-5.063h-19.5V143.7h19.5a2.532,2.532,0,0,0-.044-5.063H101.406v-.823h19.458a2.532,2.532,0,1,0,0-5.063H101.406v-.823h17.626a5.2,5.2,0,0,0,5.183-5.184v-6.007h.824v6.007a6.021,6.021,0,0,1-3.227,5.321,3.353,3.353,0,0,1,.658,6.162,3.351,3.351,0,0,1,0,5.886Z" transform="translate(-46.224 -56.409)" fill="#e6e7e8" fill-rule="evenodd"/>
    <path id="Path_867" data-name="Path 867" d="M146.024,107.723h0a2.639,2.639,0,0,1,2.631,2.631v1.531a2.638,2.638,0,0,1-2.631,2.631h0a2.639,2.639,0,0,1-2.631-2.631v-1.531a2.639,2.639,0,0,1,2.631-2.631Z" transform="translate(-67.622 -49.777)" fill="#ed1c24" fill-rule="evenodd"/>
    <path id="Path_868" data-name="Path 868" d="M92.45,143.4h0a.964.964,0,0,0,.962.962h2.881a.964.964,0,0,0,.962-.962h0a.964.964,0,0,0-.962-.962H93.412a.964.964,0,0,0-.962.962Z" transform="translate(-41.66 -67.468)" fill="#ed1c24" fill-rule="evenodd"/>
    <path id="Path_869" data-name="Path 869" d="M92.45,155.4h0a.964.964,0,0,0,.962.961h2.881a.964.964,0,0,0,.962-.961h0a.965.965,0,0,0-.962-.962H93.412a.965.965,0,0,0-.962.962Z" transform="translate(-41.66 -73.585)" fill="#ed1c24" fill-rule="evenodd"/>
    <path id="Path_870" data-name="Path 870" d="M92.45,167.405h0a.964.964,0,0,0,.962.961h2.881a.964.964,0,0,0,.962-.961h0a.965.965,0,0,0-.962-.962H93.412a.965.965,0,0,0-.962.962Z" transform="translate(-41.66 -79.702)" fill="#ed1c24" fill-rule="evenodd"/>
    <path id="Path_871" data-name="Path 871" d="M92.45,179.408h0a.965.965,0,0,0,.962.962h2.881a.965.965,0,0,0,.962-.962h0a.965.965,0,0,0-.962-.962H93.412a.965.965,0,0,0-.962.962Z" transform="translate(-41.66 -85.819)" fill="#ed1c24" fill-rule="evenodd"/>
    <path id="Path_872" data-name="Path 872" d="M76.42,194.754a6.633,6.633,0,1,1,0,13.266V194.754Z" transform="translate(-33.491 -94.13)" fill="#ad0600" fill-rule="evenodd"/>
    <path id="Path_873" data-name="Path 873" d="M85.19,208.649a8.773,8.773,0,0,1-8.77,8.534v-8.534Z" transform="translate(-33.491 -101.211)" fill="#fcd3c1" fill-rule="evenodd"/>
    <path id="Path_874" data-name="Path 874" d="M85.19,208.649a8.747,8.747,0,0,1-2.688,6.083l-6.082-6.083Z" transform="translate(-33.491 -101.211)" fill="#edbda8" fill-rule="evenodd"/>
    <path id="Path_875" data-name="Path 875" d="M203.425,271.585h15.28v13.5h-15.28v-13.5Z" transform="translate(-98.216 -133.285)" fill="#862c76" fill-rule="evenodd"/>
    <path id="Path_876" data-name="Path 876" d="M211.065,256.005a7.64,7.64,0,1,0,7.641,7.64,7.64,7.64,0,0,0-7.641-7.64Z" transform="translate(-98.216 -125.345)" fill="#ffb0d8" fill-rule="evenodd"/>
    <path id="Path_877" data-name="Path 877" d="M214.931,263.59a3.921,3.921,0,1,0,3.921,3.921,3.921,3.921,0,0,0-3.921-3.921Z" transform="translate(-102.081 -129.211)" fill="#a65562" fill-rule="evenodd"/>
    <path id="Path_878" data-name="Path 878" d="M26.112,74.466a1.821,1.821,0,1,1-1.223,2.267,1.821,1.821,0,0,1,1.223-2.267Z" transform="translate(-7.19 -32.79)" fill="#fcd3c1" fill-rule="evenodd"/>
    <path id="Path_879" data-name="Path 879" d="M24.189,59.01a1.821,1.821,0,1,1-1.223,2.266,1.821,1.821,0,0,1,1.223-2.266Z" transform="translate(-6.211 -24.913)" fill="#fcd3c1" fill-rule="evenodd"/>
    <path id="Path_880" data-name="Path 880" d="M28.333,44.431A1.821,1.821,0,1,1,27.11,46.7a1.822,1.822,0,0,1,1.223-2.266Z" transform="translate(-8.322 -17.483)" fill="#fcd3c1" fill-rule="evenodd"/>
    <path id="Path_881" data-name="Path 881" d="M37.864,32.44a1.821,1.821,0,1,1-1.223,2.266,1.82,1.82,0,0,1,1.223-2.266Z" transform="translate(-13.179 -11.372)" fill="#fcd3c1" fill-rule="evenodd"/>
    <path id="Path_882" data-name="Path 882" d="M51.4,25.07a1.82,1.82,0,1,1-1.223,2.266A1.821,1.821,0,0,1,51.4,25.07Z" transform="translate(-20.076 -7.616)" fill="#fcd3c1" fill-rule="evenodd"/>
    <path id="Path_883" data-name="Path 883" d="M66.816,23.547a1.821,1.821,0,1,1-1.223,2.267,1.822,1.822,0,0,1,1.223-2.267Z" transform="translate(-27.934 -6.84)" fill="#fcd3c1" fill-rule="evenodd"/>
    <path id="Path_884" data-name="Path 884" d="M81.63,28.232A1.821,1.821,0,1,1,80.406,30.5a1.821,1.821,0,0,1,1.223-2.266Z" transform="translate(-35.483 -9.228)" fill="#fcd3c1" fill-rule="evenodd"/>
    <path id="Path_885" data-name="Path 885" d="M93.378,38.285a1.821,1.821,0,1,1-1.223,2.266,1.821,1.821,0,0,1,1.223-2.266Z" transform="translate(-41.471 -14.351)" fill="#fcd3c1" fill-rule="evenodd"/>
    <path id="Path_886" data-name="Path 886" d="M63.872,241.236a4.909,4.909,0,0,1-.847,7.473,4.912,4.912,0,0,1,0,8.187,4.911,4.911,0,0,1,1.543,6.541H10.7V245.066a13.164,13.164,0,0,1,21.421.049,3.927,3.927,0,0,0,3.212,1.7,3.885,3.885,0,0,0,3.877-3.632c.009-.148.008-.3.008-.445v-1.655A12.01,12.01,0,0,1,51.2,229.1H62.717a6.124,6.124,0,0,1,1.155,12.137Z" transform="translate(0 -111.633)" fill="#e5c6c6" fill-rule="evenodd"/>
    <path id="Path_887" data-name="Path 887" d="M114.292,239.128h0a2.372,2.372,0,0,1-2.365,2.365h-1.81a2.372,2.372,0,0,1-2.366-2.365h0a2.373,2.373,0,0,1,2.366-2.365h1.81a2.372,2.372,0,0,1,2.365,2.365Z" transform="translate(-49.458 -115.539)" fill="#fff" fill-rule="evenodd"/>
    <path id="Path_888" data-name="Path 888" d="M110.853,259.086h0a1.6,1.6,0,0,1-1.592,1.592h-.5a1.6,1.6,0,0,1-1.592-1.592h0a1.6,1.6,0,0,1,1.592-1.591h.5a1.6,1.6,0,0,1,1.592,1.591Z" transform="translate(-49.163 -126.104)" fill="#fff" fill-rule="evenodd"/>
    <path id="Path_889" data-name="Path 889" d="M110.853,275.784h0a1.6,1.6,0,0,1-1.592,1.59h-.5a1.6,1.6,0,0,1-1.592-1.59h0a1.6,1.6,0,0,1,1.592-1.592h.5a1.6,1.6,0,0,1,1.592,1.592Z" transform="translate(-49.163 -134.614)" fill="#fff" fill-rule="evenodd"/>
    <path id="Path_890" data-name="Path 890" d="M110.853,292.479h0a1.6,1.6,0,0,1-1.592,1.591h-.5a1.6,1.6,0,0,1-1.592-1.591h0a1.6,1.6,0,0,1,1.592-1.592h.5a1.6,1.6,0,0,1,1.592,1.592Z" transform="translate(-49.163 -143.122)" fill="#fff" fill-rule="evenodd"/>
    <path id="Path_891" data-name="Path 891" d="M33.086,266.005H60.3a2.454,2.454,0,0,0,2.446-2.447h0a2.453,2.453,0,0,0-2.446-2.446H56.258a1.653,1.653,0,0,1-1.648-1.648h0a1.652,1.652,0,0,1,1.648-1.647H60.3a2.453,2.453,0,0,0,2.446-2.446h0a2.454,2.454,0,0,0-2.446-2.447H56.258a1.652,1.652,0,0,1-1.648-1.647h0a1.652,1.652,0,0,1,1.648-1.647H60.3a2.454,2.454,0,0,0,2.446-2.447h0a2.454,2.454,0,0,0-2.446-2.446H56.258a1.652,1.652,0,0,1-1.648-1.647h0a1.652,1.652,0,0,1,1.648-1.647h6.458a3.663,3.663,0,0,0,3.652-3.652h0a3.663,3.663,0,0,0-3.652-3.652H51.2a9.537,9.537,0,0,0-9.508,9.51V245.3c0,.2,0,.4-.013.6a6.357,6.357,0,0,1-11.575,3.2,10.693,10.693,0,0,0-19.4,6.2v1.137a9.584,9.584,0,0,0,9.556,9.556Z" transform="translate(0 -114.202)" fill="#8c3140" fill-rule="evenodd"/>
    <path id="Path_892" data-name="Path 892" d="M114.292,239.128h0a2.372,2.372,0,0,1-2.365,2.365h-1.81a2.372,2.372,0,0,1-2.366-2.365h0a2.373,2.373,0,0,1,2.366-2.365h1.81a2.372,2.372,0,0,1,2.365,2.365Z" transform="translate(-49.458 -115.539)" fill="#fff" fill-rule="evenodd"/>
    <path id="Path_893" data-name="Path 893" d="M110.853,259.086h0a1.6,1.6,0,0,1-1.592,1.592h-.5a1.6,1.6,0,0,1-1.592-1.592h0a1.6,1.6,0,0,1,1.592-1.591h.5a1.6,1.6,0,0,1,1.592,1.591Z" transform="translate(-49.163 -126.104)" fill="#fff" fill-rule="evenodd"/>
    <path id="Path_894" data-name="Path 894" d="M110.853,275.784h0a1.6,1.6,0,0,1-1.592,1.59h-.5a1.6,1.6,0,0,1-1.592-1.59h0a1.6,1.6,0,0,1,1.592-1.592h.5a1.6,1.6,0,0,1,1.592,1.592Z" transform="translate(-49.163 -134.614)" fill="#fff" fill-rule="evenodd"/>
    <path id="Path_895" data-name="Path 895" d="M110.853,292.479h0a1.6,1.6,0,0,1-1.592,1.591h-.5a1.6,1.6,0,0,1-1.592-1.591h0a1.6,1.6,0,0,1,1.592-1.592h.5a1.6,1.6,0,0,1,1.592,1.592Z" transform="translate(-49.163 -143.122)" fill="#fff" fill-rule="evenodd"/>
    <path id="Path_897" data-name="Path 897" d="M308.352,28.595h0a17.759,17.759,0,0,0-6.888,24.076l8.594,15.482,30.964-17.188-8.594-15.482a17.758,17.758,0,0,0-24.076-6.888Z" transform="translate(-147.051 -8.324)" fill="#ed1c24" fill-rule="evenodd"/>
    <path id="Path_898" data-name="Path 898" d="M422.141,64.579h-54.53V37.314a27.265,27.265,0,0,1,54.53,0V64.579Zm-27.265-54.53Z" transform="translate(-181.889 0)" fill-rule="evenodd"/>
    <path id="Path_899" data-name="Path 899" d="M338.943,107.686h31.643v40.158H338.943V107.686Z" transform="translate(-167.279 -49.758)" fill="#fee9e0" stroke="#231f20" stroke-miterlimit="2.613" stroke-width="0.5" fill-rule="evenodd"/>
    <path id="Path_900" data-name="Path 900" d="M341.618,107.686h.976l-3.651,6.323v-1.69l2.675-4.633Zm4.056,0h.976l-7.706,13.349v-1.69l6.73-11.658Zm4.056,0h.976L338.943,128.06v-1.69l10.786-18.684Zm4.057,0h.976l-15.819,27.4v-1.69l14.843-25.708Zm4.055,0h.976l-19.875,34.425V140.42l18.9-32.734Zm4.056,0h.975l-23.185,40.158h-.746v-.4l22.955-39.76Zm4.056,0h.976l-23.185,40.158h-.976l23.185-40.158Zm4.056,0h.576v.693L347.8,147.844h-.975l23.185-40.158Zm.576,6.029v1.69l-18.729,32.439h-.976l19.705-34.129Zm0,7.025v1.69l-14.673,25.414h-.976l15.648-27.1Zm0,7.026v1.69l-10.617,18.388h-.975l11.592-20.078Zm0,7.025v1.69l-6.561,11.363h-.975l7.537-13.053Zm0,7.025v1.69l-2.5,4.338h-.976l3.481-6.028Z" transform="translate(-167.279 -49.758)" fill="#fffcd5" fill-rule="evenodd"/>
    <path id="Path_901" data-name="Path 901" d="M356.63,184.638H334.085V147.327c21.522,2.043,25.157,17.922,22.545,37.311Z" transform="translate(-164.803 -69.96)" fill="#d1d3d4" fill-rule="evenodd"/>
    <path id="Path_903" data-name="Path 903" d="M337.529,267.765h33.076v-2.072H337.529v2.072Z" transform="translate(-166.558 -130.283)" fill="#231f20" fill-rule="evenodd"/>
    <path id="Path_904" data-name="Path 904" d="M337.529,259.316h33.076v-2.072H337.529v2.072Z" transform="translate(-166.558 -125.977)" fill="#231f20" fill-rule="evenodd"/>
    <path id="Path_905" data-name="Path 905" d="M337.529,250.868h33.076V248.8H337.529v2.071Z" transform="translate(-166.558 -121.671)" fill="#231f20" fill-rule="evenodd"/>
    <path id="Path_906" data-name="Path 906" d="M337.529,242.42h33.076v-2.071H337.529v2.071Z" transform="translate(-166.558 -117.366)" fill="#231f20" fill-rule="evenodd"/>
    <path id="Path_907" data-name="Path 907" d="M337.529,233.971h33.076V231.9H337.529v2.071Z" transform="translate(-166.558 -113.061)" fill="#231f20" fill-rule="evenodd"/>
    <path id="Path_908" data-name="Path 908" d="M337.529,225.522h33.076v-2.071H337.529v2.071Z" transform="translate(-166.558 -108.755)" fill="#231f20" fill-rule="evenodd"/>
    <path id="Path_909" data-name="Path 909" d="M337.529,217.073h33.076V215H337.529v2.071Z" transform="translate(-166.558 -104.449)" fill="#231f20" fill-rule="evenodd"/>
    <path id="Path_910" data-name="Path 910" d="M337.529,263.541h33.076v-2.071H337.529v2.071Z" transform="translate(-166.558 -128.13)" fill="#fff" fill-rule="evenodd"/>
    <path id="Path_911" data-name="Path 911" d="M337.529,255.092h33.076v-2.071H337.529v2.071Z" transform="translate(-166.558 -123.824)" fill="#fff" fill-rule="evenodd"/>
    <path id="Path_912" data-name="Path 912" d="M337.529,246.644h33.076v-2.071H337.529v2.071Z" transform="translate(-166.558 -119.519)" fill="#fff" fill-rule="evenodd"/>
    <path id="Path_913" data-name="Path 913" d="M337.529,238.195h33.076v-2.072H337.529v2.072Z" transform="translate(-166.558 -115.213)" fill="#fff" fill-rule="evenodd"/>
    <path id="Path_914" data-name="Path 914" d="M337.529,229.746h33.076v-2.072H337.529v2.072Z" transform="translate(-166.558 -110.907)" fill="#fff" fill-rule="evenodd"/>
    <path id="Path_915" data-name="Path 915" d="M337.529,221.3h33.076v-2.072H337.529V221.3Z" transform="translate(-166.558 -106.602)" fill="#fff" fill-rule="evenodd"/>
    <path id="Path_916" data-name="Path 916" d="M337.529,212.849h33.076v-2.072H337.529v2.072Z" transform="translate(-166.558 -102.296)" fill="#fff" fill-rule="evenodd"/>
    <path id="Path_917" data-name="Path 917" d="M488.309,252.563a3.322,3.322,0,0,1,.835,3.365l-.08.265-.532-.161.081-.265a2.8,2.8,0,0,0-2.115-3.578,2.461,2.461,0,0,0-2.856,1.631,2.042,2.042,0,0,0-.019,1.153v0l.053.16a2.069,2.069,0,0,0,1.5,1.277,1.548,1.548,0,0,0,1.8-1.023,1.26,1.26,0,0,0-.956-1.613.632.632,0,0,0-.734.417.491.491,0,0,0,.376.631l.27.061-.124.541-.271-.062a1.046,1.046,0,0,1-.783-1.333,1.194,1.194,0,0,1,1.389-.8,1.816,1.816,0,0,1,1.362,2.316,2.107,2.107,0,0,1-2.45,1.4,2.627,2.627,0,0,1-1.865-1.544h-.005l-.03-.092q-.035-.093-.061-.188a2.852,2.852,0,0,0-2.112-1.85,2.382,2.382,0,0,0-1.151.026l-.018.005a2.424,2.424,0,0,0-1.687,1.6,2.029,2.029,0,0,0,1.535,2.6,1.547,1.547,0,0,0,1.795-1.024,1.259,1.259,0,0,0-.955-1.613.633.633,0,0,0-.734.416.492.492,0,0,0,.376.632l.27.062-.124.541-.27-.062a1.047,1.047,0,0,1-.784-1.333,1.194,1.194,0,0,1,1.389-.8,1.815,1.815,0,0,1,1.363,2.316,2.107,2.107,0,0,1-2.45,1.4,2.689,2.689,0,0,1-1.328-.734,3.358,3.358,0,0,1-4.326-.584,3.022,3.022,0,0,1-.015-4.047c.063-.067.127-.129.2-.189a3.515,3.515,0,0,1-1.992-1.092,3.038,3.038,0,0,1-.263-3.742,2.641,2.641,0,0,1-2.033-.863,2.106,2.106,0,0,1-.01-2.824,1.816,1.816,0,0,1,2.687.023,1.193,1.193,0,0,1,0,1.6,1.047,1.047,0,0,1-1.546-.012l-.188-.2.407-.378.188.2a.491.491,0,0,0,.735.01.633.633,0,0,0-.005-.844,1.261,1.261,0,0,0-1.876-.02,1.547,1.547,0,0,0,.011,2.066,2.029,2.029,0,0,0,3.015.031,2.46,2.46,0,0,0-.016-3.288,2.8,2.8,0,0,0-4.156-.042l-.189.2-.405-.38.189-.2a3.32,3.32,0,0,1,3.332-.96,2.1,2.1,0,0,1,.371-2.235,1.815,1.815,0,0,1,2.686.023,1.192,1.192,0,0,1,0,1.6,1.046,1.046,0,0,1-1.546-.011l-.189-.2.407-.378.188.2a.492.492,0,0,0,.735.009.634.634,0,0,0-.006-.844,1.261,1.261,0,0,0-1.875-.02,1.546,1.546,0,0,0,.012,2.066,2.029,2.029,0,0,0,3.015.032,2.462,2.462,0,0,0-.016-3.289,2.8,2.8,0,0,0-4.156-.042l-.19.2-.4-.38.189-.2a3.323,3.323,0,0,1,3.332-.96,2.1,2.1,0,0,1,.369-2.234,1.816,1.816,0,0,1,2.687.022,1.2,1.2,0,0,1,0,1.6,1.046,1.046,0,0,1-1.546-.012l-.189-.2.406-.378.189.2a.493.493,0,0,0,.735.01.634.634,0,0,0-.005-.844,1.261,1.261,0,0,0-1.876-.021,1.548,1.548,0,0,0,.012,2.067,2.029,2.029,0,0,0,3.015.031,2.462,2.462,0,0,0-.017-3.289,2.8,2.8,0,0,0-4.156-.042l-.189.2-.405-.38.19-.2a3.32,3.32,0,0,1,3.331-.96,2.1,2.1,0,0,1,.371-2.234,1.815,1.815,0,0,1,2.686.023,1.192,1.192,0,0,1,0,1.6,1.045,1.045,0,0,1-1.546-.011l-.189-.2.408-.378.188.2a.492.492,0,0,0,.735.01.634.634,0,0,0-.006-.844,1.261,1.261,0,0,0-1.875-.021,1.548,1.548,0,0,0,.011,2.067,2.029,2.029,0,0,0,3.016.031,2.46,2.46,0,0,0-.017-3.289,2.8,2.8,0,0,0-4.156-.042l-.189.2-.406-.38.19-.2a3.319,3.319,0,0,1,3.332-.959,2.1,2.1,0,0,1,.37-2.235,1.814,1.814,0,0,1,2.686.022,1.194,1.194,0,0,1,0,1.6,1.046,1.046,0,0,1-1.546-.012l-.189-.2.406-.378.19.2a.491.491,0,0,0,.734.01.634.634,0,0,0-.006-.844,1.261,1.261,0,0,0-1.875-.021,1.547,1.547,0,0,0,.011,2.066,2.029,2.029,0,0,0,3.015.031,2.461,2.461,0,0,0-.016-3.289,2.8,2.8,0,0,0-4.156-.042l-.19.2-.406-.38.19-.2a3.353,3.353,0,0,1,4.968.044,3.038,3.038,0,0,1,.262,3.742,2.643,2.643,0,0,1,2.034.863,2.109,2.109,0,0,1,.009,2.824,1.815,1.815,0,0,1-2.686-.022,1.193,1.193,0,0,1,0-1.6,1.045,1.045,0,0,1,1.546.012l.189.2-.406.378-.19-.2a.491.491,0,0,0-.734-.01.634.634,0,0,0,.006.844,1.26,1.26,0,0,0,1.875.021,1.547,1.547,0,0,0-.012-2.066,2.028,2.028,0,0,0-3.015-.032,2.462,2.462,0,0,0,.017,3.289,2.853,2.853,0,0,0,2.659.9c.063-.016.127-.029.191-.04l.1-.021v.006a2.629,2.629,0,0,1,2.27.843,2.055,2.055,0,0,1,.5.971,3.048,3.048,0,0,1,2.911-.949,3.523,3.523,0,0,1,1.942,1.179c.018-.087.039-.176.066-.263a3.022,3.022,0,0,1,3.439-2.026v.569l-.051-.012a2.461,2.461,0,0,0-2.857,1.63,2.051,2.051,0,0,0-.021,1.15l0,0,.054.166a2.071,2.071,0,0,0,1.5,1.274,1.562,1.562,0,0,0,1.374-.369v.678a2.158,2.158,0,0,1-.8.266,3.314,3.314,0,0,1,.8,1.251v2.237l-.043.142-.532-.161.08-.266a2.8,2.8,0,0,0-2.114-3.578,2.461,2.461,0,0,0-2.857,1.63,2.046,2.046,0,0,0-.019,1.153v0l.053.159a2.068,2.068,0,0,0,1.5,1.278,1.547,1.547,0,0,0,1.8-1.023,1.26,1.26,0,0,0-.955-1.613.633.633,0,0,0-.734.417.49.49,0,0,0,.376.631l.27.062-.124.541-.27-.062a1.045,1.045,0,0,1-.783-1.333,1.193,1.193,0,0,1,1.388-.8,1.816,1.816,0,0,1,1.363,2.316,2.1,2.1,0,0,1-1.751,1.437,3.322,3.322,0,0,1,.836,3.366l-.081.265-.531-.161.081-.266a2.8,2.8,0,0,0-2.115-3.578,2.461,2.461,0,0,0-2.857,1.631,2.042,2.042,0,0,0-.021,1.146v0l.056.173a2.073,2.073,0,0,0,1.5,1.272,1.549,1.549,0,0,0,1.8-1.024,1.26,1.26,0,0,0-.955-1.613.634.634,0,0,0-.735.416.491.491,0,0,0,.376.631l.271.062-.124.541-.271-.062a1.047,1.047,0,0,1-.783-1.334,1.193,1.193,0,0,1,1.389-.8,1.815,1.815,0,0,1,1.363,2.316,2.1,2.1,0,0,1-1.751,1.438,3.317,3.317,0,0,1,.836,3.365l-.08.266-.531-.161.081-.266a2.8,2.8,0,0,0-2.115-3.578,2.461,2.461,0,0,0-2.857,1.63,2.058,2.058,0,0,0-.02,1.152l0,0,.052.161a2.072,2.072,0,0,0,1.5,1.277,1.547,1.547,0,0,0,1.8-1.023,1.26,1.26,0,0,0-.955-1.614.634.634,0,0,0-.734.417.491.491,0,0,0,.376.631l.27.062-.124.54-.27-.062a1.046,1.046,0,0,1-.783-1.333,1.2,1.2,0,0,1,1.389-.8,1.816,1.816,0,0,1,1.362,2.316,2.1,2.1,0,0,1-1.75,1.437Zm8.466-16.243a1.352,1.352,0,0,0-.534-.252.635.635,0,0,0-.734.417.492.492,0,0,0,.377.631l.27.062-.124.541-.271-.062a1.047,1.047,0,0,1-.783-1.333,1.193,1.193,0,0,1,1.389-.8,1.96,1.96,0,0,1,.41.143v.65Zm-10.683,15.258a2.561,2.561,0,0,1-.348-.594l-.005,0-.029-.092c-.023-.061-.044-.125-.062-.188a2.852,2.852,0,0,0-2.112-1.85,2.383,2.383,0,0,0-1.152.027l-.016,0a2.425,2.425,0,0,0-1.688,1.6,2.028,2.028,0,0,0,1.534,2.6,1.548,1.548,0,0,0,1.8-1.023,1.26,1.26,0,0,0-.955-1.614.634.634,0,0,0-.734.417.491.491,0,0,0,.376.631l.27.062-.123.541-.271-.062a1.047,1.047,0,0,1-.783-1.333,1.193,1.193,0,0,1,1.389-.8,1.817,1.817,0,0,1,1.429,2.006,3.044,3.044,0,0,1,1.485-.332Zm-2.957,2.007a2.154,2.154,0,0,1-.335.072,3.227,3.227,0,0,1,.246.266,2.409,2.409,0,0,1,.066-.265c.008-.025.015-.049.024-.074Zm5.513-6.434a2.532,2.532,0,0,1-.35-.6h0l-.026-.079c-.025-.066-.047-.133-.066-.2a2.843,2.843,0,0,0-2.11-1.843,2.382,2.382,0,0,0-1.15.026l-.019.005a2.426,2.426,0,0,0-1.687,1.6,2.029,2.029,0,0,0,1.535,2.6,1.547,1.547,0,0,0,1.8-1.024,1.26,1.26,0,0,0-.955-1.613.633.633,0,0,0-.734.417.492.492,0,0,0,.375.631l.271.062-.125.541-.27-.062a1.046,1.046,0,0,1-.783-1.333,1.193,1.193,0,0,1,1.388-.8,1.817,1.817,0,0,1,1.429,2.006,3.043,3.043,0,0,1,1.484-.332Zm-2.957,2.007a2.13,2.13,0,0,1-.334.072,3.126,3.126,0,0,1,.244.266q.026-.132.067-.265c.007-.025.015-.049.023-.073Zm5.514-6.433a2.585,2.585,0,0,1-.348-.595l-.006,0-.03-.094c-.022-.061-.043-.123-.061-.186A2.855,2.855,0,0,0,488.647,240a2.384,2.384,0,0,0-1.152.027l-.014,0a2.428,2.428,0,0,0-1.689,1.6,2.028,2.028,0,0,0,1.535,2.6,1.548,1.548,0,0,0,1.795-1.023,1.261,1.261,0,0,0-.955-1.613.634.634,0,0,0-.735.416.492.492,0,0,0,.376.632l.27.062-.124.541-.27-.062a1.047,1.047,0,0,1-.784-1.333,1.194,1.194,0,0,1,1.389-.8,1.816,1.816,0,0,1,1.429,2.007,3.03,3.03,0,0,1,1.485-.331Zm-2.957,2.006a2.147,2.147,0,0,1-.333.071,3.061,3.061,0,0,1,.243.265c.018-.087.04-.175.066-.262.007-.025.015-.049.024-.073Zm5.513-6.434a2.539,2.539,0,0,1-.349-.6l-.006,0-.027-.086c-.024-.063-.045-.128-.063-.193a2.851,2.851,0,0,0-2.111-1.848,2.462,2.462,0,0,0-2.857,1.631,2.029,2.029,0,0,0,1.535,2.6,1.548,1.548,0,0,0,1.8-1.024,1.261,1.261,0,0,0-.956-1.613.634.634,0,0,0-.734.417.491.491,0,0,0,.376.631l.271.062-.124.541-.271-.062a1.048,1.048,0,0,1-.783-1.333,1.194,1.194,0,0,1,1.39-.8,1.817,1.817,0,0,1,1.429,2.007,3.04,3.04,0,0,1,1.485-.333ZM490.8,240.3a2.239,2.239,0,0,1-.335.071,2.98,2.98,0,0,1,.245.267,2.591,2.591,0,0,1,.067-.264c.006-.025.015-.049.023-.074Zm-10.231,12.37a2.543,2.543,0,0,1-.533-1.356,1.816,1.816,0,0,1-2.468-.223,1.194,1.194,0,0,1,0-1.6,1.046,1.046,0,0,1,1.547.011l.189.2-.408.378-.188-.2a.491.491,0,0,0-.735-.01.634.634,0,0,0,.006.844,1.259,1.259,0,0,0,1.874.021,1.547,1.547,0,0,0-.011-2.066,2.072,2.072,0,0,0-1.859-.661l-.163.034h0a2.048,2.048,0,0,0-.989.594,2.461,2.461,0,0,0,.016,3.289,2.831,2.831,0,0,0,2.862.84l.268-.076,0,.02a2.974,2.974,0,0,1,.594-.039Zm-2.077.725a3.32,3.32,0,0,1-.423-.088,2.144,2.144,0,0,1,.12.382,2.952,2.952,0,0,1,.3-.294Zm-1.012,2.346a1.815,1.815,0,0,1-2.468-.222,1.192,1.192,0,0,1,0-1.6,1.046,1.046,0,0,1,1.546.011l.189.2-.407.378-.188-.2a.492.492,0,0,0-.735-.01.634.634,0,0,0,.006.844,1.261,1.261,0,0,0,1.876.021,1.548,1.548,0,0,0-.011-2.066,2.07,2.07,0,0,0-1.854-.662l-.17.036h0a2.049,2.049,0,0,0-.986.593,2.46,2.46,0,0,0,.017,3.288,2.8,2.8,0,0,0,3.573.523,2.534,2.534,0,0,1-.377-1.135Zm5.645-7.5a2.54,2.54,0,0,1-.533-1.357,1.816,1.816,0,0,1-2.469-.222,1.194,1.194,0,0,1,0-1.6,1.047,1.047,0,0,1,1.547.011l.188.2-.406.377-.188-.2a.492.492,0,0,0-.735-.01.633.633,0,0,0,.005.844,1.26,1.26,0,0,0,1.875.021,1.548,1.548,0,0,0-.011-2.066,2.069,2.069,0,0,0-1.851-.661l-.178.037h0a2.049,2.049,0,0,0-.983.593,2.461,2.461,0,0,0,.017,3.289,2.832,2.832,0,0,0,2.863.841l.266-.076.006.02a2.958,2.958,0,0,1,.594-.039Zm-2.077.724a3.236,3.236,0,0,1-.423-.088,2.2,2.2,0,0,1,.12.382,2.965,2.965,0,0,1,.3-.294Zm4.633-5.152a2.533,2.533,0,0,1-.533-1.356,1.816,1.816,0,0,1-2.468-.223,1.192,1.192,0,0,1,0-1.6,1.046,1.046,0,0,1,1.547.012l.188.2-.406.378-.189-.2a.492.492,0,0,0-.735-.01.635.635,0,0,0,.007.844,1.26,1.26,0,0,0,1.875.021,1.547,1.547,0,0,0-.011-2.066,2.069,2.069,0,0,0-1.857-.661l-.166.034h0a2.05,2.05,0,0,0-.989.593,2.461,2.461,0,0,0,.018,3.289,2.829,2.829,0,0,0,2.862.84l.267-.077,0,.02a2.947,2.947,0,0,1,.595-.039Zm-2.077.724a3.192,3.192,0,0,1-.424-.088,2.16,2.16,0,0,1,.121.382,2.858,2.858,0,0,1,.3-.294Zm4.633-5.151a2.543,2.543,0,0,1-.533-1.357,1.815,1.815,0,0,1-2.468-.223,1.194,1.194,0,0,1,0-1.6,1.048,1.048,0,0,1,1.547.012l.189.2-.407.378-.189-.2a.492.492,0,0,0-.735-.01.635.635,0,0,0,.006.844,1.26,1.26,0,0,0,1.874.021,1.549,1.549,0,0,0-.01-2.067,2.075,2.075,0,0,0-1.858-.661l-.164.034h0a2.052,2.052,0,0,0-.99.594,2.461,2.461,0,0,0,.016,3.289,2.834,2.834,0,0,0,2.863.84l.267-.076.006.02a2.932,2.932,0,0,1,.594-.039Zm-2.077.724a3.243,3.243,0,0,1-.423-.087,2.053,2.053,0,0,1,.12.382,3.065,3.065,0,0,1,.3-.294Zm-1.878-5.327a3.305,3.305,0,0,1-.353-.079,2.123,2.123,0,0,1,.105.326l.051-.057a2.721,2.721,0,0,1,.2-.19Zm-.962,2.359a1.816,1.816,0,0,1-2.452-.235,1.2,1.2,0,0,1,0-1.6,1.047,1.047,0,0,1,1.547.012l.188.2-.406.378-.189-.2a.491.491,0,0,0-.734-.009.633.633,0,0,0,.005.843,1.26,1.26,0,0,0,1.875.021,1.547,1.547,0,0,0-.011-2.066,2.03,2.03,0,0,0-3.016-.032,2.462,2.462,0,0,0,.017,3.289,2.854,2.854,0,0,0,2.658.9c.064-.016.128-.03.193-.041l.1-.02v.006a2.547,2.547,0,0,1,.688,0,3.044,3.044,0,0,1-.455-1.452Zm-2.1,5.88a3.045,3.045,0,0,1-.455-1.453,1.816,1.816,0,0,1-2.453-.235,1.192,1.192,0,0,1,0-1.6,1.046,1.046,0,0,1,1.546.012l.189.2-.406.378-.189-.2a.492.492,0,0,0-.735-.01.633.633,0,0,0,.007.843,1.259,1.259,0,0,0,1.874.021,1.546,1.546,0,0,0-.011-2.066,2.03,2.03,0,0,0-3.016-.031,2.462,2.462,0,0,0,.017,3.289,2.842,2.842,0,0,0,2.652.905c.068-.017.136-.031.205-.043l.083-.017v0a2.5,2.5,0,0,1,.695,0Zm.507-3.811a3.37,3.37,0,0,1-.354-.078,2.087,2.087,0,0,1,.106.325l.052-.057a2.629,2.629,0,0,1,.2-.189Zm-2.558,4.429a3.163,3.163,0,0,1-.351-.079,2.1,2.1,0,0,1,.1.324l.052-.057c.063-.067.128-.129.194-.188Zm-.96,2.357a1.816,1.816,0,0,1-2.452-.234,1.193,1.193,0,0,1,0-1.6,1.047,1.047,0,0,1,1.546.011l.189.2-.407.377-.189-.2a.492.492,0,0,0-.735-.01.636.636,0,0,0,.006.844,1.261,1.261,0,0,0,1.876.021,1.549,1.549,0,0,0-.012-2.066,2.028,2.028,0,0,0-3.015-.031,2.461,2.461,0,0,0,.017,3.289,2.852,2.852,0,0,0,2.658.9c.063-.016.127-.029.191-.04l.1-.02v0a2.57,2.57,0,0,1,.689,0,3.039,3.039,0,0,1-.455-1.452Zm-2.1,5.88a3.049,3.049,0,0,1-.455-1.452,1.815,1.815,0,0,1-2.452-.235,1.194,1.194,0,0,1,0-1.6,1.047,1.047,0,0,1,1.547.012l.188.2-.406.378-.189-.2a.491.491,0,0,0-.734-.01.634.634,0,0,0,.006.844,1.259,1.259,0,0,0,1.875.021,1.546,1.546,0,0,0-.011-2.066,2.029,2.029,0,0,0-3.016-.032,2.462,2.462,0,0,0,.018,3.289,2.845,2.845,0,0,0,2.656.9c.065-.016.131-.03.2-.042l.09-.019v.005a2.552,2.552,0,0,1,.691,0Zm.506-3.811a3.429,3.429,0,0,1-.353-.079,2.053,2.053,0,0,1,.106.326l.051-.057c.063-.068.129-.13.2-.19Zm5.414-18.115a2.613,2.613,0,0,1-.451-.024,2.961,2.961,0,0,1,.219.421,2.792,2.792,0,0,1,.231-.4Zm-.282,2.9a2.75,2.75,0,0,1-.232.4,2.521,2.521,0,0,1,.451.024,3.043,3.043,0,0,1-.219-.422ZM479.41,237.7a2.91,2.91,0,0,1-.219-.421,2.76,2.76,0,0,1-.232.4,2.623,2.623,0,0,1,.451.023Zm.064-3.316a2.536,2.536,0,0,1-.452-.023,2.844,2.844,0,0,1,.22.421,2.721,2.721,0,0,1,.232-.4Zm-2.556,4.428a2.563,2.563,0,0,1-.45-.024,2.982,2.982,0,0,1,.219.421,2.763,2.763,0,0,1,.231-.4Zm-.282,2.9a2.81,2.81,0,0,1-.232.4,2.563,2.563,0,0,1,.451.024,2.958,2.958,0,0,1-.219-.421Zm-2.337,4.849a2.961,2.961,0,0,1-.219-.421,2.788,2.788,0,0,1-.232.4,2.618,2.618,0,0,1,.451.024Zm.064-3.317a2.531,2.531,0,0,1-.451-.023,3.015,3.015,0,0,1,.22.421,2.8,2.8,0,0,1,.231-.4Z" transform="translate(-239.601 -106.504)" fill="#f9d4b4" fill-rule="evenodd"/>
    <path id="Path_921" data-name="Path 921" d="M405.831,245.444h27.03v26.322H386.425l7.6-14.818,11.81-11.5Z" transform="translate(-191.477 -119.963)" fill="#00483d" fill-rule="evenodd"/>
    <path id="Path_922" data-name="Path 922" d="M386.425,283.722h23.218V268.9H386.425v14.818Z" transform="translate(-191.477 -131.919)" fill-rule="evenodd"/>
    <path id="Path_925" data-name="Path 925" d="M434.133,185.441l.3-.522,17.449,10.075-.3.521-17.45-10.075Zm1.193-2.066.3-.522,17.451,10.075-.3.522-17.45-10.075Zm1.193-2.066.3-.522,17.451,10.075-.3.522-17.451-10.075Zm1.194-2.066.3-.522,17.45,10.075-.3.522-17.45-10.075Zm1.193-2.066.3-.522,17.45,10.074-.3.522L438.9,177.177Zm1.193-2.066.3-.522,17.451,10.075-.3.522L440.1,175.11Zm1.193-2.066.3-.522,17.45,10.075-.3.522-17.45-10.075Zm1.194-2.065.3-.522,17.45,10.075-.3.521-17.449-10.074Z" transform="translate(-215.79 -81.747)" fill="#d1d3d4" fill-rule="evenodd"/>
    <path id="Path_926" data-name="Path 926" d="M420.1,197.252V167.717a16.887,16.887,0,0,0-16.838-16.837h0a16.887,16.887,0,0,0-16.837,16.837v29.535Z" transform="translate(-211.942 -73.625)" fill="#f0f" fill-rule="evenodd"/>
    <path id="Path_927" data-name="Path 927" d="M427.368,168.079h1.214v33.982h-1.214V168.079Z" transform="translate(-212.343 -80.536)" fill="#f6adcd" fill-rule="evenodd"/>
    <path id="Path_928" data-name="Path 928" d="M412.78,164.522a11.557,11.557,0,0,1-16.42,0,11.557,11.557,0,0,1,16.42,0Z" transform="translate(-196.54 -76.979)" fill="#58595b" fill-rule="evenodd"/>
    <path id="Path_929" data-name="Path 929" d="M389.075,114.108l23.084,1.455-5.43,26.833a11.567,11.567,0,0,1-11.743,0l-5.911-28.288Z" transform="translate(-192.827 -53.031)" fill="#f5b41a" fill-rule="evenodd"/>
    <path id="Path_930" data-name="Path 930" d="M403.712,146.935a11.583,11.583,0,0,1-8.069-1.392l-5.278-25.259h13.347v26.651Z" transform="translate(-193.485 -56.178)" fill="#ffcb05" fill-rule="evenodd"/>
    <path id="Path_931" data-name="Path 931" d="M386.425,60.166h16.207V41.295h-13.5l-2.7,18.871Z" transform="translate(-191.477 -15.924)" fill-rule="evenodd"/>
    <path id="Path_932" data-name="Path 932" d="M432.649,41.295h-15V88.6a15.04,15.04,0,0,0,15,15h0a15.039,15.039,0,0,0,14.995-15V56.29a15.039,15.039,0,0,0-14.995-14.995Z" transform="translate(-207.391 -15.924)" fill-rule="evenodd"/>
    <path id="Path_933" data-name="Path 933" d="M401.7,94.476H386.425V75.585l21.844.078v17.73H401.7v1.082Z" transform="translate(-191.477 -33.399)" fill="#cfa834" fill-rule="evenodd"/>
    <path id="Path_934" data-name="Path 934" d="M386.425,75.584V99.761a7.679,7.679,0,0,0,7.656,7.657h0a7.679,7.679,0,0,0,7.657-7.657V78.073l-15.314-2.489Z" transform="translate(-191.477 -33.398)" fill="#cfa834" fill-rule="evenodd"/>
    <path id="Path_935" data-name="Path 935" d="M386.389,41.295h-9.5A9.522,9.522,0,0,0,367.4,50.79h0a9.524,9.524,0,0,0,9.33,9.493V58.11h8.429v2.175h1.231V41.295Z" transform="translate(-181.781 -15.924)" fill-rule="evenodd"/>
    <path id="Path_936" data-name="Path 936" d="M417.52,58.188H400.929v-8.6a8.3,8.3,0,0,1,16.591,0v8.6Z" transform="translate(-198.868 -15.924)" fill="#9e7f21" fill-rule="evenodd"/>
    <path id="Path_937" data-name="Path 937" d="M427.751,61.674h0a3.338,3.338,0,0,0-3.329-3.328h0a3.338,3.338,0,0,0-3.329,3.328h0V65l4.844,10.108-3.192,1.9,2.879,9h6.426A10.988,10.988,0,0,0,443,75.052V60.213a5.562,5.562,0,0,0-5.546-5.547h0a5.562,5.562,0,0,0-5.547,5.547v1.461Z" transform="translate(-209.145 -22.738)" fill="#c29200" fill-rule="evenodd"/>
    <path id="Path_938" data-name="Path 938" d="M419.445,41.295h9.8a12.139,12.139,0,0,1,12.1,11.962,5.548,5.548,0,0,0-11.093.143v6.746a2.08,2.08,0,1,1-4.16,0V49.59a8.32,8.32,0,0,0-8.25-8.295h1.6Z" transform="translate(-207.49 -15.924)" fill="#cfa834" fill-rule="evenodd"/>
    <path id="Path_939" data-name="Path 939" d="M425.711,61.364h0a4.08,4.08,0,0,0-5.426-1.91h0a4.079,4.079,0,0,0-1.911,5.426l1.758,3.668L423.8,66.79a4.078,4.078,0,0,0,1.91-5.426Z" transform="translate(-207.557 -24.975)" fill="#c29200" fill-rule="evenodd"/>
    <path id="Path_940" data-name="Path 940" d="M454.181,71.393a9.867,9.867,0,0,1-4.308,8.334,10.215,10.215,0,0,1,0-16.668,9.867,9.867,0,0,1,4.308,8.334Z" transform="translate(-221.616 -27.015)" fill-rule="evenodd"/>
    <path id="Path_941" data-name="Path 941" d="M438.019,176.094a3.088,3.088,0,1,1-3.088,3.088,3.088,3.088,0,0,1,3.088-3.088Z" transform="translate(-216.197 -84.621)" fill="#fff" fill-rule="evenodd"/>
    <path id="Path_942" data-name="Path 942" d="M438.019,197.683a3.088,3.088,0,1,1-3.088,3.088,3.088,3.088,0,0,1,3.088-3.088Z" transform="translate(-216.197 -95.623)" fill="#fff" fill-rule="evenodd"/>
    <path id="Path_943" data-name="Path 943" d="M438.019,219.273a3.088,3.088,0,1,1-3.088,3.088,3.088,3.088,0,0,1,3.088-3.088Z" transform="translate(-216.197 -106.626)" fill="#fff" fill-rule="evenodd"/>
    <path id="Path_944" data-name="Path 944" d="M400.861,62.058V60.876a.786.786,0,0,1,.783-.784h0a.787.787,0,0,1,.785.784v3.761l-10.972,1.557V60.876a.786.786,0,0,1,.783-.784h0a.786.786,0,0,1,.784.784v1.183a.785.785,0,0,0,.784.783h0a.785.785,0,0,0,.784-.783V60.876a.786.786,0,0,1,.784-.784h0a.786.786,0,0,1,.784.784V62.06a.786.786,0,0,0,.784.781h0a.784.784,0,0,0,.782-.783V60.876a.787.787,0,0,1,.785-.784h0a.786.786,0,0,1,.783.784v1.183a.786.786,0,0,0,.784.783h0a.786.786,0,0,0,.785-.783Z" transform="translate(-194.041 -25.503)" fill="#d1d3d4" fill-rule="evenodd"/>
    <path id="Path_945" data-name="Path 945" d="M394.933,66.616a10.073,10.073,0,0,1,8.509,4.4,10.43,10.43,0,0,1-17.017,0,10.071,10.071,0,0,1,8.508-4.4Z" transform="translate(-191.477 -28.828)" fill="#fff" fill-rule="evenodd"/>
    <path id="Path_946" data-name="Path 946" d="M399.755,67.7a3.868,3.868,0,1,0,3.868,3.868,3.868,3.868,0,0,0-3.868-3.868Z" transform="translate(-196.299 -29.378)" fill="#a25641" fill-rule="evenodd"/>
    <path id="Path_956" data-name="Path 956" d="M432.86,245.444a24.269,24.269,0,0,1-46.435,0Z" transform="translate(-191.477 -119.963)" fill="#90f" fill-rule="evenodd"/>
    <path id="Path_957" data-name="Path 957" d="M420,253.283l2.651,2.651.5.5.5-.5,2.155-2.153,2.154,2.153.5.5.5-.5,2.154-2.153,2.154,2.153.5.5.5-.5,2.153-2.153,2.154,2.153.5.5.5-.5,2.154-2.153,2.154,2.153.5.5.5-.5L447,253.781l2.154,2.153.5.5.5-.5,2.153-2.153,2.154,2.153.5.5.5-.5,2.154-2.153,2.153,2.153.5.5.5-.5,2.651-2.651-.5-.5-2.651,2.65-2.153-2.154-.5-.5-.5.5-2.155,2.154-2.153-2.154-.5-.5-.5.5-2.154,2.154-2.154-2.154-.5-.5-.5.5-2.155,2.154-2.153-2.154-.5-.5-.5.5-2.154,2.154-2.153-2.154-.5-.5-.5.5-2.154,2.154-2.153-2.154-.5-.5-.5.5-2.153,2.154-2.154-2.154-.5-.5-.5.5-2.155,2.154-2.65-2.65-.5.5Z" transform="translate(-208.586 -123.705)" fill="#f48580" fill-rule="evenodd"/>
    <path id="Path_961" data-name="Path 961" d="M479.556,289.951v4.5h-1.5l.083-.359a21.41,21.41,0,0,1,1.42-4.138Z" transform="translate(-238.173 -142.645)" fill-rule="evenodd"/>
    <path id="Path_962" data-name="Path 962" d="M424.3,261.934a9.118,9.118,0,1,1-9.117,9.118,9.118,9.118,0,0,1,9.117-9.118Z" transform="translate(-206.131 -128.367)" fill="#ffd864" fill-rule="evenodd"/>
    <path id="Path_963" data-name="Path 963" d="M427.686,268.586a5.856,5.856,0,1,1-5.855,5.856,5.856,5.856,0,0,1,5.855-5.856Z" transform="translate(-209.521 -131.757)" fill="#ad1e22" fill-rule="evenodd"/>
    <path id="Path_964" data-name="Path 964" d="M422.476,86.841h0a5.629,5.629,0,0,1,2.638,7.486l-3.342,6.977a5.627,5.627,0,0,1-7.485,2.637h0a5.627,5.627,0,0,1-2.637-7.485l3.341-6.977a5.628,5.628,0,0,1,7.486-2.637Z" transform="translate(-204.052 -38.856)" fill="#ffd864" fill-rule="evenodd"/>
    <path id="Path_965" data-name="Path 965" d="M424.4,93h0a2.443,2.443,0,0,1,1.145,3.249l-3.342,6.977a2.443,2.443,0,0,1-3.249,1.145h0a2.444,2.444,0,0,1-1.146-3.249l3.342-6.977A2.442,2.442,0,0,1,424.4,93Z" transform="translate(-207.351 -42.155)" fill-rule="evenodd"/>
    <path id="Path_966" data-name="Path 966" d="M402.743,73.56a.992.992,0,1,0,.993.993.993.993,0,0,0-.993-.993Z" transform="translate(-199.287 -32.367)" fill="#ca6c38" fill-rule="evenodd"/>
    <path id="Path_967" data-name="Path 967" d="M299.252,219.863V178.248l31.848-3.343L342,219.571l-42.747.292Z" transform="translate(-147.051 -84.015)" fill-rule="evenodd"/>
    <path id="Path_968" data-name="Path 968" d="M299.252,282.236h45.739l6.627-8.124-10.97-8.124h-41.4v16.248Z" transform="translate(-147.051 -130.433)" fill="#ffcb05" fill-rule="evenodd"/>
    <path id="Path_969" data-name="Path 969" d="M299.252,282.237H313.5V265.99H299.252v16.247Z" transform="translate(-147.051 -130.434)" fill="#f0f" fill-rule="evenodd"/>
    <path id="Path_970" data-name="Path 970" d="M328.31,282.237h14.25V265.99H328.31v16.247Z" transform="translate(-161.86 -130.434)" fill="aqua" fill-rule="evenodd"/>
    <path id="Path_971" data-name="Path 971" d="M384.083,265.989a8.124,8.124,0,1,1-8.124,8.124,8.124,8.124,0,0,1,8.124-8.124Z" transform="translate(-186.143 -130.433)" fill="#e45d25" fill-rule="evenodd"/>
    <path id="Path_972" data-name="Path 972" d="M387.6,272.89a4.74,4.74,0,1,1-4.74,4.74,4.739,4.739,0,0,1,4.74-4.74Z" transform="translate(-189.66 -133.95)" fill="#871719" fill-rule="evenodd"/>
    <path id="Path_973" data-name="Path 973" d="M390.163,279.457l1.625,1.625h0l.529.529.5.5.5-.5,2.154-2.154,2.153,2.154.5.5.5-.5,2.154-2.154,2.154,2.154.5.5.5-.5,2.153-2.154,2.154,2.154.5.5.5-.5,2.65-2.651-.5-.5-2.651,2.651-2.153-2.154-.5-.5-.5.5-2.153,2.154-2.154-2.154-.5-.5-.5.5-2.154,2.154-2.153-2.154-.5-.5-.5.5-2.154,2.154-2.154-2.154-.5-.5-.5.5h0l.5.5Z" transform="translate(-193.128 -136.79)" fill="#e6e7e8" fill-rule="evenodd"/>
    <path id="Path_974" data-name="Path 974" d="M315.35,181.091a16.1,16.1,0,1,0-16.1-16.1,16.1,16.1,0,0,0,16.1,16.1Z" transform="translate(-147.051 -70.759)" fill="#a25641" fill-rule="evenodd"/>
    <path id="Path_975" data-name="Path 975" d="M325.02,123.869l-10.537-1.655.159-40.029,23.622,2.289-13.244,39.4Z" transform="translate(-154.814 -36.762)" fill="aqua" fill-rule="evenodd"/>
    <path id="Path_976" data-name="Path 976" d="M310.282,41.3h13.642C321.776,46.49,311.3,62.963,311.3,63.361v6.885a10.623,10.623,0,1,1-12.048,10.527V52.331a11.062,11.062,0,0,1,11.03-11.03Z" transform="translate(-147.051 -15.927)" fill="#ed1c24" fill-rule="evenodd"/>
    <path id="Path_977" data-name="Path 977" d="M323.821,78.327v8.645a5.424,5.424,0,0,1,5.408-5.408h0a5.424,5.424,0,0,1,5.407,5.408V94.69a5.334,5.334,0,0,0,5.318,5.319h0a5.335,5.335,0,0,0,5.319-5.319V78.336l8.847.022-.017-.03Z" transform="translate(-159.572 -34.796)" fill="#40dbdb" fill-rule="evenodd"/>
    <path id="Path_978" data-name="Path 978" d="M319.349,94.544h2.193A3.71,3.71,0,0,0,323.6,97.87v1.678h-4.256v-5Z" transform="translate(-157.293 -43.061)" fill="#ed1c24" fill-rule="evenodd"/>
    <path id="Path_979" data-name="Path 979" d="M319.894,163.6a5.393,5.393,0,1,0-5.394-5.393,5.393,5.393,0,0,0,5.394,5.393Z" transform="translate(-154.822 -72.758)" fill="#d0b7ad" fill-rule="evenodd"/>
    <path id="Path_980" data-name="Path 980" d="M323.4,165.645h2.062v22.528H323.4V165.645Z" transform="translate(-159.356 -79.296)" fill="#fee7d4" fill-rule="evenodd"/>
    <path id="Path_981" data-name="Path 981" d="M322.558,163.7a2.831,2.831,0,1,0-2.831-2.831,2.831,2.831,0,0,0,2.831,2.831Z" transform="translate(-157.486 -75.42)" fill="#fee7d4" fill-rule="evenodd"/>
    <path id="Path_982" data-name="Path 982" d="M343.419,196.292v11.136a11.137,11.137,0,0,1-22.273,0v-5.022a2.235,2.235,0,0,1,4.469,0v5.022a6.667,6.667,0,1,0,13.335,0V196.292Z" transform="translate(-158.209 -94.914)" fill="#b67a7b" fill-rule="evenodd"/>
    <path id="Path_983" data-name="Path 983" d="M386.425,181.807h17.336a1.387,1.387,0,1,1,0,2.775H386.425v-2.775Z" transform="translate(-191.477 -87.532)" fill="#fee7d4" fill-rule="evenodd"/>
    <path id="Path_984" data-name="Path 984" d="M420.726,182.633a1.384,1.384,0,0,1,.41.982h0a1.382,1.382,0,0,1-.41.982h-1.95a.984.984,0,0,1-.981-.982h0a.985.985,0,0,1,.981-.982Z" transform="translate(-207.464 -87.953)" fill="#e62390" fill-rule="evenodd"/>
    <path id="Path_985" data-name="Path 985" d="M386.425,189.578h8.359a1.391,1.391,0,0,1,1.387,1.387h0a1.392,1.392,0,0,1-1.387,1.388h-8.359v-2.775Z" transform="translate(-191.477 -91.492)" fill="#fee7d4" fill-rule="evenodd"/>
    <path id="Path_986" data-name="Path 986" d="M386.425,197.349h8.359a1.391,1.391,0,0,1,1.387,1.387h0a1.392,1.392,0,0,1-1.387,1.388h-8.359v-2.775Z" transform="translate(-191.477 -95.453)" fill="#fee7d4" fill-rule="evenodd"/>
    <path id="Path_987" data-name="Path 987" d="M386.425,205.121h8.359a1.391,1.391,0,0,1,1.387,1.387h0a1.391,1.391,0,0,1-1.387,1.387h-8.359v-2.774Z" transform="translate(-191.477 -99.413)" fill="#fee7d4" fill-rule="evenodd"/>
    <path id="Path_988" data-name="Path 988" d="M371.66,181.807h-7.1a7.125,7.125,0,0,0-7.1,7.1v7.1H371.66V181.807Z" transform="translate(-176.712 -87.532)" fill="#b67a7b" fill-rule="evenodd"/>
    <path id="Path_989" data-name="Path 989" d="M406.578,228.157v2.992a1.364,1.364,0,0,1-1.36,1.359h0a1.364,1.364,0,0,1-1.36-1.359v-3.644a.536.536,0,0,0-.534-.534h0a.536.536,0,0,0-.534.534v7.511a1.153,1.153,0,0,1-1.15,1.149h0a1.153,1.153,0,0,1-1.149-1.149v-6.308a.536.536,0,0,0-.535-.534h0a.536.536,0,0,0-.534.534v6.308a1.152,1.152,0,0,1-1.15,1.149h0a1.152,1.152,0,0,1-1.149-1.149v-6.308a.536.536,0,0,0-.535-.534h0a.536.536,0,0,0-.534.534v6.308a1.152,1.152,0,0,1-1.149,1.149h0a1.152,1.152,0,0,1-1.149-1.149v-6.308a.536.536,0,0,0-.535-.534h0a.536.536,0,0,0-.535.534v6.308a1.152,1.152,0,0,1-1.148,1.149h0a1.152,1.152,0,0,1-1.149-1.149v-6.859a8.118,8.118,0,0,1,8.094-8.1h0a8.12,8.12,0,0,1,8.093,7.84l0,.255Z" transform="translate(-193.497 -107.028)" fill="#fcd3c1" fill-rule="evenodd"/>
    <path id="Path_990" data-name="Path 990" d="M412.445,250.692h0a1.147,1.147,0,0,1-.855-.383v-.886a.858.858,0,0,1,.855-.856h0a.858.858,0,0,1,.855.856v.886a1.148,1.148,0,0,1-.855.383Z" transform="translate(-204.302 -121.555)" fill="#f9aa8f" fill-rule="evenodd"/>
    <path id="Path_991" data-name="Path 991" d="M405.576,250.692h0a1.147,1.147,0,0,1-.855-.383v-.886a.858.858,0,0,1,.855-.856h0a.858.858,0,0,1,.856.856v.886a1.148,1.148,0,0,1-.856.383Z" transform="translate(-200.801 -121.555)" fill="#f9aa8f" fill-rule="evenodd"/>
    <path id="Path_992" data-name="Path 992" d="M398.709,250.692h0a1.148,1.148,0,0,1-.856-.383v-.886a.858.858,0,0,1,.856-.856h0a.858.858,0,0,1,.856.856v.886a1.149,1.149,0,0,1-.856.383Z" transform="translate(-197.301 -121.555)" fill="#f9aa8f" fill-rule="evenodd"/>
    <path id="Path_993" data-name="Path 993" d="M391.842,250.692h0a1.149,1.149,0,0,1-.856-.383v-.886a.858.858,0,0,1,.856-.856h0a.858.858,0,0,1,.855.856v.886a1.147,1.147,0,0,1-.855.383Z" transform="translate(-193.801 -121.555)" fill="#f9aa8f" fill-rule="evenodd"/>
    <path id="Path_994" data-name="Path 994" d="M420.591,242.389a1.357,1.357,0,0,1-1.017.459h0a1.356,1.356,0,0,1-1.016-.459v-1.023a1.019,1.019,0,0,1,1.016-1.017h0a1.02,1.02,0,0,1,1.017,1.017v1.023Z" transform="translate(-207.853 -117.366)" fill="#f9aa8f" fill-rule="evenodd"/>
    <path id="Path_995" data-name="Path 995" d="M303.265,262.15v-.61h2.156v.61Z" transform="translate(-149.096 -128.166)" fill="#fcd3c1" fill-rule="evenodd"/>
    <path id="Path_996" data-name="Path 996" d="M311.474,262.15v-.61h2.157v.61Z" transform="translate(-153.28 -128.166)" fill="#fcd3c1" fill-rule="evenodd"/>
    <path id="Path_997" data-name="Path 997" d="M319.685,262.15v-.61h2.157v.61Z" transform="translate(-157.465 -128.166)" fill="#fcd3c1" fill-rule="evenodd"/>
    <path id="Path_998" data-name="Path 998" d="M327.9,262.15v-.61h2.157v.61Z" transform="translate(-161.65 -128.166)" fill="#fcd3c1" fill-rule="evenodd"/>
    <path id="Path_999" data-name="Path 999" d="M336.108,262.15v-.61h2.156v.61Z" transform="translate(-165.834 -128.166)" fill="#fcd3c1" fill-rule="evenodd"/>
    <path id="Path_1000" data-name="Path 1000" d="M344.319,262.15v-.61h2.157v.61Z" transform="translate(-170.019 -128.166)" fill="#fcd3c1" fill-rule="evenodd"/>
    <path id="Path_1001" data-name="Path 1001" d="M371.617,265.99a7.124,7.124,0,1,1-14.249,0Z" transform="translate(-176.669 -130.434)" fill="#4f004f" fill-rule="evenodd"/>
    <path id="Path_1002" data-name="Path 1002" d="M342.559,265.99a7.125,7.125,0,0,1-14.249,0Z" transform="translate(-161.86 -130.434)" fill="#4f004f" fill-rule="evenodd"/>
    <path id="Path_1003" data-name="Path 1003" d="M313.5,265.99a7.125,7.125,0,1,1-14.249,0Z" transform="translate(-147.051 -130.434)" fill="#4f004f" fill-rule="evenodd"/>
    <path id="Path_1004" data-name="Path 1004" d="M308.509,197.613l.826-.827-2.212-2.212a.585.585,0,0,0-.826,0h0a.586.586,0,0,0,0,.826l2.212,2.212Z" transform="translate(-150.555 -93.952)" fill="#fff" fill-rule="evenodd"/>
    <path id="Path_1005" data-name="Path 1005" d="M309.3,196.786l.827.827,2.212-2.212a.586.586,0,0,0,0-.826h0a.585.585,0,0,0-.826,0l-2.212,2.212Z" transform="translate(-152.171 -93.952)" fill="#fff" fill-rule="evenodd"/>
    <path id="Path_1006" data-name="Path 1006" d="M308.509,206.28l.826-.826-2.212-2.212a.586.586,0,0,0-.826,0h0a.586.586,0,0,0,0,.826l2.212,2.212Z" transform="translate(-150.555 -98.369)" fill="#fff" fill-rule="evenodd"/>
    <path id="Path_1007" data-name="Path 1007" d="M309.3,205.454l.827.826,2.212-2.212a.586.586,0,0,0,0-.826h0a.586.586,0,0,0-.826,0l-2.212,2.212Z" transform="translate(-152.171 -98.369)" fill="#fff" fill-rule="evenodd"/>
    <path id="Path_1008" data-name="Path 1008" d="M308.509,214.946l.826-.827-2.212-2.212a.586.586,0,0,0-.826,0h0a.587.587,0,0,0,0,.827l2.212,2.212Z" transform="translate(-150.555 -102.786)" fill="#fff" fill-rule="evenodd"/>
    <path id="Path_1009" data-name="Path 1009" d="M309.3,214.12l.827.827,2.212-2.212a.587.587,0,0,0,0-.827h0a.586.586,0,0,0-.826,0L309.3,214.12Z" transform="translate(-152.171 -102.786)" fill="#fff" fill-rule="evenodd"/>
    <path id="Path_1010" data-name="Path 1010" d="M308.509,223.614l.826-.826-2.212-2.212a.586.586,0,0,0-.826,0h0a.586.586,0,0,0,0,.826l2.212,2.212Z" transform="translate(-150.555 -107.203)" fill="#fff" fill-rule="evenodd"/>
    <path id="Path_1011" data-name="Path 1011" d="M309.3,222.788l.827.826,2.212-2.212a.586.586,0,0,0,0-.826h0a.586.586,0,0,0-.826,0l-2.212,2.212Z" transform="translate(-152.171 -107.203)" fill="#fff" fill-rule="evenodd"/>
    <path id="Path_1012" data-name="Path 1012" d="M308.509,232.281l.826-.826-2.212-2.212a.587.587,0,0,0-.826,0h0a.588.588,0,0,0,0,.827l2.212,2.211Z" transform="translate(-150.555 -111.62)" fill="#fff" fill-rule="evenodd"/>
    <path id="Path_1013" data-name="Path 1013" d="M309.3,231.454l.827.826,2.212-2.211a.588.588,0,0,0,0-.827h0a.587.587,0,0,0-.826,0l-2.212,2.212Z" transform="translate(-152.171 -111.62)" fill="#fff" fill-rule="evenodd"/>
    <path id="Path_1014" data-name="Path 1014" d="M308.509,240.947l.826-.826-2.212-2.212a.586.586,0,0,0-.826,0h0a.587.587,0,0,0,0,.827l2.212,2.211Z" transform="translate(-150.555 -116.036)" fill="#fff" fill-rule="evenodd"/>
    <path id="Path_1015" data-name="Path 1015" d="M309.3,240.121l.827.826,2.212-2.211a.587.587,0,0,0,0-.827h0a.586.586,0,0,0-.826,0l-2.212,2.212Z" transform="translate(-152.171 -116.036)" fill="#fff" fill-rule="evenodd"/>
    <path id="Path_1016" data-name="Path 1016" d="M308.509,240.947l.826-.826-2.212-2.212a.586.586,0,0,0-.826,0h0a.587.587,0,0,0,0,.827l2.212,2.211Z" transform="translate(-150.555 -116.036)" fill="#fff" fill-rule="evenodd"/>
    <path id="Path_1017" data-name="Path 1017" d="M309.3,240.121l.827.826,2.212-2.211a.587.587,0,0,0,0-.827h0a.586.586,0,0,0-.826,0l-2.212,2.212Z" transform="translate(-152.171 -116.036)" fill="#fff" fill-rule="evenodd"/>
    <path id="Path_1018" data-name="Path 1018" d="M354.892,295.787l.827-.826-2.213-2.212a.585.585,0,0,0-.826,0h0a.586.586,0,0,0,0,.826l2.212,2.212Z" transform="translate(-174.193 -143.984)" fill="#fff" fill-rule="evenodd"/>
    <path id="Path_1019" data-name="Path 1019" d="M355.683,294.961l.826.826,2.211-2.212a.585.585,0,0,0,0-.826h0a.585.585,0,0,0-.826,0l-2.211,2.212Z" transform="translate(-175.81 -143.984)" fill="#fff" fill-rule="evenodd"/>
    <path id="Path_1020" data-name="Path 1020" d="M325.834,295.787l.826-.826-2.212-2.212a.585.585,0,0,0-.826,0h0a.586.586,0,0,0,0,.826l2.212,2.212Z" transform="translate(-159.384 -143.984)" fill="#fff" fill-rule="evenodd"/>
    <path id="Path_1021" data-name="Path 1021" d="M326.625,294.961l.826.826,2.211-2.212a.586.586,0,0,0,0-.826h0a.585.585,0,0,0-.826,0l-2.212,2.212Z" transform="translate(-161.001 -143.984)" fill="#fff" fill-rule="evenodd"/>
    <path id="Path_1022" data-name="Path 1022" d="M367.531,78.345H376.8V93.6a3.829,3.829,0,0,0,3.818,3.818h0a3.829,3.829,0,0,0,3.817-3.818v2.371a8.475,8.475,0,0,1-8.451,8.45h0a8.475,8.475,0,0,1-8.45-8.45V78.345Z" transform="translate(-181.848 -34.805)" fill-rule="evenodd"/>
    <path id="Path_1023" data-name="Path 1023" d="M391.1,120.1l-.589-.158.6-2.225.589.158-.6,2.225Z" transform="translate(-193.559 -54.869)" fill="#fcd3c1" fill-rule="evenodd"/>
    <path id="Path_1024" data-name="Path 1024" d="M393.368,111.628l-.589-.158.6-2.226.589.158-.6,2.226Z" transform="translate(-194.715 -50.552)" fill="#fcd3c1" fill-rule="evenodd"/>
    <path id="Path_1025" data-name="Path 1025" d="M395.638,103.157l-.589-.158.6-2.225.589.158-.6,2.225Z" transform="translate(-195.872 -46.236)" fill="#fcd3c1" fill-rule="evenodd"/>
    <path id="Path_1026" data-name="Path 1026" d="M397.907,94.687l-.59-.158.6-2.225.589.158-.6,2.225Z" transform="translate(-197.028 -41.92)" fill="#fcd3c1" fill-rule="evenodd"/>
    <path id="Path_1027" data-name="Path 1027" d="M400.176,86.218l-.59-.158.6-2.224.589.158-.6,2.225Z" transform="translate(-198.185 -37.603)" fill="#fcd3c1" fill-rule="evenodd"/>
    <path id="Path_1028" data-name="Path 1028" d="M402.447,77.747l-.589-.158.6-2.225.589.158-.6,2.225Z" transform="translate(-199.342 -33.286)" fill="#fcd3c1" fill-rule="evenodd"/>
    <path id="Path_1031" data-name="Path 1031" d="M454.172,75.355a4.523,4.523,0,1,0-4.522,4.522,4.523,4.523,0,0,0,4.522-4.522Z" transform="translate(-221.393 -30.977)" fill="#fff" fill-rule="evenodd"/>
    <path id="Path_1032" data-name="Path 1032" d="M454.25,77.406a2.549,2.549,0,1,0-2.548,2.548,2.549,2.549,0,0,0,2.548-2.548Z" transform="translate(-223.444 -33.028)" fill-rule="evenodd"/>
    <path id="Path_1033" data-name="Path 1033" d="M336.062,67.407h8.658V59.461h4.162V54.351a13.094,13.094,0,0,0-13.056-13.056h0A13.1,13.1,0,0,0,322.77,54.351v7.193h13.292v5.863Z" transform="translate(-159.037 -15.924)" fill="#40dbdb" fill-rule="evenodd"/>
    <path id="Path_1034" data-name="Path 1034" d="M317.211,45.682a.722.722,0,1,1-.723.721.722.722,0,0,1,.723-.721Z" transform="translate(-155.835 -18.16)" fill="#fff" fill-rule="evenodd"/>
    <path id="Path_1035" data-name="Path 1035" d="M322.3,45.682a.722.722,0,1,1-.722.721.722.722,0,0,1,.722-.721Z" transform="translate(-158.428 -18.16)" fill="#fff" fill-rule="evenodd"/>
    <path id="Path_1036" data-name="Path 1036" d="M327.385,45.682a.722.722,0,1,1-.722.721.722.722,0,0,1,.722-.721Z" transform="translate(-161.021 -18.16)" fill="#fff" fill-rule="evenodd"/>
    <path id="Path_1037" data-name="Path 1037" d="M332.471,45.682a.722.722,0,1,1-.721.721.721.721,0,0,1,.721-.721Z" transform="translate(-163.613 -18.16)" fill="#fff" fill-rule="evenodd"/>
    <path id="Path_1038" data-name="Path 1038" d="M337.558,45.682a.722.722,0,1,1-.722.721.722.722,0,0,1,.722-.721Z" transform="translate(-166.205 -18.16)" fill="#fff" fill-rule="evenodd"/>
    <path id="Path_1039" data-name="Path 1039" d="M319.542,64.921a3.679,3.679,0,0,0-1.341,7.053,2.22,2.22,0,0,0,1.461,3.893h.415V64.92h-.319c-.073,0-.143,0-.216,0Z" transform="translate(-155.578 -27.964)" fill="#40dbdb" fill-rule="evenodd"/>
    <path id="Path_1040" data-name="Path 1040" d="M365.213,78.345a2.23,2.23,0,1,1-2.231,2.231,2.23,2.23,0,0,1,2.231-2.231Z" transform="translate(-179.53 -34.805)" fill-rule="evenodd"/>
    <path id="Path_1041" data-name="Path 1041" d="M365.719,58.618,368.86,54.1l6.592,11.877L370.77,66l-5.051-7.38Z" transform="translate(-180.924 -22.448)" fill="#40dbdb" fill-rule="evenodd"/>
    <path id="Path_1042" data-name="Path 1042" d="M360.647,88.06l-3.718,3.393,3.718,3.394.055.052a2.024,2.024,0,1,0,1.788-3.447,1.983,1.983,0,0,0,.359-.1,2.024,2.024,0,1,0-2.147-3.342l-.055.053Z" transform="translate(-176.445 -39.441)" fill="#ed1651" fill-rule="evenodd"/>
    <path id="Path_1043" data-name="Path 1043" d="M330.47,49.746a11.527,11.527,0,0,1,9.988,5.765,11.534,11.534,0,0,1-19.976,0,11.527,11.527,0,0,1,9.988-5.765Z" transform="translate(-157.871 -20.231)" fill="#fff" fill-rule="evenodd"/>
    <path id="Path_1044" data-name="Path 1044" d="M338.765,51.121a5.091,5.091,0,1,1-5.092,5.091,5.09,5.09,0,0,1,5.092-5.091Z" transform="translate(-164.593 -20.931)" fill="#d1d3d4" fill-rule="evenodd"/>
    <path id="Path_1045" data-name="Path 1045" d="M341.414,61.4a2.542,2.542,0,1,0-2.543-2.542,2.542,2.542,0,0,0,2.543,2.542Z" transform="translate(-167.242 -23.581)" fill="#a1587b" fill-rule="evenodd"/>
    <path id="Path_1062" data-name="Path 1062" d="M447.464,87.741q.375.739.677,1.517l-.617.2q-.279-.714-.622-1.393l.562-.325Zm1.252,3.293q.211.8.344,1.624l-.645.068q-.123-.759-.316-1.493l.617-.2Zm.537,3.481q.021.412.021.83c0,.278-.007.555-.021.83l-.645-.068c.012-.253.019-.507.019-.762s-.006-.51-.019-.763l.645-.067Zm-.193,3.516q-.132.826-.344,1.625l-.617-.2q.194-.733.316-1.492l.645.068Zm-.92,3.4a16.444,16.444,0,0,1-.677,1.517l-.561-.324q.342-.679.622-1.393l.616.2Zm-1.612,3.133q-.455.7-.976,1.342l-.482-.434q.477-.594.9-1.233l.562.325Zm-2.225,2.729q-.588.585-1.234,1.111l-.381-.524q.59-.485,1.133-1.021l.482.434Zm-2.743,2.21q-.7.449-1.437.832l-.265-.593q.68-.352,1.321-.764l.381.525Zm-3.143,1.591q-.772.294-1.58.513l-.135-.634q.741-.2,1.451-.471l.264.592Zm-3.405.9q-.814.125-1.652.171v-.649c.512-.029,1.019-.081,1.517-.157l.135.636Zm-3.518.171q-.838-.046-1.651-.171l.134-.636q.748.115,1.517.157v.649Z" transform="translate(-213.604 -39.594)" fill="#e6e7e8" fill-rule="evenodd"/>
    <path id="Path_1064" data-name="Path 1064" d="M490.638,166.3h0a.756.756,0,0,1,.754.754v2.259a.756.756,0,0,1-.754.755h0a.756.756,0,0,1-.754-.755v-2.259a.756.756,0,0,1,.754-.754Z" transform="translate(-244.202 -79.63)" fill="#ed1c24" fill-rule="evenodd"/>
    <path id="Path_1065" data-name="Path 1065" d="M500.054,166.3h0a.756.756,0,0,1,.754.754v2.259a.756.756,0,0,1-.754.755h0a.756.756,0,0,1-.754-.755v-2.259a.756.756,0,0,1,.754-.754Z" transform="translate(-249.001 -79.63)" fill="#ed1c24" fill-rule="evenodd"/>
    <path id="Path_1068" data-name="Path 1068" d="M486.545,140.97a4.688,4.688,0,1,1-4.688,4.688,4.689,4.689,0,0,1,4.688-4.688Z" transform="translate(-240.111 -66.721)" fill="#8c3140" fill-rule="evenodd"/>
    <path id="Path_1069" data-name="Path 1069" d="M488.486,144.779a2.821,2.821,0,1,1-2.821,2.82,2.821,2.821,0,0,1,2.821-2.82Z" transform="translate(-242.052 -68.662)" fill="#b8e9ff" fill-rule="evenodd"/>
    <path id="Path_1070" data-name="Path 1070" d="M257.318,50.617v25.7a8.513,8.513,0,0,0,2.131,5.632,12.23,12.23,0,0,0,21.884-10.156h0l-7.073-46.916v0a17.166,17.166,0,0,0-16.943-14.832h-7.1v.009c.123,0,.247,0,.37,0a16.811,16.811,0,0,1,6.732,32.214v8.349Z" transform="translate(-122.061 0)" fill="#6f1b5c" fill-rule="evenodd"/>
    <path id="Path_1071" data-name="Path 1071" d="M271.634,87.854H264.7v1.584h6.935V87.854Z" transform="translate(-129.442 -39.651)" fill="#ede1db" fill-rule="evenodd"/>
    <path id="Path_1072" data-name="Path 1072" d="M277.734,83.932a2.715,2.715,0,1,0,2.715,2.715,2.715,2.715,0,0,0-2.715-2.715Z" transform="translate(-134.702 -37.653)" fill="#f58220" fill-rule="evenodd"/>
    <path id="Path_1073" data-name="Path 1073" d="M271.634,100.941H264.7v1.584h6.935v-1.584Z" transform="translate(-129.442 -46.321)" fill="#ede1db" fill-rule="evenodd"/>
    <path id="Path_1074" data-name="Path 1074" d="M277.734,97.019a2.715,2.715,0,1,0,2.715,2.716,2.715,2.715,0,0,0-2.715-2.716Z" transform="translate(-134.702 -44.322)" fill="#f58220" fill-rule="evenodd"/>
    <path id="Path_1075" data-name="Path 1075" d="M271.634,114.029H264.7v1.584h6.935v-1.584Z" transform="translate(-129.442 -52.991)" fill="#ede1db" fill-rule="evenodd"/>
    <path id="Path_1076" data-name="Path 1076" d="M277.734,110.107a2.715,2.715,0,1,0,2.715,2.715,2.715,2.715,0,0,0-2.715-2.715Z" transform="translate(-134.702 -50.992)" fill="#f58220" fill-rule="evenodd"/>
    <path id="Path_1077" data-name="Path 1077" d="M306.521,96.168a12.624,12.624,0,0,0-.453-3.311h0l-6.224-41.283a11.284,11.284,0,0,0-1.067,4.8v29.32a10.955,10.955,0,0,0,7.743,10.473Z" transform="translate(-146.81 -21.162)" fill="#8c3140" fill-rule="evenodd"/>
    <path id="Path_1078" data-name="Path 1078" d="M490.78,148.192a1.237,1.237,0,1,1-1.7.4,1.236,1.236,0,0,1,1.7-.4Z" transform="translate(-243.697 -70.307)" fill="#fff" fill-rule="evenodd"/>
    <path id="Path_1079" data-name="Path 1079" d="M485.368,156.964a1.237,1.237,0,1,1-1.7.4,1.237,1.237,0,0,1,1.7-.4Z" transform="translate(-240.939 -74.778)" fill="#fff" fill-rule="evenodd"/>
    <path id="Path_1080" data-name="Path 1080" d="M479.958,165.736a1.237,1.237,0,1,1-1.7.4,1.237,1.237,0,0,1,1.7-.4Z" transform="translate(-238.182 -79.248)" fill="#fff" fill-rule="evenodd"/>
    <path id="Path_1081" data-name="Path 1081" d="M474.546,174.509a1.237,1.237,0,1,1-1.7.4,1.237,1.237,0,0,1,1.7-.4Z" transform="translate(-235.424 -83.719)" fill="#fff" fill-rule="evenodd"/>
    <path id="Path_1082" data-name="Path 1082" d="M469.133,183.281a1.237,1.237,0,1,1-1.7.4,1.237,1.237,0,0,1,1.7-.4Z" transform="translate(-232.665 -88.189)" fill="#fff" fill-rule="evenodd"/>
    <path id="Path_1083" data-name="Path 1083" d="M463.721,192.054a1.237,1.237,0,1,1-1.7.4,1.237,1.237,0,0,1,1.7-.4Z" transform="translate(-229.908 -92.66)" fill="#fff" fill-rule="evenodd"/>
  </g>
</svg>
