<?xml version="1.0" encoding="UTF-8"?>
<!DOCTYPE svg PUBLIC "-//W3C//DTD SVG 1.1//EN" "http://www.w3.org/Graphics/SVG/1.1/DTD/svg11.dtd">
<!-- Creator: CorelDRAW -->
<svg xmlns="http://www.w3.org/2000/svg" xml:space="preserve" width="6.82666in" height="6.82666in" style="shape-rendering:geometricPrecision; text-rendering:geometricPrecision; image-rendering:optimizeQuality; fill-rule:evenodd; clip-rule:evenodd"
viewBox="0 0 6.82666 6.82666"
 xmlns:xlink="http://www.w3.org/1999/xlink">
 <defs>
  <style type="text/css">
   <![CDATA[
    .fil0 {fill:#009688}
    .fil1 {fill:#FFFFFE}
    .fil2 {fill:#FFFFFE;fill-rule:nonzero}
   ]]>
  </style>
 </defs>
 <g id="Layer_x0020_1">
  <metadata id="CorelCorpID_0Corel-Layer"/>
  <circle class="fil0" cx="3.41333" cy="3.41333" r="3.41333"/>
  <g id="_450009136">
   <path id="_450009376" class="fil1" d="M2.07167 1.54667l1.82438 0 0 0.781173c0,0.0858819 0.0696772,0.155555 0.155555,0.155555l0.781173 0 0 2.71883c0,0.0429528 -0.0348268,0.0777795 -0.0777795,0.0777795l-2.68333 0c-0.0429528,0 -0.0777795,-0.0348268 -0.0777795,-0.0777795l0 -3.57778c0,-0.0429567 0.0348268,-0.0777795 0.0777795,-0.0777795zm0.331626 2.26246l0.973685 0 0 0.116665 -0.973685 0 0 -0.116665zm0 0.800681l2.02008 0 0 0.116669 -2.02008 0 0 -0.116669zm0 -0.400339l2.02008 0 0 0.116665 -2.02008 0 0 -0.116665zm0.453047 -2.10929c0.142142,0 0.270839,0.0576181 0.363988,0.150772 0.0931575,0.0931575 0.15078,0.221854 0.15078,0.363996 0,0.142142 -0.057622,0.270839 -0.15078,0.363992 -0.0230276,0.0230354 -0.0482323,0.0438898 -0.0752756,0.0622441l0.112031 0.495744 0.000149606 -3.14961e-005c0.00606693,0.0268386 -0.0107795,0.0535197 -0.037622,0.0595827 -0.0183386,0.00414567 -0.0365984,-0.00240157 -0.0482638,-0.0155315l-0.315008 -0.305004 -0.317646 0.307559 -0.0346457 -0.035626 0.0346614 0.0357992c-0.0197717,0.0191417 -0.0513189,0.0186378 -0.0704606,-0.0011378 -0.0131339,-0.0135591 -0.0170118,-0.0326693 -0.0117756,-0.0495079l0.11115 -0.49185c-0.0270433,-0.0183543 -0.052248,-0.0392047 -0.0752756,-0.0622402 -0.0931575,-0.0931535 -0.15078,-0.22185 -0.15078,-0.363992 0,-0.142142 0.057622,-0.270839 0.15078,-0.363996 0.0931496,-0.0931535 0.22185,-0.150772 0.363992,-0.150772zm0.197945 0.990091c-0.0609409,0.0254094 -0.127803,0.0394488 -0.197945,0.0394488 -0.0701457,0 -0.137012,-0.0140433 -0.197949,-0.0394488l-0.0691417 0.305937 0.229906 -0.222602c0.000448819,-0.000503937 0.000913386,-0.00100394 0.00138583,-0.00149606 0.0191417,-0.0197717 0.050689,-0.0202756 0.0704606,-0.00113386l-0.0346614 0.0357953 0.0346457 -0.035622 0.232437 0.225059 -0.0691378 -0.305937z"/>
   <path id="_450009112" class="fil2" d="M3.14987 2.32142c-0.0751142,-0.0751142 -0.178898,-0.121579 -0.293528,-0.121579 -0.114634,0 -0.218417,0.0464646 -0.293531,0.121579 -0.0751142,0.0751181 -0.121579,0.178898 -0.121579,0.293531 0,0.114634 0.0464646,0.218417 0.121579,0.293528 0.0751142,0.0751181 0.178898,0.121583 0.293531,0.121583 0.11463,0 0.218413,-0.0464646 0.293528,-0.121583 0.0751142,-0.0751102 0.121579,-0.178894 0.121579,-0.293528 0,-0.114634 -0.0464646,-0.218413 -0.121579,-0.293531z"/>
   <path id="_450008704" class="fil2" d="M4.0516 2.40562c-0.0429528,0 -0.0777795,-0.0348268 -0.0777795,-0.0777795l0 -0.702756c0,-0.0433228 0.0342874,-0.0784134 0.0777795,-0.0784134 0.0217244,0 0.0413583,0.00890551 0.0554724,0.0232638l0.702909 0.702913 7.87402e-006 -7.87402e-006c0.0303701,0.030374 0.0303701,0.079622 0,0.109996 -0.015189,0.015185 -0.0350945,0.0227835 -0.055,0.0227795l-0.70339 3.93701e-006z"/>
  </g>
 </g>
</svg>
