<svg xmlns="http://www.w3.org/2000/svg" width="26.339" height="22.283" viewBox="0 0 26.339 22.283">
  <g id="Icon_feather-users" data-name="Icon feather-users" transform="translate(1.5 1.687)">
    <path id="Path_2207" data-name="Path 2207" d="M18.474,28.865V26.743A4.243,4.243,0,0,0,14.23,22.5H5.743A4.243,4.243,0,0,0,1.5,26.743v2.122" transform="translate(-1.5 -9.77)" fill="none" stroke="#a11a2e" stroke-linecap="round" stroke-linejoin="round" stroke-width="3"/>
    <path id="Path_2208" data-name="Path 2208" d="M15.987,8.743A4.243,4.243,0,1,1,11.743,4.5,4.243,4.243,0,0,1,15.987,8.743Z" transform="translate(-3.257 -4.5)" fill="none" stroke="#a11a2e" stroke-linecap="round" stroke-linejoin="round" stroke-width="3"/>
    <path id="Path_2209" data-name="Path 2209" d="M33.183,28.922V26.8A4.243,4.243,0,0,0,30,22.7" transform="translate(-9.843 -9.827)" fill="none" stroke="#a11a2e" stroke-linecap="round" stroke-linejoin="round" stroke-width="3"/>
    <path id="Path_2210" data-name="Path 2210" d="M24,4.7a4.243,4.243,0,0,1,0,8.222" transform="translate(-8.087 -4.557)" fill="none" stroke="#a11a2e" stroke-linecap="round" stroke-linejoin="round" stroke-width="3"/>
  </g>
</svg>
