<?xml version="1.0" encoding="UTF-8"?>
<!DOCTYPE svg PUBLIC "-//W3C//DTD SVG 1.1//EN" "http://www.w3.org/Graphics/SVG/1.1/DTD/svg11.dtd">
<!-- Creator: CorelDRAW -->
<svg xmlns="http://www.w3.org/2000/svg" xml:space="preserve" width="6.82666in" height="6.82666in" style="shape-rendering:geometricPrecision; text-rendering:geometricPrecision; image-rendering:optimizeQuality; fill-rule:evenodd; clip-rule:evenodd"
viewBox="0 0 6.82666 6.82666"
 xmlns:xlink="http://www.w3.org/1999/xlink">
 <defs>
  <style type="text/css">
   <![CDATA[
    .fil0 {fill:#424242}
    .fil1 {fill:#FFFFFE}
    .fil2 {fill:#FFFFFE;fill-rule:nonzero}
   ]]>
  </style>
 </defs>
 <g id="Layer_x0020_1">
  <metadata id="CorelCorpID_0Corel-Layer"/>
  <circle class="fil0" cx="3.41333" cy="3.41333" r="3.41333"/>
  <g id="_281885336">
   <path id="_281885528" class="fil1" d="M2.07167 1.54667l1.82438 0 0 0.781173c0,0.0858819 0.0696772,0.155555 0.155555,0.155555l0.781173 0 0 2.71883c0,0.0429528 -0.0348268,0.0777795 -0.0777795,0.0777795l-2.68333 0c-0.0429528,0 -0.0777795,-0.0348268 -0.0777795,-0.0777795l0 -3.57778c0,-0.0429567 0.0348268,-0.0777795 0.0777795,-0.0777795zm0.854823 1.99042l0.973685 0 0 0.116669 -0.973685 0 0 -0.116669zm0.244106 -0.730126c-0.0491378,0.0277402 -0.0914567,0.0689055 -0.123252,0.119228 -0.0394094,0.0623583 -0.0627323,0.138843 -0.0627323,0.221024l0 0.00618504c0,0.0269685 0.00984646,0.0518701 0.0257087,0.0702677 0.0172441,0.0200039 0.0415,0.0324252 0.0685984,0.0324252l0.668827 0c0.0270984,0 0.0513543,-0.0124213 0.0685984,-0.0324252 0.0158622,-0.0183976 0.0257087,-0.0432992 0.0257087,-0.0702677l0 -0.00618504c0,-0.0816102 -0.0229449,-0.157535 -0.061752,-0.219559 -0.0315866,-0.0504764 -0.0737165,-0.0918504 -0.122685,-0.119846 -0.0130472,0.0266102 -0.0304094,0.051126 -0.0527047,0.0726417 -0.133232,0.128555 -0.35111,0.0875315 -0.434315,-0.0734882zm0.242736 0.108035l-9.05512e-005 0 -0.000153543 0c-0.0513268,-6.69291e-005 -0.112945,-0.0210315 -0.160004,-0.0664409 -0.0375827,-0.0362677 -0.0660039,-0.0877795 -0.0726299,-0.156126 -0.000488189,-0.00506299 -0.000870079,-0.0138386 -0.00115748,-0.0233228 -0.00038189,-0.0126654 -0.000614173,-0.0280394 -0.000669291,-0.0354331 -0.000685039,-0.0881772 0.0277835,-0.145705 0.072752,-0.18224 0.0437717,-0.035563 0.101102,-0.0486339 0.16113,-0.049815l0 -0.000153543c0.00185433,-3.54331e-005 0.00367323,4.72441e-005 0.00546457,0.000244094 0.0586417,0.00166142 0.114472,0.0149213 0.157311,0.0497244 0.0449685,0.0365354 0.073437,0.094063 0.072752,0.18224 -5.51181e-005,0.0073937 -0.000287402,0.0227677 -0.000669291,0.0354331 -0.000287402,0.00948425 -0.000669291,0.0182598 -0.00115748,0.0233228 -0.00681102,0.0702953 -0.0330079,0.121854 -0.0703622,0.157898 -0.043626,0.0420945 -0.101319,0.0616575 -0.160516,0.0645039l3.93701e-006 0.00011811c-0.000669291,3.14961e-005 -0.00133858,4.72441e-005 -0.00200394,4.72441e-005l0 0zm-1.01004 1.42278l2.02008 0 0 0.116665 -2.02008 0 0 -0.116665zm0 -0.400343l2.02008 0 0 0.116665 -2.02008 0 0 -0.116665z"/>
   <path id="_281885384" class="fil2" d="M4.0516 2.40562c-0.0429528,0 -0.0777795,-0.0348268 -0.0777795,-0.0777795l0 -0.702756c0,-0.0433228 0.0342874,-0.0784134 0.0777795,-0.0784134 0.0217244,0 0.0413583,0.00890551 0.0554724,0.0232638l0.702909 0.702913 7.87402e-006 -7.87402e-006c0.0303701,0.030374 0.0303701,0.079622 0,0.109996 -0.015189,0.015185 -0.0350945,0.0227835 -0.055,0.0227795l-0.70339 3.93701e-006z"/>
  </g>
 </g>
</svg>
