<?xml version="1.0" encoding="UTF-8"?>
<!DOCTYPE svg PUBLIC "-//W3C//DTD SVG 1.1//EN" "http://www.w3.org/Graphics/SVG/1.1/DTD/svg11.dtd">
<!-- Creator: CorelDRAW -->
<svg xmlns="http://www.w3.org/2000/svg" xml:space="preserve" width="6.82666in" height="6.82666in" style="shape-rendering:geometricPrecision; text-rendering:geometricPrecision; image-rendering:optimizeQuality; fill-rule:evenodd; clip-rule:evenodd"
viewBox="0 0 6.82666 6.82666"
 xmlns:xlink="http://www.w3.org/1999/xlink">
 <defs>
  <style type="text/css">
   <![CDATA[
    .fil0 {fill:#7E57C2}
    .fil1 {fill:#FFFFFE;fill-rule:nonzero}
   ]]>
  </style>
 </defs>
 <g id="Layer_x0020_1">
  <metadata id="CorelCorpID_0Corel-Layer"/>
  <circle class="fil0" cx="3.41333" cy="3.41333" r="3.41333"/>
  <g id="_283591104">
   <path id="_283592376" class="fil1" d="M3.41333 2.35776l-0.000161417 0 -0.000267717 -3.93701e-006c-0.0750669,-0.00011811 -0.165122,-0.0307441 -0.233827,-0.0970394 -0.0548504,-0.0529291 -0.0963268,-0.127988 -0.105957,-0.227421 -0.000716535,-0.00738976 -0.00127559,-0.0199764 -0.0016811,-0.0335236 -0.000531496,-0.0175157 -0.000854331,-0.0391732 -0.000937008,-0.0496772 -0.000988189,-0.12828 0.0409646,-0.212409 0.107232,-0.266252 0.064126,-0.0521024 0.147323,-0.0712441 0.234134,-0.0729488l-3.93701e-006 -0.000275591c0.00333465,-6.69291e-005 0.00662205,9.05512e-005 0.00984646,0.000452756 0.0843071,0.00257087 0.164799,0.0220551 0.227224,0.0727717 0.0662677,0.0538425 0.10822,0.137969 0.107228,0.266252 -8.26772e-005,0.0105079 -0.000405512,0.0321732 -0.000933071,0.0496929 -0.000413386,0.0135394 -0.000968504,0.0261142 -0.0016811,0.0335079 -0.00988189,0.102063 -0.0481693,0.177169 -0.102803,0.229886 -0.0637913,0.0615551 -0.147795,0.0901378 -0.233846,0.0942835l1.1811e-005 0.000204724c-0.00119685,5.90551e-005 -0.0023937,8.26772e-005 -0.00357874,8.66142e-005l0 3.93701e-006z"/>
   <path id="_283592256" class="fil1" d="M3.70264 2.33109c0.095563,0.0375197 0.17752,0.108476 0.235031,0.200386 0.0555551,0.0887835 0.0883976,0.197386 0.0883976,0.314043l0 0.0086063c0,0.0415315 -0.015248,0.0799803 -0.0398071,0.108461 -0.0270236,0.0313543 -0.0651457,0.0508189 -0.107811,0.0508189l-0.93024 0c-0.0426614,0 -0.0807835,-0.0194646 -0.107815,-0.0508189 -0.0245591,-0.0284803 -0.0398071,-0.0669291 -0.0398071,-0.108461l0 -0.0086063c0,-0.117449 0.0333976,-0.226854 0.0898228,-0.316138 0.0590748,-0.0934921 0.143535,-0.165055 0.241874,-0.201421l-3.54331e-005 -0.000106299c0.0317874,-0.0117402 0.0664488,-0.000472441 0.0857244,0.0253858 0.00470472,0.00548031 0.00935827,0.0105118 0.0139567,0.0150669 0.00605512,0.00600787 0.0121457,0.0115394 0.0182441,0.0165551 0.0233543,0.0191969 0.0504764,0.0346772 0.0792953,0.0450315 0.0271811,0.00976378 0.0557205,0.0149213 0.0837913,0.014252 0.0435394,-0.00104331 0.082685,-0.00998425 0.116606,-0.0257165 0.0333622,-0.0154646 0.0617283,-0.0377835 0.0842402,-0.0657992l-0.000149606 -0.00011811c0.0217244,-0.0270433 0.0584291,-0.0349606 0.0886811,-0.0214213z"/>
   <path id="_283592304" class="fil1" d="M2.1594 4.56041l-0.000161417 0 -0.000267717 0c-0.0750669,-0.00011811 -0.165118,-0.0307441 -0.233823,-0.0970394 -0.0548543,-0.0529291 -0.0963307,-0.127988 -0.105961,-0.227421 -0.000712598,-0.00738976 -0.00127165,-0.0199803 -0.0016811,-0.0335236 -0.000531496,-0.0175157 -0.000854331,-0.0391732 -0.000933071,-0.0496772 -0.000992126,-0.12828 0.0409606,-0.212413 0.107228,-0.266252 0.064126,-0.0521024 0.147319,-0.0712402 0.234134,-0.0729488l-7.87402e-006 -0.000275591c0.00333465,-6.69291e-005 0.00661811,9.05512e-005 0.00984646,0.000448819 0.0843071,0.00257874 0.164807,0.0220551 0.227228,0.0727756 0.0662677,0.0538386 0.108217,0.137976 0.107228,0.266252 -7.87402e-005,0.0105079 -0.000401575,0.0321732 -0.000933071,0.049689 -0.000413386,0.0135433 -0.000964567,0.0261181 -0.0016811,0.0335118 -0.00988189,0.102063 -0.0481693,0.177169 -0.102803,0.229886 -0.0637913,0.0615512 -0.147795,0.0901378 -0.233843,0.0942835l1.1811e-005 0.000204724c-0.00120079,5.90551e-005 -0.00239764,8.26772e-005 -0.00358268,8.66142e-005l0 0z"/>
   <path id="_283591872" class="fil1" d="M2.44871 4.53375c0.0955669,0.0375157 0.17752,0.108476 0.235035,0.200386 0.0555512,0.0887835 0.0883937,0.19739 0.0883937,0.314043l0 0.00860236c0,0.0415315 -0.015248,0.0799843 -0.0398071,0.108465 -0.0270276,0.0313543 -0.0651496,0.050815 -0.107811,0.050815l-0.93024 0c-0.0426614,0 -0.0807795,-0.0194606 -0.107815,-0.050815 -0.0245551,-0.0284803 -0.0398071,-0.0669331 -0.0398071,-0.108465l0 -0.00860236c0,-0.117453 0.0334016,-0.226854 0.0898228,-0.316138 0.0590748,-0.0934921 0.143535,-0.165055 0.241878,-0.201425l-3.93701e-005 -0.000102362c0.0317874,-0.0117402 0.0664488,-0.000472441 0.0857244,0.0253858 0.00470472,0.00548031 0.00935827,0.0105118 0.0139567,0.0150669 0.00605906,0.00600787 0.0121496,0.0115394 0.018248,0.0165512 0.0233504,0.0192008 0.0504724,0.0346811 0.0792913,0.0450354 0.0271811,0.00976378 0.0557205,0.0149213 0.0837913,0.014252 0.0435433,-0.00104724 0.082685,-0.00998425 0.116606,-0.0257165 0.0333622,-0.0154646 0.0617323,-0.0377874 0.0842402,-0.0657992l-0.000149606 -0.00011811c0.0217244,-0.0270433 0.0584331,-0.0349606 0.0886811,-0.0214213z"/>
   <path id="_283592208" class="fil1" d="M4.66726 4.56041l-0.000165354 0 -0.00026378 0c-0.0750709,-0.00011811 -0.165122,-0.0307441 -0.233827,-0.0970394 -0.0548543,-0.0529291 -0.0963307,-0.127988 -0.105961,-0.227421 -0.000712598,-0.00738976 -0.00127165,-0.0199803 -0.0016811,-0.0335236 -0.000531496,-0.0175157 -0.000854331,-0.0391732 -0.000933071,-0.0496772 -0.000988189,-0.12828 0.0409606,-0.212413 0.107228,-0.266252 0.0641299,-0.0521024 0.147323,-0.0712402 0.234134,-0.0729488l-3.93701e-006 -0.000275591c0.00333465,-6.69291e-005 0.00661811,9.05512e-005 0.00984252,0.000448819 0.084311,0.00257874 0.164807,0.0220551 0.227232,0.0727756 0.0662677,0.0538386 0.10822,0.137972 0.107224,0.266252 -7.87402e-005,0.0105079 -0.000401575,0.0321732 -0.000929134,0.049689 -0.000413386,0.0135433 -0.000968504,0.0261181 -0.0016811,0.0335118 -0.00988583,0.102063 -0.0481732,0.177169 -0.102803,0.229886 -0.0637913,0.0615512 -0.147799,0.0901378 -0.233846,0.0942835l1.1811e-005 0.000204724c-0.00119685,5.90551e-005 -0.0023937,8.26772e-005 -0.00357874,8.66142e-005l0 0z"/>
   <path id="_283592352" class="fil1" d="M4.95657 4.53375c0.0955669,0.0375157 0.177524,0.108476 0.235035,0.200386 0.0555551,0.0887835 0.0883976,0.19739 0.0883976,0.314043l0 0.00860236c0,0.0415315 -0.015252,0.0799843 -0.0398071,0.108465 -0.0270236,0.0313504 -0.0651457,0.050815 -0.107811,0.050815l-0.930244 0c-0.0426614,0 -0.0807795,-0.0194606 -0.107811,-0.050815 -0.0245591,-0.0284803 -0.0398071,-0.0669331 -0.0398071,-0.108465l0 -0.00860236c0,-0.117453 0.0333976,-0.226854 0.0898189,-0.316138 0.0590748,-0.0934921 0.143535,-0.165055 0.241878,-0.201425l-3.93701e-005 -0.000102362c0.0317913,-0.0117402 0.0664528,-0.000472441 0.0857283,0.0253858 0.00470079,0.00548031 0.00935827,0.0105118 0.0139528,0.0150669 0.00605906,0.00600787 0.0121496,0.0115394 0.018248,0.0165512 0.0233543,0.0192008 0.0504764,0.0346811 0.0792913,0.0450354 0.027185,0.00976378 0.0557244,0.0149213 0.0837913,0.014252 0.0435433,-0.00104724 0.082685,-0.00998425 0.11661,-0.0257165 0.0333622,-0.0154646 0.0617323,-0.0377874 0.0842362,-0.0657992l-0.000145669 -0.00011811c0.0217244,-0.0270433 0.0584291,-0.0349606 0.0886772,-0.0214213z"/>
   <path id="_283591992" class="fil1" d="M3.38926 5.17245c0.0286417,0.0292717 0.0758268,0.0295512 0.105378,0.00061811 0.0295551,-0.0289331 0.0302992,-0.076126 0.00165748,-0.105398l-0.20878 -0.214142 0.47839 0.0036378c0.0411929,0.000393701 0.0752402,-0.032689 0.0760354,-0.0738898 0.000799213,-0.0412008 -0.0319449,-0.0749252 -0.0731417,-0.0753189l-0.473118 -0.00359843 0.210724 -0.205567c0.0295512,-0.0289331 0.0302953,-0.076122 0.00165354,-0.105394 -0.0286417,-0.0292717 -0.0758268,-0.0295512 -0.105378,-0.00061811l-0.338217 0.329933c-0.00166142,0.00136614 -0.00327953,0.00280709 -0.00485039,0.00433858 -0.0297165,0.0289882 -0.0305433,0.0763583 -0.00184646,0.105795l0.053811 -0.0524961 -0.0535157 0.0523898 0.331197 0.339709z"/>
   <path id="_283591464" class="fil1" d="M2.72945 3.60231c0.000645669,0.0409488 -0.0323583,0.0746693 -0.0737126,0.075311 -0.0413504,0.000641732 -0.0754094,-0.0320354 -0.0760551,-0.0729843l-0.00525591 -0.299028 -0.334028 0.342488c-0.0287047,0.0295472 -0.0761654,0.0304606 -0.106008,0.00203543 -0.0298386,-0.0284252 -0.0307559,-0.0754213 -0.00205118,-0.104969l0.330346 -0.338713 -0.294339 0.00508661c-0.0413543,0.000641732 -0.0754134,-0.0320354 -0.0760551,-0.0729803 -0.000645669,-0.0409488 0.0323543,-0.0746732 0.0737087,-0.075315l0.472421 -0.00816929c0.0021378,-0.000220472 0.00430315,-0.000354331 0.00649213,-0.000393701 0.0415079,-0.000716535 0.075752,0.0320276 0.0764724,0.073126l-0.0751614 0.00130315 0.0748819 -0.00116535 0.00834252 0.474366z"/>
   <path id="_283591704" class="fil1" d="M4.77929 3.07895c0.000645669,-0.0409488 -0.0323543,-0.0746732 -0.0737087,-0.075315 -0.0413543,-0.000641732 -0.0754094,0.0320354 -0.0760551,0.0729843l-0.00525591 0.299028 -0.334028 -0.342484c-0.0287087,-0.0295472 -0.0761693,-0.0304606 -0.106008,-0.00203543 -0.0298386,0.0284213 -0.0307559,0.0754173 -0.00205118,0.104969l0.330346 0.338713 -0.294343 -0.00509055c-0.0413543,-0.000641732 -0.0754094,0.0320354 -0.0760551,0.0729843 -0.000645669,0.0409488 0.0323583,0.0746732 0.0737087,0.075315l0.472425 0.00816929c0.0021378,0.000220472 0.00429921,0.000354331 0.00649213,0.000389764 0.0415079,0.000720472 0.075748,-0.0320236 0.0764724,-0.073126l-0.0751654 -0.00129921 0.0748858 0.00116535 0.00833858 -0.474366z"/>
  </g>
 </g>
</svg>
