<svg id="Group_117" data-name="Group 117" xmlns="http://www.w3.org/2000/svg" xmlns:xlink="http://www.w3.org/1999/xlink" width="297.761" height="348.864" viewBox="0 0 297.761 348.864">
  <defs>
    <linearGradient id="linear-gradient" x1="0.5" y1="1" x2="0.5" gradientUnits="objectBoundingBox">
      <stop offset="0.069" stop-color="#fff"/>
      <stop offset="0.171" stop-color="#fdeaf5"/>
      <stop offset="0.379" stop-color="#f9b6de"/>
      <stop offset="0.678" stop-color="#f362b8"/>
      <stop offset="1" stop-color="#ec008c"/>
    </linearGradient>
  </defs>
  <path id="Path_2462" data-name="Path 2462" d="M122.021,464.29v34.744a5.47,5.47,0,0,0,5.451,5.314h0a5.468,5.468,0,0,0,5.45-5.308l0,3.766a16.624,16.624,0,0,1-16.576,16.575h0a16.624,16.624,0,0,1-16.576-16.575V464.29Z" transform="translate(-57.971 -232.184)" fill="#b30500" fill-rule="evenodd"/>
  <path id="Path_2463" data-name="Path 2463" d="M420.72,302.3l-1.933,1.932-32.9-32.9,1.933-1.933,32.9,32.9Z" transform="translate(-192.023 -140.876)" fill="#fddbc6" fill-rule="evenodd"/>
  <path id="Path_2464" data-name="Path 2464" d="M407.292,315.733l-1.933,1.933-32.9-32.9,1.933-1.932,32.9,32.9Z" transform="translate(-185.732 -147.168)" fill="#fddbc6" fill-rule="evenodd"/>
  <path id="Path_2465" data-name="Path 2465" d="M393.865,329.162l-1.933,1.933-32.9-32.9,1.933-1.933,32.9,32.9Z" transform="translate(-179.44 -153.46)" fill="#fddbc6" fill-rule="evenodd"/>
  <path id="Path_2466" data-name="Path 2466" d="M380.435,342.59l-1.933,1.933-32.9-32.9,1.933-1.933,32.9,32.9Z" transform="translate(-173.148 -159.751)" fill="#fddbc6" fill-rule="evenodd"/>
  <path id="Path_2467" data-name="Path 2467" d="M367.006,356.019l-1.933,1.933-32.9-32.9,1.933-1.933,32.9,32.9Z" transform="translate(-166.857 -166.043)" fill="#fddbc6" fill-rule="evenodd"/>
  <path id="Path_2468" data-name="Path 2468" d="M449.09,332.605a2.97,2.97,0,1,1,0-4.2,2.97,2.97,0,0,1,0,4.2Z" transform="translate(-219.258 -168.111)" fill="#e0b29d" fill-rule="evenodd"/>
  <path id="Path_2469" data-name="Path 2469" d="M435.66,346.034a2.969,2.969,0,1,1,0-4.2,2.968,2.968,0,0,1,0,4.2Z" transform="translate(-212.967 -174.403)" fill="#e0b29d" fill-rule="evenodd"/>
  <path id="Path_2470" data-name="Path 2470" d="M422.232,359.462a2.969,2.969,0,1,1,0-4.2,2.967,2.967,0,0,1,0,4.2Z" transform="translate(-206.675 -180.695)" fill="#e0b29d" fill-rule="evenodd"/>
  <path id="Path_2471" data-name="Path 2471" d="M408.8,372.891a2.97,2.97,0,1,1,0-4.2,2.97,2.97,0,0,1,0,4.2Z" transform="translate(-200.383 -186.986)" fill="#e0b29d" fill-rule="evenodd"/>
  <path id="Path_2472" data-name="Path 2472" d="M395.375,386.319a2.969,2.969,0,1,1,0-4.2,2.969,2.969,0,0,1,0,4.2Z" transform="translate(-194.092 -193.277)" fill="#e0b29d" fill-rule="evenodd"/>
  <path id="Path_2473" data-name="Path 2473" d="M233.956,32.523a11.707,11.707,0,1,1,18,14.873c-2.112,2.2-4.468,4.164-6.752,6.178-4.6,4.054-9.515,8.662-9.515,15.264V97.5a1.968,1.968,0,1,1-3.935,0V68.838a13.867,13.867,0,0,0-2.121-7.669,30.864,30.864,0,0,0-5.727-6.244,105.357,105.357,0,0,1-7.724-7.3c-.07-.077-.145-.15-.216-.226a11.707,11.707,0,1,1,17.994-14.874Z" transform="translate(-110.874 -27.571)" fill-rule="evenodd" fill="url(#linear-gradient)"/>
  <path id="Path_2474" data-name="Path 2474" d="M249.315,276.856H300.1v62.727H249.315V276.856Z" transform="translate(-128.035 -144.367)" fill="#361a0c" stroke="#361a0c" stroke-miterlimit="2.613" stroke-width="0.5" fill-rule="evenodd"/>
  <path id="Path_2475" data-name="Path 2475" d="M163.984,202.152,203.72,188.96v85.771A19.927,19.927,0,0,1,183.852,294.6h0a19.927,19.927,0,0,1-19.868-19.868V202.152Z" transform="translate(-88.055 -103.185)" fill="#ec008c" fill-rule="evenodd"/>
  <path id="Path_2476" data-name="Path 2476" d="M209.9,563.457a45.9,45.9,0,0,1-21.937-86.221,6.354,6.354,0,0,0-1.86-11.816,19.466,19.466,0,0,1,3.141-38.673h41.311A19.466,19.466,0,0,1,233.7,465.42a6.354,6.354,0,0,0-1.859,11.816A45.9,45.9,0,0,1,209.9,563.457Z" transform="translate(-88.055 -214.594)" fill="#f48580" fill-rule="evenodd"/>
  <path id="Path_2477" data-name="Path 2477" d="M238.749,274.1H251.11V406.137H238.749V274.1Z" transform="translate(-123.084 -143.075)" fill="#eac2db" fill-rule="evenodd"/>
  <path id="Path_2478" data-name="Path 2478" d="M234.868,167.155h0a17.645,17.645,0,0,0-17.594,17.593v44.7a17.646,17.646,0,0,0,17.594,17.595h0a17.646,17.646,0,0,0,17.593-17.595v-5.335h-1.847a5.273,5.273,0,0,1-5.258-5.257h0a5.274,5.274,0,0,1,5.258-5.258h1.847V210.39h-1.847a5.274,5.274,0,0,1-5.258-5.258h0a5.275,5.275,0,0,1,5.258-5.258h1.847V184.748a17.645,17.645,0,0,0-17.593-17.593Z" transform="translate(-113.023 -92.969)" fill="#fed9bd" fill-rule="evenodd"/>
  <path id="Path_2479" data-name="Path 2479" d="M238.5,174.848a13.5,13.5,0,1,0,13.5,13.5,13.5,13.5,0,0,0-13.5-13.5Z" transform="translate(-116.64 -96.573)" fill="#ee4523" fill-rule="evenodd"/>
  <path id="Path_2480" data-name="Path 2480" d="M246.349,191.612a4.592,4.592,0,1,0,4.592,4.592,4.592,4.592,0,0,0-4.592-4.592Z" transform="translate(-124.494 -104.428)" fill="#fff" fill-rule="evenodd"/>
  <path id="Path_2481" data-name="Path 2481" d="M195.732,139.053h0A31.842,31.842,0,0,0,163.984,170.8v15.936a14.21,14.21,0,0,0,14.168,14.169h0a14.206,14.206,0,0,0,14.169-14.169l-.014-15.148A17.641,17.641,0,0,1,209.9,153.995h0a17.648,17.648,0,0,1,17.58,16.928V170.8a31.842,31.842,0,0,0-31.748-31.749Z" transform="translate(-88.055 -79.803)" fill="#a3238e" fill-rule="evenodd"/>
  <path id="Path_2482" data-name="Path 2482" d="M232.533,555.771a20.242,20.242,0,1,1-20.242,20.242,20.243,20.243,0,0,1,20.242-20.242Z" transform="translate(-110.688 -275.045)" fill="#fff" fill-rule="evenodd"/>
  <path id="Path_2483" data-name="Path 2483" d="M239.529,570.7a12.306,12.306,0,1,1-12.306,12.306A12.306,12.306,0,0,1,239.529,570.7Z" transform="translate(-117.684 -282.041)" fill="#361a0c" fill-rule="evenodd"/>
  <path id="Path_2484" data-name="Path 2484" d="M367.454,181.885l-32.869-18.977a6.74,6.74,0,0,0-9.178,2.46h0a6.739,6.739,0,0,0,2.459,9.177l32.869,18.976a6.739,6.739,0,0,0,9.178-2.459h0a6.738,6.738,0,0,0-2.459-9.177Z" transform="translate(-163.266 -90.56)" fill="#8ed8f8" fill-rule="evenodd"/>
  <path id="Path_2485" data-name="Path 2485" d="M283.481,253.433A33.866,33.866,0,1,1,317.347,287.3a33.866,33.866,0,0,1-33.866-33.866Z" transform="translate(-144.042 -117.526)" fill="#ff541f" fill-rule="evenodd"/>
  <path id="Path_2486" data-name="Path 2486" d="M303.71,262.91a23.114,23.114,0,1,1,23.115,23.115A23.115,23.115,0,0,1,303.71,262.91Z" transform="translate(-153.52 -127.003)" fill="#d61f26" fill-rule="evenodd"/>
  <path id="Path_2487" data-name="Path 2487" d="M347.292,154.984h-1.533v6.524h1.533v-6.524Zm0,60.9h-1.533v6.524h1.533v-6.524Zm0-12.18h-1.533v6.524h1.533V203.7Zm0-12.179h-1.533v6.524h1.533v-6.524Zm0-12.18h-1.533v6.525h1.533v-6.525Zm0-12.179h-1.533v6.525h1.533v-6.525Z" transform="translate(-173.221 -87.267)" fill="#f6c8b3" fill-rule="evenodd"/>
  <path id="Path_2488" data-name="Path 2488" d="M309.771,292.778v41.674a29.6,29.6,0,0,1-29.527,29.527H262.525V338.706h17.718a25.111,25.111,0,0,0,25.043-25.043V292.778Z" transform="translate(-134.224 -151.826)" fill="#f6c8b3" fill-rule="evenodd"/>
  <path id="Path_2489" data-name="Path 2489" d="M251.385,404.467a12.637,12.637,0,1,0-12.636-12.635,12.635,12.635,0,0,0,12.636,12.635Z" transform="translate(-123.084 -192.314)" fill="#cd9e8a" fill-rule="evenodd"/>
  <path id="Path_2490" data-name="Path 2490" d="M255.244,403.95a8.259,8.259,0,1,0-8.259-8.258,8.259,8.259,0,0,0,8.259,8.258Z" transform="translate(-126.943 -196.174)" fill="#764f3e" fill-rule="evenodd"/>
  <path id="Path_2491" data-name="Path 2491" d="M339.148,266.1a9.135,9.135,0,1,1-9.136,9.135,9.136,9.136,0,0,1,9.136-9.135Z" transform="translate(-165.843 -139.327)" fill="#f2e5df" fill-rule="evenodd"/>
  <path id="Path_2492" data-name="Path 2492" d="M342.982,302.467v69.959a29.6,29.6,0,0,0,29.527,29.527h5.046V376.682h-5.046a25.112,25.112,0,0,1-25.043-25.044V302.467Z" transform="translate(-171.92 -156.366)" fill="#f6c8b3" fill-rule="evenodd"/>
  <path id="Path_2493" data-name="Path 2493" d="M260.328,274.322h26.094v3.206H260.328v-3.206Z" transform="translate(-133.194 -143.179)" fill="#fed9bd" fill-rule="evenodd"/>
  <path id="Path_2494" data-name="Path 2494" d="M310.4,267.11a5.436,5.436,0,1,1-5.436,5.436,5.436,5.436,0,0,1,5.436-5.436Z" transform="translate(-154.107 -139.8)" fill="#e0b29d" fill-rule="evenodd"/>
  <path id="Path_2495" data-name="Path 2495" d="M260.328,248.5h26.094v3.207H260.328V248.5Z" transform="translate(-133.194 -131.082)" fill="#fed9bd" fill-rule="evenodd"/>
  <path id="Path_2496" data-name="Path 2496" d="M310.4,241.291a5.436,5.436,0,1,1-5.436,5.436,5.436,5.436,0,0,1,5.436-5.436Z" transform="translate(-154.107 -127.703)" fill="#e0b29d" fill-rule="evenodd"/>
  <path id="Path_2497" data-name="Path 2497" d="M268,222.684h22.017v3.206H268v-3.206Z" transform="translate(-136.789 -118.985)" fill="#fed9bd" fill-rule="evenodd"/>
  <path id="Path_2498" data-name="Path 2498" d="M310.4,215.471a5.436,5.436,0,1,1-5.436,5.436,5.436,5.436,0,0,1,5.436-5.436Z" transform="translate(-154.107 -115.606)" fill="#e0b29d" fill-rule="evenodd"/>
  <path id="Path_2499" data-name="Path 2499" d="M323.894,375.111c.124,0,.246,0,.368,0v10.5a25.173,25.173,0,0,0,25.1,25.1h4.989v25.271H323.909a30.182,30.182,0,0,1-8.17-1.121v.014a30.442,30.442,0,0,1,8.156-59.771Z" transform="translate(-148.716 -190.401)" fill="#e0b29d" fill-rule="evenodd"/>
  <path id="Path_2500" data-name="Path 2500" d="M335.153,404.974a25.2,25.2,0,0,0,24.517,19.735h4.989v13.314h-4V449.98h-22.6a22.6,22.6,0,0,1-2.909-45.006Z" transform="translate(-159.023 -204.393)" fill="#cd9e8a" fill-rule="evenodd"/>
  <path id="Path_2501" data-name="Path 2501" d="M396.894,467.377a12.636,12.636,0,1,1,12.636-12.635,12.635,12.635,0,0,1-12.636,12.635Z" transform="translate(-191.258 -221.79)" fill="#f6c8b3" fill-rule="evenodd"/>
  <path id="Path_2502" data-name="Path 2502" d="M400.752,466.859a8.259,8.259,0,1,1,8.26-8.259,8.259,8.259,0,0,1-8.26,8.259Z" transform="translate(-195.116 -225.648)" fill="#764f3e" fill-rule="evenodd"/>
  <path id="Path_2503" data-name="Path 2503" d="M308.11,455.9a30.412,30.412,0,0,1-14.654-26.026c0-.962.047-1.912.134-2.851a19.5,19.5,0,0,1,17.067,19.295,19.29,19.29,0,0,1-2.547,9.582Z" transform="translate(-148.716 -214.722)" fill="#f79e8b" fill-rule="evenodd"/>
  <path id="Path_2504" data-name="Path 2504" d="M305.033,455.138c-.248-.2-.491-.392-.73-.6h5.108c-.077.2-.155.4-.238.6Zm-3.016-2.729q-.284-.294-.562-.6h8.766q-.065.3-.139.6Zm-2.345-2.729c-.149-.2-.3-.4-.442-.6h11.384c-.014.2-.031.4-.052.6Zm-1.855-2.731c-.117-.2-.235-.394-.349-.594h13.15c.013.2.022.4.03.594Zm-1.462-2.729c-.093-.2-.183-.394-.272-.595h14.148c.043.2.081.4.117.595Zm-1.128-2.729c-.07-.2-.138-.4-.2-.595h14.405c.074.2.147.394.215.595Zm-.831-2.73q-.076-.3-.143-.594h13.9c.11.2.22.393.324.594Zm-.56-2.729c-.03-.2-.06-.4-.087-.6h12.533c.159.2.314.394.466.6Zm-.306-2.729c-.013-.2-.023-.4-.033-.6h10.071c.233.193.462.393.686.6Zm-.059-2.729c0-.2.011-.4.019-.6h5.7q.612.277,1.2.6Z" transform="translate(-148.723 -216.108)" fill="#fabca8" fill-rule="evenodd"/>
  <path id="Path_2505" data-name="Path 2505" d="M320.226,457.1a22.42,22.42,0,0,1-4.771-13.888,22.691,22.691,0,0,1,.442-4.457,19.341,19.341,0,0,1,4.328,18.346Z" transform="translate(-159.023 -220.22)" fill="#fcc69f" fill-rule="evenodd"/>
  <path id="Path_2506" data-name="Path 2506" d="M275.2,483.456a2.736,2.736,0,1,1-2.736,2.736,2.735,2.735,0,0,1,2.736-2.736Z" transform="translate(-138.882 -241.163)" fill="#fff3de" fill-rule="evenodd"/>
  <path id="Path_2507" data-name="Path 2507" d="M275.2,463a2.736,2.736,0,1,1-2.736,2.736A2.736,2.736,0,0,1,275.2,463Z" transform="translate(-138.882 -231.58)" fill="#fff3de" fill-rule="evenodd"/>
  <path id="Path_2508" data-name="Path 2508" d="M275.2,442.554a2.735,2.735,0,1,1-2.736,2.734,2.734,2.734,0,0,1,2.736-2.734Z" transform="translate(-138.882 -222)" fill="#fff3de" fill-rule="evenodd"/>
  <path id="Path_2509" data-name="Path 2509" d="M358.7,553.136c-16.8,11.128-31.283-17.815-38.937,4.106-7.654-21.924-22.141,7.021-38.935-4.105a2.215,2.215,0,1,0-2.081-.236c27.447,23.861,49.9,27.957,82.038,0a2.214,2.214,0,1,0-2.086.236Z" transform="translate(-141.379 -271.771)" fill="#ec008c" fill-rule="evenodd"/>
  <path id="Path_2510" data-name="Path 2510" d="M283.418,135.781a70.834,70.834,0,1,1,141.668-.01V169.3a31.611,31.611,0,1,1-63.223,0V137.688a39.246,39.246,0,0,0-78.446-1.907Z" transform="translate(-144.013 -45.067)" fill="#b91e57" fill-rule="evenodd"/>
  <path id="Path_2511" data-name="Path 2511" d="M121.059,124.924a65.246,65.246,0,0,0-13.3-1.366h0a65.761,65.761,0,0,0-65.568,65.567l0,116.7a10.566,10.566,0,0,1-10.531,10.263h0a10.565,10.565,0,0,1-10.531-10.258l0,7.278a32.12,32.12,0,0,0,32.025,32.026h0A32.12,32.12,0,0,0,85.17,313.109V160.258A35.437,35.437,0,0,1,120.5,124.924Z" transform="translate(-21.12 -72.543)" fill="#b30500" fill-rule="evenodd"/>
  <path id="Path_2512" data-name="Path 2512" d="M132.617,301.575H122.391v3.206h10.227v-3.206Z" transform="translate(-68.568 -155.948)" fill="#fff" fill-rule="evenodd"/>
  <path id="Path_2513" data-name="Path 2513" d="M111.828,294.362a5.436,5.436,0,1,0,5.436,5.437,5.437,5.437,0,0,0-5.436-5.437Z" transform="translate(-61.071 -152.568)" fill="#fff" fill-rule="evenodd"/>
  <path id="Path_2514" data-name="Path 2514" d="M132.617,275.756H122.391v3.206h10.227v-3.206Z" transform="translate(-68.568 -143.851)" fill="#fff" fill-rule="evenodd"/>
  <path id="Path_2515" data-name="Path 2515" d="M111.828,268.543a5.436,5.436,0,1,0,5.436,5.437,5.437,5.437,0,0,0-5.436-5.437Z" transform="translate(-61.071 -140.472)" fill="#fff" fill-rule="evenodd"/>
  <path id="Path_2516" data-name="Path 2516" d="M132.617,249.936H122.391v3.206h10.227v-3.206Z" transform="translate(-68.568 -131.754)" fill="#fff" fill-rule="evenodd"/>
  <path id="Path_2517" data-name="Path 2517" d="M111.828,242.724a5.436,5.436,0,1,0,5.436,5.436,5.437,5.437,0,0,0-5.436-5.436Z" transform="translate(-61.071 -128.375)" fill="#fff" fill-rule="evenodd"/>
  <path id="Path_2518" data-name="Path 2518" d="M520.684,347.949a5.2,5.2,0,0,0-5.184-5.184h0a5.2,5.2,0,0,0-5.183,5.184v13.334a12.882,12.882,0,1,1-25.764,0v-71.6a3.6,3.6,0,0,0-3.593-3.593h0a3.6,3.6,0,0,0-3.592,3.593v68.038a.664.664,0,0,1-.663.661h0a.662.662,0,0,1-.661-.661V319.7a3.6,3.6,0,0,0-3.593-3.593h0a3.6,3.6,0,0,0-3.592,3.593v38.019a.664.664,0,0,1-.662.661h0a.663.663,0,0,1-.661-.661V319.7a3.6,3.6,0,0,0-3.593-3.593h0a3.6,3.6,0,0,0-3.591,3.593v38.019a.664.664,0,0,1-.663.661h0a.663.663,0,0,1-.661-.661V319.7a3.6,3.6,0,0,0-3.593-3.593h0a3.6,3.6,0,0,0-3.592,3.593v47.479a34.421,34.421,0,1,0,68.842,0V347.949Z" transform="translate(-222.923 -148.692)" fill="#f8abad" fill-rule="evenodd"/>
  <path id="Path_2519" data-name="Path 2519" d="M469.91,347.467v2.75a2.5,2.5,0,0,0,2.5,2.5h0a2.506,2.506,0,0,0,2.5-2.5v-2.75a2.506,2.506,0,0,0-2.5-2.5h0a2.5,2.5,0,0,0-2.5,2.5Z" transform="translate(-231.388 -176.279)" fill="#fff4eb" fill-rule="evenodd"/>
  <path id="Path_2520" data-name="Path 2520" d="M485.918,347.467v2.75a2.506,2.506,0,0,0,2.5,2.5h0a2.505,2.505,0,0,0,2.5-2.5v-2.75a2.506,2.506,0,0,0-2.5-2.5h0a2.506,2.506,0,0,0-2.5,2.5Z" transform="translate(-238.888 -176.279)" fill="#fff4eb" fill-rule="evenodd"/>
  <path id="Path_2521" data-name="Path 2521" d="M501.927,290.568v2.751a2.505,2.505,0,0,0,2.5,2.5h0a2.505,2.505,0,0,0,2.5-2.5v-2.751a2.505,2.505,0,0,0-2.5-2.5h0a2.505,2.505,0,0,0-2.5,2.5Z" transform="translate(-246.389 -149.62)" fill="#fff4eb" fill-rule="evenodd"/>
  <path id="Path_2522" data-name="Path 2522" d="M565.132,399.814v3.795a3.457,3.457,0,0,0,3.447,3.447h0a3.457,3.457,0,0,0,3.447-3.447v-3.795a3.458,3.458,0,0,0-3.447-3.447h0a3.458,3.458,0,0,0-3.447,3.447Z" transform="translate(-276.002 -200.36)" fill="#fff4eb" fill-rule="evenodd"/>
  <path id="Path_2523" data-name="Path 2523" d="M453.9,347.467v2.75a2.506,2.506,0,0,0,2.5,2.5h0a2.506,2.506,0,0,0,2.5-2.5v-2.75a2.506,2.506,0,0,0-2.5-2.5h0a2.506,2.506,0,0,0-2.5,2.5Z" transform="translate(-223.886 -176.279)" fill="#fff4eb" fill-rule="evenodd"/>
  <path id="Path_2524" data-name="Path 2524" d="M426.635,109.951H428.3a15.21,15.21,0,0,1,0,30.42h-1.666v1.666a15.21,15.21,0,0,1-30.42,0v-1.666h-1.667a15.21,15.21,0,0,1,0-30.42h1.667v-1.666a15.21,15.21,0,1,1,30.42,0v1.666Z" transform="translate(-188.953 -58.261)" fill="#fff" fill-rule="evenodd"/>
  <path id="Path_2525" data-name="Path 2525" d="M414.742,100.156h0A11.48,11.48,0,0,1,426.189,111.6v5.43h5.43a11.48,11.48,0,0,1,11.446,11.446h0a11.48,11.48,0,0,1-11.446,11.446h-5.43v5.43A11.48,11.48,0,0,1,414.742,156.8h0A11.479,11.479,0,0,1,403.3,145.354v-5.43h-5.431a11.48,11.48,0,0,1-11.446-11.446h0a11.48,11.48,0,0,1,11.446-11.446H403.3V111.6a11.479,11.479,0,0,1,11.446-11.446Z" transform="translate(-192.271 -61.579)" fill="#be6a99" fill-rule="evenodd"/>
  <path id="Path_2526" data-name="Path 2526" d="M429.1,130.808a12.032,12.032,0,1,1-12.032,12.032A12.032,12.032,0,0,1,429.1,130.808Z" transform="translate(-206.633 -75.94)" fill="#fff" fill-rule="evenodd"/>
  <path id="Path_2527" data-name="Path 2527" d="M433.128,139.4a7.468,7.468,0,1,1-7.468,7.467,7.467,7.467,0,0,1,7.468-7.467Z" transform="translate(-210.656 -79.963)" fill="#f38d9d" fill-rule="evenodd"/>
  <path id="Path_2528" data-name="Path 2528" d="M104.907,337.961a48.076,48.076,0,0,0-41.66,24.048,48.11,48.11,0,0,0,83.321,0,48.078,48.078,0,0,0-41.661-24.048Z" transform="translate(-40.857 -172.996)" fill="#fff" fill-rule="evenodd"/>
  <path id="Path_2529" data-name="Path 2529" d="M94.513,380.5H143.25a1.444,1.444,0,0,1,1.439,1.44h0a1.443,1.443,0,0,1-1.439,1.44H94.513a1.444,1.444,0,0,1-1.44-1.44h0a1.444,1.444,0,0,1,1.44-1.44Z" transform="translate(-54.832 -192.926)" fill="#fff" fill-rule="evenodd"/>
  <path id="Path_2530" data-name="Path 2530" d="M123.793,345.131a20.237,20.237,0,1,0,20.238,20.237,20.237,20.237,0,0,0-20.238-20.237Z" transform="translate(-59.743 -176.355)" fill="#e6e7e8" fill-rule="evenodd"/>
  <path id="Path_2531" data-name="Path 2531" d="M131.544,384.564a11.445,11.445,0,0,1,0-22.89v22.89Z" transform="translate(-67.494 -184.106)" fill="#801324" fill-rule="evenodd"/>
  <path id="Path_2532" data-name="Path 2532" d="M141.633,361.674a11.445,11.445,0,0,1,0,22.89v-22.89Z" transform="translate(-77.583 -184.106)" fill="#a3238e" fill-rule="evenodd"/>
  <path id="Path_2533" data-name="Path 2533" d="M141.633,374.925a4.4,4.4,0,0,1,0,8.8v-8.8Z" transform="translate(-77.583 -190.314)" fill="#fff" fill-rule="evenodd"/>
  <path id="Path_2534" data-name="Path 2534" d="M357,252.093a17.46,17.46,0,0,1,11.618,20.124l-2.156-.578a15.231,15.231,0,0,0-10.04-17.39l.578-2.156Z" transform="translate(-178.218 -132.764)" fill="#fff" fill-rule="evenodd"/>
  <path id="Path_2535" data-name="Path 2535" d="M355.434,252.18a1.11,1.11,0,1,1-.407,1.517,1.11,1.11,0,0,1,.407-1.517Z" transform="translate(-177.493 -132.735)" fill="#fff" fill-rule="evenodd"/>
  <path id="Path_2536" data-name="Path 2536" d="M375.81,287.472a1.11,1.11,0,1,1-.407,1.517,1.11,1.11,0,0,1,.407-1.517Z" transform="translate(-187.04 -149.271)" fill="#fff" fill-rule="evenodd"/>
</svg>
