<svg id="Group_33" data-name="Group 33" xmlns="http://www.w3.org/2000/svg" width="282.623" height="24.514" viewBox="0 0 282.623 24.514">
  <g id="Group_6" data-name="Group 6" transform="translate(109.126)">
    <path id="Path_19" data-name="Path 19" d="M1200.055,509.7a29.753,29.753,0,0,0,5.865-3.138,24.4,24.4,0,0,1,6.055-2.966,12.787,12.787,0,0,1,6.779-.1,21.019,21.019,0,0,1,6.143,2.895,65.5,65.5,0,0,0,11.68,6.307,24.21,24.21,0,0,0,6.338,1.617,12.58,12.58,0,0,0,6.267-.87,10.252,10.252,0,0,0,4.662-4.068,9.587,9.587,0,0,0,1.356-5.946,7.609,7.609,0,0,0-2.723-5.237,7.532,7.532,0,0,0-5.593-1.662,6.456,6.456,0,0,0-2.776.911,6.113,6.113,0,0,0-1.986,2.106,5.8,5.8,0,0,0-.746,2.82,5.31,5.31,0,0,0,.733,2.8,4.816,4.816,0,0,0,2.2,1.862,4.728,4.728,0,0,0,2.929.23,3.861,3.861,0,0,0,2.358-1.7,3.978,3.978,0,0,0,.49-2.971.258.258,0,0,1,.5-.141,4.5,4.5,0,0,1-.283,3.508,4.64,4.64,0,0,1-2.783,2.314,5.925,5.925,0,0,1-6.586-2.333,6.448,6.448,0,0,1-.793-1.716,7.381,7.381,0,0,1,3.042-8.217,8.192,8.192,0,0,1,3.508-1.218,9.093,9.093,0,0,1,6.879,2.1,9.257,9.257,0,0,1,3.191,6.39,10.727,10.727,0,0,1-.29,3.575,11.953,11.953,0,0,1-1.424,3.267,11.589,11.589,0,0,1-5.376,4.471,13.74,13.74,0,0,1-6.872.793,27.452,27.452,0,0,1-6.569-1.8,65.986,65.986,0,0,1-11.783-6.513,21.115,21.115,0,0,0-5.878-2.873,12.134,12.134,0,0,0-6.442-.057c-4.293,1.087-7.7,4.38-12.022,5.725a.084.084,0,0,1-.105-.055A.087.087,0,0,1,1200.055,509.7Z" transform="translate(-1191.563 -494.724)" fill="#fff"/>
    <path id="Path_20" data-name="Path 20" d="M1206.848,528.905a47.062,47.062,0,0,0,5.339-3.52,21.986,21.986,0,0,1,5.64-3.064,11.226,11.226,0,0,1,6.409-.192,15.39,15.39,0,0,1,1.546.481,9.575,9.575,0,0,1,1.491.621,15.725,15.725,0,0,1,1.444.722l1.382.832a124.138,124.138,0,0,0,10.9,6.67,30.912,30.912,0,0,0,5.89,2.408,13.221,13.221,0,0,0,6.307.358,13.327,13.327,0,0,1-6.36-.159,31,31,0,0,1-5.984-2.319,115.607,115.607,0,0,1-10.983-6.6l-1.356-.827a15.14,15.14,0,0,0-1.413-.717,9.221,9.221,0,0,0-1.456-.617,14.961,14.961,0,0,0-1.5-.479,11.146,11.146,0,0,0-6.221.129,21.875,21.875,0,0,0-5.622,2.925A47.1,47.1,0,0,1,1206.848,528.905Z" transform="translate(-1196.572 -514.48)" fill="#fff"/>
    <path id="Path_21" data-name="Path 21" d="M1171.21,530.136a.848.848,0,0,0,1.058.1,1.271,1.271,0,0,0,.545-.965,1.48,1.48,0,0,0-1.311-1.545,1.592,1.592,0,0,0-1.717,1.017,2.058,2.058,0,0,0,.487,2.071,5.655,5.655,0,0,0,4.614,1.646,12.392,12.392,0,0,0,4.994-1.759c1.6-.878,3.161-1.921,4.852-2.767a24.3,24.3,0,0,1,5.321-1.948,10.2,10.2,0,0,1,5.686.355,9.024,9.024,0,0,1,4.421,3.552,8.416,8.416,0,0,1,1.371,5.485,7.536,7.536,0,0,1-2.732,4.93,6.724,6.724,0,0,1-5.4,1.5,6.021,6.021,0,0,1-4.383-3.438,5.014,5.014,0,0,1-.44-2.833,4.825,4.825,0,0,1,1.23-2.59,4.763,4.763,0,0,1,2.477-1.437,3.9,3.9,0,0,1,4.56,2.735,3.146,3.146,0,0,1-.548,2.79,2.962,2.962,0,0,1-2.582,1.165,2.541,2.541,0,0,1-2.146-1.807.155.155,0,0,1,.1-.193.159.159,0,0,1,.194.105,2.221,2.221,0,0,0,1.885,1.57,2.632,2.632,0,0,0,2.276-1.051,2.794,2.794,0,0,0,.472-2.479,3.517,3.517,0,0,0-4.13-2.448,4.421,4.421,0,0,0-3.366,3.7,4.568,4.568,0,0,0,.421,2.589,5.56,5.56,0,0,0,4.063,3.15,6.23,6.23,0,0,0,4.992-1.427,7.005,7.005,0,0,0,2.512-4.6,7.849,7.849,0,0,0-1.316-5.1,8.627,8.627,0,0,0-1.808-1.974,8.42,8.42,0,0,0-2.35-1.268,9.476,9.476,0,0,0-5.289-.216,23.51,23.51,0,0,0-5.078,1.983c-1.617.85-3.131,1.9-4.769,2.85a20.122,20.122,0,0,1-2.557,1.26,9.446,9.446,0,0,1-2.862.671,7.6,7.6,0,0,1-2.953-.361,5.552,5.552,0,0,1-2.539-1.67,3.662,3.662,0,0,1-.733-1.441,2.693,2.693,0,0,1,.146-1.669,2.475,2.475,0,0,1,1.131-1.246,2.433,2.433,0,0,1,1.647-.217,2.366,2.366,0,0,1,1.382.871,1.975,1.975,0,0,1,.39,1.575,1.814,1.814,0,0,1-.929,1.285,1.183,1.183,0,0,1-.82.114,1.388,1.388,0,0,1-.669-.415.145.145,0,0,1,.2-.209Z" transform="translate(-1168.662 -517.397)" fill="#fff"/>
  </g>
  <g id="Group_7" data-name="Group 7" transform="translate(2.01 11.387)">
    <path id="Path_22" data-name="Path 22" d="M877.727,538.578H771.37a.769.769,0,0,1,0-1.538H877.727a.769.769,0,1,1,0,1.538Z" transform="translate(-770.601 -537.04)" fill="#fff"/>
  </g>
  <path id="Path_23" data-name="Path 23" d="M768.689,532.352a2.779,2.779,0,1,1-2.779-2.778A2.779,2.779,0,0,1,768.689,532.352Z" transform="translate(-763.131 -520.196)" fill="#fff"/>
  <g id="Group_8" data-name="Group 8" transform="translate(172.717 11.388)">
    <path id="Path_24" data-name="Path 24" d="M1512.108,538.581H1405.75a.769.769,0,1,1,0-1.538h106.358a.769.769,0,0,1,0,1.538Z" transform="translate(-1404.981 -537.043)" fill="#fff"/>
  </g>
  <path id="Path_25" data-name="Path 25" d="M1792.758,532.353a2.779,2.779,0,1,1,2.779,2.778A2.779,2.779,0,0,1,1792.758,532.353Z" transform="translate(-1515.692 -520.196)" fill="#fff"/>
</svg>
