<svg xmlns="http://www.w3.org/2000/svg" xmlns:xlink="http://www.w3.org/1999/xlink" width="282.623" height="335.295" viewBox="0 0 282.623 335.295">
  <defs>
    <linearGradient id="linear-gradient" x1="0.234" y1="-0.004" x2="0.684" y2="0.848" gradientUnits="objectBoundingBox">
      <stop offset="0" stop-color="#fff"/>
      <stop offset="0.993" stop-color="#a2a2a2"/>
    </linearGradient>
    <linearGradient id="linear-gradient-2" x1="0.638" y1="0.798" x2="0.347" y2="0.297" xlink:href="#linear-gradient"/>
    <linearGradient id="linear-gradient-3" x1="0.327" y1="-0.76" x2="0.608" y2="1.422" xlink:href="#linear-gradient"/>
    <linearGradient id="linear-gradient-4" x1="0.259" y1="-0.106" x2="0.558" y2="0.748" xlink:href="#linear-gradient"/>
    <linearGradient id="linear-gradient-5" x1="-0.526" y1="7.103" x2="3.573" y2="14.832" xlink:href="#linear-gradient"/>
    <linearGradient id="linear-gradient-6" x1="1.226" y1="10.406" x2="5.325" y2="18.135" xlink:href="#linear-gradient"/>
    <linearGradient id="linear-gradient-7" x1="0.553" y1="11.936" x2="2.058" y2="22.707" xlink:href="#linear-gradient"/>
    <linearGradient id="linear-gradient-8" x1="0.401" y1="2.128" x2="1.386" y2="4.315" xlink:href="#linear-gradient"/>
    <linearGradient id="linear-gradient-9" x1="-0.509" y1="0.5" x2="1.509" y2="0.5" xlink:href="#linear-gradient"/>
    <linearGradient id="linear-gradient-10" x1="0" y1="0.5" x2="1" y2="0.5" xlink:href="#linear-gradient"/>
  </defs>
  <g id="Group_32" data-name="Group 32" transform="translate(-176.895 -116.898)">
    <ellipse id="Ellipse_1" data-name="Ellipse 1" cx="88.849" cy="85.495" rx="88.849" ry="85.495" transform="translate(222.553 116.898)" fill="#fff" opacity="0.25"/>
    <path id="Path_1" data-name="Path 1" d="M194.464,609.3l5.5,4.788L183.5,636.469l-5.756-4.8" transform="translate(76.716 -387.647)" fill="url(#linear-gradient)"/>
    <g id="Group_5" data-name="Group 5" transform="translate(298.831 138.725)">
      <g id="Group_4" data-name="Group 4" transform="translate(0 0)">
        <g id="Group_2" data-name="Group 2" transform="translate(0 27.623)">
          <path id="Path_2" data-name="Path 2" d="M441.377,450.321a27.513,27.513,0,0,0-17.547,6.348,24.747,24.747,0,0,1,11.661-2.92,24.071,24.071,0,0,1,24.1,24.746,25.307,25.307,0,0,1-25.124,24.746,24.427,24.427,0,0,1-5.084-.534,26.626,26.626,0,0,0,10.863,2.3A27.962,27.962,0,0,0,468,477.662,26.6,26.6,0,0,0,441.377,450.321Z" transform="translate(-399.533 -439.379)" fill="url(#linear-gradient-2)"/>
          <g id="Group_1" data-name="Group 1">
            <path id="Path_3" data-name="Path 3" d="M397.828,637.022a32.521,32.521,0,0,1-3.939,2.667,35.9,35.9,0,0,0,29.245,4.822,32.689,32.689,0,0,1-4.237.284A32.334,32.334,0,0,1,397.828,637.022Z" transform="translate(-377.947 -573.98)" fill="url(#linear-gradient-3)"/>
            <path id="Path_4" data-name="Path 4" d="M372.639,411.108a35.881,35.881,0,0,0-29.807,55.852,21.24,21.24,0,0,0,4.974-4.833,32.476,32.476,0,0,1,57.82-29.265A35.885,35.885,0,0,0,372.639,411.108Z" transform="translate(-336.76 -411.108)" fill="url(#linear-gradient-4)"/>
          </g>
        </g>
        <g id="Group_3" data-name="Group 3" transform="translate(13.168)">
          <path id="Path_5" data-name="Path 5" d="M513.944,322.012l-6.2-5.1-2.479,2.479,3.183,2.619Z" transform="translate(-471.412 -315.576)" fill="url(#linear-gradient-5)"/>
          <path id="Path_6" data-name="Path 6" d="M389.44,322.012l3.183-2.619-2.479-2.479-6.2,5.1Z" transform="translate(-383.947 -315.576)" fill="url(#linear-gradient-6)"/>
          <path id="Path_7" data-name="Path 7" d="M421.485,315.777h16.306l3.658-3.658H417.827Z" transform="translate(-408.372 -312.119)" fill="url(#linear-gradient-7)"/>
          <path id="Path_8" data-name="Path 8" d="M426.1,346.826l-12.589,12.552-12.577-12.552h-5.466l18.043,18.013,18.057-18.013Z" transform="translate(-392.251 -337.141)" fill="url(#linear-gradient-8)"/>
        </g>
      </g>
    </g>
    <rect id="Rectangle_2" data-name="Rectangle 2" width="11.257" height="22.063" transform="matrix(0.772, 0.636, -0.636, 0.772, 263.724, 228.628)" fill="url(#linear-gradient-9)"/>
    <path id="Path_9" data-name="Path 9" d="M177.322,635.2l-13.015,17.058S173.761,656.206,177.322,635.2Z" transform="translate(86.4 -406.32)" fill="#fff"/>
    <path id="Path_10" data-name="Path 10" d="M228.252,416.376a33.662,33.662,0,1,0,33.662,33.662A33.662,33.662,0,0,0,228.252,416.376Zm0,60.509A26.847,26.847,0,1,1,255.1,450.038,26.847,26.847,0,0,1,228.252,476.885Z" transform="translate(64.568 -248.557)" fill="url(#linear-gradient-10)"/>
    <path id="Path_11" data-name="Path 11" d="M212.952,452.884s-18.568,12.883-8.308,35.326C204.644,488.21,199.886,468,212.952,452.884Z" transform="translate(59.548 -274.878)" fill="#d6d7d9"/>
    <path id="Path_12" data-name="Path 12" d="M370.93,440.8s27.517,16.721,11.3,43.225C382.23,484.025,393.587,459.346,370.93,440.8Z" transform="translate(-62.564 -266.166)" fill="#e5e5e5"/>
    <g id="Group_11" data-name="Group 11" transform="translate(176.895 316.097)">
      <path id="Path_13" data-name="Path 13" d="M818.959,304.55V255.283h17.853q9.676,0,14.361,3.322a12.035,12.035,0,0,1,2.811,15.979q-1.874,2.709-6.678,4.719a15.327,15.327,0,0,1,5.008,2.112,10.462,10.462,0,0,1,2.93,2.947,10.341,10.341,0,0,1,1.4,3.373,16.531,16.531,0,0,1,.375,3.458q0,6.815-4.633,10.085T837.63,304.55Zm9.915-28.892h9.506a11.964,11.964,0,0,0,2.947-.358,7.917,7.917,0,0,0,2.521-1.107,5.488,5.488,0,0,0,1.755-1.925,5.674,5.674,0,0,0,.647-2.777,5.517,5.517,0,0,0-2.4-4.855,10.622,10.622,0,0,0-6.15-1.652h-8.824Zm0,21.192h8.961q4.5,0,6.8-1.806a6.353,6.353,0,0,0,1.176-8.5,6.841,6.841,0,0,0-3.049-2.232,12,12,0,0,0-4.378-.75h-9.506Z" transform="translate(-803.936 -254.602)" fill="#fff"/>
      <path id="Path_14" data-name="Path 14" d="M1034.065,304.55h-10.323l-8.007-18.978h-9.983V304.55h-9.914V255.283h20.783a21.57,21.57,0,0,1,9.642,1.874,12.222,12.222,0,0,1,5.52,5.2,17.838,17.838,0,0,1,.562,14.208,13.263,13.263,0,0,1-3.169,4.446,18.206,18.206,0,0,1-4.276,2.9Zm-19.216-26.644a8.976,8.976,0,0,0,6.32-2.146,7.163,7.163,0,0,0,2.334-5.52,6.8,6.8,0,0,0-2.249-5.383,8.308,8.308,0,0,0-5.69-1.976h-9.812v15.025Z" transform="translate(-933.218 -254.602)" fill="#fff"/>
      <path id="Path_15" data-name="Path 15" d="M1172.084,255.283H1182V304.55h-9.915Z" transform="translate(-1062.037 -254.602)" fill="#fff"/>
      <path id="Path_16" data-name="Path 16" d="M1263.774,303.381A21.941,21.941,0,0,1,1252,300.3a20.292,20.292,0,0,1-7.7-8.739,30.634,30.634,0,0,1-2.708-13.356,30.037,30.037,0,0,1,2.845-13.543,20.966,20.966,0,0,1,7.956-8.807,22.541,22.541,0,0,1,11.925-3.1,22.033,22.033,0,0,1,8.007,1.4,20.061,20.061,0,0,1,6.286,3.816,18.383,18.383,0,0,1,4.191,5.469,15.515,15.515,0,0,1,1.653,6.32h-10.494a11.346,11.346,0,0,0-1.755-4.293,10.031,10.031,0,0,0-3.356-3.117,9.4,9.4,0,0,0-4.77-1.175,10.835,10.835,0,0,0-5.928,1.686,11.189,11.189,0,0,0-4.191,5.366,25.637,25.637,0,0,0-1.533,9.71,27.753,27.753,0,0,0,1.005,8.109,13.56,13.56,0,0,0,2.709,5.128,9.541,9.541,0,0,0,3.884,2.675,13.092,13.092,0,0,0,4.463.784,9.769,9.769,0,0,0,6.848-2.623,9.512,9.512,0,0,0,1.942-2.538,8.8,8.8,0,0,0,.92-2.709l.375-3h-10.187v-6.882l20.613.1V302.7h-6.781V296.26a23.217,23.217,0,0,1-3.117,3.322,15.139,15.139,0,0,1-4.6,2.726A18.532,18.532,0,0,1,1263.774,303.381Z" transform="translate(-1112.843 -252.751)" fill="#fff"/>
      <path id="Path_17" data-name="Path 17" d="M1473.63,283.392h-21.567V304.55h-9.915V255.283h9.915v19.761h21.567V255.283h9.949V304.55h-9.949Z" transform="translate(-1259.429 -254.602)" fill="#fff"/>
      <path id="Path_18" data-name="Path 18" d="M1621.433,264.142v-8.859h39.42v8.859H1646.3V304.55h-9.983V264.142Z" transform="translate(-1390.47 -254.602)" fill="#fff"/>
      <g id="Group_9" data-name="Group 9" transform="translate(0 65.113)">
        <g id="Group_6" data-name="Group 6" transform="translate(109.126)">
          <path id="Path_19" data-name="Path 19" d="M1200.055,509.7a29.753,29.753,0,0,0,5.865-3.138,24.4,24.4,0,0,1,6.055-2.966,12.787,12.787,0,0,1,6.779-.1,21.019,21.019,0,0,1,6.143,2.895,65.5,65.5,0,0,0,11.68,6.307,24.21,24.21,0,0,0,6.338,1.617,12.58,12.58,0,0,0,6.267-.87,10.252,10.252,0,0,0,4.662-4.068,9.587,9.587,0,0,0,1.356-5.946,7.609,7.609,0,0,0-2.723-5.237,7.532,7.532,0,0,0-5.593-1.662,6.456,6.456,0,0,0-2.776.911,6.113,6.113,0,0,0-1.986,2.106,5.8,5.8,0,0,0-.746,2.82,5.31,5.31,0,0,0,.733,2.8,4.816,4.816,0,0,0,2.2,1.862,4.728,4.728,0,0,0,2.929.23,3.861,3.861,0,0,0,2.358-1.7,3.978,3.978,0,0,0,.49-2.971.258.258,0,0,1,.5-.141,4.5,4.5,0,0,1-.283,3.508,4.64,4.64,0,0,1-2.783,2.314,5.925,5.925,0,0,1-6.586-2.333,6.448,6.448,0,0,1-.793-1.716,7.381,7.381,0,0,1,3.042-8.217,8.192,8.192,0,0,1,3.508-1.218,9.093,9.093,0,0,1,6.879,2.1,9.257,9.257,0,0,1,3.191,6.39,10.727,10.727,0,0,1-.29,3.575,11.953,11.953,0,0,1-1.424,3.267,11.589,11.589,0,0,1-5.376,4.471,13.74,13.74,0,0,1-6.872.793,27.452,27.452,0,0,1-6.569-1.8,65.986,65.986,0,0,1-11.783-6.513,21.115,21.115,0,0,0-5.878-2.873,12.134,12.134,0,0,0-6.442-.057c-4.293,1.087-7.7,4.38-12.022,5.725a.084.084,0,0,1-.105-.055A.087.087,0,0,1,1200.055,509.7Z" transform="translate(-1191.563 -494.724)" fill="#fff"/>
          <path id="Path_20" data-name="Path 20" d="M1206.848,528.905a47.062,47.062,0,0,0,5.339-3.52,21.986,21.986,0,0,1,5.64-3.064,11.226,11.226,0,0,1,6.409-.192,15.39,15.39,0,0,1,1.546.481,9.575,9.575,0,0,1,1.491.621,15.725,15.725,0,0,1,1.444.722l1.382.832a124.138,124.138,0,0,0,10.9,6.67,30.912,30.912,0,0,0,5.89,2.408,13.221,13.221,0,0,0,6.307.358,13.327,13.327,0,0,1-6.36-.159,31,31,0,0,1-5.984-2.319,115.607,115.607,0,0,1-10.983-6.6l-1.356-.827a15.14,15.14,0,0,0-1.413-.717,9.221,9.221,0,0,0-1.456-.617,14.961,14.961,0,0,0-1.5-.479,11.146,11.146,0,0,0-6.221.129,21.875,21.875,0,0,0-5.622,2.925A47.1,47.1,0,0,1,1206.848,528.905Z" transform="translate(-1196.572 -514.48)" fill="#fff"/>
          <path id="Path_21" data-name="Path 21" d="M1171.21,530.136a.848.848,0,0,0,1.058.1,1.271,1.271,0,0,0,.545-.965,1.48,1.48,0,0,0-1.311-1.545,1.592,1.592,0,0,0-1.717,1.017,2.058,2.058,0,0,0,.487,2.071,5.655,5.655,0,0,0,4.614,1.646,12.392,12.392,0,0,0,4.994-1.759c1.6-.878,3.161-1.921,4.852-2.767a24.3,24.3,0,0,1,5.321-1.948,10.2,10.2,0,0,1,5.686.355,9.024,9.024,0,0,1,4.421,3.552,8.416,8.416,0,0,1,1.371,5.485,7.536,7.536,0,0,1-2.732,4.93,6.724,6.724,0,0,1-5.4,1.5,6.021,6.021,0,0,1-4.383-3.438,5.014,5.014,0,0,1-.44-2.833,4.825,4.825,0,0,1,1.23-2.59,4.763,4.763,0,0,1,2.477-1.437,3.9,3.9,0,0,1,4.56,2.735,3.146,3.146,0,0,1-.548,2.79,2.962,2.962,0,0,1-2.582,1.165,2.541,2.541,0,0,1-2.146-1.807.155.155,0,0,1,.1-.193.159.159,0,0,1,.194.105,2.221,2.221,0,0,0,1.885,1.57,2.632,2.632,0,0,0,2.276-1.051,2.794,2.794,0,0,0,.472-2.479,3.517,3.517,0,0,0-4.13-2.448,4.421,4.421,0,0,0-3.366,3.7,4.568,4.568,0,0,0,.421,2.589,5.56,5.56,0,0,0,4.063,3.15,6.23,6.23,0,0,0,4.992-1.427,7.005,7.005,0,0,0,2.512-4.6,7.849,7.849,0,0,0-1.316-5.1,8.627,8.627,0,0,0-1.808-1.974,8.42,8.42,0,0,0-2.35-1.268,9.476,9.476,0,0,0-5.289-.216,23.51,23.51,0,0,0-5.078,1.983c-1.617.85-3.131,1.9-4.769,2.85a20.122,20.122,0,0,1-2.557,1.26,9.446,9.446,0,0,1-2.862.671,7.6,7.6,0,0,1-2.953-.361,5.552,5.552,0,0,1-2.539-1.67,3.662,3.662,0,0,1-.733-1.441,2.693,2.693,0,0,1,.146-1.669,2.475,2.475,0,0,1,1.131-1.246,2.433,2.433,0,0,1,1.647-.217,2.366,2.366,0,0,1,1.382.871,1.975,1.975,0,0,1,.39,1.575,1.814,1.814,0,0,1-.929,1.285,1.183,1.183,0,0,1-.82.114,1.388,1.388,0,0,1-.669-.415.145.145,0,0,1,.2-.209Z" transform="translate(-1168.662 -517.397)" fill="#fff"/>
        </g>
        <g id="Group_7" data-name="Group 7" transform="translate(2.01 11.387)">
          <path id="Path_22" data-name="Path 22" d="M877.727,538.578H771.37a.769.769,0,0,1,0-1.538H877.727a.769.769,0,1,1,0,1.538Z" transform="translate(-770.601 -537.04)" fill="#fff"/>
        </g>
        <path id="Path_23" data-name="Path 23" d="M768.689,532.352a2.779,2.779,0,1,1-2.779-2.778A2.779,2.779,0,0,1,768.689,532.352Z" transform="translate(-763.131 -520.196)" fill="#fff"/>
        <g id="Group_8" data-name="Group 8" transform="translate(172.717 11.388)">
          <path id="Path_24" data-name="Path 24" d="M1512.108,538.581H1405.75a.769.769,0,1,1,0-1.538h106.358a.769.769,0,0,1,0,1.538Z" transform="translate(-1404.981 -537.043)" fill="#fff"/>
        </g>
        <path id="Path_25" data-name="Path 25" d="M1792.758,532.353a2.779,2.779,0,1,1,2.779,2.778A2.779,2.779,0,0,1,1792.758,532.353Z" transform="translate(-1515.692 -520.196)" fill="#fff"/>
      </g>
      <g id="Group_10" data-name="Group 10" transform="translate(3.35 108.19)">
        <path id="Path_26" data-name="Path 26" d="M775.581,683.356V656.2h8.244l6.436,19.36,6.494-19.36h8.224v27.153h-5.736V662.588l-6.766,20.769h-4.453L781.3,662.682v20.675Z" transform="translate(-775.581 -655.827)" fill="#fff"/>
        <path id="Path_27" data-name="Path 27" d="M900.44,683.356,910.512,656.2H916.5l10.053,27.153h-5.658l-2.294-6.291H908.49l-2.353,6.291Zm9.314-11.079h7.486L913.526,661.5Z" transform="translate(-866.841 -655.827)" fill="#fff"/>
        <path id="Path_28" data-name="Path 28" d="M995.817,661.085V656.2h22.5v4.882h-8.3v22.271h-5.7V661.085Z" transform="translate(-936.553 -655.827)" fill="#fff"/>
        <path id="Path_29" data-name="Path 29" d="M1115.613,683.356h-5.892l-4.569-10.459h-5.7v10.459H1093.8V656.2h11.861a12.689,12.689,0,0,1,5.5,1.033,6.877,6.877,0,0,1,3.15,2.864,8.579,8.579,0,0,1,1.011,4.216,8.492,8.492,0,0,1-.69,3.615,7.325,7.325,0,0,1-1.808,2.451,10.407,10.407,0,0,1-2.44,1.6Zm-10.966-14.685a5.235,5.235,0,0,0,3.607-1.183,3.886,3.886,0,0,0,1.332-3.042,3.687,3.687,0,0,0-1.283-2.967,4.845,4.845,0,0,0-3.247-1.089h-5.6v8.281Z" transform="translate(-1008.167 -655.827)" fill="#fff"/>
        <path id="Path_30" data-name="Path 30" d="M1194.379,656.2h5.658v27.153h-5.658Z" transform="translate(-1081.683 -655.827)" fill="#fff"/>
        <path id="Path_31" data-name="Path 31" d="M1238.816,683.356V656.2h8.244l6.436,19.36,6.495-19.36h8.225v27.153h-5.736V662.588l-6.766,20.769h-4.453l-6.727-20.675v20.675Z" transform="translate(-1114.163 -655.827)" fill="#fff"/>
        <path id="Path_32" data-name="Path 32" d="M1379.607,682.711a13.536,13.536,0,0,1-6.893-1.68,11.346,11.346,0,0,1-4.492-4.789,18.2,18.2,0,0,1,.02-14.9,11.537,11.537,0,0,1,4.521-4.835,14.588,14.588,0,0,1,13.649-.01,11.391,11.391,0,0,1,4.482,4.826,18.432,18.432,0,0,1,.02,14.91,11.235,11.235,0,0,1-4.462,4.8A13.4,13.4,0,0,1,1379.607,682.711Zm0-4.507a6.56,6.56,0,0,0,3.568-.948,6.026,6.026,0,0,0,2.323-3,14.733,14.733,0,0,0,.817-5.361,15.294,15.294,0,0,0-.826-5.5,5.889,5.889,0,0,0-5.882-4.075,6.383,6.383,0,0,0-3.558.986,6.318,6.318,0,0,0-2.353,3.1,15.149,15.149,0,0,0-.836,5.493,14.422,14.422,0,0,0,.836,5.371,6.108,6.108,0,0,0,2.353,2.995A6.571,6.571,0,0,0,1379.607,678.2Z" transform="translate(-1207.589 -654.807)" fill="#fff"/>
        <path id="Path_33" data-name="Path 33" d="M1499.762,656.2h5.678v27.153h-5.114l-13.358-18.684v18.684h-5.658V656.2h5.619l12.833,17.971Z" transform="translate(-1291.403 -655.827)" fill="#fff"/>
        <path id="Path_34" data-name="Path 34" d="M1594.319,656.2h5.658v27.153h-5.658Z" transform="translate(-1374.002 -655.827)" fill="#fff"/>
        <path id="Path_35" data-name="Path 35" d="M1631.025,683.356,1641.1,656.2h5.989l10.052,27.153h-5.658l-2.294-6.291h-10.111l-2.353,6.291Zm9.313-11.079h7.486L1644.11,661.5Z" transform="translate(-1400.831 -655.827)" fill="#fff"/>
        <path id="Path_36" data-name="Path 36" d="M1743.744,656.2h5.716v22.515h12.211v4.638h-17.927Z" transform="translate(-1483.218 -655.827)" fill="#fff"/>
      </g>
    </g>
  </g>
</svg>
