<svg xmlns="http://www.w3.org/2000/svg" width="45.383" height="45.383" viewBox="0 0 45.383 45.383">
  <path id="Icon_awesome-chevron-circle-down" data-name="Icon awesome-chevron-circle-down" d="M45.945,23.254A22.691,22.691,0,1,1,23.254.563,22.687,22.687,0,0,1,45.945,23.254ZM24.809,33.675l12.4-12.4a2.187,2.187,0,0,0,0-3.1L35.652,16.62a2.187,2.187,0,0,0-3.1,0l-9.3,9.3-9.3-9.3a2.187,2.187,0,0,0-3.1,0L9.3,18.176a2.187,2.187,0,0,0,0,3.1l12.4,12.4A2.2,2.2,0,0,0,24.809,33.675Z" transform="translate(-0.563 -0.563)" fill="#a11a2e"/>
</svg>
