<svg xmlns="http://www.w3.org/2000/svg" width="17.927" height="19.814" viewBox="0 0 17.927 19.814">
  <path id="Icon_awesome-rupee-sign" data-name="Icon awesome-rupee-sign" d="M17.255,5.081a.614.614,0,0,0,.672-.531V2.781a.614.614,0,0,0-.672-.531H.672A.614.614,0,0,0,0,2.781V4.76a.614.614,0,0,0,.672.531H5.45A4.542,4.542,0,0,1,8.865,6.5H.672A.614.614,0,0,0,0,7.027V8.8a.614.614,0,0,0,.672.531H9.566c-.348,1.6-1.847,2.593-4.188,2.593H.672A.614.614,0,0,0,0,12.45v2.345a.488.488,0,0,0,.216.39l9.246,6.738a.78.78,0,0,0,.456.141h4.625c.612,0,.906-.593.456-.921l-8.453-6.16c4.286-.1,7.347-2.362,7.749-5.657h2.959a.614.614,0,0,0,.672-.531V7.027a.614.614,0,0,0-.672-.531H13.967a5.526,5.526,0,0,0-.8-1.415Z" transform="translate(0 -2.25)" fill="#828282"/>
</svg>
