<svg xmlns="http://www.w3.org/2000/svg" width="30.992" height="31" viewBox="0 0 30.992 31">
  <path id="Icon_ionic-ios-settings" data-name="Icon ionic-ios-settings" d="M32.933,20a3.988,3.988,0,0,1,2.558-3.721,15.808,15.808,0,0,0-1.913-4.608,4.042,4.042,0,0,1-1.622.347,3.979,3.979,0,0,1-3.64-5.6,15.76,15.76,0,0,0-4.6-1.913,3.985,3.985,0,0,1-7.441,0,15.808,15.808,0,0,0-4.608,1.913,3.979,3.979,0,0,1-3.64,5.6A3.91,3.91,0,0,1,6.4,11.667a16.157,16.157,0,0,0-1.9,4.617,3.987,3.987,0,0,1,.008,7.441,15.808,15.808,0,0,0,1.913,4.608,3.981,3.981,0,0,1,5.254,5.254A15.9,15.9,0,0,0,16.283,35.5a3.977,3.977,0,0,1,7.425,0,15.808,15.808,0,0,0,4.608-1.913,3.985,3.985,0,0,1,5.254-5.254,15.9,15.9,0,0,0,1.913-4.608A4.007,4.007,0,0,1,32.933,20ZM20.069,26.445a6.457,6.457,0,1,1,6.457-6.457A6.455,6.455,0,0,1,20.069,26.445Z" transform="translate(-4.5 -4.5)" fill="#cacaca"/>
</svg>
