<svg xmlns="http://www.w3.org/2000/svg" width="21.217" height="21.217" viewBox="0 0 21.217 21.217">
  <path id="Icon_material-help-outline" data-name="Icon material-help-outline" d="M12.548,19.974H14.67V17.852H12.548ZM13.609,3A10.609,10.609,0,1,0,24.217,13.609,10.613,10.613,0,0,0,13.609,3Zm0,19.1A8.487,8.487,0,1,1,22.1,13.609,8.5,8.5,0,0,1,13.609,22.1Zm0-14.852a4.242,4.242,0,0,0-4.243,4.243h2.122a2.122,2.122,0,1,1,4.243,0c0,2.122-3.183,1.857-3.183,5.3H14.67c0-2.387,3.183-2.652,3.183-5.3A4.242,4.242,0,0,0,13.609,7.243Z" transform="translate(-3 -3)" fill="#a11a2e"/>
</svg>
