<svg xmlns="http://www.w3.org/2000/svg" width="19.364" height="23.6" viewBox="0 0 19.364 23.6">
  <path id="Icon_material-notifications-none" data-name="Icon material-notifications-none" d="M15.682,27.35A2.428,2.428,0,0,0,18.1,24.93H13.262A2.428,2.428,0,0,0,15.682,27.35Zm7.262-7.262V14.037c0-3.716-1.973-6.826-5.446-7.649V5.565a1.815,1.815,0,1,0-3.631,0v.823c-3.461.823-5.446,3.921-5.446,7.649v6.051L6,22.509v1.21H25.364v-1.21ZM20.523,21.3H10.841V14.037c0-3,1.828-5.446,4.841-5.446s4.841,2.445,4.841,5.446Z" transform="translate(-6 -3.75)" fill="#a11a2e"/>
</svg>
