<svg xmlns="http://www.w3.org/2000/svg" width="19.094" height="19.096" viewBox="0 0 19.094 19.096">
  <path id="Icon_material-update" data-name="Icon material-update" d="M23.6,12.053H16.4L19.31,9.062A7.467,7.467,0,0,0,8.829,8.956a7.294,7.294,0,0,0,0,10.386,7.447,7.447,0,0,0,10.481,0,6.91,6.91,0,0,0,2.164-5.188H23.6a9.909,9.909,0,0,1-2.8,6.673,9.605,9.605,0,0,1-13.494,0A9.378,9.378,0,0,1,7.28,7.481a9.534,9.534,0,0,1,13.42,0L23.6,4.5ZM14.579,9.8v4.509l3.713,2.207L17.528,17.8l-4.541-2.695V9.8Z" transform="translate(-4.502 -4.5)" fill="#a11a2e"/>
</svg>
