<svg xmlns="http://www.w3.org/2000/svg" width="55.067" height="58.126" viewBox="0 0 55.067 58.126">
  <path id="Icon_metro-location-city" data-name="Icon metro-location-city" d="M43.138,32.675V14.319L33.96,5.141l-9.178,9.178v6.119H6.427v42.83H61.494V32.675H43.138ZM18.664,57.149H12.545V51.031h6.119Zm0-12.237H12.545V38.794h6.119Zm0-12.237H12.545V26.556h6.119ZM37.02,57.149H30.9V51.031H37.02Zm0-12.237H30.9V38.794H37.02Zm0-12.237H30.9V26.556H37.02Zm0-12.237H30.9V14.319H37.02ZM55.375,57.149H49.257V51.031h6.119v6.119Zm0-12.237H49.257V38.794h6.119Z" transform="translate(-6.427 -5.141)" fill="#a11a2e"/>
</svg>
