<svg xmlns="http://www.w3.org/2000/svg" width="27.378" height="33" viewBox="0 0 27.378 33">
  <g id="help-desk" transform="translate(-43.57 0)">
    <path id="Path_37" data-name="Path 37" d="M67.294,17.44h2.284a8.762,8.762,0,0,1,0-10.222H67.552a10.4,10.4,0,0,1,18.129,0H83.655a8.762,8.762,0,0,1,0,10.222h2.284A3.043,3.043,0,0,0,88.978,14.4V10.257a3.024,3.024,0,0,0-.642-1.865,12.38,12.38,0,0,0-23.441,0,3.024,3.024,0,0,0-.642,1.864V14.4a3.043,3.043,0,0,0,3.039,3.039Z" transform="translate(-19.35 0)" fill="#a11a2e"/>
    <path id="Path_38" data-name="Path 38" d="M70.9,306.962a13.961,13.961,0,0,0-27.273-.016,2.438,2.438,0,0,0,2.384,2.944c4.87,0,17.806,0,22.517-.015A2.422,2.422,0,0,0,70.9,306.962Z" transform="translate(0 -276.89)" fill="#a11a2e"/>
    <path id="Path_39" data-name="Path 39" d="M159.815,95.1h4.348a6.769,6.769,0,1,0-1.021,1.936h-3.327A.968.968,0,0,1,159.815,95.1Z" transform="translate(-100.477 -80.634)" fill="#a11a2e"/>
  </g>
</svg>
