<svg id="Group_63" data-name="Group 63" xmlns="http://www.w3.org/2000/svg" width="718.112" height="62.288" viewBox="0 0 718.112 62.288">
  <g id="Group_6" data-name="Group 6" transform="translate(277.275)">
    <path id="Path_19" data-name="Path 19" d="M1200.147,532.77c5.355-1.816,10.078-5.009,14.9-7.974s9.8-5.942,15.384-7.536a32.49,32.49,0,0,1,17.224-.267c5.728,1.292,10.734,4.4,15.61,7.355,9.456,6.163,19.241,11.93,29.677,16.027a61.515,61.515,0,0,0,16.105,4.108,31.963,31.963,0,0,0,15.924-2.211,26.049,26.049,0,0,0,11.845-10.336,24.361,24.361,0,0,0,3.446-15.107,19.334,19.334,0,0,0-6.918-13.307,19.138,19.138,0,0,0-14.212-4.222,16.4,16.4,0,0,0-7.053,2.315,15.533,15.533,0,0,0-5.046,5.351,14.73,14.73,0,0,0-1.9,7.165,13.493,13.493,0,0,0,1.862,7.126,12.238,12.238,0,0,0,5.595,4.731,12.013,12.013,0,0,0,7.442.583,9.81,9.81,0,0,0,5.992-4.325,10.108,10.108,0,0,0,1.246-7.549.657.657,0,0,1,1.261-.358,11.432,11.432,0,0,1-.719,8.915,11.789,11.789,0,0,1-7.07,5.881,15.055,15.055,0,0,1-16.735-5.928,16.377,16.377,0,0,1-2.014-4.36,18.753,18.753,0,0,1,7.728-20.879,20.812,20.812,0,0,1,8.912-3.1,23.105,23.105,0,0,1,17.479,5.344,23.52,23.52,0,0,1,8.108,16.235,27.263,27.263,0,0,1-.738,9.084,30.383,30.383,0,0,1-3.617,8.3,29.447,29.447,0,0,1-13.66,11.361,34.911,34.911,0,0,1-17.46,2.016,69.755,69.755,0,0,1-16.692-4.586c-10.663-4.31-20.479-10.239-29.939-16.55-4.734-2.964-9.539-5.934-14.935-7.3a30.83,30.83,0,0,0-16.369-.145c-10.909,2.762-19.558,11.13-30.547,14.547a.212.212,0,0,1-.267-.14A.221.221,0,0,1,1200.147,532.77Z" transform="translate(-1178.571 -494.724)" fill="#a11a2e"/>
    <path id="Path_20" data-name="Path 20" d="M1206.848,539.924c4.827-2.5,9.131-5.82,13.565-8.944,4.441-3.1,9.092-6.072,14.332-7.785a28.524,28.524,0,0,1,16.284-.489,39.114,39.114,0,0,1,3.928,1.223,24.317,24.317,0,0,1,3.789,1.578,40.023,40.023,0,0,1,3.67,1.835l3.511,2.113c9.081,5.947,18.087,11.981,27.7,16.948a78.545,78.545,0,0,0,14.967,6.12,33.594,33.594,0,0,0,16.026.91,33.862,33.862,0,0,1-16.159-.4,78.767,78.767,0,0,1-15.2-5.892c-9.752-4.844-18.808-10.925-27.906-16.781l-3.445-2.1a38.5,38.5,0,0,0-3.59-1.822,23.421,23.421,0,0,0-3.7-1.567,37.985,37.985,0,0,0-3.821-1.217,28.32,28.32,0,0,0-15.807.328c-5.136,1.573-9.793,4.433-14.284,7.432C1216.186,534.383,1211.752,537.58,1206.848,539.924Z" transform="translate(-1180.739 -503.273)" fill="#a11a2e"/>
    <path id="Path_21" data-name="Path 21" d="M1175.136,536.9a2.155,2.155,0,0,0,2.688.259,3.228,3.228,0,0,0,1.384-2.451,3.76,3.76,0,0,0-3.332-3.925,4.046,4.046,0,0,0-4.361,2.584,5.227,5.227,0,0,0,1.237,5.263c2.74,3.11,7.378,4.511,11.724,4.181,4.409-.234,8.6-2.294,12.688-4.47,4.058-2.231,8.031-4.881,12.328-7.031a61.744,61.744,0,0,1,13.52-4.949,25.908,25.908,0,0,1,14.447.9,22.93,22.93,0,0,1,11.232,9.025,21.383,21.383,0,0,1,3.483,13.937,19.147,19.147,0,0,1-6.942,12.527,17.085,17.085,0,0,1-13.73,3.81,15.3,15.3,0,0,1-11.136-8.735,12.741,12.741,0,0,1-1.119-7.2,12.26,12.26,0,0,1,3.126-6.58,12.1,12.1,0,0,1,6.294-3.652,9.9,9.9,0,0,1,11.587,6.948,7.992,7.992,0,0,1-1.392,7.088,7.527,7.527,0,0,1-6.562,2.961,6.457,6.457,0,0,1-5.454-4.591.394.394,0,0,1,.261-.491.4.4,0,0,1,.493.268,5.644,5.644,0,0,0,4.79,3.988,6.689,6.689,0,0,0,5.782-2.671,7.1,7.1,0,0,0,1.2-6.3,8.936,8.936,0,0,0-10.492-6.22,11.235,11.235,0,0,0-8.553,9.4,11.609,11.609,0,0,0,1.07,6.578,14.127,14.127,0,0,0,10.325,8,15.83,15.83,0,0,0,12.684-3.625,17.8,17.8,0,0,0,6.382-11.677,19.942,19.942,0,0,0-3.343-12.964,21.922,21.922,0,0,0-4.595-5.015,21.4,21.4,0,0,0-5.971-3.223,24.077,24.077,0,0,0-13.439-.55,59.732,59.732,0,0,0-12.9,5.038c-4.109,2.159-7.956,4.839-12.119,7.242a51.125,51.125,0,0,1-6.5,3.2,24,24,0,0,1-7.271,1.7,19.3,19.3,0,0,1-7.5-.917,14.1,14.1,0,0,1-6.451-4.242,9.3,9.3,0,0,1-1.862-3.662,6.842,6.842,0,0,1,.371-4.241,6.289,6.289,0,0,1,2.874-3.166,6.183,6.183,0,0,1,4.185-.551,6.011,6.011,0,0,1,3.511,2.213,5.017,5.017,0,0,1,.992,4,4.608,4.608,0,0,1-2.361,3.266,3.007,3.007,0,0,1-2.083.29,3.529,3.529,0,0,1-1.7-1.054.367.367,0,0,1,.506-.531Z" transform="translate(-1168.662 -504.535)" fill="#a11a2e"/>
  </g>
  <g id="Group_7" data-name="Group 7" transform="translate(5.108 28.933)">
    <path id="Path_22" data-name="Path 22" d="M1042.8,540.948H772.554a1.954,1.954,0,0,1,0-3.907H1042.8a1.954,1.954,0,1,1,0,3.907Z" transform="translate(-770.601 -537.04)" fill="#a11a2e"/>
  </g>
  <path id="Path_23" data-name="Path 23" d="M777.253,536.632a7.061,7.061,0,1,1-7.061-7.058A7.061,7.061,0,0,1,777.253,536.632Z" transform="translate(-763.131 -505.746)" fill="#a11a2e"/>
  <g id="Group_8" data-name="Group 8" transform="translate(438.854 28.935)">
    <path id="Path_24" data-name="Path 24" d="M1677.177,540.95H1406.935a1.954,1.954,0,1,1,0-3.907h270.242a1.954,1.954,0,0,1,0,3.907Z" transform="translate(-1404.981 -537.043)" fill="#a11a2e"/>
  </g>
  <path id="Path_25" data-name="Path 25" d="M1792.758,536.634a7.061,7.061,0,1,1,7.06,7.059A7.06,7.06,0,0,1,1792.758,536.634Z" transform="translate(-1088.767 -505.746)" fill="#a11a2e"/>
</svg>
