<svg xmlns="http://www.w3.org/2000/svg" width="152.249" height="190.312" viewBox="0 0 152.249 190.312">
  <g id="webcam" transform="translate(-51.2)">
    <g id="Group_73" data-name="Group 73" transform="translate(51.2)">
      <g id="Group_72" data-name="Group 72">
        <path id="Path_2211" data-name="Path 2211" d="M127.325,0a76.125,76.125,0,1,0,76.125,76.125A76.348,76.348,0,0,0,127.325,0Zm0,114.187a38.062,38.062,0,1,1,38.062-38.062A38.174,38.174,0,0,1,127.325,114.187Z" transform="translate(-51.2)" fill="#a11a2e"/>
      </g>
    </g>
    <g id="Group_75" data-name="Group 75" transform="translate(108.294 57.094)">
      <g id="Group_74" data-name="Group 74">
        <path id="Path_2212" data-name="Path 2212" d="M223.831,153.6c-1.9,0-3.806,0-4.758.952,4.758,8.564-5.709,18.08-13.322,13.322-.952.952-.952,2.855-.952,4.758A19.031,19.031,0,1,0,223.831,153.6Z" transform="translate(-204.8 -153.6)" fill="#a11a2e"/>
      </g>
    </g>
    <g id="Group_77" data-name="Group 77" transform="translate(60.921 157.007)">
      <g id="Group_76" data-name="Group 76">
        <path id="Path_2213" data-name="Path 2213" d="M195.14,422.4a94.049,94.049,0,0,1-50.433,14.273c-19.031,0-36.159-4.758-50.433-14.273L78.1,449.044A4.272,4.272,0,0,0,81.9,455.7h123.7c3.806,0,5.709-3.806,5.709-6.661Z" transform="translate(-77.351 -422.4)" fill="#a11a2e"/>
      </g>
    </g>
  </g>
</svg>
