<svg id="Group_17" data-name="Group 17" xmlns="http://www.w3.org/2000/svg" width="89.09" height="202.142" viewBox="0 0 89.09 202.142">
  <path id="Path_585" data-name="Path 585" d="M131.685,434.8l-9.787,24.33c-.932,2.263.507,5.145,3.11,5.145h4.019v15.864a8.7,8.7,0,0,0,8.673,8.673h12.436V517.65h35.171v-51.21A32.072,32.072,0,1,0,131.685,434.8Z" transform="translate(-120.654 -362.191)" fill="#ffb240" fill-rule="evenodd"/>
  <path id="Path_586" data-name="Path 586" d="M131.579,533.432V554.9h12.592V540a2.19,2.19,0,0,1,4.379,0V554.9H183.1V540a2.19,2.19,0,0,1,4.38,0V554.9h12.591V529.34a28.866,28.866,0,0,0-28.779-28.784H160.364a28.872,28.872,0,0,0-28.786,28.784v4.093Z" transform="translate(-119.593 -352.756)" fill="#be5628" fill-rule="evenodd"/>
  <path id="Path_587" data-name="Path 587" d="M197.25,366.973H133.326a12.617,12.617,0,0,0-12.58,12.586v18.216a12.618,12.618,0,0,0,12.58,12.587h48.111c-.051,16.582,2.474,35.79-17.241,54.267,22.52-13.371,26.337-41.135,26.51-54.267h6.545a12.623,12.623,0,0,0,12.586-12.587V379.559a12.623,12.623,0,0,0-12.587-12.586Z" transform="translate(-120.746 -366.973)" fill="#e0e1e2" fill-rule="evenodd"/>
  <path id="Path_588" data-name="Path 588" d="M138.464,387.945c-.686.8-1.218,2.374-1.618,4.728a6.255,6.255,0,0,1-1.084,3.122,2.588,2.588,0,0,1-2.1.932,2.917,2.917,0,0,1-2.1-.871,2.772,2.772,0,0,1-.9-2.067,2.549,2.549,0,0,1,.706-1.811,12.432,12.432,0,0,1,2.9-1.985,9.812,9.812,0,0,0,3.2-2.59,3.746,3.746,0,0,0-1.586-.3,18.6,18.6,0,0,0-2.733.2,15.917,15.917,0,0,1-1.944.215,3.855,3.855,0,0,1-2.517-.8,2.476,2.476,0,0,1-.994-2.026,2.818,2.818,0,0,1,.87-2.067,2.785,2.785,0,0,1,2.037-.87c1.023,0,2.333.726,3.93,2.191a8.59,8.59,0,0,0,3.357,2.394A10.4,10.4,0,0,0,136.54,382a8.462,8.462,0,0,1-1.044-3.265,2.67,2.67,0,0,1,.778-1.995,2.813,2.813,0,0,1,2.067-.758,2.537,2.537,0,0,1,2.876,2.876,9.7,9.7,0,0,1-1.105,3.4,10.067,10.067,0,0,0-1.1,4.033v.062a8.288,8.288,0,0,0,3.141-2.109,13.524,13.524,0,0,1,2.283-1.995,3.616,3.616,0,0,1,1.832-.419,2.544,2.544,0,0,1,1.913.808,2.769,2.769,0,0,1,.778,2.006q0,2.825-3.5,2.824a13.2,13.2,0,0,1-2.078-.184,13.418,13.418,0,0,0-2.16-.174,7.679,7.679,0,0,0-1.852.3,9.75,9.75,0,0,0,3.316,2.651,10.727,10.727,0,0,1,2.846,1.9,2.726,2.726,0,0,1,.737,1.893,2.756,2.756,0,0,1-.871,2.037,2.977,2.977,0,0,1-2.159.84,2.429,2.429,0,0,1-2.119-1,9.536,9.536,0,0,1-1.136-3.674,9.26,9.26,0,0,0-1.514-4.1Z" transform="translate(-120.006 -366.014)" fill="#bf7a7f"/>
  <path id="Path_589" data-name="Path 589" d="M161.969,387.945c-.686.8-1.218,2.374-1.616,4.728a6.244,6.244,0,0,1-1.085,3.122,2.586,2.586,0,0,1-2.1.932,2.914,2.914,0,0,1-2.1-.871,2.769,2.769,0,0,1-.9-2.067,2.554,2.554,0,0,1,.706-1.811,12.445,12.445,0,0,1,2.9-1.985,9.812,9.812,0,0,0,3.2-2.59,3.755,3.755,0,0,0-1.587-.3,18.575,18.575,0,0,0-2.732.2,15.906,15.906,0,0,1-1.945.215,3.859,3.859,0,0,1-2.517-.8,2.478,2.478,0,0,1-.992-2.026,2.818,2.818,0,0,1,.87-2.067,2.785,2.785,0,0,1,2.037-.87c1.023,0,2.332.726,3.93,2.191a8.6,8.6,0,0,0,3.356,2.394A10.387,10.387,0,0,0,160.045,382,8.455,8.455,0,0,1,159,378.735a2.665,2.665,0,0,1,.778-1.995,2.811,2.811,0,0,1,2.067-.758,2.537,2.537,0,0,1,2.876,2.876,9.7,9.7,0,0,1-1.105,3.4,10.053,10.053,0,0,0-1.105,4.033v.062a8.292,8.292,0,0,0,3.142-2.109,13.482,13.482,0,0,1,2.283-1.995,3.614,3.614,0,0,1,1.831-.419,2.547,2.547,0,0,1,1.914.808,2.769,2.769,0,0,1,.778,2.006q0,2.825-3.5,2.824a13.182,13.182,0,0,1-2.077-.184,13.427,13.427,0,0,0-2.16-.174,7.671,7.671,0,0,0-1.852.3,9.738,9.738,0,0,0,3.316,2.651,10.718,10.718,0,0,1,2.845,1.9,2.721,2.721,0,0,1,.737,1.893,2.755,2.755,0,0,1-.87,2.037,2.98,2.98,0,0,1-2.16.84,2.428,2.428,0,0,1-2.118-1,9.536,9.536,0,0,1-1.136-3.674,9.273,9.273,0,0,0-1.515-4.1Z" transform="translate(-117.505 -366.014)" fill="#bf7a7f"/>
  <path id="Path_590" data-name="Path 590" d="M185.477,387.945c-.686.8-1.218,2.374-1.618,4.728a6.245,6.245,0,0,1-1.084,3.122,2.588,2.588,0,0,1-2.1.932,2.912,2.912,0,0,1-2.1-.871,2.769,2.769,0,0,1-.9-2.067,2.554,2.554,0,0,1,.706-1.811,12.432,12.432,0,0,1,2.9-1.985,9.829,9.829,0,0,0,3.2-2.59,3.755,3.755,0,0,0-1.587-.3,18.575,18.575,0,0,0-2.732.2,15.95,15.95,0,0,1-1.945.215,3.857,3.857,0,0,1-2.517-.8,2.479,2.479,0,0,1-.994-2.026,2.819,2.819,0,0,1,.871-2.067,2.78,2.78,0,0,1,2.036-.87c1.023,0,2.333.726,3.93,2.191a8.59,8.59,0,0,0,3.357,2.394A10.388,10.388,0,0,0,183.553,382a8.455,8.455,0,0,1-1.043-3.265,2.669,2.669,0,0,1,.777-1.995,2.814,2.814,0,0,1,2.068-.758,2.537,2.537,0,0,1,2.876,2.876,9.7,9.7,0,0,1-1.105,3.4,10.053,10.053,0,0,0-1.105,4.033v.062a8.289,8.289,0,0,0,3.141-2.109,13.526,13.526,0,0,1,2.283-1.995,3.619,3.619,0,0,1,1.832-.419,2.543,2.543,0,0,1,1.913.808,2.77,2.77,0,0,1,.778,2.006q0,2.825-3.5,2.824a13.206,13.206,0,0,1-2.078-.184,13.4,13.4,0,0,0-2.159-.174,7.663,7.663,0,0,0-1.852.3,9.734,9.734,0,0,0,3.315,2.651,10.709,10.709,0,0,1,2.846,1.9,2.721,2.721,0,0,1,.737,1.893,2.755,2.755,0,0,1-.87,2.037,2.981,2.981,0,0,1-2.16.84,2.43,2.43,0,0,1-2.119-1,9.559,9.559,0,0,1-1.135-3.674,9.273,9.273,0,0,0-1.515-4.1Z" transform="translate(-115.003 -366.014)" fill="#bf7a7f"/>
</svg>
