<svg xmlns="http://www.w3.org/2000/svg" width="752.599" height="579.795" viewBox="0 0 752.599 579.795">
  <path id="Icon" d="M1815,1066.773a7.858,7.858,0,0,1-3.341-.746c-81.2-38.184-150.614-79.24-206.318-122.027-50.85-39.058-90.8-79.929-118.736-121.48-25.5-37.93-41-76.332-46.064-114.135-4.633-34.6-.507-67.8,12.264-98.679,39.286-95,153.059-146.33,248.444-112.087,36.416,13.074,66.478,33.523,89.352,60.779a168.262,168.262,0,0,1,22,33.229c14.117-25.625,49.1-69.936,116.144-94.009h0c95.385-34.241,209.159,17.087,248.445,112.089,12.771,30.883,16.9,64.083,12.265,98.678-5.062,37.8-20.561,76.2-46.064,114.135-27.938,41.551-67.887,82.423-118.737,121.48-55.7,42.786-125.12,83.842-206.319,122.026A7.859,7.859,0,0,1,1815,1066.773Z" transform="translate(-1438.702 -486.979)" fill="rgba(161,26,46,0.19)"/>
</svg>
