<svg xmlns="http://www.w3.org/2000/svg" width="752.599" height="579.795" viewBox="0 0 752.599 579.795">
  <g id="Group_84" data-name="Group 84" transform="translate(-169.3 -345.224)">
    <path id="Icon" d="M1815,1066.773a7.858,7.858,0,0,1-3.341-.746c-81.2-38.184-150.614-79.24-206.318-122.027-50.85-39.058-90.8-79.929-118.736-121.48-25.5-37.93-41-76.332-46.064-114.135-4.633-34.6-.507-67.8,12.264-98.679,39.286-95,153.059-146.33,248.444-112.087,36.416,13.074,66.478,33.523,89.352,60.779a168.262,168.262,0,0,1,22,33.229c14.117-25.625,49.1-69.936,116.144-94.009h0c95.385-34.241,209.159,17.087,248.445,112.089,12.771,30.883,16.9,64.083,12.265,98.678-5.062,37.8-20.561,76.2-46.064,114.135-27.938,41.551-67.887,82.423-118.737,121.48-55.7,42.786-125.12,83.842-206.319,122.026A7.859,7.859,0,0,1,1815,1066.773Z" transform="translate(-1269.401 -141.754)" fill="rgba(161,26,46,0.19)"/>
    <g id="Group_83" data-name="Group 83">
      <g id="Group_37" data-name="Group 37" transform="translate(655.693 460.925)">
        <path id="Path_1951" data-name="Path 1951" d="M781.514,279.112c1.794-3.966,6.472-5.574,10.655-6.773,3.33-.954,6.759-1.917,10.2-1.552,4.718.5,8.84,3.419,13.466,4.475,3.116.712,6.885.842,8.609,3.533,1.408,2.2.642,5.253-1.077,7.216s-4.176,3.092-6.556,4.164l-6.366,2.865a21.35,21.35,0,0,1-6.31,2.081c-4.78.523-9.233-2.167-13.768-3.767C785.111,289.5,778.392,286.016,781.514,279.112Z" transform="translate(-694.383 -199.523)" fill="#c6c6c6"/>
        <path id="Path_1952" data-name="Path 1952" d="M781.084,279.687a19.853,19.853,0,0,1,3.649-13.255c3.029-3.91,9.989-4.936,14.652-5.231-2.723-1.744-3.448-5.688-2.141-8.644s4.2-4.968,7.272-5.983a10.819,10.819,0,0,1,7.4-.106,6.136,6.136,0,0,1,3.984,5.826c-.18,2.193-1.588,3.362-2.933,4.854-1.466,1.628-2.48,3.575-4.106,5.113a12.863,12.863,0,0,1,9.891,8.166,22.274,22.274,0,0,1,1.053,6.145c.437,6.707-.239,13.331-5.5,18.039-3.533,3.164-8.433,3.9-13.01,3.936a30.17,30.17,0,0,0-6.4.381,5.568,5.568,0,0,1-5.562-1.64,11.143,11.143,0,0,1-2.725-5.221,17.114,17.114,0,0,0-.744-2.641c-.792-1.843-2.474-3.154-3.457-4.9A11.764,11.764,0,0,1,781.084,279.687Z" transform="translate(-694.077 -224.245)" fill="#653050"/>
        <path id="Path_1953" data-name="Path 1953" d="M777.381,311.11c.439.838,1.017,1.6,1.436,2.454a14.508,14.508,0,0,1,1.177,4.888c.918,7.382,2.234,14.643,3.152,21.985.12.978.219,1.935.339,2.913a40.628,40.628,0,0,0,6.3,3.392c8.04.938,19.013.8,32.738-2.574-.14.04-2.933-21.666,3.87-51.372.619-2.713,1.357-5.007-1.656-5.845a46.509,46.509,0,0,0-7.96-1.038c-.379-.04-.738-.054-1.117-.08-1.159-.08-2.255-.18-3.192-.259-1.815-.16-3.052-.279-3.052-.439V270.113s-12.529-2.633-13.107,3.411c-.02.08-.479,4.688-.479,4.688l-.678,7.062a8.98,8.98,0,0,1-2.973.419c-1,.06-1.9.08-2.075.1-1.855.16-4.948-.339-6.125,1.536-.579.938-.439,2.314-.559,3.332-.359,3.491-2.175,5.945-4.15,8.738C776.842,302.791,775.486,307.4,777.381,311.11Z" transform="translate(-698.591 -200.682)" fill="#f5a784"/>
        <path id="Path_1954" data-name="Path 1954" d="M799.915,270.871v4.491a20.007,20.007,0,0,1-13.865,4.86l.73-7.453C789.385,269.444,797.253,270.422,799.915,270.871Z" transform="translate(-689.078 -199.846)" fill="#e0855c"/>
        <path id="Path_1955" data-name="Path 1955" d="M798.094,265.26a4.414,4.414,0,0,0-1.9,1.239,5.341,5.341,0,0,0-1.395,1.774c-.082.211.213.343.357.209.4-.377.73-.828,1.107-1.235a2.484,2.484,0,0,0,.918.724c.287.106.5-.251.373-.489a2.233,2.233,0,0,0-.756-.724,11.5,11.5,0,0,0,1.508-1.129A.223.223,0,0,0,798.094,265.26Z" transform="translate(-680.383 -204.947)" fill="#e0855c"/>
        <path id="Path_1956" data-name="Path 1956" d="M784.738,262.814c-1.357,1.907-1.755,5.47-1.891,9.654-.409,12.66,5.7,17.311,9.851,17.313,4.259,0,13.233-1.792,14.627-13.532.7-5.871.654-10.8-.7-13.832C803.8,256.071,790.683,254.453,784.738,262.814Z" transform="translate(-692.284 -213.071)" fill="#f5a784"/>
        <path id="Path_1957" data-name="Path 1957" d="M789.988,270.33c-.555-.084-1.826.247-2.087-.351-.217-.5.674-3.441.8-3.946.138-.553.277-1.049.417-1.536-.05-.034-.1-.074-.15-.1a1.414,1.414,0,0,0-.353-.132c-.519,2.021-.886,4.134-1.37,6.049a.276.276,0,0,0,.263.345c.812-.014,1.6.16,2.414.164C790.194,270.821,790.273,270.372,789.988,270.33Z" transform="translate(-687.897 -205.937)" fill="#e0855c"/>
        <path id="Path_1958" data-name="Path 1958" d="M788.868,260.469a3.908,3.908,0,0,0,1.432,2.382,7.228,7.228,0,0,0,2.719.852,3.192,3.192,0,0,1,2.348,1.51,8.648,8.648,0,0,1,.371,1.979,3.614,3.614,0,0,0,1.67,2.376c.768.449,1.728.615,2.284,1.325a9.843,9.843,0,0,1,.784,1.76c.285.577.938,1.083,1.5.8a17.6,17.6,0,0,0,2.446-6.219,10.686,10.686,0,0,0-3.709-9.381,11.4,11.4,0,0,0-9.616-2.284C788.567,256.116,788.348,258.111,788.868,260.469Z" transform="translate(-686.501 -214.835)" fill="#653050"/>
        <path id="Path_1959" data-name="Path 1959" d="M795.153,266.941s1.979-5.245,5.1-2.466-1.173,10.284-5.951,9.7C794.305,274.173,793.631,268.734,795.153,266.941Z" transform="translate(-681.011 -206.532)" fill="#f5a784"/>
        <path id="Path_1960" data-name="Path 1960" d="M787.795,262.171c-.784-.4-2.248-.5-2.819.311a.243.243,0,0,0,.207.363c.389-.02.734-.209,1.125-.241a3.172,3.172,0,0,1,1.225.19A.342.342,0,0,0,787.795,262.171Z" transform="translate(-690.182 -208.318)" fill="#011948"/>
        <path id="Path_1961" data-name="Path 1961" d="M793.506,262.98c-.447-1.113-2.39-1.219-3.22-.529a.313.313,0,0,0,.137.519,7.079,7.079,0,0,0,1.5.014,4.979,4.979,0,0,1,1.2.379A.314.314,0,0,0,793.506,262.98Z" transform="translate(-684.956 -208.169)" fill="#011948"/>
        <path id="Path_1962" data-name="Path 1962" d="M790.876,264.188a.653.653,0,0,1,1.119,0,1.064,1.064,0,0,1,.164.2,1.939,1.939,0,0,1,.14.7,3.226,3.226,0,0,1,.048.343,2.287,2.287,0,0,1-.4,1.345.672.672,0,0,1-1.151,0A2.645,2.645,0,0,1,790.876,264.188Z" transform="translate(-684.657 -206.325)" fill="#011948"/>
        <path id="Path_1963" data-name="Path 1963" d="M785.614,263.956a.654.654,0,0,1,1.119,0,1.236,1.236,0,0,1,.166.2,1.94,1.94,0,0,1,.14.7,2.715,2.715,0,0,1,.046.343,2.278,2.278,0,0,1-.4,1.345.674.674,0,0,1-1.151,0A2.658,2.658,0,0,1,785.614,263.956Z" transform="translate(-689.891 -206.555)" fill="#011948"/>
        <path id="Path_1964" data-name="Path 1964" d="M786.531,269.05a10.943,10.943,0,0,0,3.158.744,8.021,8.021,0,0,0,2.743-.838.237.237,0,0,1,.266.343c-1.347,1.955-4.886,1.648-6.372.1A.213.213,0,0,1,786.531,269.05Z" transform="translate(-688.86 -201.277)" fill="#e0855c"/>
        <path id="Path_1965" data-name="Path 1965" d="M797.382,265.395c.136-.062.3.1.17.219-.407.385-.846.724-1.233,1.131a1.125,1.125,0,0,1,.676.6.328.328,0,0,1,0,.331l-.09.134a.155.155,0,0,1-.2.054,2.49,2.49,0,0,1-.774-.646,7.455,7.455,0,0,1-.834,1.02.149.149,0,0,1-.247-.144A4.8,4.8,0,0,1,797.382,265.395Z" transform="translate(-680.33 -204.822)" fill="#e0855c"/>
        <path id="Path_1966" data-name="Path 1966" d="M739.49,423.773c40.984-5.3,83.5-2.384,124.739-2.258q30.688.09,61.379.307c19.661.15,40.527-1.265,59.938,2.117,1.941.337,1.943,3.583,0,3.922-19.411,3.382-40.277,1.967-59.938,2.115q-30.688.233-61.379.309c-41.235.124-83.755,3.042-124.739-2.258A2.128,2.128,0,0,1,739.49,423.773Z" transform="translate(-737.443 -50.375)" fill="#ededed" style="mix-blend-mode: multiply;isolation: isolate"/>
        <path id="Path_1967" data-name="Path 1967" d="M756.922,436.885c2.234,1.546,22.8.084,23-1.361.2-1.528.487-2.907.657-4.134.016-.118.032-.217.05-.319.806-5.981,2.031-16.762,2.031-16.762s-6.488-6.951-10.621-1.221c0,0,1.516,15.8-3.408,18.185-.2.1-.419.2-.688.319-2.637,1.159-8.014,2.941-10.687,3.024C757.257,434.617,754.687,435.339,756.922,436.885Z" transform="translate(-718.97 -60.104)" fill="#f5a784"/>
        <path id="Path_1968" data-name="Path 1968" d="M756.922,426.786c2.234,1.546,22.8.084,23-1.361.2-1.528.487-2.907.657-4.134.016-.118.032-.218.05-.319a40.945,40.945,0,0,1-12.686.521c-2.637,1.159-8.014,2.941-10.687,3.024C757.257,424.518,754.687,425.24,756.922,426.786Z" transform="translate(-718.97 -50.006)" fill="#05004a"/>
        <path id="Path_1969" data-name="Path 1969" d="M783.9,437.54c2.3,1.448,22.785-.886,22.925-2.338.136-1.536.363-2.925.479-4.158.012-.118.024-.219.036-.321.552-6.009,1.317-16.834,1.317-16.834s-6.777-6.667-10.663-.768c0,0,2.187,15.721-2.629,18.314-.2.11-.413.219-.676.349-2.586,1.269-7.882,3.278-10.548,3.475C784.143,435.26,781.6,436.09,783.9,437.54Z" transform="translate(-692.172 -60.243)" fill="#f5a784"/>
        <path id="Path_1970" data-name="Path 1970" d="M817.818,359.295a115.012,115.012,0,0,1-2-28.553L786.554,331.9c-.5,5.125-.738,12.9-.738,22.364-.034,50.777,7.018,141.172,7.018,141.172,6.255,3.7,15.7,1.2,15.7,1.2s8.243-128.326,9.554-135.484c.05-.267.114-.479.17-.714A3.36,3.36,0,0,1,817.818,359.295Z" transform="translate(-689.31 -139.787)" fill="#011948"/>
        <path id="Path_1971" data-name="Path 1971" d="M767.258,420.554c1.454-15.739,11.365-91.172,11.365-91.172l28.866-.954a174.408,174.408,0,0,1,.184,27.132,3.551,3.551,0,0,0,.217,1.486,4.624,4.624,0,0,0-.311.846c-1.187,4.67-17.53,59.1-18.242,64.216-4.984,35.817-10.957,76.523-10.957,76.523a23.142,23.142,0,0,1-15.416.215S765.789,436.311,767.258,420.554Z" transform="translate(-712.049 -142.09)" fill="#011948"/>
        <path id="Path_1972" data-name="Path 1972" d="M783.9,427.546c2.3,1.448,22.785-.886,22.925-2.338.136-1.536.363-2.925.479-4.158.012-.118.024-.219.036-.321a40.954,40.954,0,0,1-12.652,1.061c-2.586,1.269-7.882,3.278-10.548,3.475C784.143,425.266,781.6,426.1,783.9,427.546Z" transform="translate(-692.172 -50.248)" fill="#05004a"/>
        <path id="Path_1973" data-name="Path 1973" d="M819.728,338.522c-6.548-4.555-49.472-19.16-65.321-37.552-7.407-8.6-11.366-53.614-11.366-53.614s6.2-4.146,10.973.421c0,0,9.315,34.051,12.507,40.054s46.691,19.96,62.219,21.534C830.9,309.584,821.844,340,819.728,338.522Z" transform="translate(-731.872 -224.473)" fill="#f5a784"/>
        <path id="Path_1974" data-name="Path 1974" d="M744,254.013c1.2,3.81,1.816,6.943,1.816,6.943,3.411,3.212,9.556-.756,9.556-.756s3.851-5.646,2.314-11.95c-.638-2.6-1.5-8.5-1.5-8.5l-1.2-.022c-1.476.88-1.3,6.386-1.3,6.386-1.835-2.4-4.389-10.935-4.389-10.935a9.416,9.416,0,0,0-2.175-.14c-.1,0-.179.02-.259.02h-.239c-.04,0-.1.022-.14.022a8.279,8.279,0,0,0-1.855.457c-.178.066-.339.122-.5.2-.08.042-.16.082-.219.12a.307.307,0,0,0-.14.082,6.815,6.815,0,0,0-1.835,1.357,2.371,2.371,0,0,0-.219.237,1.737,1.737,0,0,0-.259.281c-.08.1-.162.2-.239.3a4.258,4.258,0,0,0-.539.878C740.085,241.863,742.779,250.2,744,254.013Z" transform="translate(-734.303 -235.026)" fill="#f5a784"/>
        <path id="Path_1975" data-name="Path 1975" d="M743.551,235.075a32.968,32.968,0,0,0,1.716,5.486c.618,1.754,1.137,3.789,2.294,5.285a.153.153,0,0,0,.259-.118c-.227-1.951-1.277-3.892-1.955-5.746-.6-1.638-1.037-3.332-1.676-4.95-.1,0-.18.02-.259.02h-.24C743.651,235.053,743.591,235.075,743.551,235.075Z" transform="translate(-731.365 -235.019)" fill="#e0855c"/>
        <path id="Path_1976" data-name="Path 1976" d="M742.191,235.684a31.048,31.048,0,0,0,1.477,4.668c.738,2.035,1.376,4.449,2.593,6.242a.226.226,0,0,0,.419-.1c.02-2.1-1.077-4.11-1.855-6.005-.718-1.7-1.217-3.471-1.775-5.209a4.331,4.331,0,0,0-.5.2c-.08.042-.16.082-.219.12A.307.307,0,0,0,742.191,235.684Z" transform="translate(-732.718 -234.77)" fill="#e0855c"/>
        <path id="Path_1977" data-name="Path 1977" d="M740.911,236.982a28.61,28.61,0,0,0,3.91,9.357c.12.2.365.078.339-.142-.393-3.362-2.214-6.741-3.531-10.033a2.373,2.373,0,0,0-.219.237,1.738,1.738,0,0,0-.259.281Z" transform="translate(-733.992 -233.894)" fill="#e0855c"/>
        <path id="Path_1978" data-name="Path 1978" d="M759.664,305.31c-1.981-2.109-7.894-6.927-13.012-22.047-3.184-9.4-3.6-19.507-4.333-29.411a3.607,3.607,0,0,1,.158-1.74,3.326,3.326,0,0,1,1.542-1.395,21.441,21.441,0,0,1,5.61-2.139c2.55-.579,5.506-.585,7.449,1.165,1.442,1.3,2.013,3.282,2.492,5.161,1.319,5.2,2.416,10.462,4.235,15.5a34.705,34.705,0,0,0,8.309,13.6,42.152,42.152,0,0,0,11.058,7.172c5.466,2.626,10.649,5.883,16.481,7.659,6.588,2.009,13.2,3.942,19.819,5.849,2.466.71,7.749-1.7,8.872.624,8.258,17.089,15.108,1.029,16.216-.391,1.556-2,5.7.982,7.98.848,1.875-.11,3.391,1.365,5.287,1.522a61.108,61.108,0,0,1,8.439,1.215,5.365,5.365,0,0,1,.518.142,5.865,5.865,0,0,1,1.037.419c2.913,1.295,9.337,5.444,12.768,17.476.678,2.392,1.357,4.808,1.995,7.2,3.95,14.624,7.062,28.168,7.062,28.168a22.952,22.952,0,0,1-4.569,2.7,34.347,34.347,0,0,1-16.219,2.973L865.448,352.7s-.02-.2-.06-.559c-.04,4.03,0,6.484,0,6.484s2.534,47.12,5.486,76.17c.16,1.7-11.531,4.688-25.915,7.182-23.142,4.028-53.267,6.763-52.23.676,10.594-61.724,12.349-101.824,12.349-101.824s-.06-1.137-.12-2.995C799.253,330.4,772.145,318.586,759.664,305.31Z" transform="translate(-732.623 -221.886)" fill="#c6c6c6"/>
        <path id="Path_1979" data-name="Path 1979" d="M806.239,277.054c.151-.3.3-.61.429-.922,2.248-5.309,2.438-12.341,8.315-15.33a16.233,16.233,0,0,1,5.293-1.313c3.088-.4,5.69-.892,8.7-1.552a14.165,14.165,0,0,1,13.4,4.1c1.381,1.55,2.428,3.435,4.112,4.65,1.871,1.349,4.345,1.73,6.075,3.254,3.07,2.705,2.534,7.653,4.507,11.238,1.235,2.248,3.511,4.09,3.665,6.649.215,3.589-3.988,5.945-7.581,5.847-2.538-.07-5.293-.836-7.469.469-1.63.978-2.547,2.941-4.291,3.7a6.964,6.964,0,0,1-4.648-.174,52.771,52.771,0,0,1-9.822-3.952c-2.661-1.395-5.51-3.078-8.463-2.524-1.8.335-3.888,1.406-5.231.17-.393-.363-.625-.872-1-1.253-1.536-1.552-4.234-.214-6.322-.848-2.414-.734-3.21-3.906-2.542-6.34C803.947,280.819,805.26,279.01,806.239,277.054Z" transform="translate(-672.069 -212.554)" fill="#011948"/>
        <path id="Path_1980" data-name="Path 1980" d="M815.6,386.482a11.729,11.729,0,0,0-3.362.042,8.916,8.916,0,0,0-4.331,1.341c-3.481,2.57-1.5,9.45-1.05,12.94,1.385,10.773,4.66,42.825,4.8,42.867.136,1.833.305,5.837-.563,7.888a10.063,10.063,0,0,1-2.693,3.094,22.558,22.558,0,0,1-8.744,4.66s-2.745,1.4.122,2.627c2.883,1.225,20.716-4.1,20.617-5.764-.122-1.778-.186-3.388-.209-4.812a57.15,57.15,0,0,1,.3-8.128c.892-5.971,1.518-11.99,2.069-18,.98-10.709,3.747-23.364-1.237-33.285-1.107-2.2-2.568-4.495-4.908-5.271A5.823,5.823,0,0,0,815.6,386.482Z" transform="translate(-676.721 -84.43)" fill="#f5a784"/>
        <path id="Path_1981" data-name="Path 1981" d="M820.391,423.764c.1,1.66-17.734,6.988-20.617,5.764-2.867-1.227-.122-2.627-.122-2.627a22.559,22.559,0,0,0,8.744-4.66,26.33,26.33,0,0,0,11.785-3.288C820.206,420.376,820.269,421.986,820.391,423.764Z" transform="translate(-676.721 -52.017)" fill="#05004a"/>
        <path id="Path_1982" data-name="Path 1982" d="M856.221,457.9c-3.1.357-1.408-2.22-1.408-2.22a22.173,22.173,0,0,0,4.886-7.364c.136-.339.271-.678.389-1.017a10.035,10.035,0,0,0,.8-4.02c-.255-2.2-2.392-5.6-3.409-7.124-.17,0-18.9-26.173-25.426-34.841-2.121-2.817-7.26-7.8-5.514-11.755a9.066,9.066,0,0,1,3.088-3.326,12.258,12.258,0,0,1,2.9-1.7,5.879,5.879,0,0,1,.814-.237c2.4-.535,4.818.78,6.869,2.155,9.245,6.141,13.129,18.506,17.592,28.293,2.492,5.478,4.936,11.024,7.124,16.64a54.906,54.906,0,0,0,3.765,7.208,2.916,2.916,0,0,0,.188.305c.678,1.155,1.474,2.41,2.392,3.785C872.165,444.075,859.326,457.543,856.221,457.9Z" transform="translate(-649.148 -86.619)" fill="#f5a784"/>
        <path id="Path_1983" data-name="Path 1983" d="M842.171,430.6c-3.1.357-1.408-2.22-1.408-2.22a22.173,22.173,0,0,0,4.886-7.364,45.905,45.905,0,0,0,9.177-9.415c.678,1.155,1.474,2.41,2.392,3.785C858.115,416.781,845.275,430.249,842.171,430.6Z" transform="translate(-635.097 -59.326)" fill="#05004a"/>
        <path id="Path_1984" data-name="Path 1984" d="M801.976,315.537c.439.838,1.017,1.594,1.436,2.452a14.518,14.518,0,0,1,1.177,4.89c.918,7.38,2.234,14.643,3.152,21.985.12.978.219,1.935.339,2.911a40.727,40.727,0,0,0,6.3,3.394c8.04.936,19.012.8,32.738-2.576-.14.042-2.933-21.664,3.87-51.372.618-2.711,1.357-5.007-1.656-5.845a46.5,46.5,0,0,0-7.96-1.035c-.379-.04-.738-.054-1.117-.082-1.157-.08-2.255-.18-3.192-.257-1.815-.16-3.052-.281-3.052-.441v-15.02s-12.529-2.635-13.107,3.41c-.02.082-.479,4.69-.479,4.69l-.678,7.06a9.014,9.014,0,0,1-2.973.421c-1,.06-1.9.078-2.075.1-1.855.16-4.948-.339-6.125,1.536-.578.938-.439,2.314-.559,3.334-.359,3.491-2.174,5.943-4.149,8.736C801.437,307.216,800.081,311.824,801.976,315.537Z" transform="translate(-674.119 -196.279)" fill="#f5a784"/>
        <path id="Path_1985" data-name="Path 1985" d="M824.508,275.3v4.491a20.006,20.006,0,0,1-13.863,4.862l.73-7.455C813.979,273.871,821.849,274.846,824.508,275.3Z" transform="translate(-664.605 -195.443)" fill="#e0855c"/>
        <path id="Path_1986" data-name="Path 1986" d="M822.691,269.685a4.413,4.413,0,0,0-1.9,1.241A5.326,5.326,0,0,0,819.4,272.7c-.082.211.215.341.359.207.405-.375.728-.826,1.107-1.233a2.488,2.488,0,0,0,.916.722c.287.106.5-.251.375-.487a2.267,2.267,0,0,0-.756-.724,11.538,11.538,0,0,0,1.506-1.129A.223.223,0,0,0,822.691,269.685Z" transform="translate(-655.911 -200.544)" fill="#e0855c"/>
        <path id="Path_1987" data-name="Path 1987" d="M809.333,267.241c-1.355,1.905-1.756,5.468-1.891,9.652-.409,12.662,5.706,17.313,9.851,17.315,4.259,0,13.235-1.792,14.627-13.534.7-5.869.654-10.8-.7-13.831C828.393,260.5,815.28,258.878,809.333,267.241Z" transform="translate(-667.812 -208.667)" fill="#f5a784"/>
        <path id="Path_1988" data-name="Path 1988" d="M814.585,274.755c-.555-.082-1.827.249-2.089-.349-.217-.5.677-3.443.8-3.948.137-.553.277-1.049.415-1.536a1.554,1.554,0,0,0-.15-.1,1.427,1.427,0,0,0-.353-.134c-.517,2.021-.886,4.134-1.369,6.051a.273.273,0,0,0,.261.343c.814-.012,1.6.16,2.414.164C814.788,275.246,814.868,274.8,814.585,274.755Z" transform="translate(-663.423 -201.534)" fill="#e0855c"/>
        <path id="Path_1989" data-name="Path 1989" d="M813.465,264.9a3.907,3.907,0,0,0,1.431,2.38,7.243,7.243,0,0,0,2.719.854,3.182,3.182,0,0,1,2.348,1.51,8.627,8.627,0,0,1,.373,1.977,3.6,3.6,0,0,0,1.67,2.376c.766.451,1.728.616,2.282,1.327a9.657,9.657,0,0,1,.784,1.76c.287.576.938,1.083,1.5.8a17.611,17.611,0,0,0,2.448-6.219,10.692,10.692,0,0,0-3.708-9.383A11.4,11.4,0,0,0,815.693,260C813.163,260.54,812.942,262.537,813.465,264.9Z" transform="translate(-662.028 -210.432)" fill="#011948"/>
        <path id="Path_1990" data-name="Path 1990" d="M819.748,271.365s1.979-5.245,5.1-2.464-1.173,10.284-5.951,9.7C818.9,278.6,818.226,273.159,819.748,271.365Z" transform="translate(-656.539 -202.128)" fill="#f5a784"/>
        <path id="Path_1991" data-name="Path 1991" d="M812.392,266.6c-.784-.4-2.25-.507-2.821.309a.244.244,0,0,0,.21.365c.389-.02.732-.209,1.123-.241a3.166,3.166,0,0,1,1.225.187A.341.341,0,0,0,812.392,266.6Z" transform="translate(-665.709 -203.914)" fill="#011948"/>
        <path id="Path_1992" data-name="Path 1992" d="M818.1,267.4c-.447-1.111-2.39-1.217-3.218-.529a.313.313,0,0,0,.137.521,7.218,7.218,0,0,0,1.5.014,4.914,4.914,0,0,1,1.2.377A.312.312,0,0,0,818.1,267.4Z" transform="translate(-660.483 -203.765)" fill="#011948"/>
        <path id="Path_1993" data-name="Path 1993" d="M815.47,268.612a.655.655,0,0,1,1.119,0,1.369,1.369,0,0,1,.166.2,1.983,1.983,0,0,1,.14.7,2.679,2.679,0,0,1,.046.343,2.278,2.278,0,0,1-.4,1.345.673.673,0,0,1-1.151,0A2.653,2.653,0,0,1,815.47,268.612Z" transform="translate(-660.184 -201.921)" fill="#011948"/>
        <path id="Path_1994" data-name="Path 1994" d="M810.211,268.382a.653.653,0,0,1,1.119,0,1.13,1.13,0,0,1,.164.2,1.941,1.941,0,0,1,.14.7,3.244,3.244,0,0,1,.048.343,2.284,2.284,0,0,1-.405,1.345.672.672,0,0,1-1.151,0A2.649,2.649,0,0,1,810.211,268.382Z" transform="translate(-665.417 -202.151)" fill="#011948"/>
        <path id="Path_1995" data-name="Path 1995" d="M811.128,273.475a11.061,11.061,0,0,0,3.158.744,8.051,8.051,0,0,0,2.743-.838.235.235,0,0,1,.263.343c-1.345,1.955-4.884,1.648-6.37.1A.212.212,0,0,1,811.128,273.475Z" transform="translate(-664.388 -196.873)" fill="#e0855c"/>
        <path id="Path_1996" data-name="Path 1996" d="M821.979,269.819c.136-.06.293.1.17.222-.407.383-.848.722-1.233,1.129a1.129,1.129,0,0,1,.676.607.324.324,0,0,1,0,.329l-.092.136a.151.151,0,0,1-.2.052,2.493,2.493,0,0,1-.776-.644,7.446,7.446,0,0,1-.834,1.017.149.149,0,0,1-.247-.144A4.806,4.806,0,0,1,821.979,269.819Z" transform="translate(-655.857 -200.419)" fill="#e0855c"/>
        <path id="Path_1997" data-name="Path 1997" d="M837.371,364.136l.9.2c1.077.257,1.955-3.932,2.075-4.628a51.77,51.77,0,0,1,2.254,8.239,2.316,2.316,0,0,0,.938,1.774,1.182,1.182,0,0,0,.579.16,4.071,4.071,0,0,0,.838-.038c.4-.06,1.037-.2,1.756-.379.219-.062.459-.14.7-.2.5-.16.994-.347,1.417-.519a2.048,2.048,0,0,0,.419-.2,2.821,2.821,0,0,0,.618-.417c.579-.581.878-10.115-1.9-19.354-1.277-4.207-1.736-10.033-2.055-14.424-1.317-1.953-7.062-3.29-8.12,1.538-.559,2.633,1.536,13.4,1.536,13.4a17.338,17.338,0,0,0-1.636,8.12C837.73,359.487,837.371,364.136,837.371,364.136Z" transform="translate(-638.012 -137.965)" fill="#f5a784"/>
        <path id="Path_1998" data-name="Path 1998" d="M842.417,346.18a31.76,31.76,0,0,1,1.4,9.375,1.856,1.856,0,0,0,.419-.2,28.227,28.227,0,0,0-1.277-9.335A.281.281,0,0,0,842.417,346.18Z" transform="translate(-633.003 -124.777)" fill="#e0855c"/>
        <path id="Path_1999" data-name="Path 1999" d="M841.375,346.282c.6,3.292,1,6.484,1.357,9.776.219-.062.459-.14.7-.2a28.321,28.321,0,0,0-1.7-9.676A.187.187,0,1,0,841.375,346.282Z" transform="translate(-634.036 -124.56)" fill="#e0855c"/>
        <path id="Path_2000" data-name="Path 2000" d="M840.034,346.595c.339,1.855.778,3.729,1.077,5.606.2,1.357.259,2.713.359,4.088a4.069,4.069,0,0,0,.838-.038c0-3.294-1.011-6.811-1.736-9.815C840.486,346.076,839.974,346.235,840.034,346.595Z" transform="translate(-635.368 -124.374)" fill="#e0855c"/>
        <path id="Path_2001" data-name="Path 2001" d="M801.976,307.54c.439.838,1.017,1.594,1.436,2.452a14.517,14.517,0,0,1,1.177,4.89c.918,7.38,2.234,14.643,3.152,21.985.12.978.219,1.935.339,2.911a40.729,40.729,0,0,0,6.3,3.394,89.776,89.776,0,0,0,29.247-1.778c.439-.078.878-.18,1.337-.3.7-.138,1.417-.319,2.155-.5,0,0-.08-.417-.18-1.2a144.269,144.269,0,0,1,.658-30.584,182.692,182.692,0,0,1,3.392-19.591c.618-2.711,1.357-5.007-1.656-5.845a46.508,46.508,0,0,0-7.96-1.035c-.379-.04-.738-.054-1.117-.082-1.157-.08-2.255-.18-3.192-.257-1.436,2.711-5.945,9.636-14.544,9.636-6.963,0-6.743-5.608-5.746-9.516-1,.06-1.9.078-2.075.1-1.855.16-4.948-.339-6.125,1.536-.578.938-.439,2.314-.559,3.334-.359,3.491-2.174,5.943-4.149,8.736C801.437,299.219,800.081,303.828,801.976,307.54Z" transform="translate(-674.119 -188.282)" fill="#f7455d"/>
        <path id="Path_2002" data-name="Path 2002" d="M822.561,312.123l-.14.12Z" transform="translate(-652.888 -158.313)" fill="#d6448e"/>
        <path id="Path_2003" data-name="Path 2003" d="M823.328,331.225c.06.241.1.481.16.7l3.152-2.693a144.43,144.43,0,0,1,.658-30.584c0-.02-2.075-6.422-2.075-6.422A70.526,70.526,0,0,0,823.328,331.225Z" transform="translate(-653.815 -178.113)" fill="#de3f53"/>
        <path id="Path_2004" data-name="Path 2004" d="M825.327,282.919s10.071-6.033,22.486,33.466c8.433,26.829,14.32,53.8,15.689,75.779,0,0-6.049,3.519-11.537,1.023,0,0-2.051-34.129-27.493-87.312C818.872,294.169,825.327,282.919,825.327,282.919Z" transform="translate(-653.121 -187.701)" fill="#f7455d"/>
        <path id="Path_2005" data-name="Path 2005" d="M796.6,482.372c46.185,9.835,87.781-9.776,87.781-9.776s-15.88-27.831-20.629-33.277c-1.576-1.8-2.075-6.823-2.055-14.047.04-9.2.938-21.965,1.556-36.09.339-8.257.579-16.978.5-25.736-.339-35.469-11.91-53.048-11.91-53.048-18.694,5.229-39.042-.9-39.042-.9C791.195,388.826,796.6,482.372,796.6,482.372Z" transform="translate(-679.178 -160.919)" fill="#1ca394"/>
        <g id="Group_36" data-name="Group 36" transform="translate(168.416 153.927)">
          <path id="Path_2006" data-name="Path 2006" d="M835.854,317.922a4.573,4.573,0,0,1,.756,1.6c.459,3.892-3.439,8.551-7.354,8.074a7.7,7.7,0,0,1-1.357-.7,3.619,3.619,0,0,1-.365-.243,12.776,12.776,0,0,1-2.476-2.2c-.064-.072-.136-.156-.208-.237a15.484,15.484,0,0,1-1.769-2.639l-.128-.263a17.412,17.412,0,0,1-1.093-2.677A44.93,44.93,0,0,0,825.554,316a8.944,8.944,0,0,0,2.492-2.244c.6-1.073.928-2.1,2.721-1.269a10.073,10.073,0,0,1,3.116,2.685A18.755,18.755,0,0,1,835.854,317.922Z" transform="translate(-821.861 -312.182)" fill="#f5a784"/>
          <path id="Path_2007" data-name="Path 2007" d="M822.537,319.657l-.128-.263a44.585,44.585,0,0,0,7.765-5.285c.05-.036.154.074.12.134C828.446,317.009,825.629,318.583,822.537,319.657Z" transform="translate(-821.316 -310.272)" fill="#e0855c"/>
          <path id="Path_2008" data-name="Path 2008" d="M823.568,321.081c-.064-.072-.136-.156-.207-.237a45.686,45.686,0,0,0,7.773-5.275c.05-.038.154.074.114.122C829.419,318.444,826.63,320.012,823.568,321.081Z" transform="translate(-820.37 -308.82)" fill="#e0855c"/>
          <path id="Path_2009" data-name="Path 2009" d="M825.07,322.194a3.614,3.614,0,0,1-.365-.243,47.748,47.748,0,0,0,7.318-5.039c.042-.048.146.064.114.122A13.928,13.928,0,0,1,825.07,322.194Z" transform="translate(-819.031 -307.488)" fill="#e0855c"/>
        </g>
        <path id="Path_2010" data-name="Path 2010" d="M841.112,399.9c.04-9.2.938-21.965,1.556-36.09l-2.554-3.95-17.5-13.564L816.852,335S813.142,384.72,841.112,399.9Z" transform="translate(-658.591 -135.546)" fill="#198f82"/>
        <path id="Path_2011" data-name="Path 2011" d="M806.587,282.126c1.315-.305,1.748,6.532,1.812,7.258.211,2.414.465,4.826.734,7.236.644,5.768,1.568,11.5,2.434,17.237,1.582,10.5,3.607,20.932,6.143,31.244,5.045,20.5,12.848,39.637,20.271,59.318.455,1.2-1.464,1.987-2.065.872-10.143-18.841-16.545-40.437-21.494-61.171a319.578,319.578,0,0,1-5.9-31.491c-.7-5.171-1.3-10.358-1.734-15.557-.227-2.705-.395-5.414-.594-8.122-.082-1.093-1.025-6.083.281-6.777A.521.521,0,0,1,806.587,282.126Z" transform="translate(-669.439 -188.171)" fill="#011948"/>
        <path id="Path_2012" data-name="Path 2012" d="M831.094,340.623a27.883,27.883,0,0,1-10.556-2.173,1.745,1.745,0,0,0-1.385-.136c-.607.305-.623,1.151-.547,1.825a145.392,145.392,0,0,0,2.813,16.429,30.918,30.918,0,0,0,2.492,7.489,14.507,14.507,0,0,0,9.486,7.589,10.87,10.87,0,0,0,11.088-4.122c2.414-3.551,2.129-8.229,1.552-12.485a139.729,139.729,0,0,0-3.5-17.424c-.746-2.787-3.05.65-4.489,1.375A16.267,16.267,0,0,1,831.094,340.623Z" transform="translate(-656.715 -134.015)" fill="#011948"/>
        <path id="Path_2013" data-name="Path 2013" d="M787.821,296.034c2.021-4.656,2.472-8.78,3.258-13.792.014-.094-.086-.211-.184-.14a4.681,4.681,0,0,0-2.021,3.517c-.579,2.987-.321,5.41-1.632,8.343-.549,1.227-1.183,2.388-1.616,3.663-2.061,6.085-.82,13.5,1.632,19.294a.4.4,0,0,0,.74-.2C787.081,309.507,784.737,303.139,787.821,296.034Z" transform="translate(-690.534 -188.206)" fill="#b2b2b2"/>
        <path id="Path_2014" data-name="Path 2014" d="M790.9,315.847c.166-4.411,1.726-8.746,1.4-13.179-.329-4.471-2.428-8.028-1.143-12.638.794-2.845,1.835-4.974,1.125-7.91a.079.079,0,0,0-.152,0c-.686,3.352-2.434,6.466-2.949,9.831-.7,4.577,1.774,8.8,1.5,13.4-.507,8.449-2.715,15.7,1.018,23.86.259.565,1.1.152.968-.409C791.678,324.525,790.732,320.268,790.9,315.847Z" transform="translate(-686.087 -188.224)" fill="#b2b2b2"/>
      </g>
      <g id="Group_47" data-name="Group 47" transform="translate(229.241 495.553)">
        <g id="Group_43" data-name="Group 43" transform="translate(283.342 0)">
          <path id="Path_2081" data-name="Path 2081" d="M723.246,206.16c39.682-5.13,80.85-2.306,120.775-2.187q29.717.09,59.43.3c19.039.145,39.24-1.227,58.037,2.048,1.879.328,1.879,3.471,0,3.8-18.8,3.272-39,1.9-58.037,2.048q-29.714.226-59.43.3c-39.926.12-81.093,2.944-120.775-2.187A2.062,2.062,0,0,1,723.246,206.16Z" transform="translate(-721.262 136.275)" fill="#ededed" style="mix-blend-mode: multiply;isolation: isolate"/>
          <g id="Group_42" data-name="Group 42" transform="translate(11.106)">
            <path id="Path_2082" data-name="Path 2082" d="M796.5,158.587l-67.662-2.88a46.851,46.851,0,0,1,1.1-7.012c1.642-7.24,4.6-13.819,6.606-21.208,2.625-9.689-3.243-28.865-6.056-38.056s-.807-22.971-.807-22.971c2.235-2.65,16.3-6.11,21.3-8.007a5.117,5.117,0,0,0,1.709-.875c.807-1,.862-5.571.794-8.492-.014-1.439-.07-2.476-.07-2.476l.89-.74L769.1,48.146a12.916,12.916,0,0,0,.095,5.167,4.048,4.048,0,0,0,2.086,2.745,11.267,11.267,0,0,0,2.637.78.887.887,0,0,0,.2.054,47.164,47.164,0,0,0,6.917.645c1.561.054,2.65.041,2.65.041a132.825,132.825,0,0,1,6.676,16.836c.807,2.476,1.833,6.245,2.465,9.125,0,0,3.616,48.294,3.67,65.935C796.511,155.06,796.5,158.587,796.5,158.587Z" transform="translate(-725.312 -10.202)" fill="#f5a784"/>
            <path id="Path_2083" data-name="Path 2083" d="M759.054,226.225c-2.164,1.5-22.064.081-22.259-1.317-.2-1.48-.471-2.812-.636-4a2.531,2.531,0,0,1-.048-.309c0-9.739-2.505-32.661-2.505-32.661s10.418-6.817,14.418-1.273c0,0-5.067,31.818-.3,34.129.2.1.406.2.666.309,2.554,1.12,7.756,2.845,10.34,2.926C758.727,224.031,761.215,224.73,759.054,226.225Z" transform="translate(-720.867 118.949)" fill="#f5a784"/>
            <path id="Path_2084" data-name="Path 2084" d="M757.845,208.811c-2.163,1.5-22.064.081-22.258-1.317-.2-1.48-.471-2.812-.636-4-.015-.114-.031-.212-.048-.309a39.717,39.717,0,0,0,12.276.5c2.554,1.12,7.756,2.845,10.34,2.926C757.519,206.617,760.007,207.316,757.845,208.811Z" transform="translate(-719.659 136.363)" fill="#011948"/>
            <path id="Path_2085" data-name="Path 2085" d="M770.345,225.444c-2.629.041-18.376-12.21-17.762-13.481.663-1.337,1.174-2.6,1.7-3.676a2.809,2.809,0,0,1,.131-.284c5.418-8.092,11.847-35.346,11.847-35.346s13.385.981,13.622,7.814c0,0-18.606,29.585-15.932,34.156.108.189.23.388.383.626,1.5,2.353,4.86,6.682,6.964,8.186C771.3,223.438,772.974,225.4,770.345,225.444Z" transform="translate(-703.203 107.92)" fill="#f5a784"/>
            <path id="Path_2086" data-name="Path 2086" d="M770.345,208.4c-2.629.041-18.376-12.21-17.762-13.481.663-1.337,1.174-2.6,1.7-3.676.05-.1.091-.193.131-.284a39.58,39.58,0,0,0,9.919,7.25c1.5,2.353,4.86,6.682,6.964,8.186C771.3,206.391,772.974,208.357,770.345,208.4Z" transform="translate(-703.203 124.968)" fill="#011948"/>
            <path id="Path_2087" data-name="Path 2087" d="M732.222,96.471s-7.881,12.094-2.473,74.609c2.121,24.528,4.522,41.9,3.742,60.252-.987,23.18,5.474,59.346,5.474,59.346s5.2,4.543,13.912.015c1.424-.742,9.218-61.481,10.325-74.5s6.058-60.3,5.7-73.322c0,0,17.01,32.632,34.227,58.207a5.9,5.9,0,0,1,.3,6.046s-8.986,7.555-23.41,62.661c-1.126,4.3,9.228,9.2,10.781,6.964,0,0,42.945-61.564,41.316-75.279S797.4,99.668,797.4,99.668,758.655,102.55,732.222,96.471Z" transform="translate(-726.226 36.94)" fill="#011948"/>
            <path id="Path_2088" data-name="Path 2088" d="M798.315,144.2a84.318,84.318,0,0,1-69.48-1.317c1.642-7.24,5.706-13.3,7.711-20.684,2.625-9.689-3.243-28.865-6.056-38.056s-.807-22.971-.807-22.971c2.235-2.65,16.3-6.11,21.3-8.007,3.433,5.3,12.193,17.346,19.2,14.748,5.679-2.127,5.216-9.413,4.186-14.412-.056-.268-.095-.458-.135-.645-.106-.458-.214-.9-.323-1.306a.887.887,0,0,0,.2.054c.74-.108,6.937,1.149,9.83.261,0,0,6.33,13.421,6.087,13.572l3.487,11.708C796.026,88.461,798.261,126.557,798.315,144.2Z" transform="translate(-725.312 -4.912)" fill="#4c86c7"/>
            <path id="Path_2089" data-name="Path 2089" d="M757.336,53.314c-10.748,2.9-14-.452-15.7-4.226-.014-1.439-.07-2.476-.07-2.476l.891-.74,14.789,2.275A12.916,12.916,0,0,0,757.336,53.314Z" transform="translate(-713.455 -10.202)" fill="#e0855c"/>
            <path id="Path_2090" data-name="Path 2090" d="M768.135,43.638c-.249-1.9-.558-3.887-.979-5.751-.313-1.383-.873-2.482-.63-3.975a7.283,7.283,0,0,0,.135-3.653,3.779,3.779,0,0,0-1.126-1.53A5.6,5.6,0,0,0,760.9,27.5c-1.418.272-2.683,1.088-4.1,1.379-1.854.381-3.883-.155-5.609.62-1.683.755-2.674,2.59-4.335,3.39-1.3.628-2.853.45-4.113,1.138a17.172,17.172,0,0,0-2.6,1.959,10.636,10.636,0,0,0-3.259,5.254,17.393,17.393,0,0,0,.153,9.515c.682,2.214,1.613,5.3,3.6,6.7a6.41,6.41,0,0,0,2.55.991c3.562.655,7.226-.61,10.827-.236a6.25,6.25,0,0,0,3.241-.089,6.658,6.658,0,0,0,2.078-2.051c1.034-1.24,2.411-1.192,3.7-1.986a13.1,13.1,0,0,0,3.245-2.671A9.788,9.788,0,0,0,768.135,43.638Z" transform="translate(-718.355 -27.405)" fill="#011948"/>
            <path id="Path_2091" data-name="Path 2091" d="M751.311,38.925s1.876-3.3,4.789-.863-.166,8.673-3.234,9.479C752.866,47.54,751.175,40.227,751.311,38.925Z" transform="translate(-704.379 -18.315)" fill="#e0855c"/>
            <path id="Path_2092" data-name="Path 2092" d="M760.512,34.5c1.889,1.366,3.3,6.89,4.176,10.97,2.644,12.353-.377,16.9-6.6,18.733s-13.3.587-16.75-10.686c-1.723-5.639-3.411-10.829-1.766-13.7C742.03,35.548,754.715,30.3,760.512,34.5Z" transform="translate(-715.931 -22.232)" fill="#f5a784"/>
            <path id="Path_2093" data-name="Path 2093" d="M743.407,43.941s-2.87-4.794-5.443-1.514,2.977,9.884,7.559,8.463C745.523,50.889,745.217,45.432,743.407,43.941Z" transform="translate(-717.415 -14.48)" fill="#f5a784"/>
            <path id="Path_2094" data-name="Path 2094" d="M738.724,42.951a4.383,4.383,0,0,1,2.08.881,5.3,5.3,0,0,1,1.682,1.493c.118.193-.149.373-.313.267-.464-.3-.863-.682-1.306-1.014a2.51,2.51,0,0,1-.771.873c-.263.155-.537-.158-.454-.413a2.243,2.243,0,0,1,.614-.844,11.26,11.26,0,0,1-1.679-.842A.222.222,0,0,1,738.724,42.951Z" transform="translate(-716.321 -12.922)" fill="#e0855c"/>
            <path id="Path_2095" data-name="Path 2095" d="M749.62,40.979s1.145.207.639-1.665C749.805,37.63,749.081,38,749.081,38s-.748.129-.363,1.605S749.62,40.979,749.62,40.979Z" transform="translate(-706.89 -17.568)" fill="#011948"/>
            <path id="Path_2096" data-name="Path 2096" d="M744.254,42.265s1.146.2.64-1.667c-.456-1.684-1.178-1.315-1.178-1.315s-.748.129-.365,1.605S744.254,42.265,744.254,42.265Z" transform="translate(-711.89 -16.372)" fill="#011948"/>
            <path id="Path_2097" data-name="Path 2097" d="M748.159,47.44c.531-.178,1.837-.079,1.988-.713.123-.527-1.273-3.257-1.486-3.73a49.476,49.476,0,0,1-2.179-4.91c-.033-.091.12-.174.18-.085,1.773,2.615,2.878,6.05,4.186,8.934a.274.274,0,0,1-.2.384c-.8.131-1.545.44-2.339.589C748.045,47.958,747.888,47.533,748.159,47.44Z" transform="translate(-708.875 -17.568)" fill="#e0855c"/>
            <path id="Path_2098" data-name="Path 2098" d="M748.1,37.083c.7-.531,2.119-.9,2.822-.2a.242.242,0,0,1-.139.394c-.386.048-.757-.075-1.147-.039a3.163,3.163,0,0,0-1.169.4C748.127,37.823,747.789,37.317,748.1,37.083Z" transform="translate(-707.479 -18.932)" fill="#011948"/>
            <path id="Path_2099" data-name="Path 2099" d="M742.482,39.088c.242-1.171,2.129-1.619,3.066-1.089a.314.314,0,0,1-.043.535,7.229,7.229,0,0,1-1.468.28,4.913,4.913,0,0,0-1.111.581A.312.312,0,0,1,742.482,39.088Z" transform="translate(-712.602 -17.742)" fill="#011948"/>
            <path id="Path_2100" data-name="Path 2100" d="M753.883,43.788a7.7,7.7,0,0,1-7.64,2.223s1.066,2.415,4.833,1.659C753.546,47.174,753.883,43.788,753.883,43.788Z" transform="translate(-709.093 -12.142)" fill="#fff"/>
            <g id="Group_41" data-name="Group 41" transform="translate(0 55.732)">
              <path id="Path_2101" data-name="Path 2101" d="M816.371,142.645a.328.328,0,0,1-.135-.019c-.734-.232-12.962-3.805-14.546-4.288-13.947-4.23-33.592-10.566-39.1-14.275-7.785-5.254-25.15-28.473-30.482-39.271-5.563-11.223-5.795-18.544-4.346-23.1a11.744,11.744,0,0,1,2.666-4.6,2.654,2.654,0,0,1,1.951-.831c5.215-.212,17.733,10.315,41.357,53.121.947,1.738,20.224,10.856,32.935,16.748,1.2.541,11.03,5,11.03,5C817.781,138.009,817.279,141.138,816.371,142.645Z" transform="translate(-727.011 -56.257)" fill="#f5a784"/>
              <path id="Path_2102" data-name="Path 2102" d="M771.75,103.278c-.085,2.729.819,4.87,9.452,5.64,4.124.367,13.11,1.737,15.925.589a7.363,7.363,0,0,0,1.055-1,2.59,2.59,0,0,0,.247-.311,7.569,7.569,0,0,0,1.31-2.548c.023-.079.05-.168.075-.257a7.42,7.42,0,0,0,.216-2.662c-.008-.083-.019-.166-.029-.249a10.692,10.692,0,0,0-.572-2.469s-9.195-1.02-11.971-2.445c0,0,5.648-.831,6.272-2.505l-.232-1.2s-6.181.2-8.942.035c-6.714-.4-11.773,4.563-11.773,4.563A15.578,15.578,0,0,0,771.75,103.278Z" transform="translate(-685.334 -21.227)" fill="#f5a784"/>
              <path id="Path_2103" data-name="Path 2103" d="M792.376,99.347l-.029-.249a92.644,92.644,0,0,1-12.3-1.609.078.078,0,0,0-.046.145A29.839,29.839,0,0,0,792.376,99.347Z" transform="translate(-677.68 -17.845)" fill="#e0855c"/>
              <path id="Path_2104" data-name="Path 2104" d="M792.176,100.857c.023-.079.048-.168.075-.257a94.4,94.4,0,0,1-12.3-1.6c-.079-.012-.122.11-.044.133A29.548,29.548,0,0,0,792.176,100.857Z" transform="translate(-677.771 -16.436)" fill="#e0855c"/>
              <path id="Path_2105" data-name="Path 2105" d="M790.962,102.347a2.292,2.292,0,0,0,.247-.311,99.107,99.107,0,0,1-11.631-1.565.071.071,0,0,0-.044.133A26.874,26.874,0,0,0,790.962,102.347Z" transform="translate(-678.115 -15.067)" fill="#e0855c"/>
            </g>
            <path id="Path_2106" data-name="Path 2106" d="M806.674,126.129c-.541,1.951-1.333,3.844-1.874,5.37-.232.7-1.526,3.651-3.11,6.838-13.947-4.23-33.592-10.566-39.1-14.275-7.785-5.254-25.15-28.473-30.482-39.271-5.563-11.223-5.795-18.544-4.346-23.1a11.744,11.744,0,0,1,2.666-4.6,2.654,2.654,0,0,1,1.951-.831c5.215-.212,17.733,10.315,41.357,53.121C774.686,111.12,793.964,120.237,806.674,126.129Z" transform="translate(-727.011 -0.525)" fill="#376291"/>
          </g>
        </g>
        <g id="Group_46" data-name="Group 46" transform="translate(0 17.962)">
          <path id="Path_2171" data-name="Path 2171" d="M767.632,55.53c.147-.294.286-.591.413-.892,2.179-5.14,2.362-11.949,8.053-14.841a15.663,15.663,0,0,1,5.125-1.273c2.99-.392,5.509-.863,8.428-1.5a13.717,13.717,0,0,1,12.977,3.973c1.337,1.5,2.351,3.326,3.981,4.5,1.81,1.306,4.207,1.675,5.882,3.151,2.973,2.619,2.453,7.412,4.362,10.881,1.2,2.177,3.4,3.96,3.55,6.438.208,3.475-3.862,5.758-7.342,5.662-2.455-.068-5.125-.807-7.232.456-1.576.945-2.465,2.845-4.153,3.577a6.731,6.731,0,0,1-4.5-.168,51.112,51.112,0,0,1-9.511-3.827c-2.577-1.35-5.333-2.979-8.192-2.444-1.739.325-3.765,1.362-5.065.164-.383-.352-.607-.844-.972-1.213-1.485-1.5-4.1-.207-6.12-.821-2.337-.711-3.108-3.782-2.463-6.139C765.413,59.177,766.682,57.423,767.632,55.53Z" transform="translate(-397.512 -36.704)" fill="#011948"/>
          <path id="Path_2172" data-name="Path 2172" d="M776.541,165.571a11.354,11.354,0,0,0-3.255.041,8.615,8.615,0,0,0-4.192,1.3c-3.373,2.486-1.453,9.148-1.018,12.527,1.34,10.431,4.512,41.465,4.649,41.506.129,1.775.3,5.652-.545,7.638a9.727,9.727,0,0,1-2.61,3,21.816,21.816,0,0,1-8.466,4.512s-2.658,1.356.118,2.544c2.793,1.188,20.06-3.972,19.964-5.579-.118-1.721-.182-3.28-.2-4.661a54.988,54.988,0,0,1,.292-7.87c.861-5.781,1.47-11.609,2-17.427.948-10.369,3.63-22.622-1.2-32.228-1.072-2.133-2.484-4.352-4.752-5.1A5.5,5.5,0,0,0,776.541,165.571Z" transform="translate(-401.868 83.262)" fill="#f5a784"/>
          <path id="Path_2173" data-name="Path 2173" d="M816.757,234.65c-3.006.346-1.362-2.15-1.362-2.15a21.448,21.448,0,0,0,4.729-7.128c.131-.328.263-.657.379-.987a9.72,9.72,0,0,0,.773-3.892c-.247-2.134-2.316-5.42-3.3-6.9-.164,0-18.3-25.341-24.621-33.735-2.053-2.726-7.029-7.555-5.337-11.381a8.773,8.773,0,0,1,2.988-3.22,11.947,11.947,0,0,1,2.809-1.642,6.01,6.01,0,0,1,.79-.23c2.318-.518,4.663.755,6.651,2.086,8.951,5.946,12.712,17.918,17.031,27.395,2.415,5.3,4.779,10.676,6.9,16.112a52.972,52.972,0,0,0,3.647,6.981,2.678,2.678,0,0,0,.18.3c.657,1.117,1.429,2.332,2.316,3.662C832.2,221.265,819.762,234.306,816.757,234.65Z" transform="translate(-376.049 81.212)" fill="#f5a784"/>
          <path id="Path_2174" data-name="Path 2174" d="M763.438,93.309c.425.811.985,1.545,1.391,2.376a14.043,14.043,0,0,1,1.14,4.733c.889,7.147,2.164,14.178,3.052,21.287.116.947.213,1.874.328,2.82a39.338,39.338,0,0,0,6.1,3.284c7.785.908,18.409.773,31.7-2.492-.135.039-2.839-20.978,3.747-49.74.6-2.627,1.313-4.848-1.6-5.66a45.032,45.032,0,0,0-7.708-1c-.367-.039-.715-.052-1.082-.077-1.122-.079-2.183-.174-3.091-.251-1.758-.155-2.955-.27-2.955-.425V53.614s-12.131-2.55-12.691,3.3c-.019.077-.464,4.539-.464,4.539l-.657,6.838a8.7,8.7,0,0,1-2.878.406c-.966.058-1.835.077-2.009.1-1.8.155-4.79-.328-5.93,1.487-.56.908-.425,2.241-.541,3.226-.348,3.38-2.106,5.756-4.018,8.461C762.917,85.254,761.6,89.716,763.438,93.309Z" transform="translate(-399.43 -21.465)" fill="#f5a784"/>
          <path id="Path_2175" data-name="Path 2175" d="M785.559,54.373v4.348a19.364,19.364,0,0,1-13.423,4.707l.705-7.219C775.364,52.994,782.982,53.938,785.559,54.373Z" transform="translate(-390.522 -20.683)" fill="#e0855c"/>
          <path id="Path_2176" data-name="Path 2176" d="M784.075,48.778a4.3,4.3,0,0,0-1.837,1.2,5.151,5.151,0,0,0-1.35,1.717c-.079.2.207.332.346.2.392-.363.707-.8,1.072-1.194a2.418,2.418,0,0,0,.889.7c.278.1.485-.243.363-.471a2.185,2.185,0,0,0-.734-.7,11.149,11.149,0,0,0,1.46-1.093A.217.217,0,0,0,784.075,48.778Z" transform="translate(-382.381 -25.459)" fill="#e0855c"/>
          <path id="Path_2177" data-name="Path 2177" d="M770.763,46.152c-1.313,1.847-1.7,5.295-1.831,9.345-.4,12.26,5.525,16.763,9.539,16.765,4.124,0,12.815-1.735,14.163-13.1.674-5.683.634-10.46-.674-13.39C789.216,39.623,776.522,38.055,770.763,46.152Z" transform="translate(-393.525 -33.065)" fill="#f5a784"/>
          <path id="Path_2178" data-name="Path 2178" d="M775.987,53.656c-.537-.081-1.768.24-2.021-.34-.211-.483.653-3.334.775-3.823.133-.533.27-1.014.4-1.487-.048-.033-.093-.07-.145-.1a1.365,1.365,0,0,0-.342-.128c-.5,1.957-.858,4-1.327,5.857a.268.268,0,0,0,.255.334c.788-.014,1.553.153,2.337.156C776.186,54.129,776.263,53.7,775.987,53.656Z" transform="translate(-389.416 -26.385)" fill="#e0855c"/>
          <path id="Path_2179" data-name="Path 2179" d="M774.948,43.825a3.775,3.775,0,0,0,1.385,2.3,7,7,0,0,0,2.633.827,3.086,3.086,0,0,1,2.274,1.462,8.265,8.265,0,0,1,.359,1.916,3.5,3.5,0,0,0,1.617,2.3c.744.437,1.673.6,2.212,1.285a9.469,9.469,0,0,1,.759,1.7c.278.558.908,1.049,1.453.778a17,17,0,0,0,2.368-6.021,10.347,10.347,0,0,0-3.591-9.085,11.038,11.038,0,0,0-9.311-2.21C774.656,39.61,774.442,41.541,774.948,43.825Z" transform="translate(-388.109 -34.717)" fill="#011948"/>
          <path id="Path_2180" data-name="Path 2180" d="M781.207,50.354s1.916-5.078,4.941-2.386-1.136,9.958-5.762,9.388C780.386,57.357,779.733,52.091,781.207,50.354Z" transform="translate(-382.97 -26.943)" fill="#f5a784"/>
          <path id="Path_2181" data-name="Path 2181" d="M577.345,208.854c-.759-.386-2.179-.489-2.731.3a.235.235,0,0,0,.2.352c.377-.019.709-.2,1.088-.234a3.066,3.066,0,0,1,1.186.184A.332.332,0,0,0,577.345,208.854Z" transform="translate(-574.579 123.408)" fill="#011948"/>
          <path id="Path_2182" data-name="Path 2182" d="M583.039,209.641c-.433-1.078-2.314-1.18-3.116-.512a.3.3,0,0,0,.131.5,6.857,6.857,0,0,0,1.451.014,4.8,4.8,0,0,1,1.163.367C582.873,210.082,583.124,209.85,583.039,209.641Z" transform="translate(-569.686 123.548)" fill="#011948"/>
          <path id="Path_2183" data-name="Path 2183" d="M776.949,47.7a.634.634,0,0,1,1.084,0,1.162,1.162,0,0,1,.158.2,1.879,1.879,0,0,1,.135.68,3.039,3.039,0,0,1,.047.332,2.22,2.22,0,0,1-.392,1.3.651.651,0,0,1-1.115,0A2.569,2.569,0,0,1,776.949,47.7Z" transform="translate(-386.382 -26.748)" fill="#011948"/>
          <path id="Path_2184" data-name="Path 2184" d="M771.688,47.465a.634.634,0,0,1,1.086,0,1.273,1.273,0,0,1,.158.2,1.874,1.874,0,0,1,.135.678,2.661,2.661,0,0,1,.045.332,2.208,2.208,0,0,1-.392,1.3.653.653,0,0,1-1.115,0A2.574,2.574,0,0,1,771.688,47.465Z" transform="translate(-391.284 -26.964)" fill="#011948"/>
          <path id="Path_2185" data-name="Path 2185" d="M772.608,52.565a10.737,10.737,0,0,0,3.058.721,7.769,7.769,0,0,0,2.656-.811.229.229,0,0,1,.257.332c-1.3,1.893-4.729,1.6-6.168.1A.2.2,0,0,1,772.608,52.565Z" transform="translate(-390.318 -22.022)" fill="#e0855c"/>
          <path id="Path_2186" data-name="Path 2186" d="M783.387,48.913c.131-.06.286.1.166.212-.4.371-.821.7-1.194,1.1a1.092,1.092,0,0,1,.653.585.31.31,0,0,1,0,.319l-.087.131a.15.15,0,0,1-.2.052,2.439,2.439,0,0,1-.75-.626,7.2,7.2,0,0,1-.807.985.144.144,0,0,1-.24-.139A4.647,4.647,0,0,1,783.387,48.913Z" transform="translate(-382.331 -25.341)" fill="#e0855c"/>
          <path id="Path_2187" data-name="Path 2187" d="M798.862,142.226l.869.193c1.043.251,1.893-3.805,2.009-4.481a50.107,50.107,0,0,1,2.183,7.978,2.246,2.246,0,0,0,.908,1.719,1.163,1.163,0,0,0,.56.155,3.809,3.809,0,0,0,.811-.039c.386-.058,1-.193,1.7-.367.213-.058.444-.135.676-.193.483-.155.962-.338,1.371-.5a2.262,2.262,0,0,0,.406-.193,2.667,2.667,0,0,0,.6-.406c.56-.56.85-9.794-1.835-18.737-1.236-4.076-1.681-9.716-1.99-13.966-1.275-1.893-6.838-3.187-7.862,1.487-.541,2.55,1.487,12.981,1.487,12.981a16.78,16.78,0,0,0-1.584,7.862C799.21,137.725,798.862,142.226,798.862,142.226Z" transform="translate(-365.623 33.136)" fill="#f5a784"/>
          <path id="Path_2188" data-name="Path 2188" d="M803.908,125.262a30.772,30.772,0,0,1,1.352,9.079,1.98,1.98,0,0,0,.406-.193,27.343,27.343,0,0,0-1.236-9.04A.272.272,0,0,0,803.908,125.262Z" transform="translate(-360.933 45.483)" fill="#e0855c"/>
          <path id="Path_2189" data-name="Path 2189" d="M802.865,125.367c.579,3.187.966,6.278,1.313,9.465.212-.058.444-.135.676-.193a27.46,27.46,0,0,0-1.642-9.369A.18.18,0,1,0,802.865,125.367Z" transform="translate(-361.899 45.687)" fill="#e0855c"/>
          <path id="Path_2190" data-name="Path 2190" d="M801.524,125.676c.328,1.8.753,3.612,1.043,5.428.193,1.314.251,2.627.348,3.96a3.809,3.809,0,0,0,.811-.039c0-3.187-.979-6.595-1.681-9.5C801.963,125.174,801.466,125.328,801.524,125.676Z" transform="translate(-363.147 45.861)" fill="#e0855c"/>
          <path id="Path_2191" data-name="Path 2191" d="M763.438,85.822c.425.811.985,1.545,1.391,2.376a14.043,14.043,0,0,1,1.14,4.733c.889,7.147,2.164,14.178,3.052,21.287.116.947.213,1.874.328,2.82a39.338,39.338,0,0,0,6.1,3.284,86.967,86.967,0,0,0,28.318-1.719c.425-.077.85-.174,1.294-.29.676-.135,1.371-.309,2.086-.483,0,0-.077-.406-.174-1.159a139.7,139.7,0,0,1,.637-29.612A176.37,176.37,0,0,1,810.9,68.09c.6-2.627,1.313-4.848-1.6-5.66a45.033,45.033,0,0,0-7.708-1c-.367-.039-.715-.052-1.082-.077-1.122-.079-2.183-.174-3.091-.251-1.391,2.627-5.756,9.33-14.082,9.33-6.741,0-6.529-5.428-5.563-9.214-.966.058-1.835.077-2.009.1-1.8.155-4.79-.328-5.93,1.487-.56.908-.425,2.241-.541,3.226-.348,3.38-2.106,5.756-4.018,8.461C762.917,77.767,761.6,82.229,763.438,85.822Z" transform="translate(-399.43 -13.978)" fill="#924e57"/>
          <path id="Path_2192" data-name="Path 2192" d="M784.047,91.217l-.135.116Z" transform="translate(-379.551 14.084)" fill="#d6448e"/>
          <path id="Path_2193" data-name="Path 2193" d="M784.761,109.081c.058.232.1.464.154.676l3.052-2.608a139.837,139.837,0,0,1,.637-29.612c0-.019-2.009-6.22-2.009-6.22A68.292,68.292,0,0,0,784.761,109.081Z" transform="translate(-380.419 -4.456)" fill="#924e57"/>
          <path id="Path_2194" data-name="Path 2194" d="M786.719,62s9.749-5.843,21.772,32.4c8.165,25.977,13.865,52.087,15.189,73.372,0,0-5.855,3.407-11.169.991,0,0-1.988-33.045-26.622-84.539C780.468,72.9,786.719,62,786.719,62Z" transform="translate(-379.77 -13.433)" fill="#924e57"/>
          <path id="Path_2195" data-name="Path 2195" d="M758.073,255.976c44.718,9.523,84.993-9.465,84.993-9.465s-15.376-26.947-19.973-32.22c-1.526-1.739-2.009-6.606-1.99-13.6.039-8.9.908-21.268,1.507-34.944.328-8,.56-16.438.483-24.918-.329-34.345-11.532-51.363-11.532-51.363-18.1,5.061-37.8-.869-37.8-.869C752.838,165.4,758.073,255.976,758.073,255.976Z" transform="translate(-404.167 11.643)" fill="#3f497b"/>
          <g id="Group_45" data-name="Group 45" transform="translate(403.279 105.413)">
            <path id="Path_2196" data-name="Path 2196" d="M796.9,96.832a4.393,4.393,0,0,1,.734,1.545c.444,3.769-3.33,8.279-7.12,7.817a7.418,7.418,0,0,1-1.315-.682,3.286,3.286,0,0,1-.352-.236,12.374,12.374,0,0,1-2.4-2.131l-.2-.23a15.094,15.094,0,0,1-1.711-2.556l-.126-.253a17.171,17.171,0,0,1-1.057-2.594,42.931,42.931,0,0,0,3.576-2.542A8.662,8.662,0,0,0,789.34,92.8c.585-1.039.9-2.036,2.635-1.229a9.8,9.8,0,0,1,3.017,2.6A18,18,0,0,1,796.9,96.832Z" transform="translate(-783.352 -91.275)" fill="#f5a784"/>
            <path id="Path_2197" data-name="Path 2197" d="M784.025,98.573l-.126-.253a43.3,43.3,0,0,0,7.52-5.119c.046-.035.147.071.116.129A14.131,14.131,0,0,1,784.025,98.573Z" transform="translate(-782.842 -89.487)" fill="#e0855c"/>
            <path id="Path_2198" data-name="Path 2198" d="M785.053,100l-.2-.23a44.06,44.06,0,0,0,7.528-5.107c.048-.035.149.071.108.118A13.974,13.974,0,0,1,785.053,100Z" transform="translate(-781.956 -88.127)" fill="#e0855c"/>
            <path id="Path_2199" data-name="Path 2199" d="M786.548,101.118a3.3,3.3,0,0,1-.352-.236A46.417,46.417,0,0,0,793.281,96c.041-.046.141.062.108.118A13.459,13.459,0,0,1,786.548,101.118Z" transform="translate(-780.702 -86.881)" fill="#e0855c"/>
          </g>
          <path id="Path_2200" data-name="Path 2200" d="M801.827,176.934c.039-8.9.908-21.268,1.507-34.944l-2.473-3.825L783.921,125.03,778.338,114.1S774.745,162.234,801.827,176.934Z" transform="translate(-384.891 35.4)" fill="#5c61a2"/>
          <path id="Path_2201" data-name="Path 2201" d="M768.053,61.22c1.273-.3,1.692,6.324,1.752,7.025.2,2.339.452,4.673.713,7.006.624,5.584,1.516,11.134,2.355,16.69,1.534,10.166,3.494,20.267,5.95,30.252,4.883,19.852,12.44,38.378,19.628,57.436.439,1.165-1.418,1.922-2,.842-9.821-18.243-16.019-39.151-20.812-59.229a309.935,309.935,0,0,1-5.716-30.491c-.676-5.007-1.254-10.029-1.677-15.063-.22-2.619-.383-5.243-.578-7.862-.077-1.06-.993-5.892.274-6.564A.371.371,0,0,1,768.053,61.22Z" transform="translate(-395.049 -13.873)" fill="#011948"/>
          <path id="Path_2202" data-name="Path 2202" d="M792.187,119.586a27.015,27.015,0,0,1-10.222-2.1,1.689,1.689,0,0,0-1.341-.131c-.587.3-.6,1.115-.527,1.769a141.247,141.247,0,0,0,2.722,15.907,30.036,30.036,0,0,0,2.413,7.249,14.049,14.049,0,0,0,9.187,7.348,10.526,10.526,0,0,0,10.736-3.991c2.337-3.438,2.061-7.968,1.5-12.088a135.3,135.3,0,0,0-3.39-16.871c-.724-2.7-2.956.63-4.346,1.331A15.728,15.728,0,0,1,792.187,119.586Z" transform="translate(-383.134 36.834)" fill="#011948"/>
        </g>
      </g>
      <g id="Group_40" data-name="Group 40" transform="translate(179.476 490.213)">
        <path id="Path_2015" data-name="Path 2015" d="M660.3,328.18c-8.454,3-24.682-9.158-30.444-14.2-8.337-7.3-16.983-12.992-21.8-23.037-2.028-4.232-4.753-7.328-3.847-11.933s2.1-9.644,6.768-9.138a27.608,27.608,0,0,1,9.072,3.639c12.405,8.986,20.752,22.424,31.663,33.176,3.347,3.3,5.058,3.812,8.059.562,2.3-2.5,22.992-24.145,23.6-24.719l7,6.375s-.478,1.066-1.385,2.857C684.557,300.641,676.261,322.511,660.3,328.18Z" transform="translate(-479.25 -221.823)" fill="#f5a784"/>
        <path id="Path_2016" data-name="Path 2016" d="M644.836,284.347s2.409,6.826,7,6.375a23.054,23.054,0,0,1,5.3-5.253c3.228-2.242,10.25-6.526,11.511-9.117a5.808,5.808,0,0,0,.37-1.54,5.693,5.693,0,0,0,.021-1.3,5.378,5.378,0,0,0-.51-1.855,5.29,5.29,0,0,0-.5-.793,5.834,5.834,0,0,0-1.165-1.178,8.925,8.925,0,0,0-.824-.55l-.315-.177a1.811,1.811,0,0,0-1.892.124c-1.98,1.383-6.913,4.7-9.171,5.3,0,0,3.475-4.193,2.845-5.764l-.926-.706a49.031,49.031,0,0,1-6.643,7.135A16.054,16.054,0,0,0,644.836,284.347Z" transform="translate(-440.709 -223.641)" fill="#f5a784"/>
        <path id="Path_2017" data-name="Path 2017" d="M651.224,274.457c-.055.033-.016.119.035.1a23.624,23.624,0,0,0,9.591-5.461,8.923,8.923,0,0,0-.825-.55A34.91,34.91,0,0,1,651.224,274.457Z" transform="translate(-434.7 -223.045)" fill="#e0855c"/>
        <path id="Path_2018" data-name="Path 2018" d="M651.905,275.919c-.051.021-.01.107.045.1a23.558,23.558,0,0,0,9.916-5.8,5.29,5.29,0,0,0-.5-.793A36.4,36.4,0,0,1,651.905,275.919Z" transform="translate(-434.053 -222.205)" fill="#e0855c"/>
        <path id="Path_2019" data-name="Path 2019" d="M652.558,277.04c-.051.021-.01.107.045.1a23.938,23.938,0,0,0,9.134-5.05,5.282,5.282,0,0,0,.021-1.3A36.316,36.316,0,0,1,652.558,277.04Z" transform="translate(-433.436 -220.919)" fill="#e0855c"/>
        <path id="Path_2020" data-name="Path 2020" d="M542.768,423.693c57.991-5.167,118.152-2.324,176.5-2.2q43.426.09,86.848.3c27.821.146,57.345-1.233,84.812,2.063,2.746.329,2.748,3.493,0,3.823-27.467,3.3-56.991,1.918-84.812,2.061q-43.423.227-86.848.3c-58.347.121-118.508,2.966-176.5-2.2C538.908,427.5,538.9,424.037,542.768,423.693Z" transform="translate(-539.87 -79.395)" fill="#ededed" style="mix-blend-mode: multiply;isolation: isolate"/>
        <g id="Group_38" data-name="Group 38" transform="translate(102.108 55.067)">
          <path id="Path_2021" data-name="Path 2021" d="M656.573,337.784c-14.84,7.709-51.88,9.854-51.88,9.854s-4.512-5.494-.634-10.47c0,0,38.847-11.972,44.238-15.571,2.824-1.88,39.137-56.456,47.262-47.044C708.4,289.431,660.1,335.956,656.573,337.784Z" transform="translate(-582.826 -273.462)" fill="#e0855c"/>
          <path id="Path_2022" data-name="Path 2022" d="M617.227,316.051s-2.88,1.021-6.32,2.668-10.955,5.336-13.749,5.155a6.857,6.857,0,0,1-1.214-.568,2.73,2.73,0,0,1-.307-.2,6.928,6.928,0,0,1-1.886-1.847c-.045-.06-.094-.13-.14-.2a6.847,6.847,0,0,1-.967-2.262c-.017-.076-.031-.152-.045-.228a9.792,9.792,0,0,1-.222-2.326s7.742-3.568,9.753-5.624c0,0-5.179.92-6.213-.364l-.148-1.12s5.461-1.626,7.827-2.573c5.754-2.3,11.619.558,11.619.558S619.8,312.4,617.227,316.051Z" transform="translate(-592.376 -243.042)" fill="#e0855c"/>
          <path id="Path_2023" data-name="Path 2023" d="M592.536,314.954l-.045-.228a85.843,85.843,0,0,0,10.283-4.99c.064-.035.138.058.082.111A27.5,27.5,0,0,1,592.536,314.954Z" transform="translate(-592.267 -239.202)" fill="#e0855c"/>
          <path id="Path_2024" data-name="Path 2024" d="M593.151,316.2c-.045-.06-.091-.132-.14-.2a87.207,87.207,0,0,0,10.287-4.98c.066-.035.138.058.078.1A27.224,27.224,0,0,1,593.151,316.2Z" transform="translate(-591.776 -237.988)" fill="#e0855c"/>
          <path id="Path_2025" data-name="Path 2025" d="M594.36,317.149a2.5,2.5,0,0,1-.307-.2,91.643,91.643,0,0,0,9.712-4.757c.06-.043.134.052.078.105A24.824,24.824,0,0,1,594.36,317.149Z" transform="translate(-590.792 -236.885)" fill="#e0855c"/>
        </g>
        <path id="Path_2026" data-name="Path 2026" d="M669.092,272.926a8.727,8.727,0,0,1,5.443,8.946c-.611,6.717-4.745,16.709-12.539,27.255s-16.085,20.561-16.085,20.561A38.193,38.193,0,0,1,627.5,317.376S659.367,270.281,669.092,272.926Z" transform="translate(-457.082 -219.004)" fill="#542843"/>
        <path id="Path_2027" data-name="Path 2027" d="M722.233,438.517c-2.151,1.488-21.954.08-22.146-1.311-.194-1.472-.471-2.8-.632-3.981-.016-.113-.031-.21-.049-.307-.776-5.758-10.046-23.14-10.046-23.14s8.522-7.324,12.5-1.807c0,0,4.354,22.844,9.1,25.141.195.1.4.194.663.307,2.54,1.116,7.717,2.831,10.289,2.913C721.91,436.333,724.384,437.027,722.233,438.517Z" transform="translate(-398.648 -93.27)" fill="#f5a784"/>
        <path id="Path_2028" data-name="Path 2028" d="M717.353,425.4c-2.151,1.488-21.954.08-22.146-1.311-.194-1.472-.471-2.8-.632-3.981-.016-.113-.031-.21-.049-.307a39.468,39.468,0,0,0,12.215.5c2.54,1.116,7.717,2.831,10.289,2.913C717.03,423.215,719.5,423.909,717.353,425.4Z" transform="translate(-393.768 -80.152)" fill="#011948"/>
        <path id="Path_2029" data-name="Path 2029" d="M636.169,441.316c2.153,1.488,21.953.08,22.148-1.311.194-1.472.469-2.8.63-3.979a1.154,1.154,0,0,0,.048-.307c-1.705-12.312-3.965-30.738-3.965-30.738s-9.426-1.233-13.407,4.284c0,0,10.562,24.349,5.822,26.646-.194.1-.4.194-.663.309-2.542,1.114-7.719,2.829-10.289,2.911C636.493,439.132,634.018,439.828,636.169,441.316Z" transform="translate(-449.727 -94.263)" fill="#f5a784"/>
        <path id="Path_2030" data-name="Path 2030" d="M636.169,426.327c2.153,1.488,21.953.08,22.148-1.311.194-1.472.469-2.8.63-3.979.017-.115.033-.21.048-.307a39.458,39.458,0,0,1-12.213.5c-2.542,1.114-7.719,2.829-10.289,2.911C636.493,424.143,634.018,424.839,636.169,426.327Z" transform="translate(-449.727 -79.274)" fill="#011948"/>
        <path id="Path_2031" data-name="Path 2031" d="M781.1,493.99s-21.2,9.832-36.65,2.6c0,0-.4-.712-1.11-2.075-.251-.482-.544-1.048-.86-1.7-1.509-3.042-3.775-7.862-6.248-14.111-.229-.544-.439-1.112-.671-1.7-1.97-5.095-4.047-11.09-5.974-17.759-.148-.544-.3-1.091-.463-1.635-1.635-5.891-3.166-12.327-4.4-19.182-.126-.63-.232-1.258-.336-1.888-.545-3.187-1.029-6.478-1.426-9.832,0,0-.42-1.972-4.36-8.932-.3-.523-.609-1.07-.945-1.655-1.447-2.476-3.25-5.472-5.556-9.1-.817-1.3-1.678-2.724-2.579-4.234-.377-.63-.743-1.266-1.11-1.929-3.551-6.4-7.8-14.153-11.658-21.973-.292-.587-.607-1.194-.9-1.824-2.056-4.234-4.027-8.45-5.787-12.411-.294-.692-.609-1.385-.9-2.077-3.145-7.211-5.431-13.375-6.186-17,0,0-3.522,8.261-10.336,25.6-.377.9-.735,1.844-1.091,2.789-1.76,4.465-12.977,33.859-16.5,43.357a6.9,6.9,0,0,0-.441,2.054,7,7,0,0,0,.1,1.867,6.153,6.153,0,0,0,.377,1.385l28.388,72.667s-18.974,5.115-38.662-1.7c0,0-1.005-2.725-1.32-3.584-1.34-3.753-3.565-10.19-5.933-18.156-.189-.673-.4-1.385-.609-2.077-1.34-4.675-2.724-9.832-3.961-15.221-.189-.8-.377-1.593-.544-2.411-1.385-6.141-2.579-12.537-3.376-18.869-.064-.482-.126-.922-.167-1.4a115.752,115.752,0,0,1-.861-18.22s5.138-28.912,5.243-29.478c1.363-6.96,2.935-14.488,4.613-21.847.21-.9.439-1.824.649-2.705,1.342-5.723,2.789-11.279,4.255-16.269.19-.671.379-1.3.566-1.929a97.428,97.428,0,0,1,4.761-12.872,20.862,20.862,0,0,1,3.312-5.284c1.762-1.824,4.7-3.042,8.407-3.732a58.269,58.269,0,0,1,12.246-.755c.858.041,1.741.084,2.641.124a139.661,139.661,0,0,1,28.073,4.78c.545.169,1.112.336,1.657.484,7.779,2.285,14.109,5.074,16.961,7.736a5.194,5.194,0,0,1,1.531,2.223c.105.375,14.192,46.313,14.486,47.172,1.951,5.955,3.837,11.406,5.453,15.6.189.5.375.986.566,1.447a3.681,3.681,0,0,1,.167.44c1.739,4.3,4.265,11.882,7.569,20.82.179.486.356.965.523,1.468,2.034,5.766,14.447,40.3,14.636,40.8,2.326,6.206,4.494,12.012,6.666,16.919.14.317.272.63.4.943C776.566,487.07,779.25,492.352,781.1,493.99Z" transform="translate(-456.641 -175.621)" fill="#558ec2"/>
        <path id="Path_2032" data-name="Path 2032" d="M717.231,347.877a50.046,50.046,0,0,1-12.055,1.824c-9.644-.021-19.812-14.426-37.99-13.356s-28.849-7.8-28.849-7.8l11.719-9.016a58.27,58.27,0,0,1,12.246-.755c.858.041,1.741.084,2.641.124a139.659,139.659,0,0,1,28.073,4.78c.545.169,1.112.336,1.657.484,7.779,2.285,14.109,5.074,16.961,7.736a5.194,5.194,0,0,1,1.53,2.223C713.27,334.5,714.884,340.056,717.231,347.877Z" transform="translate(-446.849 -175.621)" fill="#44739e"/>
        <path id="Path_2033" data-name="Path 2033" d="M718.836,379.162s-1.215.377-3.209.8c-.9.189-1.99.377-3.164.566-1.091.167-2.287.315-3.543.418a31.323,31.323,0,0,1-9.646-.585c-3.961-.965-7.987-2.476-12.117-3.71-.819-.253-1.657-.482-2.5-.714a32.911,32.911,0,0,0-13.105-1.132,97.311,97.311,0,0,1-15.976.922c-1.027-.041-2.075-.105-3.08-.21-4.634-.42-9.016-1.468-12.392-3.584a13.663,13.663,0,0,1-3.648-3.166A146.439,146.439,0,0,0,646.692,349.6c1.762-4.276,3.061-8.45,3.02-11.573,0,0,2.368-33.462,2.39-34.028.167-2.433,4.066-25.767,6.038-29.688a2.5,2.5,0,0,1,1.53-1.132c3.773-1.237,12.765,1.089,16.9,1.215-.041.167-.054.354-.1.521l-.047.383c-.609,4.842,1.2,10.332-.585,16.014-2.328,7.547,14.34-8.008,20.693-14.529.377-.4.712-.733,1.027-1.048.315-.358.609-.671.819-.924a2.088,2.088,0,0,0,.276-.331c14.132,1.425,17.942,3.329,17.984,3.372,4.214,3.061,1.488,9.037-1.091,20.378q-.376,1.666-.755,3.522c-1.215,5.892-2.6,12.917-3.773,21.218a90.28,90.28,0,0,0-.566,18.681A135.007,135.007,0,0,0,718.836,379.162Z" transform="translate(-448.621 -219.003)" fill="#653050"/>
        <path id="Path_2034" data-name="Path 2034" d="M659.237,308.847c6.013-9.342,14.393-19.315,18.593-24.309.35-.408,1.9-2.281,1.993-2.392a8.163,8.163,0,0,1-2.882-.181,1.032,1.032,0,0,1-.648-.517c-.667-1.492-.48-6.087-.241-9.527.076-1.315.187-2.462.241-3.2,0-.074.019-.13.019-.185.037-.519.074-.782.074-.782a3.718,3.718,0,0,0,0-.644,1.756,1.756,0,0,0-.091-.574c-.685-2.664-4.625-2-8.473-.648-1.849.667-3.681,1.48-5.107,2.164-.85.408-1.552.778-2.015,1.019-.445.239-.685.369-.685.369s.091.422.2,1.128c.154.978.352,2.48.463,4.07.055.574.093,1.165.111,1.739.054,2.516-.185,4.866-1.276,5.439a3.691,3.691,0,0,1-1.776.241c-.037.165-.062.354-.1.521l-.047.383C656.557,289.846,654.871,315.582,659.237,308.847Z" transform="translate(-429.795 -226.667)" fill="#f5a784"/>
        <path id="Path_2035" data-name="Path 2035" d="M658.254,269.442s.091.422.2,1.128c.154.978.352,2.48.463,4.07.055.574.093,1.165.111,1.739a14.731,14.731,0,0,0,7.493.611,11.1,11.1,0,0,0,1.758-.5,13.357,13.357,0,0,0,6.011-4.568c.076-1.315.187-2.462.241-3.2,0-.074.019-.13.019-.185.037-.519.074-.782.074-.782a3.724,3.724,0,0,0,0-.644,1.758,1.758,0,0,0-.091-.574c-.685-2.664-4.625-2-8.473-.648-1.849.667-3.681,1.48-5.107,2.164-.85.408-1.552.778-2.015,1.019C658.493,269.312,658.254,269.442,658.254,269.442Z" transform="translate(-428.034 -226.667)" fill="#e0855c"/>
        <path id="Path_2036" data-name="Path 2036" d="M659.913,258.295c-.778-.4-2.233-.5-2.8.307a.242.242,0,0,0,.208.362c.385-.02.727-.208,1.114-.239a3.123,3.123,0,0,1,1.216.187A.339.339,0,0,0,659.913,258.295Z" transform="translate(-429.144 -233.01)" fill="#011948"/>
        <path id="Path_2037" data-name="Path 2037" d="M666.017,259.1c-.443-1.1-2.371-1.21-3.193-.525a.313.313,0,0,0,.136.517,7.283,7.283,0,0,0,1.486.014,4.85,4.85,0,0,1,1.192.373A.31.31,0,0,0,666.017,259.1Z" transform="translate(-423.805 -232.866)" fill="#011948"/>
        <path id="Path_2038" data-name="Path 2038" d="M656.711,272.933a8.616,8.616,0,0,1-1.612-4.379c-.216-2.38.2-4.788-.062-7.164-.367-3.4-2.052-7.016-.457-10.042a5.361,5.361,0,0,1,7.022-2.128c1.762.957,3.242,3,5.214,2.647a10.12,10.12,0,0,0,2.6-1.365,4.683,4.683,0,0,1,4.817.4c1.692,1.254,2.382,3.551,4.117,4.745,1.511,1.038,3.537,1.044,5.091,2.017a6.329,6.329,0,0,1,2.627,4.29c.733,4.022-.665,8.576-1.882,12.382-.189.591-.377,2.979-1.264,3.016-.319.012-.434-.319-.56-.327l-1.068-.064c-5.535-.334-11.069-.718-16.588-1.249-2.481-.239-4.724.408-6.694-1.344A9.2,9.2,0,0,1,656.711,272.933Z" transform="translate(-432.142 -241.834)" fill="#f7455d"/>
        <path id="Path_2039" data-name="Path 2039" d="M658.474,261.326s-2.421-2.9-4.84,0,1.694,8.463,4.84,8.708C658.474,270.034,658.838,262.576,658.474,261.326Z" transform="translate(-433.088 -231.08)" fill="#e0855c"/>
        <path id="Path_2040" data-name="Path 2040" d="M655.079,268.969c-.018,1.628.037,3.071.148,4.366a2.614,2.614,0,0,1,.037.369.492.492,0,0,1,.02.148c.054.389.222,1.443.239,1.591a13.719,13.719,0,0,0,2.295,5.828,8.406,8.406,0,0,0,4.107,2.96,13.218,13.218,0,0,0,2.94.63,18.019,18.019,0,0,0,2.629.091,15.328,15.328,0,0,0,2.071-.241,10.845,10.845,0,0,0,7.973-6.4c.167-.352.3-.648.426-.963a20.519,20.519,0,0,0,.869-2.793c.13-.537.247-1.095.358-1.686.055-.332.1-.683.142-1.035.016-.128.369-3.088.5-4.309.426-4.238.5-7.882-1.147-9.825-2.758-3.275-13.543-4.477-19.482-1.239a9.232,9.232,0,0,0-1.886,1.313c-.148.13-.241.241-.333.333a3.284,3.284,0,0,0-.369.463,8.034,8.034,0,0,0-1.093,3.22c-.091.5-.146,1.017-.2,1.554-.074.7-.111,1.443-.148,2.2-.037.685-.056,1.406-.074,2.127v.259A9.789,9.789,0,0,0,655.079,268.969Z" transform="translate(-431.039 -236.257)" fill="#f5a784"/>
        <path id="Path_2041" data-name="Path 2041" d="M667.6,263.949s1.962-5.2,5.062-2.446-1.184,10.624-5.924,10.04C666.74,271.543,666.091,265.728,667.6,263.949Z" transform="translate(-420.147 -230.456)" fill="#f5a784"/>
        <path id="Path_2042" data-name="Path 2042" d="M670.567,262.33a4.378,4.378,0,0,0-1.883,1.229,5.32,5.32,0,0,0-1.383,1.76c-.082.21.206.342.35.21.4-.373.729-.823,1.1-1.227a2.467,2.467,0,0,0,.91.718c.284.105.5-.249.372-.484a2.235,2.235,0,0,0-.751-.718,11.465,11.465,0,0,0,1.5-1.12A.222.222,0,0,0,670.567,262.33Z" transform="translate(-419.5 -228.916)" fill="#e0855c"/>
        <path id="Path_2043" data-name="Path 2043" d="M658.378,262.62s-1.085.4-.92-1.519c.148-1.729.92-1.5.92-1.5s.755-.006.642,1.507S658.378,262.62,658.378,262.62Z" transform="translate(-428.801 -231.496)" fill="#011948"/>
        <path id="Path_2044" data-name="Path 2044" d="M664.039,262.62s-1.085.4-.922-1.519c.148-1.729.922-1.5.922-1.5s.755-.006.64,1.507S664.039,262.62,664.039,262.62Z" transform="translate(-423.455 -231.496)" fill="#011948"/>
        <path id="Path_2045" data-name="Path 2045" d="M661.786,268.427c-.55-.082-1.812.247-2.071-.348-.216-.494.671-3.415.8-3.915a49.778,49.778,0,0,0,1.266-5.192.1.1,0,0,0-.193-.052c-1.274,2.876-1.748,6.433-2.518,9.488a.273.273,0,0,0,.261.342c.807-.012,1.591.158,2.394.161C661.99,268.913,662.068,268.47,661.786,268.427Z" transform="translate(-427.275 -232.182)" fill="#e0855c"/>
        <path id="Path_2046" data-name="Path 2046" d="M658.757,265.186a11.782,11.782,0,0,0,6.979.037,5.811,5.811,0,0,1-3.954,2.575C659.288,268.021,658.757,265.186,658.757,265.186Z" transform="translate(-427.558 -226.214)" fill="#fff"/>
        <path id="Path_2047" data-name="Path 2047" d="M659.987,257.984c-.747-.381-2.145-.482-2.69.3a.233.233,0,0,0,.2.348c.372-.019.7-.2,1.072-.229a3,3,0,0,1,1.169.179A.326.326,0,0,0,659.987,257.984Z" transform="translate(-428.969 -233.292)" fill="#011948"/>
        <path id="Path_2048" data-name="Path 2048" d="M666.263,258.578c-.426-1.062-2.281-1.163-3.071-.506a.3.3,0,0,0,.13.5,6.882,6.882,0,0,0,1.429.014,4.75,4.75,0,0,1,1.145.36A.3.3,0,0,0,666.263,258.578Z" transform="translate(-423.454 -233.324)" fill="#011948"/>
        <g id="Group_39" data-name="Group 39" transform="translate(167.786 58.313)">
          <path id="Path_2049" data-name="Path 2049" d="M688.712,344.906c-13.531,9.828-49.842,17.452-49.842,17.452s-5.276-4.762-2.182-10.26c0,0,36.638-17.609,41.435-21.969,2.513-2.279,30.553-62.345,39.985-54.245C733.02,288.69,691.927,342.576,688.712,344.906Z" transform="translate(-617.112 -275.132)" fill="#f5a784"/>
          <path id="Path_2050" data-name="Path 2050" d="M650.691,323.592s-2.7,1.439-5.853,3.578c-1.128.758-2.723,1.867-4.434,2.975-3.111,1.984-6.612,4.006-8.4,4.162a5.054,5.054,0,0,1-1.283-.369,1.725,1.725,0,0,1-.331-.156,7.222,7.222,0,0,1-2.139-1.536,2.222,2.222,0,0,1-.175-.195,7.436,7.436,0,0,1-1.284-2.081,1.091,1.091,0,0,1-.078-.233,8.9,8.9,0,0,1-.564-2.256s3.578-2.353,6.262-4.551a15.593,15.593,0,0,0,2.547-2.47,21.912,21.912,0,0,1-3.656.875,4,4,0,0,1-2.373-.195c-.078-.019-.117-.078-.175-.117l-.311-1.07s5.153-2.431,7.351-3.714c5.348-3.131,11.571-1.167,11.571-1.167S652.694,319.606,650.691,323.592Z" transform="translate(-626.149 -237.973)" fill="#f5a784"/>
        </g>
        <path id="Path_2051" data-name="Path 2051" d="M632.286,442.991c-2.205,1.526-22.5.084-22.7-1.342-.2-1.509-.48-2.868-.648-4.08a2.6,2.6,0,0,1-.049-.315c0-15.412,0-34.775,0-34.775s8.072-.428,12.15,5.227c0,0-5.167,27.393-.307,29.746.2.1.414.2.679.315,2.6,1.145,7.909,2.9,10.546,2.985C631.953,440.753,634.491,441.467,632.286,442.991Z" transform="translate(-474.672 -96.522)" fill="#f5a784"/>
        <path id="Path_2052" data-name="Path 2052" d="M632.284,426.095c-2.205,1.526-22.5.084-22.7-1.342-.2-1.509-.48-2.868-.648-4.08-.016-.117-.033-.216-.049-.315a40.417,40.417,0,0,0,12.518.513c2.6,1.145,7.909,2.9,10.546,2.985C631.951,423.857,634.489,424.57,632.284,426.095Z" transform="translate(-474.67 -79.625)" fill="#011948"/>
        <path id="Path_2053" data-name="Path 2053" d="M549.073,439.589c2.205,1.525,22.5.082,22.7-1.344.2-1.509.48-2.868.646-4.08.018-.115.033-.214.051-.315.8-5.9,10.3-23.715,10.3-23.715s-8.736-7.508-12.813-1.853c0,0-4.465,23.414-9.323,25.769-.2.1-.414.2-.681.315-2.6,1.143-7.909,2.9-10.546,2.985C549.4,437.351,546.867,438.063,549.073,439.589Z" transform="translate(-532.027 -93.026)" fill="#f5a784"/>
        <path id="Path_2054" data-name="Path 2054" d="M549.073,426.144c2.205,1.525,22.5.082,22.7-1.344.2-1.509.48-2.868.646-4.08.018-.115.033-.214.051-.315a40.424,40.424,0,0,1-12.52.515c-2.6,1.143-7.909,2.9-10.546,2.985C549.4,423.905,546.867,424.617,549.073,426.144Z" transform="translate(-532.027 -79.581)" fill="#011948"/>
        <path id="Path_2055" data-name="Path 2055" d="M690.8,437.059c.058,21.664-1.77,68.006-2.489,68.648-.506.447-12.971,4.22-22.617,2.684-3.812-.6-7.2-2.042-9.218-4.862-1.731-2.431,6.126-88.483-6.534-147.777-2.742,1.536-54,152.327-63.047,153.008-12.407.914-28.645-1.381-37.746-9.821,18.338-21.061,28.879-47.664,38.252-73.956,3.656-10.268,6.4-20.925,9.276-31.426,2.936-10.7,5.212-21.567,7.915-32.34,2.606-10.4,3.948-21.236,7.176-31.426a15.913,15.913,0,0,1,2.159-4.745A17.076,17.076,0,0,1,619.1,320.9c4.609-2.781,9.354-5.445,14.527-6.962,10.132-2.995,21.45-1.439,31.309,1.847,11.551,3.87,16.7,12.077,19.038,23.531,2.12,10.443,4.609,20.808,5.387,31.465C690.641,388.325,690.777,432.547,690.8,437.059Z" transform="translate(-531.108 -181.667)" fill="#011948"/>
        <path id="Path_2056" data-name="Path 2056" d="M647.626,336.6s-2.316-32.424-2.472-34.894-4.168-26.4-6.174-30.415c-1.725-3.446-13.84-.07-18.877.076,1.017,5.169-1.2,11.135.727,17.347,2.773,8.953-20.59-13.829-23.379-17.242-3.88-.181-11.748-.564-16.283,2.736-6.793,4.94-.395,18.7,3.619,46.953s-8.03,57.588-8.03,57.588,11.118,3.4,20.073,1.235,18.062-7.1,28.408-5.712,28.871,2.779,35.973-6.176C661.212,368.1,647.471,346.792,647.626,336.6Z" transform="translate(-505.022 -221.904)" fill="#3a4571"/>
        <path id="Path_2057" data-name="Path 2057" d="M608.516,306.683c-7.425-11.513-18.319-23.935-21.117-27.352,1.935.082,3.318.027,3.674-.8.618-1.468.453-6.161.206-9.7-.15-2.4-.344-4.269-.344-4.269-.55-7.946,16.773,1.729,16.773,1.729a53.64,53.64,0,0,0-.784,7.11c-.068,2.581.19,4.976,1.291,5.585a3.911,3.911,0,0,0,1.836.237C611.066,284.4,613.2,313.95,608.516,306.683Z" transform="translate(-494.969 -229.761)" fill="#f5a784"/>
        <path id="Path_2058" data-name="Path 2058" d="M606,266.294a53.647,53.647,0,0,0-.784,7.11c-8.742,2.841-13.7-1.949-15.645-4.57-.15-2.4-.344-4.269-.344-4.269C588.673,256.619,606,266.294,606,266.294Z" transform="translate(-493.258 -229.761)" fill="#e0855c"/>
        <path id="Path_2059" data-name="Path 2059" d="M581.8,268.463a4.382,4.382,0,0,1,3.259-4.228,4.377,4.377,0,0,1,2.925-7.565,4.338,4.338,0,0,1-.426-1.855,4.366,4.366,0,0,1,6.287-3.948,4.359,4.359,0,0,1,7.643-2.33,4.381,4.381,0,0,1,8.541.025,4.373,4.373,0,0,1,7.715,2.841,5.887,5.887,0,0,0,.764,0A4.392,4.392,0,0,1,622.9,255.8a4.478,4.478,0,0,1-.1.932,4.372,4.372,0,0,1,2.489,7.378,4.338,4.338,0,0,1,.692,6.77,4.375,4.375,0,0,1-2.818,7.493,4.393,4.393,0,1,1-3.957-2.009,4.36,4.36,0,0,1,.618-5.484,4.324,4.324,0,0,1-.068-6.141,4.379,4.379,0,0,1-2.011-3.681,4.332,4.332,0,0,1,.1-.931,4.38,4.38,0,0,1-3.732-4.325,5.9,5.9,0,0,0-.764,0,4.389,4.389,0,0,1-4.274-3.417,4.338,4.338,0,0,1-6.627.023,4.35,4.35,0,0,1-6.161,2.948,4.372,4.372,0,0,1-4.249,3.845,4.348,4.348,0,0,1-2.835,6.083,4.319,4.319,0,0,1,.8,5.329,4.4,4.4,0,0,1,2.7,4.053,4.315,4.315,0,0,1-.2,1.233,4.383,4.383,0,1,1-4.941,4.337,4.3,4.3,0,0,1,.2-1.233,4.342,4.342,0,0,1-3.261-6.484A4.393,4.393,0,0,1,581.8,268.463Z" transform="translate(-500.262 -245.146)" fill="#011948"/>
        <path id="Path_2060" data-name="Path 2060" d="M597.637,254.866c.8-.406,2.287-.513,2.868.315a.247.247,0,0,1-.214.369c-.395-.019-.745-.212-1.142-.245a3.24,3.24,0,0,0-1.246.193A.347.347,0,0,1,597.637,254.866Z" transform="translate(-485.457 -236.255)" fill="#011948"/>
        <path id="Path_2061" data-name="Path 2061" d="M591.533,255.692c.453-1.132,2.431-1.241,3.273-.539a.319.319,0,0,1-.14.529,7.366,7.366,0,0,1-1.523.014,4.979,4.979,0,0,0-1.221.383A.316.316,0,0,1,591.533,255.692Z" transform="translate(-491.081 -236.107)" fill="#011948"/>
        <path id="Path_2062" data-name="Path 2062" d="M616.8,268.058s.366-16.055-3.8-18.2c-9.9-5.1-29.892,2.518-27.364,13.344s3.44,7.79,3.44,7.79S615.994,269.448,616.8,268.058Z" transform="translate(-496.84 -242.228)" fill="#011948"/>
        <path id="Path_2063" data-name="Path 2063" d="M600.472,257.974s2.481-2.977,4.961,0-1.737,8.673-4.961,8.926C600.472,266.9,600.1,259.255,600.472,257.974Z" transform="translate(-482.775 -234.278)" fill="#e0855c"/>
        <path id="Path_2064" data-name="Path 2064" d="M611.611,254.664c1.647,1.713,1.783,5.56,1.921,9.813.416,12.876-3.44,16.9-10.017,17.605s-13.455-1.822-14.873-13.761c-.708-5.968-1.462-11.483.71-14.062C592.588,250.413,606.551,249.4,611.611,254.664Z" transform="translate(-494.48 -239.576)" fill="#f5a784"/>
        <path id="Path_2065" data-name="Path 2065" d="M591.8,260.661s-2.013-5.332-5.188-2.507,1.217,10.884,6.075,10.287C592.691,268.442,593.353,262.485,591.8,260.661Z" transform="translate(-496.726 -233.638)" fill="#f5a784"/>
        <path id="Path_2066" data-name="Path 2066" d="M586.994,259a4.482,4.482,0,0,1,1.929,1.26,5.4,5.4,0,0,1,1.418,1.8c.084.216-.218.348-.364.212-.412-.383-.741-.84-1.126-1.254a2.527,2.527,0,0,1-.932.735c-.292.107-.509-.255-.381-.5a2.308,2.308,0,0,1,.768-.737,11.7,11.7,0,0,1-1.533-1.147A.227.227,0,0,1,586.994,259Z" transform="translate(-495.62 -232.059)" fill="#e0855c"/>
        <path id="Path_2067" data-name="Path 2067" d="M598.508,259.3s1.112.414.943-1.558c-.152-1.772-.943-1.532-.943-1.532s-.774-.006-.657,1.544S598.508,259.3,598.508,259.3Z" transform="translate(-485.107 -234.704)" fill="#011948"/>
        <path id="Path_2068" data-name="Path 2068" d="M593.053,259.621s1.114.414.945-1.556c-.152-1.772-.945-1.532-.945-1.532s-.772-.006-.655,1.544S593.053,259.621,593.053,259.621Z" transform="translate(-490.258 -234.399)" fill="#011948"/>
        <path id="Path_2069" data-name="Path 2069" d="M595.671,265.252c.564-.084,1.857.253,2.122-.356.222-.508-.687-3.5-.815-4.014a50.711,50.711,0,0,1-1.3-5.323.106.106,0,0,1,.2-.053c1.3,2.948,1.791,6.594,2.583,9.725a.28.28,0,0,1-.268.35c-.827-.014-1.63.161-2.454.167C595.463,265.75,595.382,265.3,595.671,265.252Z" transform="translate(-487.326 -235.407)" fill="#e0855c"/>
        <path id="Path_2070" data-name="Path 2070" d="M600.8,261.93a12.09,12.09,0,0,1-7.154.039,5.946,5.946,0,0,0,4.051,2.637C600.258,264.835,600.8,261.93,600.8,261.93Z" transform="translate(-489.064 -229.29)" fill="#fff"/>
        <path id="Path_2071" data-name="Path 2071" d="M597.5,254.549c.768-.391,2.2-.5,2.758.3a.238.238,0,0,1-.2.356c-.381-.019-.718-.2-1.1-.237a3.1,3.1,0,0,0-1.2.185A.334.334,0,0,1,597.5,254.549Z" transform="translate(-485.579 -236.545)" fill="#011948"/>
        <path id="Path_2072" data-name="Path 2072" d="M591.531,255.313c.437-1.087,2.337-1.192,3.148-.517a.306.306,0,0,1-.134.508,6.962,6.962,0,0,1-1.466.014,4.867,4.867,0,0,0-1.173.369A.306.306,0,0,1,591.531,255.313Z" transform="translate(-491.081 -236.43)" fill="#011948"/>
        <path id="Path_2073" data-name="Path 2073" d="M596.416,281.79c1.289,3.3,1.941,6.853,3.3,10.383,2.47,6.419,4.661,12.944,7.193,19.34,2.973,7.512,4.938,15.256,9.791,21.856,4.1,5.571,10.766,8.8,16.779,11.837,6.956,3.516,14.1,6.6,21.162,9.97.85.406,6.363,3.032,6.363,3.032,3.917,5.216-.885,10.793-.885,10.793s-2.052-.5-5.371-1.4a285.67,285.67,0,0,1-35.977-12.707c-6.493-2.748-11.557-5.268-16.312-10.612a98.61,98.61,0,0,1-14.206-21.724c-2.106-4.218-4.012-8.533-5.817-12.885-3.306-7.977-6.344-16.3-6.381-24.931-.019-4.941,1.628-10.715,6.281-12.374,3.16-1.126,6.783.128,9.3,2.349A17.534,17.534,0,0,1,596.416,281.79Z" transform="translate(-505.684 -219.829)" fill="#f5a784"/>
        <path id="Path_2074" data-name="Path 2074" d="M657.734,326c.719.247,10.046,7.446,19.844,10.55,0,0,18.109-26.21,21.162-35.5,3.557-10.824,5.766-21.351-.813-25.2s-13.745,6.579-19.369,15.517C672.232,301.424,657.734,326,657.734,326Z" transform="translate(-428.525 -216.913)" fill="#542843"/>
        <path id="Path_2075" data-name="Path 2075" d="M640.4,326.034c-3.111,1.984-6.612,4.006-8.4,4.162a5.057,5.057,0,0,1-1.283-.369,1.727,1.727,0,0,1-.331-.156,7.222,7.222,0,0,1-2.139-1.536,2.222,2.222,0,0,1-.175-.195,7.437,7.437,0,0,1-1.284-2.081,1.091,1.091,0,0,1-.078-.233,8.9,8.9,0,0,1-.564-2.256s3.578-2.353,6.262-4.551a4.973,4.973,0,0,0,1.614,2.139c.953.72,2.022,1.245,3.034,1.867A9.445,9.445,0,0,1,640.4,326.034Z" transform="translate(-458.363 -175.548)" fill="#e0855c"/>
        <path id="Path_2076" data-name="Path 2076" d="M618.077,326.31s2.95,1.122,6.466,2.9,11.19,5.77,14.082,5.647a7.056,7.056,0,0,0,1.268-.558,2.623,2.623,0,0,0,.321-.2,7.178,7.178,0,0,0,1.993-1.863c.047-.062.1-.132.15-.206a7.026,7.026,0,0,0,1.05-2.314c.019-.078.035-.156.052-.233a10.081,10.081,0,0,0,.282-2.4s-7.915-3.87-9.943-6.04c0,0,5.328,1.071,6.427-.23l.179-1.153s-5.6-1.809-8.026-2.841c-5.89-2.514-12.018.305-12.018.305S615.5,322.481,618.077,326.31Z" transform="translate(-466.698 -178.417)" fill="#f5a784"/>
        <path id="Path_2077" data-name="Path 2077" d="M635.868,325.688l.052-.233a88.016,88.016,0,0,1-10.507-5.4c-.066-.037-.144.058-.088.115A28.415,28.415,0,0,0,635.868,325.688Z" transform="translate(-459.159 -174.385)" fill="#e0855c"/>
        <path id="Path_2078" data-name="Path 2078" d="M635.2,326.966c.047-.062.1-.134.15-.206a90.021,90.021,0,0,1-10.513-5.387c-.066-.035-.144.06-.082.105A28.122,28.122,0,0,0,635.2,326.966Z" transform="translate(-459.696 -173.143)" fill="#e0855c"/>
        <path id="Path_2079" data-name="Path 2079" d="M633.643,327.906a2.224,2.224,0,0,0,.321-.2,94.464,94.464,0,0,1-9.922-5.14c-.062-.045-.138.051-.082.105A27.124,27.124,0,0,0,633.643,327.906Z" transform="translate(-460.449 -172.02)" fill="#e0855c"/>
        <path id="Path_2080" data-name="Path 2080" d="M616.727,487.3c-3.812-.6-7.2-2.042-9.218-4.862-1.731-2.431,6.126-88.483-6.534-147.777,0,0,13.263,16.044,15.383,49.142C617.933,408.426,617.194,461.691,616.727,487.3Z" transform="translate(-482.144 -160.579)" fill="#011236"/>
      </g>
    </g>
  </g>
</svg>
