<svg xmlns="http://www.w3.org/2000/svg" xmlns:xlink="http://www.w3.org/1999/xlink" width="284.319" height="99.378" viewBox="0 0 284.319 99.378">
  <defs>
    <linearGradient id="linear-gradient" x1="0.234" y1="-0.004" x2="0.684" y2="0.848" gradientUnits="objectBoundingBox">
      <stop offset="0" stop-color="#fff"/>
      <stop offset="0.993" stop-color="#a2a2a2"/>
    </linearGradient>
    <linearGradient id="linear-gradient-2" x1="0.638" y1="0.798" x2="0.347" y2="0.297" xlink:href="#linear-gradient"/>
    <linearGradient id="linear-gradient-3" x1="0.327" y1="-0.76" x2="0.608" y2="1.422" xlink:href="#linear-gradient"/>
    <linearGradient id="linear-gradient-4" x1="0.259" y1="-0.106" x2="0.558" y2="0.748" xlink:href="#linear-gradient"/>
    <linearGradient id="linear-gradient-5" x1="-0.526" y1="7.103" x2="3.573" y2="14.832" xlink:href="#linear-gradient"/>
    <linearGradient id="linear-gradient-6" x1="1.226" y1="10.406" x2="5.325" y2="18.135" xlink:href="#linear-gradient"/>
    <linearGradient id="linear-gradient-7" x1="0.553" y1="11.936" x2="2.058" y2="22.707" xlink:href="#linear-gradient"/>
    <linearGradient id="linear-gradient-8" x1="0.401" y1="2.128" x2="1.386" y2="4.315" xlink:href="#linear-gradient"/>
    <linearGradient id="linear-gradient-9" x1="-0.509" y1="0.5" x2="1.509" y2="0.5" xlink:href="#linear-gradient"/>
    <linearGradient id="linear-gradient-10" x1="0" y1="0.5" x2="1" y2="0.5" xlink:href="#linear-gradient"/>
  </defs>
  <g id="Group_12" data-name="Group 12" transform="translate(-63.413 -233.898)">
    <ellipse id="Ellipse_1" data-name="Ellipse 1" cx="51.638" cy="49.689" rx="51.638" ry="49.689" transform="translate(63.413 233.898)" fill="#a11a2e"/>
    <path id="Path_1" data-name="Path 1" d="M187.459,609.3l3.2,2.783-9.574,13.006-3.345-2.79" transform="translate(-95.785 -314.521)" fill="url(#linear-gradient)"/>
    <g id="Group_5" data-name="Group 5" transform="translate(107.745 246.584)">
      <g id="Group_4" data-name="Group 4" transform="translate(0 0)">
        <g id="Group_2" data-name="Group 2" transform="translate(0 16.054)">
          <path id="Path_2" data-name="Path 2" d="M434.028,450.321a15.991,15.991,0,0,0-10.2,3.689,14.383,14.383,0,0,1,6.777-1.7,13.99,13.99,0,0,1,14,14.382,14.708,14.708,0,0,1-14.6,14.382,14.2,14.2,0,0,1-2.955-.31,15.475,15.475,0,0,0,6.313,1.335A16.251,16.251,0,0,0,449.5,466.212,15.457,15.457,0,0,0,434.028,450.321Z" transform="translate(-409.709 -443.961)" fill="url(#linear-gradient-2)"/>
          <g id="Group_1" data-name="Group 1">
            <path id="Path_3" data-name="Path 3" d="M396.179,637.022a18.891,18.891,0,0,1-2.29,1.55,20.862,20.862,0,0,0,17,2.8,19,19,0,0,1-2.462.165A18.792,18.792,0,0,1,396.179,637.022Z" transform="translate(-384.624 -600.383)" fill="url(#linear-gradient-3)"/>
            <path id="Path_4" data-name="Path 4" d="M357.612,411.108a20.853,20.853,0,0,0-17.324,32.461,12.344,12.344,0,0,0,2.891-2.809,18.875,18.875,0,0,1,33.6-17.008A20.856,20.856,0,0,0,357.612,411.108Z" transform="translate(-336.76 -411.108)" fill="url(#linear-gradient-4)"/>
          </g>
        </g>
        <g id="Group_3" data-name="Group 3" transform="translate(7.653)">
          <path id="Path_5" data-name="Path 5" d="M510.31,319.877l-3.6-2.963-1.441,1.441,1.85,1.522Z" transform="translate(-485.591 -316.136)" fill="url(#linear-gradient-5)"/>
          <path id="Path_6" data-name="Path 6" d="M387.139,319.877l1.85-1.522-1.441-1.441-3.6,2.963Z" transform="translate(-383.947 -316.136)" fill="url(#linear-gradient-6)"/>
          <path id="Path_7" data-name="Path 7" d="M419.953,314.245h9.477l2.126-2.126H417.827Z" transform="translate(-412.332 -312.119)" fill="url(#linear-gradient-7)"/>
          <path id="Path_8" data-name="Path 8" d="M413.269,346.826l-7.317,7.3-7.31-7.3h-3.177l10.487,10.469,10.494-10.469Z" transform="translate(-393.597 -341.197)" fill="url(#linear-gradient-8)"/>
        </g>
      </g>
    </g>
    <rect id="Rectangle_2" data-name="Rectangle 2" width="6.543" height="12.823" transform="matrix(0.772, 0.636, -0.636, 0.772, 87.342, 298.835)" fill="url(#linear-gradient-9)"/>
    <path id="Path_9" data-name="Path 9" d="M171.871,635.2l-7.564,9.914S169.8,647.41,171.871,635.2Z" transform="translate(-84.531 -336.221)" fill="#fff"/>
    <path id="Path_10" data-name="Path 10" d="M214.154,416.376a19.564,19.564,0,1,0,19.564,19.564A19.564,19.564,0,0,0,214.154,416.376Zm0,35.167a15.6,15.6,0,1,1,15.6-15.6A15.6,15.6,0,0,1,214.154,451.543Z" transform="translate(-109.902 -152.883)" fill="url(#linear-gradient-10)"/>
    <path id="Path_11" data-name="Path 11" d="M208.178,452.884a16.34,16.34,0,0,0-4.829,20.531S200.584,461.67,208.178,452.884Z" transform="translate(-115.736 -183.47)" fill="#d6d7d9"/>
    <path id="Path_12" data-name="Path 12" d="M370.93,440.8s15.993,9.718,6.568,25.122C377.5,465.922,384.1,451.579,370.93,440.8Z" transform="translate(-257.643 -173.346)" fill="#e5e5e5"/>
    <g id="Group_11" data-name="Group 11" transform="translate(176.895 236.955)">
      <path id="Path_13" data-name="Path 13" d="M818.959,284.976V255.283h10.76q5.832,0,8.656,2a7.253,7.253,0,0,1,1.694,9.631,8.953,8.953,0,0,1-4.025,2.844,9.237,9.237,0,0,1,3.019,1.273,6.3,6.3,0,0,1,1.766,1.776,6.231,6.231,0,0,1,.842,2.033,9.96,9.96,0,0,1,.226,2.084A6.934,6.934,0,0,1,839.1,283q-2.793,1.971-8.891,1.971Zm5.976-17.413h5.729a7.21,7.21,0,0,0,1.776-.216,4.773,4.773,0,0,0,1.52-.667,3.308,3.308,0,0,0,1.058-1.16,3.42,3.42,0,0,0,.39-1.674,3.325,3.325,0,0,0-1.448-2.926,6.4,6.4,0,0,0-3.707-1h-5.318Zm0,12.773h5.4a6.541,6.541,0,0,0,4.1-1.088,3.829,3.829,0,0,0,.709-5.124,4.124,4.124,0,0,0-1.838-1.345,7.235,7.235,0,0,0-2.639-.452h-5.729Z" transform="translate(-809.905 -254.872)" fill="#a11a2e" stroke="#a11a2e" stroke-miterlimit="10" stroke-width="1"/>
      <path id="Path_14" data-name="Path 14" d="M1018.877,284.976h-6.222l-4.826-11.438h-6.017v11.438h-5.975V255.283h12.526a13,13,0,0,1,5.811,1.129,7.366,7.366,0,0,1,3.327,3.132,10.75,10.75,0,0,1,.339,8.563,8,8,0,0,1-1.91,2.68,10.973,10.973,0,0,1-2.577,1.746ZM1007.3,268.918a5.41,5.41,0,0,0,3.809-1.294,4.317,4.317,0,0,0,1.407-3.327,4.1,4.1,0,0,0-1.355-3.244,5.007,5.007,0,0,0-3.429-1.191h-5.914v9.056Z" transform="translate(-958.096 -254.872)" fill="#a11a2e" stroke="#a11a2e" stroke-miterlimit="10" stroke-width="1"/>
      <path id="Path_15" data-name="Path 15" d="M1172.084,255.283h5.976v29.693h-5.976Z" transform="translate(-1105.759 -254.872)" fill="#a11a2e" stroke="#a11a2e" stroke-miterlimit="10" stroke-width="1"/>
      <path id="Path_16" data-name="Path 16" d="M1254.962,283.266a13.224,13.224,0,0,1-7.095-1.858,12.231,12.231,0,0,1-4.641-5.267,18.464,18.464,0,0,1-1.632-8.05,18.1,18.1,0,0,1,1.715-8.162,12.636,12.636,0,0,1,4.795-5.308,13.585,13.585,0,0,1,7.187-1.869,13.279,13.279,0,0,1,4.826.842,12.091,12.091,0,0,1,3.789,2.3,11.08,11.08,0,0,1,2.526,3.3,9.352,9.352,0,0,1,1,3.809H1261.1a6.839,6.839,0,0,0-1.058-2.587,6.045,6.045,0,0,0-2.023-1.879,5.666,5.666,0,0,0-2.875-.708,6.531,6.531,0,0,0-3.573,1.016,6.744,6.744,0,0,0-2.526,3.234,15.452,15.452,0,0,0-.924,5.852,16.727,16.727,0,0,0,.606,4.887,8.174,8.174,0,0,0,1.633,3.091,5.749,5.749,0,0,0,2.341,1.612,7.89,7.89,0,0,0,2.69.472,5.887,5.887,0,0,0,4.127-1.581,5.729,5.729,0,0,0,1.17-1.53,5.3,5.3,0,0,0,.555-1.633l.226-1.807h-6.14V267.29l12.424.062v15.5h-4.087v-3.881a14,14,0,0,1-1.879,2,9.124,9.124,0,0,1-2.772,1.643A11.171,11.171,0,0,1,1254.962,283.266Z" transform="translate(-1163.996 -252.751)" fill="#a11a2e" stroke="#a11a2e" stroke-miterlimit="10" stroke-width="1"/>
      <path id="Path_17" data-name="Path 17" d="M1461.122,272.224h-13v12.752h-5.976V255.283h5.976v11.91h13v-11.91h6v29.693h-6Z" transform="translate(-1332.023 -254.872)" fill="#a11a2e" stroke="#a11a2e" stroke-miterlimit="10" stroke-width="1"/>
      <path id="Path_18" data-name="Path 18" d="M1621.433,260.622v-5.339h23.759v5.339h-8.769v24.354h-6.017V260.622Z" transform="translate(-1482.231 -254.872)" fill="#a11a2e" stroke="#a11a2e" stroke-miterlimit="10" stroke-width="1"/>
      <g id="Group_9" data-name="Group 9" transform="translate(0 39.244)">
        <g id="Group_6" data-name="Group 6" transform="translate(65.77)">
          <path id="Path_19" data-name="Path 19" d="M1200.031,503.749a17.936,17.936,0,0,0,3.535-1.892,14.705,14.705,0,0,1,3.649-1.788,7.707,7.707,0,0,1,4.086-.063,12.667,12.667,0,0,1,3.7,1.745,39.478,39.478,0,0,0,7.04,3.8,14.593,14.593,0,0,0,3.82.974,7.582,7.582,0,0,0,3.777-.525,6.18,6.18,0,0,0,2.81-2.452,5.779,5.779,0,0,0,.817-3.583,4.586,4.586,0,0,0-1.641-3.156,4.54,4.54,0,0,0-3.371-1,3.891,3.891,0,0,0-1.673.549,3.685,3.685,0,0,0-1.2,1.269,3.493,3.493,0,0,0-.449,1.7,3.2,3.2,0,0,0,.442,1.69,2.9,2.9,0,0,0,1.327,1.122,2.85,2.85,0,0,0,1.765.138,2.327,2.327,0,0,0,1.421-1.026,2.4,2.4,0,0,0,.3-1.791.156.156,0,0,1,.3-.085,2.711,2.711,0,0,1-.17,2.115,2.8,2.8,0,0,1-1.677,1.395,3.571,3.571,0,0,1-3.97-1.406,3.885,3.885,0,0,1-.478-1.034,4.449,4.449,0,0,1,1.833-4.953,4.938,4.938,0,0,1,2.114-.734,5.481,5.481,0,0,1,4.146,1.268,5.58,5.58,0,0,1,1.923,3.851,6.468,6.468,0,0,1-.175,2.155,7.205,7.205,0,0,1-.858,1.969,6.985,6.985,0,0,1-3.24,2.695,8.281,8.281,0,0,1-4.141.478,16.547,16.547,0,0,1-3.959-1.088,39.77,39.77,0,0,1-7.1-3.926,12.728,12.728,0,0,0-3.543-1.731,7.313,7.313,0,0,0-3.883-.034c-2.588.655-4.639,2.64-7.246,3.451a.05.05,0,0,1-.063-.033A.052.052,0,0,1,1200.031,503.749Z" transform="translate(-1194.913 -494.724)" fill="#a11a2e" stroke="#a11a2e" stroke-miterlimit="10" stroke-width="1"/>
          <path id="Path_20" data-name="Path 20" d="M1206.848,526.064a28.355,28.355,0,0,0,3.218-2.122,13.252,13.252,0,0,1,3.4-1.846,6.766,6.766,0,0,1,3.862-.116,9.268,9.268,0,0,1,.932.29,5.765,5.765,0,0,1,.9.374,9.452,9.452,0,0,1,.87.435l.833.5a74.815,74.815,0,0,0,6.571,4.02,18.633,18.633,0,0,0,3.55,1.452,7.968,7.968,0,0,0,3.8.216,8.031,8.031,0,0,1-3.833-.1,18.681,18.681,0,0,1-3.607-1.4,69.673,69.673,0,0,1-6.619-3.981l-.817-.5a9.116,9.116,0,0,0-.851-.432,5.564,5.564,0,0,0-.877-.372,9.017,9.017,0,0,0-.906-.289,6.718,6.718,0,0,0-3.749.078,13.185,13.185,0,0,0-3.388,1.763A28.391,28.391,0,0,1,1206.848,526.064Z" transform="translate(-1200.655 -517.37)" fill="#a11a2e" stroke="#a11a2e" stroke-miterlimit="10" stroke-width="1"/>
          <path id="Path_21" data-name="Path 21" d="M1170.2,528.391a.511.511,0,0,0,.638.061.765.765,0,0,0,.328-.581.892.892,0,0,0-.79-.931.96.96,0,0,0-1.035.613,1.24,1.24,0,0,0,.293,1.248,3.408,3.408,0,0,0,2.781.992,7.469,7.469,0,0,0,3.01-1.06c.963-.529,1.9-1.158,2.924-1.668a14.65,14.65,0,0,1,3.207-1.174,6.146,6.146,0,0,1,3.427.214,5.439,5.439,0,0,1,2.664,2.141,5.072,5.072,0,0,1,.826,3.306,4.542,4.542,0,0,1-1.647,2.971,4.052,4.052,0,0,1-3.257.9,3.629,3.629,0,0,1-2.641-2.072,3.022,3.022,0,0,1-.265-1.708,2.907,2.907,0,0,1,.741-1.561,2.871,2.871,0,0,1,1.493-.866,2.348,2.348,0,0,1,2.749,1.648,1.9,1.9,0,0,1-.33,1.681,1.785,1.785,0,0,1-1.557.7,1.531,1.531,0,0,1-1.294-1.089.093.093,0,0,1,.062-.116.1.1,0,0,1,.117.064,1.339,1.339,0,0,0,1.136.946,1.587,1.587,0,0,0,1.371-.634,1.684,1.684,0,0,0,.285-1.494,2.12,2.12,0,0,0-2.489-1.475,2.665,2.665,0,0,0-2.029,2.23,2.753,2.753,0,0,0,.254,1.56,3.351,3.351,0,0,0,2.449,1.9,3.754,3.754,0,0,0,3.009-.86,4.221,4.221,0,0,0,1.514-2.77,4.73,4.73,0,0,0-.793-3.075,5.2,5.2,0,0,0-1.09-1.19,5.075,5.075,0,0,0-1.416-.764,5.711,5.711,0,0,0-3.188-.13,14.169,14.169,0,0,0-3.06,1.2c-.975.512-1.887,1.148-2.875,1.718a12.117,12.117,0,0,1-1.541.759,5.693,5.693,0,0,1-1.725.4,4.579,4.579,0,0,1-1.779-.218,3.346,3.346,0,0,1-1.53-1.006,2.208,2.208,0,0,1-.442-.869,1.622,1.622,0,0,1,.088-1.006,1.491,1.491,0,0,1,.682-.751,1.467,1.467,0,0,1,.993-.131,1.426,1.426,0,0,1,.833.525,1.19,1.19,0,0,1,.235.949,1.093,1.093,0,0,1-.56.775.713.713,0,0,1-.494.069.837.837,0,0,1-.4-.25.087.087,0,0,1,.12-.126Z" transform="translate(-1168.662 -520.713)" fill="#a11a2e" stroke="#a11a2e" stroke-miterlimit="10" stroke-width="1"/>
        </g>
        <g id="Group_7" data-name="Group 7" transform="translate(1.212 6.863)">
          <path id="Path_22" data-name="Path 22" d="M835.166,537.967h-64.1a.463.463,0,0,1,0-.927h64.1a.463.463,0,0,1,0,.927Z" transform="translate(-770.601 -537.04)" fill="#a11a2e" stroke="#a11a2e" stroke-miterlimit="10" stroke-width="1"/>
        </g>
        <path id="Path_23" data-name="Path 23" d="M766.481,531.248a1.675,1.675,0,1,1-1.675-1.674A1.675,1.675,0,0,1,766.481,531.248Z" transform="translate(-763.131 -523.922)" fill="#a11a2e" stroke="#a11a2e" stroke-miterlimit="10" stroke-width="1"/>
        <g id="Group_8" data-name="Group 8" transform="translate(104.097 6.863)">
          <path id="Path_24" data-name="Path 24" d="M1469.546,537.97h-64.1a.463.463,0,1,1,0-.927h64.1a.463.463,0,0,1,0,.927Z" transform="translate(-1404.981 -537.043)" fill="#a11a2e" stroke="#a11a2e" stroke-miterlimit="10" stroke-width="1"/>
        </g>
        <path id="Path_25" data-name="Path 25" d="M1792.758,531.249a1.675,1.675,0,1,1,1.675,1.674A1.675,1.675,0,0,1,1792.758,531.249Z" transform="translate(-1625.771 -523.922)" fill="#a11a2e" stroke="#a11a2e" stroke-miterlimit="10" stroke-width="1"/>
      </g>
      <g id="Group_10" data-name="Group 10" transform="translate(2.019 65.206)">
        <path id="Path_26" data-name="Path 26" d="M775.581,672.568V656.2h4.969l3.879,11.669,3.914-11.669H793.3v16.365h-3.457V660.051l-4.078,12.517h-2.684l-4.055-12.461v12.461Z" transform="translate(-775.581 -655.977)" fill="#a11a2e" stroke="#a11a2e" stroke-miterlimit="10" stroke-width="1"/>
        <path id="Path_27" data-name="Path 27" d="M900.44,672.568l6.07-16.365h3.609l6.059,16.365h-3.41l-1.383-3.792h-6.094l-1.418,3.792Zm5.613-6.678h4.512l-2.238-6.5Z" transform="translate(-880.19 -655.977)" fill="#a11a2e" stroke="#a11a2e" stroke-miterlimit="10" stroke-width="1"/>
        <path id="Path_28" data-name="Path 28" d="M995.817,659.146V656.2h13.559v2.943h-5v13.423h-3.434V659.146Z" transform="translate(-960.099 -655.977)" fill="#a11a2e" stroke="#a11a2e" stroke-miterlimit="10" stroke-width="1"/>
        <path id="Path_29" data-name="Path 29" d="M1106.946,672.568h-3.551l-2.754-6.3h-3.433v6.3h-3.41V656.2h7.149a7.647,7.647,0,0,1,3.317.622,4.145,4.145,0,0,1,1.9,1.726,5.171,5.171,0,0,1,.609,2.541,5.118,5.118,0,0,1-.416,2.179,4.415,4.415,0,0,1-1.09,1.477,6.272,6.272,0,0,1-1.471.962Zm-6.609-8.85a3.156,3.156,0,0,0,2.174-.713,2.342,2.342,0,0,0,.8-1.833,2.222,2.222,0,0,0-.773-1.788,2.92,2.92,0,0,0-1.957-.656h-3.375v4.991Z" transform="translate(-1042.188 -655.977)" fill="#a11a2e" stroke="#a11a2e" stroke-miterlimit="10" stroke-width="1"/>
        <path id="Path_30" data-name="Path 30" d="M1194.379,656.2h3.41v16.365h-3.41Z" transform="translate(-1126.457 -655.977)" fill="#a11a2e" stroke="#a11a2e" stroke-miterlimit="10" stroke-width="1"/>
        <path id="Path_31" data-name="Path 31" d="M1238.816,672.568V656.2h4.969l3.879,11.669,3.914-11.669h4.957v16.365h-3.457V660.051L1249,672.568h-2.684l-4.055-12.461v12.461Z" transform="translate(-1163.687 -655.977)" fill="#a11a2e" stroke="#a11a2e" stroke-miterlimit="10" stroke-width="1"/>
        <path id="Path_32" data-name="Path 32" d="M1374.454,671.625a8.158,8.158,0,0,1-4.154-1.013,6.837,6.837,0,0,1-2.707-2.886,10.972,10.972,0,0,1,.012-8.981,6.954,6.954,0,0,1,2.725-2.914,8.793,8.793,0,0,1,8.227-.006,6.866,6.866,0,0,1,2.7,2.909,11.109,11.109,0,0,1,.012,8.986,6.771,6.771,0,0,1-2.689,2.892A8.079,8.079,0,0,1,1374.454,671.625Zm0-2.716a3.953,3.953,0,0,0,2.15-.572,3.632,3.632,0,0,0,1.4-1.811,8.881,8.881,0,0,0,.492-3.231,9.218,9.218,0,0,0-.5-3.316,3.549,3.549,0,0,0-3.545-2.456,3.847,3.847,0,0,0-2.145.594,3.808,3.808,0,0,0-1.418,1.867,9.129,9.129,0,0,0-.5,3.31,8.69,8.69,0,0,0,.5,3.237,3.681,3.681,0,0,0,1.418,1.805A3.96,3.96,0,0,0,1374.454,668.909Z" transform="translate(-1270.779 -654.807)" fill="#a11a2e" stroke="#a11a2e" stroke-miterlimit="10" stroke-width="1"/>
        <path id="Path_33" data-name="Path 33" d="M1492.431,656.2h3.422v16.365h-3.082l-8.051-11.261v11.261h-3.41V656.2h3.386l7.735,10.831Z" transform="translate(-1366.853 -655.977)" fill="#a11a2e" stroke="#a11a2e" stroke-miterlimit="10" stroke-width="1"/>
        <path id="Path_34" data-name="Path 34" d="M1594.319,656.2h3.41v16.365h-3.41Z" transform="translate(-1461.534 -655.977)" fill="#a11a2e" stroke="#a11a2e" stroke-miterlimit="10" stroke-width="1"/>
        <path id="Path_35" data-name="Path 35" d="M1631.025,672.568l6.07-16.365h3.609l6.059,16.365h-3.41l-1.383-3.792h-6.094l-1.418,3.792Zm5.613-6.678h4.512l-2.239-6.5Z" transform="translate(-1492.287 -655.977)" fill="#a11a2e" stroke="#a11a2e" stroke-miterlimit="10" stroke-width="1"/>
        <path id="Path_36" data-name="Path 36" d="M1743.744,656.2h3.445v13.57h7.359v2.8h-10.8Z" transform="translate(-1586.725 -655.977)" fill="#a11a2e" stroke="#a11a2e" stroke-miterlimit="10" stroke-width="1"/>
      </g>
    </g>
  </g>
</svg>
