<svg xmlns="http://www.w3.org/2000/svg" width="47.183" height="75.493" viewBox="0 0 47.183 75.493">
  <path id="Icon_awesome-mobile-alt" data-name="Icon awesome-mobile-alt" d="M40.106,0H7.077A7.079,7.079,0,0,0,0,7.077V68.415a7.079,7.079,0,0,0,7.077,7.077H40.106a7.079,7.079,0,0,0,7.077-7.077V7.077A7.079,7.079,0,0,0,40.106,0ZM23.592,70.775a4.718,4.718,0,1,1,4.718-4.718A4.713,4.713,0,0,1,23.592,70.775ZM40.106,54.85a1.775,1.775,0,0,1-1.769,1.769H8.847A1.775,1.775,0,0,1,7.077,54.85v-46A1.775,1.775,0,0,1,8.847,7.077H38.336a1.775,1.775,0,0,1,1.769,1.769Z" fill="#a11a2e"/>
</svg>
