<svg xmlns="http://www.w3.org/2000/svg" xmlns:xlink="http://www.w3.org/1999/xlink" width="510.548" height="178.591" viewBox="0 0 510.548 178.591">
  <defs>
    <linearGradient id="linear-gradient" x1="0.234" y1="-0.004" x2="0.684" y2="0.848" gradientUnits="objectBoundingBox">
      <stop offset="0" stop-color="#fff"/>
      <stop offset="0.993" stop-color="#a2a2a2"/>
    </linearGradient>
    <linearGradient id="linear-gradient-2" x1="0.638" y1="0.798" x2="0.347" y2="0.297" xlink:href="#linear-gradient"/>
    <linearGradient id="linear-gradient-3" x1="0.327" y1="-0.76" x2="0.608" y2="1.422" xlink:href="#linear-gradient"/>
    <linearGradient id="linear-gradient-4" x1="0.259" y1="-0.106" x2="0.558" y2="0.748" xlink:href="#linear-gradient"/>
    <linearGradient id="linear-gradient-5" x1="-0.526" y1="7.103" x2="3.573" y2="14.832" xlink:href="#linear-gradient"/>
    <linearGradient id="linear-gradient-6" x1="1.226" y1="10.406" x2="5.325" y2="18.135" xlink:href="#linear-gradient"/>
    <linearGradient id="linear-gradient-7" x1="0.553" y1="11.936" x2="2.058" y2="22.707" xlink:href="#linear-gradient"/>
    <linearGradient id="linear-gradient-8" x1="0.401" y1="2.128" x2="1.386" y2="4.315" xlink:href="#linear-gradient"/>
    <linearGradient id="linear-gradient-9" x1="-0.509" y1="0.5" x2="1.509" y2="0.5" xlink:href="#linear-gradient"/>
    <linearGradient id="linear-gradient-10" x1="0" y1="0.5" x2="1" y2="0.5" xlink:href="#linear-gradient"/>
  </defs>
  <g id="Group_12" data-name="Group 12" transform="translate(-63.413 -233.898)">
    <ellipse id="Ellipse_1" data-name="Ellipse 1" cx="92.798" cy="89.295" rx="92.798" ry="89.295" transform="translate(63.413 233.898)" fill="#a11a2e"/>
    <path id="Path_1" data-name="Path 1" d="M195.207,609.3l5.749,5-17.2,23.374-6.012-5.015" transform="translate(-81.005 -265.991)" fill="url(#linear-gradient)"/>
    <g id="Group_5" data-name="Group 5" transform="translate(143.082 256.696)">
      <g id="Group_4" data-name="Group 4" transform="translate(0 0)">
        <g id="Group_2" data-name="Group 2" transform="translate(0 28.851)">
          <path id="Path_2" data-name="Path 2" d="M442.157,450.321a28.736,28.736,0,0,0-18.327,6.63,25.846,25.846,0,0,1,12.179-3.05,25.14,25.14,0,0,1,25.167,25.846,26.432,26.432,0,0,1-26.24,25.846,25.51,25.51,0,0,1-5.31-.558,27.81,27.81,0,0,0,11.346,2.4,29.2,29.2,0,0,0,28.993-28.557A27.777,27.777,0,0,0,442.157,450.321Z" transform="translate(-398.453 -438.892)" fill="url(#linear-gradient-2)"/>
          <g id="Group_1" data-name="Group 1">
            <path id="Path_3" data-name="Path 3" d="M398,637.022a33.943,33.943,0,0,1-4.115,2.786,37.49,37.49,0,0,0,30.545,5.036,34.121,34.121,0,0,1-4.425.3A33.771,33.771,0,0,1,398,637.022Z" transform="translate(-377.238 -571.178)" fill="url(#linear-gradient-3)"/>
            <path id="Path_4" data-name="Path 4" d="M374.234,411.108A37.476,37.476,0,0,0,343.1,469.443a22.182,22.182,0,0,0,5.2-5.047,33.92,33.92,0,0,1,60.39-30.566A37.48,37.48,0,0,0,374.234,411.108Z" transform="translate(-336.76 -411.108)" fill="url(#linear-gradient-4)"/>
          </g>
        </g>
        <g id="Group_3" data-name="Group 3" transform="translate(13.753)">
          <path id="Path_5" data-name="Path 5" d="M514.329,322.238l-6.473-5.325-2.59,2.589,3.325,2.735Z" transform="translate(-469.907 -315.516)" fill="url(#linear-gradient-5)"/>
          <path id="Path_6" data-name="Path 6" d="M389.684,322.238l3.325-2.735-2.589-2.59-6.473,5.325Z" transform="translate(-383.947 -315.516)" fill="url(#linear-gradient-6)"/>
          <path id="Path_7" data-name="Path 7" d="M421.647,315.94h17.031l3.821-3.821H417.827Z" transform="translate(-407.952 -312.119)" fill="url(#linear-gradient-7)"/>
          <path id="Path_8" data-name="Path 8" d="M427.46,346.826l-13.149,13.11-13.137-13.11h-5.709l18.845,18.814,18.859-18.814Z" transform="translate(-392.108 -336.71)" fill="url(#linear-gradient-8)"/>
        </g>
      </g>
    </g>
    <rect id="Rectangle_2" data-name="Rectangle 2" width="11.757" height="23.044" transform="matrix(0.772, 0.636, -0.636, 0.772, 106.415, 350.595)" fill="url(#linear-gradient-9)"/>
    <path id="Path_9" data-name="Path 9" d="M177.9,635.2,164.307,653.02S174.181,657.139,177.9,635.2Z" transform="translate(-71.488 -284.342)" fill="#fff"/>
    <path id="Path_10" data-name="Path 10" d="M229.748,416.376a35.158,35.158,0,1,0,35.158,35.158A35.158,35.158,0,0,0,229.748,416.376Zm0,63.2a28.04,28.04,0,1,1,28.04-28.04A28.04,28.04,0,0,1,229.748,479.574Z" transform="translate(-92.945 -129.294)" fill="url(#linear-gradient-10)"/>
    <path id="Path_11" data-name="Path 11" d="M213.459,452.884s-19.393,13.456-8.677,36.9C204.782,489.78,199.811,468.673,213.459,452.884Z" transform="translate(-97.878 -155.161)" fill="#d6d7d9"/>
    <path id="Path_12" data-name="Path 12" d="M370.93,440.8s28.74,17.465,11.8,45.147C382.733,485.947,394.594,460.17,370.93,440.8Z" transform="translate(-217.889 -146.599)" fill="#e5e5e5"/>
    <g id="Group_11" data-name="Group 11" transform="translate(267.35 239.393)">
      <path id="Path_13" data-name="Path 13" d="M818.959,308.644V255.283H838.3q10.48,0,15.555,3.6t5.074,10.388a11.861,11.861,0,0,1-2.03,6.919q-2.03,2.934-7.233,5.111a16.6,16.6,0,0,1,5.425,2.288,11.33,11.33,0,0,1,3.174,3.192,11.2,11.2,0,0,1,1.513,3.653,17.9,17.9,0,0,1,.406,3.746q0,7.381-5.019,10.923t-15.979,3.543ZM829.7,277.351h10.3a12.957,12.957,0,0,0,3.192-.388,8.578,8.578,0,0,0,2.731-1.2,5.945,5.945,0,0,0,1.9-2.085,6.146,6.146,0,0,0,.7-3.008,5.976,5.976,0,0,0-2.6-5.259,11.506,11.506,0,0,0-6.661-1.79H829.7Zm0,22.953H839.4q4.871,0,7.362-1.956a6.881,6.881,0,0,0,1.273-9.207,7.41,7.41,0,0,0-3.3-2.417,13,13,0,0,0-4.742-.812H829.7Z" transform="translate(-802.688 -254.545)" fill="#a11a2e" stroke="#a11a2e" stroke-miterlimit="10" stroke-width="1"/>
      <path id="Path_14" data-name="Path 14" d="M1037.241,308.644H1026.06l-8.672-20.555h-10.813v20.555H995.837V255.283h22.51a23.365,23.365,0,0,1,10.443,2.03,13.237,13.237,0,0,1,5.979,5.628,19.32,19.32,0,0,1,.609,15.388,14.367,14.367,0,0,1-3.432,4.816,19.721,19.721,0,0,1-4.631,3.137Zm-20.813-28.858a9.722,9.722,0,0,0,6.846-2.325,7.759,7.759,0,0,0,2.528-5.978,7.365,7.365,0,0,0-2.436-5.831,9,9,0,0,0-6.163-2.14h-10.628v16.274Z" transform="translate(-928.013 -254.545)" fill="#a11a2e" stroke="#a11a2e" stroke-miterlimit="10" stroke-width="1"/>
      <path id="Path_15" data-name="Path 15" d="M1172.084,255.283h10.739v53.361h-10.739Z" transform="translate(-1052.892 -254.545)" fill="#a11a2e" stroke="#a11a2e" stroke-miterlimit="10" stroke-width="1"/>
      <path id="Path_16" data-name="Path 16" d="M1265.618,307.588a23.766,23.766,0,0,1-12.75-3.34,21.98,21.98,0,0,1-8.34-9.466,33.181,33.181,0,0,1-2.933-14.466,32.534,32.534,0,0,1,3.081-14.669,22.709,22.709,0,0,1,8.617-9.539,24.413,24.413,0,0,1,12.916-3.358,23.864,23.864,0,0,1,8.672,1.513,21.73,21.73,0,0,1,6.808,4.133,19.911,19.911,0,0,1,4.539,5.923,16.8,16.8,0,0,1,1.79,6.845h-11.366a12.29,12.29,0,0,0-1.9-4.65,10.863,10.863,0,0,0-3.635-3.376,10.182,10.182,0,0,0-5.166-1.273,11.737,11.737,0,0,0-6.421,1.827,12.121,12.121,0,0,0-4.539,5.812,27.771,27.771,0,0,0-1.661,10.517,30.058,30.058,0,0,0,1.089,8.783,14.686,14.686,0,0,0,2.934,5.554,10.332,10.332,0,0,0,4.207,2.9,14.18,14.18,0,0,0,4.834.849,10.579,10.579,0,0,0,7.417-2.841,10.3,10.3,0,0,0,2.1-2.749,9.527,9.527,0,0,0,1-2.934l.406-3.247h-11.034v-7.454l22.326.111V306.85h-7.344v-6.975a25.143,25.143,0,0,1-3.376,3.6,16.4,16.4,0,0,1-4.982,2.952A20.073,20.073,0,0,1,1265.618,307.588Z" transform="translate(-1102.143 -252.751)" fill="#a11a2e" stroke="#a11a2e" stroke-miterlimit="10" stroke-width="1"/>
      <path id="Path_17" data-name="Path 17" d="M1476.246,285.728h-23.359v22.917h-10.739V255.283h10.739v21.4h23.359v-21.4h10.776v53.361h-10.776Z" transform="translate(-1244.244 -254.545)" fill="#a11a2e" stroke="#a11a2e" stroke-miterlimit="10" stroke-width="1"/>
      <path id="Path_18" data-name="Path 18" d="M1621.433,264.878v-9.595h42.7v9.595h-15.758v43.767h-10.812V264.878Z" transform="translate(-1371.276 -254.545)" fill="#a11a2e" stroke="#a11a2e" stroke-miterlimit="10" stroke-width="1"/>
      <g id="Group_9" data-name="Group 9" transform="translate(0 70.525)">
        <g id="Group_6" data-name="Group 6" transform="translate(118.195)">
          <path id="Path_19" data-name="Path 19" d="M1200.06,510.942a32.23,32.23,0,0,0,6.352-3.4,26.426,26.426,0,0,1,6.558-3.213,13.85,13.85,0,0,1,7.342-.114,22.763,22.763,0,0,1,6.654,3.135,70.951,70.951,0,0,0,12.651,6.832,26.224,26.224,0,0,0,6.865,1.751,13.625,13.625,0,0,0,6.788-.943,11.107,11.107,0,0,0,5.049-4.406,10.386,10.386,0,0,0,1.469-6.44,8.242,8.242,0,0,0-2.949-5.672,8.158,8.158,0,0,0-6.058-1.8,7,7,0,0,0-3.007.987,6.623,6.623,0,0,0-2.151,2.281,6.28,6.28,0,0,0-.808,3.054,5.75,5.75,0,0,0,.794,3.038,5.215,5.215,0,0,0,2.385,2.017,5.12,5.12,0,0,0,3.172.249,4.182,4.182,0,0,0,2.554-1.844,4.309,4.309,0,0,0,.531-3.218.28.28,0,0,1,.538-.153,4.873,4.873,0,0,1-.306,3.8,5.026,5.026,0,0,1-3.014,2.507,6.418,6.418,0,0,1-7.134-2.527,6.985,6.985,0,0,1-.859-1.859,7.994,7.994,0,0,1,3.294-8.9,8.873,8.873,0,0,1,3.8-1.319,9.849,9.849,0,0,1,7.451,2.278,10.027,10.027,0,0,1,3.456,6.921,11.625,11.625,0,0,1-.314,3.872,12.947,12.947,0,0,1-1.542,3.539,12.552,12.552,0,0,1-5.823,4.843,14.882,14.882,0,0,1-7.443.859,29.737,29.737,0,0,1-7.116-1.955,71.473,71.473,0,0,1-12.762-7.055,22.873,22.873,0,0,0-6.366-3.112,13.142,13.142,0,0,0-6.978-.062c-4.65,1.177-8.337,4.744-13.021,6.2a.091.091,0,0,1-.114-.06A.094.094,0,0,1,1200.06,510.942Z" transform="translate(-1190.862 -494.724)" fill="#a11a2e" stroke="#a11a2e" stroke-miterlimit="10" stroke-width="1"/>
          <path id="Path_20" data-name="Path 20" d="M1206.848,529.5a50.956,50.956,0,0,0,5.782-3.813,23.818,23.818,0,0,1,6.109-3.318,12.16,12.16,0,0,1,6.941-.208,16.65,16.65,0,0,1,1.675.521,10.366,10.366,0,0,1,1.615.673,17.014,17.014,0,0,1,1.564.782l1.5.9a134.432,134.432,0,0,0,11.809,7.224,33.487,33.487,0,0,0,6.38,2.609,14.318,14.318,0,0,0,6.832.388,14.433,14.433,0,0,1-6.888-.172,33.564,33.564,0,0,1-6.481-2.511,125.178,125.178,0,0,1-11.9-7.154l-1.469-.9a16.367,16.367,0,0,0-1.53-.776,10,10,0,0,0-1.577-.668,16.22,16.22,0,0,0-1.629-.519,12.073,12.073,0,0,0-6.738.14,23.693,23.693,0,0,0-6.089,3.168A51.011,51.011,0,0,1,1206.848,529.5Z" transform="translate(-1195.718 -513.876)" fill="#a11a2e" stroke="#a11a2e" stroke-miterlimit="10" stroke-width="1"/>
          <path id="Path_21" data-name="Path 21" d="M1171.421,530.5a.919.919,0,0,0,1.146.11,1.376,1.376,0,0,0,.59-1.045,1.6,1.6,0,0,0-1.42-1.673,1.724,1.724,0,0,0-1.859,1.1,2.228,2.228,0,0,0,.527,2.243,6.125,6.125,0,0,0,5,1.782,13.422,13.422,0,0,0,5.409-1.906c1.73-.951,3.423-2.08,5.255-3a26.332,26.332,0,0,1,5.763-2.11,11.046,11.046,0,0,1,6.158.384,9.775,9.775,0,0,1,4.788,3.847,9.114,9.114,0,0,1,1.485,5.941,8.161,8.161,0,0,1-2.959,5.34,7.281,7.281,0,0,1-5.853,1.624,6.521,6.521,0,0,1-4.747-3.724,5.43,5.43,0,0,1-.477-3.069,5.225,5.225,0,0,1,1.333-2.8,5.159,5.159,0,0,1,2.683-1.557,4.219,4.219,0,0,1,4.939,2.962,3.408,3.408,0,0,1-.593,3.022,3.209,3.209,0,0,1-2.8,1.262,2.752,2.752,0,0,1-2.325-1.957.168.168,0,0,1,.112-.209.172.172,0,0,1,.21.114,2.406,2.406,0,0,0,2.042,1.7,2.851,2.851,0,0,0,2.465-1.139,3.027,3.027,0,0,0,.512-2.685,3.81,3.81,0,0,0-4.473-2.651,4.789,4.789,0,0,0-3.646,4.008,4.947,4.947,0,0,0,.456,2.8,6.021,6.021,0,0,0,4.4,3.412,6.747,6.747,0,0,0,5.407-1.545,7.584,7.584,0,0,0,2.72-4.978,8.5,8.5,0,0,0-1.425-5.526,9.345,9.345,0,0,0-1.958-2.138,9.121,9.121,0,0,0-2.545-1.374,10.263,10.263,0,0,0-5.729-.234,25.46,25.46,0,0,0-5.5,2.148c-1.752.921-3.391,2.063-5.166,3.087a21.757,21.757,0,0,1-2.77,1.365,10.23,10.23,0,0,1-3.1.727,8.227,8.227,0,0,1-3.2-.391,6.012,6.012,0,0,1-2.75-1.808,3.965,3.965,0,0,1-.794-1.561,2.914,2.914,0,0,1,.158-1.808,2.681,2.681,0,0,1,1.225-1.349,2.637,2.637,0,0,1,1.784-.235,2.562,2.562,0,0,1,1.5.944,2.139,2.139,0,0,1,.423,1.706,1.964,1.964,0,0,1-1.007,1.392,1.281,1.281,0,0,1-.887.124,1.5,1.5,0,0,1-.724-.449.157.157,0,0,1,.216-.226Z" transform="translate(-1168.662 -516.703)" fill="#a11a2e" stroke="#a11a2e" stroke-miterlimit="10" stroke-width="1"/>
        </g>
        <g id="Group_7" data-name="Group 7" transform="translate(2.177 12.333)">
          <path id="Path_22" data-name="Path 22" d="M886.63,538.706h-115.2a.833.833,0,0,1,0-1.666h115.2a.833.833,0,0,1,0,1.666Z" transform="translate(-770.601 -537.04)" fill="#a11a2e" stroke="#a11a2e" stroke-miterlimit="10" stroke-width="1"/>
        </g>
        <path id="Path_23" data-name="Path 23" d="M769.151,532.583a3.01,3.01,0,1,1-3.01-3.009A3.01,3.01,0,0,1,769.151,532.583Z" transform="translate(-763.131 -519.417)" fill="#a11a2e" stroke="#a11a2e" stroke-miterlimit="10" stroke-width="1"/>
        <g id="Group_8" data-name="Group 8" transform="translate(187.071 12.334)">
          <path id="Path_24" data-name="Path 24" d="M1521.011,538.708h-115.2a.833.833,0,1,1,0-1.665h115.2a.833.833,0,1,1,0,1.665Z" transform="translate(-1404.981 -537.043)" fill="#a11a2e" stroke="#a11a2e" stroke-miterlimit="10" stroke-width="1"/>
        </g>
        <path id="Path_25" data-name="Path 25" d="M1792.758,532.584a3.01,3.01,0,1,1,3.01,3.009A3.009,3.009,0,0,1,1792.758,532.584Z" transform="translate(-1492.667 -519.417)" fill="#a11a2e" stroke="#a11a2e" stroke-miterlimit="10" stroke-width="1"/>
      </g>
      <g id="Group_10" data-name="Group 10" transform="translate(3.629 117.182)">
        <path id="Path_26" data-name="Path 26" d="M775.581,685.613V656.2h8.929l6.971,20.969,7.034-20.969h8.908v29.41H801.21V663.118l-7.328,22.495h-4.823l-7.287-22.393v22.393Z" transform="translate(-775.581 -655.796)" fill="#a11a2e" stroke="#a11a2e" stroke-miterlimit="10" stroke-width="1"/>
        <path id="Path_27" data-name="Path 27" d="M900.44,685.613l10.909-29.41h6.487l10.888,29.41h-6.129L920.11,678.8H909.159l-2.548,6.814Zm10.088-12h8.108l-4.022-11.674Z" transform="translate(-864.049 -655.796)" fill="#a11a2e" stroke="#a11a2e" stroke-miterlimit="10" stroke-width="1"/>
        <path id="Path_28" data-name="Path 28" d="M995.817,661.491V656.2h24.366v5.288h-8.993v24.122h-6.17V661.491Z" transform="translate(-931.628 -655.796)" fill="#a11a2e" stroke="#a11a2e" stroke-miterlimit="10" stroke-width="1"/>
        <path id="Path_29" data-name="Path 29" d="M1117.426,685.613h-6.381l-4.949-11.329h-6.17v11.329H1093.8V656.2h12.847a13.742,13.742,0,0,1,5.96,1.119,7.45,7.45,0,0,1,3.412,3.1,10.314,10.314,0,0,1,.348,8.481,7.934,7.934,0,0,1-1.959,2.655,11.272,11.272,0,0,1-2.643,1.729Zm-11.878-15.905a5.67,5.67,0,0,0,3.907-1.281,4.208,4.208,0,0,0,1.442-3.295,3.993,3.993,0,0,0-1.39-3.214,5.247,5.247,0,0,0-3.517-1.18h-6.065v8.969Z" transform="translate(-1001.051 -655.796)" fill="#a11a2e" stroke="#a11a2e" stroke-miterlimit="10" stroke-width="1"/>
        <path id="Path_30" data-name="Path 30" d="M1194.379,656.2h6.128v29.41h-6.128Z" transform="translate(-1072.318 -655.796)" fill="#a11a2e" stroke="#a11a2e" stroke-miterlimit="10" stroke-width="1"/>
        <path id="Path_31" data-name="Path 31" d="M1238.816,685.613V656.2h8.929l6.971,20.969,7.034-20.969h8.908v29.41h-6.213V663.118l-7.329,22.495h-4.823l-7.286-22.393v22.393Z" transform="translate(-1103.803 -655.796)" fill="#a11a2e" stroke="#a11a2e" stroke-miterlimit="10" stroke-width="1"/>
        <path id="Path_32" data-name="Path 32" d="M1380.684,685.03a14.66,14.66,0,0,1-7.465-1.82,12.288,12.288,0,0,1-4.865-5.187,19.718,19.718,0,0,1,.021-16.139,12.5,12.5,0,0,1,4.9-5.237,15.8,15.8,0,0,1,14.784-.01,12.339,12.339,0,0,1,4.854,5.227,19.964,19.964,0,0,1,.021,16.149,12.168,12.168,0,0,1-4.833,5.2A14.518,14.518,0,0,1,1380.684,685.03Zm0-4.881a7.1,7.1,0,0,0,3.865-1.027,6.527,6.527,0,0,0,2.517-3.254,15.96,15.96,0,0,0,.884-5.807,16.568,16.568,0,0,0-.895-5.959,6.379,6.379,0,0,0-6.371-4.413,6.912,6.912,0,0,0-3.854,1.068,6.842,6.842,0,0,0-2.548,3.356,16.407,16.407,0,0,0-.905,5.949,15.619,15.619,0,0,0,.905,5.817,6.615,6.615,0,0,0,2.548,3.244A7.116,7.116,0,0,0,1380.684,680.149Z" transform="translate(-1194.371 -654.807)" fill="#a11a2e" stroke="#a11a2e" stroke-miterlimit="10" stroke-width="1"/>
        <path id="Path_33" data-name="Path 33" d="M1501.3,656.2h6.149v29.41h-5.539l-14.468-20.237v20.237h-6.128V656.2h6.086l13.9,19.464Z" transform="translate(-1275.62 -655.796)" fill="#a11a2e" stroke="#a11a2e" stroke-miterlimit="10" stroke-width="1"/>
        <path id="Path_34" data-name="Path 34" d="M1594.319,656.2h6.128v29.41h-6.128Z" transform="translate(-1355.693 -655.796)" fill="#a11a2e" stroke="#a11a2e" stroke-miterlimit="10" stroke-width="1"/>
        <path id="Path_35" data-name="Path 35" d="M1631.025,685.613l10.909-29.41h6.486l10.888,29.41h-6.128L1650.7,678.8h-10.951l-2.548,6.814Zm10.088-12h8.108l-4.023-11.674Z" transform="translate(-1381.7 -655.796)" fill="#a11a2e" stroke="#a11a2e" stroke-miterlimit="10" stroke-width="1"/>
        <path id="Path_36" data-name="Path 36" d="M1743.744,656.2h6.191v24.386h13.226v5.024h-19.417Z" transform="translate(-1461.567 -655.796)" fill="#a11a2e" stroke="#a11a2e" stroke-miterlimit="10" stroke-width="1"/>
      </g>
    </g>
  </g>
</svg>
